<!-- Generated by IcoMoon.io -->
<svg version="1.1" xmlns="http://www.w3.org/2000/svg" width="47" height="32" viewBox="0 0 47 32">
<title>footer-form1</title>
<path d="M21.26 26.497c-0.134-0.084-0.218-0.248-0.231-0.406 0.010-0.255 0.215-0.464 0.486-0.481l2.538 0.052c0.255 0.010 0.463 0.214 0.479 0.486-0.010 0.255-0.215 0.464-0.486 0.481l-2.538-0.052c-0.070-0.007-0.168-0.030-0.248-0.080z"></path>
<path d="M15.587 26.399c-0.134-0.084-0.218-0.248-0.231-0.406 0.010-0.255 0.215-0.464 0.486-0.481l2.538 0.052c0.255 0.010 0.463 0.214 0.479 0.486-0.010 0.255-0.215 0.464-0.486 0.481l-2.538-0.052c-0.097-0.023-0.168-0.030-0.248-0.080z"></path>
<path d="M19.892 24.748c-0.134-0.084-0.218-0.248-0.231-0.406l0.058-2.541c0.010-0.255 0.215-0.464 0.486-0.481 0.255 0.010 0.463 0.214 0.479 0.486l-0.058 2.541c-0.010 0.255-0.215 0.464-0.486 0.481-0.097-0.023-0.194-0.047-0.248-0.080z"></path>
<path d="M19.773 30.429c-0.134-0.084-0.218-0.248-0.231-0.406l0.041-2.215c0.010-0.255 0.215-0.464 0.486-0.481 0.255 0.010 0.463 0.214 0.479 0.486l-0.041 2.215c-0.010 0.255-0.215 0.464-0.486 0.481-0.097-0.023-0.168-0.030-0.248-0.080z"></path>
<path d="M4.207 10.92c-0.075-0.047-0.122-0.139-0.13-0.228 0.006-0.143 0.121-0.261 0.273-0.27l1.427 0.029c0.143 0.005 0.26 0.12 0.269 0.273-0.006 0.143-0.121 0.261-0.273 0.27l-1.427-0.029c-0.040-0.004-0.094-0.017-0.139-0.045z"></path>
<path d="M1.020 10.864c-0.075-0.047-0.122-0.139-0.13-0.228 0.006-0.143 0.121-0.261 0.273-0.27l1.427 0.029c0.143 0.005 0.26 0.12 0.269 0.273-0.006 0.143-0.121 0.261-0.273 0.27l-1.427-0.029c-0.055-0.013-0.094-0.017-0.139-0.045z"></path>
<path d="M3.439 9.936c-0.075-0.047-0.122-0.139-0.13-0.228l0.033-1.428c0.006-0.143 0.121-0.261 0.273-0.27 0.143 0.005 0.26 0.12 0.269 0.273l-0.033 1.428c-0.006 0.143-0.121 0.261-0.273 0.27-0.055-0.013-0.109-0.026-0.139-0.045z"></path>
<path d="M3.372 13.13c-0.075-0.047-0.122-0.139-0.13-0.228l0.023-1.245c0.006-0.143 0.121-0.261 0.273-0.27 0.143 0.005 0.26 0.12 0.269 0.273l-0.023 1.245c-0.006 0.143-0.121 0.261-0.273 0.27-0.055-0.013-0.094-0.017-0.139-0.045z"></path>
<path d="M15.93 13.252c-0.115-0.072-0.187-0.212-0.198-0.347 0.009-0.218 0.184-0.397 0.417-0.412l2.173 0.045c0.218 0.008 0.396 0.183 0.41 0.416-0.009 0.218-0.184 0.397-0.416 0.412l-2.173-0.045c-0.060-0.006-0.143-0.026-0.212-0.069z"></path>
<path d="M11.075 13.168c-0.115-0.072-0.186-0.212-0.198-0.347 0.009-0.218 0.184-0.397 0.416-0.412l2.173 0.045c0.218 0.008 0.396 0.183 0.41 0.416-0.009 0.218-0.184 0.397-0.416 0.412l-2.173-0.045c-0.083-0.020-0.144-0.026-0.212-0.069z"></path>
<path d="M14.759 11.755c-0.115-0.072-0.187-0.212-0.198-0.348l0.050-2.176c0.009-0.218 0.184-0.397 0.416-0.412 0.218 0.008 0.396 0.183 0.41 0.416l-0.050 2.176c-0.009 0.218-0.184 0.397-0.416 0.412-0.083-0.020-0.167-0.040-0.212-0.069z"></path>
<path d="M14.657 16.62c-0.115-0.072-0.186-0.212-0.198-0.347l0.035-1.897c0.009-0.218 0.184-0.397 0.416-0.412 0.218 0.008 0.396 0.183 0.41 0.416l-0.035 1.897c-0.009 0.218-0.184 0.397-0.416 0.412-0.083-0.020-0.143-0.026-0.212-0.069z"></path>
<path d="M20.549 0.534c0.033 0.028 0.066 0.057 0.084 0.102 4.96 10.443 12.279 19.583 21.766 27.141 0.132 0.114 0.161 0.312 0.064 0.458-0.114 0.132-0.312 0.162-0.458 0.065-9.555-7.646-16.94-16.842-21.937-27.375-0.089-0.163-0.010-0.354 0.153-0.443 0.104-0.054 0.229-0.033 0.328 0.053z"></path>
</svg>
