<!-- Generated by IcoMoon.io -->
<svg version="1.1" xmlns="http://www.w3.org/2000/svg" width="54" height="32" viewBox="0 0 54 32">
<title>footer-form2</title>
<path d="M2.111 17.133c-0.047-0.029-0.076-0.086-0.080-0.141 0.004-0.089 0.075-0.161 0.169-0.167l0.882 0.018c0.089 0.003 0.161 0.074 0.167 0.169-0.004 0.089-0.075 0.161-0.169 0.167l-0.882-0.018c-0.024-0.002-0.058-0.010-0.086-0.028z"></path>
<path d="M0.14 17.099c-0.047-0.029-0.076-0.086-0.080-0.141 0.004-0.089 0.075-0.161 0.169-0.167l0.882 0.018c0.089 0.003 0.161 0.074 0.167 0.169-0.004 0.089-0.075 0.161-0.169 0.167l-0.882-0.018c-0.034-0.008-0.058-0.010-0.086-0.028z"></path>
<path d="M1.636 16.526c-0.047-0.029-0.076-0.086-0.080-0.141l0.020-0.883c0.004-0.089 0.075-0.161 0.169-0.167 0.089 0.003 0.161 0.074 0.167 0.169l-0.020 0.883c-0.004 0.089-0.075 0.161-0.169 0.167-0.034-0.008-0.068-0.016-0.086-0.028z"></path>
<path d="M1.595 18.5c-0.047-0.029-0.076-0.086-0.080-0.141l0.014-0.77c0.004-0.089 0.075-0.161 0.169-0.167 0.089 0.003 0.161 0.074 0.167 0.169l-0.014 0.77c-0.004 0.089-0.075 0.161-0.169 0.167-0.034-0.008-0.058-0.010-0.086-0.028z"></path>
<path d="M49.888 10.379c-0.068-0.042-0.11-0.125-0.117-0.205 0.005-0.129 0.108-0.234 0.246-0.243l1.283 0.026c0.129 0.005 0.234 0.108 0.242 0.246-0.005 0.129-0.108 0.234-0.246 0.243l-1.283-0.026c-0.036-0.003-0.085-0.015-0.125-0.040z"></path>
<path d="M47.018 10.329c-0.068-0.042-0.11-0.125-0.117-0.205 0.005-0.129 0.109-0.234 0.246-0.243l1.283 0.026c0.129 0.005 0.234 0.108 0.242 0.246-0.005 0.129-0.108 0.234-0.246 0.243l-1.284-0.026c-0.049-0.012-0.085-0.015-0.125-0.040z"></path>
<path d="M49.196 9.495c-0.068-0.042-0.11-0.125-0.117-0.205l0.029-1.285c0.005-0.129 0.108-0.234 0.246-0.243 0.129 0.005 0.234 0.108 0.242 0.246l-0.029 1.285c-0.005 0.129-0.108 0.234-0.246 0.243-0.049-0.012-0.099-0.024-0.125-0.040z"></path>
<path d="M49.135 12.368c-0.068-0.042-0.11-0.125-0.117-0.205l0.021-1.12c0.005-0.129 0.108-0.234 0.246-0.243 0.129 0.005 0.234 0.108 0.242 0.246l-0.021 1.12c-0.005 0.129-0.108 0.234-0.246 0.243-0.049-0.012-0.085-0.015-0.125-0.041z"></path>
<path d="M44.704 29.228c-0.018-0.012-0.028-0.017-0.041-0.038l-0.866-1.060c-0.035-0.048-0.049-0.108-0.023-0.17 0.020-0.053 0.074-0.097 0.138-0.096l1.384-0.123c0.055-0.005 0.117 0.021 0.142 0.063 0.035 0.048 0.040 0.103 0.020 0.155-0.236 0.606-0.524 1.193-0.524 1.193-0.020 0.053-0.077 0.082-0.132 0.087-0.027 0.022-0.060 0.014-0.098-0.009zM44.252 28.167l0.499 0.611c0.081-0.171 0.192-0.412 0.298-0.685l-0.797 0.074z"></path>
<path d="M44.13 26.844c-0.037-0.023-0.059-0.050-0.070-0.096-0.419-1.612-0.959-3.196-1.592-4.734-3.736-8.956-11.048-16.039-20.587-19.967-0.080-0.037-0.126-0.13-0.088-0.211s0.131-0.126 0.211-0.089c9.626 3.955 17 11.104 20.763 20.142 0.651 1.55 1.189 3.158 1.611 4.785 0.021 0.091-0.032 0.175-0.113 0.202-0.055 0.005-0.098-0.009-0.135-0.032z"></path>
<path d="M49.088 31.85c-0.038-0.023-0.063-0.065-0.074-0.111-0.468-3.215-1.652-6.941-3.619-11.364-0.333-0.753-0.696-1.5-1.077-2.218-0.042-0.078-0.017-0.18 0.076-0.225 0.078-0.042 0.179-0.018 0.225 0.075 0.384 0.733 0.747 1.48 1.089 2.239 1.983 4.459 3.18 8.207 3.655 11.452 0.011 0.085-0.047 0.179-0.141 0.185-0.064-0.001-0.107-0.015-0.135-0.032z"></path>
<path d="M48.802 22.093c-0.039-0.019-0.070-0.058-0.085-0.102-0.819-3.143-2.407-6.717-4.849-10.896-0.414-0.712-0.857-1.414-1.314-2.086-0.050-0.073-0.037-0.177 0.050-0.232 0.073-0.051 0.177-0.038 0.232 0.050 0.462 0.687 0.906 1.388 1.329 2.105 2.463 4.213 4.065 7.806 4.894 10.979 0.021 0.083-0.026 0.183-0.12 0.199-0.064 0.006-0.108-0.003-0.138-0.017z"></path>
<path d="M41.847 14.484c-0.018-0.012-0.037-0.023-0.050-0.044-3.29-4.833-7.658-8.832-12.987-11.872-0.075-0.047-0.105-0.143-0.067-0.224 0.047-0.075 0.143-0.105 0.224-0.068 5.369 3.078 9.774 7.1 13.091 11.976 0.057 0.075 0.032 0.176-0.042 0.234-0.047 0.035-0.112 0.034-0.168-0.001z"></path>
<path d="M26.129 2.362c-0.102-0.064-0.184-0.141-0.269-0.233-0.177-0.214-0.258-0.499-0.227-0.778 0.066-0.583 0.59-1.008 1.172-0.944s1.005 0.588 0.94 1.171c-0.032 0.279-0.17 0.543-0.394 0.715-0.215 0.178-0.499 0.26-0.777 0.229-0.156-0.020-0.304-0.073-0.444-0.16zM26.769 0.734c-0.196-0.018-0.383 0.033-0.538 0.158s-0.251 0.298-0.27 0.494c-0.019 0.196 0.032 0.384 0.156 0.539s0.297 0.25 0.493 0.269c0.196 0.018 0.383-0.033 0.538-0.158s0.251-0.298 0.269-0.494c0.043-0.402-0.248-0.765-0.649-0.807z"></path>
<path d="M16.985 6.374c-0.2-0.125-0.36-0.275-0.526-0.455-0.346-0.419-0.505-0.975-0.443-1.52 0.128-1.138 1.153-1.97 2.289-1.845s1.964 1.15 1.836 2.288c-0.062 0.545-0.333 1.061-0.77 1.397-0.419 0.347-0.975 0.508-1.519 0.448-0.305-0.038-0.594-0.142-0.867-0.313zM18.235 3.195c-0.382-0.036-0.749 0.065-1.052 0.308s-0.49 0.582-0.526 0.966c-0.037 0.383 0.063 0.75 0.304 1.053s0.58 0.489 0.963 0.525c0.382 0.036 0.749-0.065 1.052-0.308s0.49-0.582 0.526-0.966c0.085-0.785-0.484-1.495-1.267-1.577z"></path>
</svg>
