<!-- Generated by IcoMoon.io -->
<svg version="1.1" xmlns="http://www.w3.org/2000/svg" width="36" height="32" viewBox="0 0 36 32">
<title>footer-form3</title>
<path d="M31.442 6.133c-0.134-0.084-0.218-0.248-0.231-0.406 0.010-0.255 0.215-0.464 0.486-0.481l2.538 0.052c0.255 0.010 0.463 0.214 0.479 0.486-0.010 0.255-0.215 0.464-0.486 0.481l-2.538-0.052c-0.070-0.007-0.168-0.030-0.248-0.080z"></path>
<path d="M25.768 6.035c-0.134-0.084-0.218-0.248-0.231-0.406 0.010-0.255 0.215-0.464 0.486-0.481l2.538 0.052c0.255 0.010 0.463 0.214 0.479 0.486-0.010 0.255-0.215 0.464-0.486 0.481l-2.538-0.052c-0.097-0.023-0.168-0.030-0.248-0.080z"></path>
<path d="M30.074 4.385c-0.134-0.084-0.218-0.248-0.231-0.406l0.058-2.541c0.010-0.255 0.215-0.464 0.486-0.481 0.255 0.010 0.463 0.214 0.479 0.486l-0.058 2.541c-0.010 0.255-0.215 0.464-0.486 0.481-0.097-0.023-0.194-0.047-0.248-0.080z"></path>
<path d="M29.955 10.065c-0.134-0.084-0.218-0.248-0.231-0.406l0.041-2.215c0.010-0.255 0.215-0.464 0.486-0.481 0.255 0.010 0.463 0.214 0.479 0.486l-0.041 2.215c-0.010 0.255-0.215 0.464-0.486 0.481-0.097-0.023-0.168-0.030-0.248-0.080z"></path>
<path d="M14.732 30.591c-0.214-0.134-0.321-0.2-0.468-0.442l-9.954-12.182c-0.401-0.549-0.562-1.246-0.267-1.957 0.228-0.604 0.844-1.115 1.581-1.103l15.906-1.415c0.629-0.055 1.339 0.239 1.633 0.721 0.401 0.549 0.454 1.179 0.226 1.783-2.708 6.965-6.019 13.704-6.019 13.704-0.228 0.604-0.884 0.941-1.513 0.995-0.308 0.255-0.696 0.162-1.125-0.105zM9.544 18.4l5.739 7.014c0.925-1.96 2.212-4.738 3.418-7.865l-9.158 0.851z"></path>
</svg>
