<!-- Generated by IcoMoon.io -->
<svg version="1.1" xmlns="http://www.w3.org/2000/svg" width="32" height="32" viewBox="0 0 34 34">
<title>info</title>
<path d="M14.4 24h3.2v-9.6h-3.2v9.6zM16 11.2c0.453 0 0.834-0.154 1.141-0.461s0.46-0.687 0.459-1.139c0-0.453-0.154-0.834-0.461-1.141s-0.687-0.46-1.139-0.459c-0.453 0-0.834 0.154-1.141 0.461s-0.46 0.687-0.459 1.139c0 0.453 0.154 0.834 0.461 1.141s0.687 0.46 1.139 0.459zM16 32c-2.213 0-4.293-0.42-6.24-1.261s-3.64-1.98-5.080-3.419c-1.44-1.44-2.58-3.133-3.419-5.080s-1.26-4.027-1.261-6.24c0-2.213 0.42-4.293 1.261-6.24s1.98-3.64 3.419-5.080c1.44-1.44 3.133-2.58 5.080-3.419s4.027-1.26 6.24-1.261c2.213 0 4.293 0.42 6.24 1.261s3.64 1.98 5.080 3.419c1.44 1.44 2.58 3.133 3.421 5.080s1.26 4.027 1.259 6.24c0 2.213-0.42 4.293-1.261 6.24s-1.98 3.64-3.419 5.080c-1.44 1.44-3.133 2.58-5.080 3.421s-4.027 1.26-6.24 1.259zM16 28.8c3.573 0 6.6-1.24 9.080-3.72s3.72-5.507 3.72-9.080c0-3.573-1.24-6.6-3.72-9.080s-5.507-3.72-9.080-3.72c-3.573 0-6.6 1.24-9.080 3.72s-3.72 5.507-3.72 9.080c0 3.573 1.24 6.6 3.72 9.080s5.507 3.72 9.080 3.72z"></path>
</svg>
