<!-- Generated by IcoMoon.io -->
<svg version="1.1" xmlns="http://www.w3.org/2000/svg" width="32" height="32" viewBox="0 0 32 32">
<title>letter</title>
<path d="M7.381 12.932c0.27 0.182 1.083 0.722 2.44 1.619s2.397 1.589 3.119 2.074c0.079 0.053 0.248 0.169 0.506 0.347s0.472 0.322 0.643 0.432c0.171 0.11 0.377 0.233 0.619 0.369s0.47 0.239 0.685 0.307c0.214 0.068 0.413 0.102 0.595 0.102h0.024c0.183 0 0.381-0.034 0.595-0.102s0.443-0.17 0.684-0.307c0.242-0.136 0.448-0.259 0.619-0.369s0.385-0.254 0.643-0.432c0.258-0.178 0.427-0.293 0.506-0.347 0.73-0.485 2.587-1.716 5.571-3.693 0.579-0.386 1.063-0.852 1.452-1.398s0.583-1.117 0.583-1.716c0-0.5-0.189-0.928-0.566-1.284s-0.824-0.534-1.339-0.534h-17.524c-0.611 0-1.081 0.197-1.411 0.591s-0.494 0.886-0.494 1.477c0 0.477 0.218 0.994 0.655 1.551s0.901 0.994 1.393 1.313z"></path>
<path d="M25.476 14.148c-2.603 1.682-4.579 2.989-5.928 3.921-0.452 0.318-0.819 0.566-1.101 0.744s-0.657 0.36-1.125 0.545c-0.468 0.186-0.905 0.278-1.309 0.278h-0.024c-0.405 0-0.841-0.093-1.309-0.278s-0.843-0.367-1.125-0.545c-0.282-0.178-0.649-0.426-1.101-0.744-1.072-0.75-3.044-2.057-5.917-3.921-0.452-0.288-0.853-0.617-1.202-0.989v9.023c0 0.5 0.186 0.928 0.559 1.284s0.821 0.534 1.345 0.534h17.524c0.524 0 0.972-0.178 1.345-0.534s0.559-0.784 0.559-1.284v-9.023c-0.341 0.364-0.738 0.693-1.191 0.989z"></path>
</svg>
