<!-- Generated by IcoMoon.io -->
<svg version="1.1" xmlns="http://www.w3.org/2000/svg" width="32" height="32" viewBox="0 0 32 32">
<title>phone</title>
<path d="M26.624 22.163c-0.057-0.17-0.417-0.421-1.079-0.753-0.18-0.104-0.436-0.246-0.767-0.426s-0.632-0.346-0.902-0.497c-0.27-0.151-0.523-0.298-0.76-0.44-0.038-0.028-0.156-0.111-0.355-0.249s-0.367-0.239-0.505-0.305c-0.137-0.066-0.272-0.099-0.405-0.099-0.189 0-0.426 0.135-0.71 0.405s-0.545 0.563-0.781 0.881-0.488 0.611-0.753 0.881c-0.265 0.27-0.483 0.405-0.654 0.405-0.085 0-0.192-0.024-0.32-0.071s-0.225-0.088-0.291-0.121c-0.066-0.033-0.179-0.099-0.341-0.199s-0.251-0.154-0.27-0.163c-1.297-0.72-2.41-1.544-3.338-2.471s-1.752-2.041-2.472-3.338c-0.009-0.019-0.064-0.109-0.163-0.27s-0.166-0.275-0.199-0.341c-0.033-0.066-0.073-0.163-0.121-0.291s-0.071-0.234-0.071-0.32c0-0.17 0.135-0.388 0.405-0.653s0.564-0.516 0.881-0.753c0.317-0.237 0.611-0.497 0.881-0.781s0.405-0.521 0.405-0.71c0-0.133-0.033-0.268-0.099-0.405s-0.168-0.305-0.305-0.504c-0.137-0.199-0.22-0.317-0.249-0.355-0.142-0.237-0.289-0.49-0.44-0.76s-0.317-0.571-0.497-0.902c-0.18-0.331-0.322-0.587-0.426-0.767-0.331-0.663-0.582-1.023-0.753-1.079-0.066-0.028-0.166-0.043-0.298-0.043-0.256 0-0.59 0.047-1.002 0.142s-0.736 0.194-0.973 0.298c-0.474 0.199-0.975 0.776-1.506 1.733-0.483 0.89-0.724 1.771-0.724 2.642 0 0.255 0.017 0.504 0.050 0.746s0.092 0.514 0.178 0.817c0.085 0.303 0.154 0.528 0.206 0.675s0.149 0.409 0.291 0.788c0.142 0.379 0.227 0.611 0.256 0.696 0.331 0.928 0.724 1.757 1.179 2.486 0.748 1.212 1.768 2.465 3.061 3.757s2.545 2.313 3.757 3.061c0.729 0.454 1.558 0.847 2.486 1.179 0.085 0.028 0.317 0.113 0.696 0.256s0.642 0.239 0.788 0.291c0.147 0.052 0.372 0.121 0.675 0.206s0.575 0.145 0.817 0.178c0.242 0.033 0.49 0.050 0.746 0.050 0.871 0 1.752-0.242 2.642-0.725 0.956-0.53 1.534-1.032 1.733-1.506 0.105-0.237 0.204-0.561 0.298-0.973s0.142-0.745 0.142-1.001c0-0.133-0.014-0.232-0.043-0.299z"></path>
</svg>
