<?xml version="1.0" standalone="no"?>
<!DOCTYPE svg PUBLIC "-//W3C//DTD SVG 20010904//EN"
 "http://www.w3.org/TR/2001/REC-SVG-20010904/DTD/svg10.dtd">
<svg version="1.0" xmlns="http://www.w3.org/2000/svg"
 width="700.000000pt" height="700.000000pt" viewBox="0 0 700.000000 700.000000"
 preserveAspectRatio="xMidYMid meet">
<metadata>
Created by potrace 1.14, written by Peter Selinger 2001-2017
</metadata>
<g transform="translate(0.000000,700.000000) scale(0.100000,-0.100000)"
fill="#000000" stroke="none">
<path d="M0 3500 l0 -3500 3500 0 3500 0 0 3500 0 3500 -3500 0 -3500 0 0
-3500z m2380 1280 l0 -300 268 -2 267 -3 3 -162 2 -163 -270 0 -271 0 3 -812
c3 -882 1 -838 60 -925 66 -97 210 -131 422 -101 18 3 24 -16 58 -166 31 -134
36 -171 26 -177 -34 -21 -156 -39 -266 -39 -209 0 -367 58 -499 183 -87 83
-127 143 -162 245 l-26 77 -3 858 -3 857 -189 0 -190 0 0 165 0 165 190 0 190
0 0 300 0 300 195 0 195 0 0 -300z m2978 -455 l2 -150 -637 -836 c-782 -1024
-763 -999 -763 -1010 0 -5 296 -9 720 -9 l720 0 0 -180 0 -180 -985 0 -985 0
0 149 0 149 715 919 c393 505 713 923 712 928 -3 7 -245 11 -695 13 l-692 2 0
180 0 180 943 -2 942 -3 3 -150z"/>
</g>
</svg>
