<svg width="1451" height="448" viewBox="0 0 1451 448" fill="none" xmlns="http://www.w3.org/2000/svg">
<g opacity="0.12">
<path d="M1449.87 371.231C1441.69 367.876 1351.14 323.056 1252.36 273.929C1130.4 213.273 986.19 218.967 867.938 286.567C742.898 358.048 618.948 425.497 608.79 419.276C593.037 409.63 275.977 136.406 119.415 1" stroke="url(#paint0_linear_4_16)"/>
<path d="M1449.37 371.213L1295.63 292.497C1280.61 285.834 1265 279.017 1249.15 272.141C1124.35 218 979.356 225.871 860.155 291.431C737.68 358.792 616.419 420.748 604.987 413.238L116.381 5.54004" stroke="url(#paint1_linear_4_16)"/>
<path d="M1448.86 371.195L1296.23 289.864C1279.93 283.448 1262.83 276.949 1245.42 270.426C1118.19 222.771 972.509 232.769 852.336 296.148C732.42 359.391 613.855 415.969 601.18 407.2L113.342 10.0811" stroke="url(#paint2_linear_4_16)"/>
<path d="M1448.36 371.176L1327.09 303.992C1306.96 292.838 1285.93 283.378 1264.06 276.226C1256.53 273.764 1248.89 271.303 1241.19 268.845C1111.94 227.589 965.655 239.657 844.49 300.705C727.128 359.836 611.26 411.158 597.377 401.161L110.307 14.6211" stroke="url(#paint3_linear_4_16)"/>
<path d="M1447.85 371.158L1337.36 307.567C1310.84 292.304 1282.68 280.019 1253.16 271.959C1247.64 270.451 1242.07 268.949 1236.47 267.45C1105.59 232.45 958.772 246.542 836.601 305.096C721.788 360.124 608.627 406.314 593.57 395.123L107.269 19.1611" stroke="url(#paint4_linear_4_16)"/>
<path d="M1447.34 371.139L1347.28 311.366C1314.63 291.863 1279.4 276.964 1242.28 268.708C1238.64 267.898 1234.98 267.092 1231.31 266.288C1099.17 237.352 951.879 253.41 828.694 309.303C716.422 360.245 605.962 401.436 589.766 389.084L104.234 23.7012" stroke="url(#paint5_linear_4_16)"/>
<path d="M1446.84 371.121L1356.85 315.372C1318.34 291.517 1276.08 274.21 1231.46 266.392C1229.56 266.059 1227.65 265.726 1225.74 265.394C1092.68 242.285 944.972 260.26 820.775 313.312C711.032 360.19 603.264 396.523 585.967 383.046L101.203 28.2417" stroke="url(#paint6_linear_4_16)"/>
<path d="M1446.33 371.103L1366.06 319.571C1321.96 291.264 1265.62 270.748 1213.66 263.989V263.989C1079.96 246.599 938.032 267.087 812.832 317.112C705.605 359.956 600.517 391.575 582.156 377.008L98.1605 32.7827" stroke="url(#paint7_linear_4_16)"/>
<path d="M1445.83 371.084L1374.14 323.424C1325.24 290.923 1261.1 268.764 1202.63 263.503V263.503C1069.99 251.567 931.799 273.439 806.995 319.906C701.542 359.169 597.872 386.692 578.357 370.969L95.1295 37.3223" stroke="url(#paint8_linear_4_16)"/>
<path d="M1445.32 371.066L1381.63 327.25C1328.36 290.607 1256.28 267.105 1191.71 263.688V263.688C1060.48 256.744 925.578 279.728 801.328 322.525C697.571 358.263 595.208 381.801 574.546 364.931L92.087 41.8625" stroke="url(#paint9_linear_4_16)"/>
<path d="M1444.82 371.048L1388.83 331.212C1331.42 290.374 1251.36 265.777 1180.93 264.468V264.468C1050.99 262.054 919.175 286.079 795.236 325.174C693.309 357.327 592.506 376.868 570.746 358.893L89.0562 46.4038" stroke="url(#paint10_linear_4_16)"/>
<path d="M1444.31 371.029L1395.75 335.321C1334.43 290.228 1246.35 264.759 1170.24 265.771V265.771C1041.48 267.484 912.586 292.463 788.764 327.79C688.775 356.318 589.744 371.886 566.939 352.854L86.0173 50.9429" stroke="url(#paint11_linear_4_16)"/>
<path d="M1443.81 371.01L1402.45 339.592C1337.39 290.179 1241.26 264.034 1159.65 267.543V267.543C1031.98 273.032 905.837 298.861 781.979 330.322C707.682 349.195 633.89 360.456 592.192 356.052C571.682 353.886 554.28 341.442 536.648 330.744L82.9828 55.4829" stroke="url(#paint12_linear_4_16)"/>
<path d="M1443.3 370.992L1408.92 344.034C1340.32 290.234 1236.11 263.583 1149.15 269.733V269.733C1022.45 278.693 898.931 305.25 774.925 332.722C704.182 348.395 633.91 356.761 591.999 351.628C568.932 348.803 549.245 334.872 529.193 323.128L79.9441 60.0239" stroke="url(#paint13_linear_4_16)"/>
<path d="M1442.8 370.974L1415.22 348.653C1343.23 290.396 1230.91 263.384 1138.73 272.296V272.296C1012.92 284.461 891.875 311.604 767.652 334.947C700.401 347.584 633.619 353.262 591.8 347.361C566.207 343.75 544.192 328.341 521.684 315.636L76.9095 64.5643" stroke="url(#paint14_linear_4_16)"/>
<path d="M1442.29 370.956L1421.33 353.456C1346.11 290.67 1225.66 263.419 1128.39 275.196V275.196C1003.38 290.333 884.685 317.895 760.213 336.957C696.301 346.745 632.871 349.941 591.413 343.222C563.324 338.67 539.113 321.85 514.109 308.267L73.8747 69.1045" stroke="url(#paint15_linear_4_16)"/>
<path d="M1441.79 370.937L1427.27 358.45C1348.97 291.061 1220.36 263.672 1118.1 278.403V278.403C993.818 296.307 877.37 324.092 752.658 338.72C692.038 345.831 631.924 346.754 591.044 339.24C560.483 333.622 534.002 315.4 506.455 301.022L70.8359 73.645" stroke="url(#paint16_linear_4_16)"/>
<path d="M1441.28 370.918L1433.07 363.636C1351.81 291.57 1215.03 264.124 1107.87 281.886V281.886C984.251 302.378 869.946 330.165 745.038 340.21C687.657 344.825 630.801 343.687 590.693 335.411C557.684 328.601 528.862 308.989 498.724 293.901L67.8012 78.1841" stroke="url(#paint17_linear_4_16)"/>
<path d="M1440.77 370.9L1438.72 369.023C1354.63 292.205 1209.65 264.765 1097.69 285.626V285.626C974.669 308.546 862.409 336.087 737.385 341.411C683.16 343.721 629.473 340.726 590.303 331.73C554.873 323.593 523.684 302.621 490.901 286.913L64.7624 82.7251" stroke="url(#paint18_linear_4_16)"/>
<path d="M1440.27 370.882V370.882C1355.98 291.589 1239.8 257.358 1126.61 281.411C1124.83 281.789 1123.05 282.166 1121.28 282.542C998.962 308.462 854.798 341.822 729.769 342.309C678.572 342.508 627.919 337.852 589.812 328.173C551.991 318.566 518.474 296.296 482.991 280.057L61.7278 87.2656" stroke="url(#paint19_linear_4_16)"/>
<path d="M1439.76 370.863V370.863C1356.57 290.304 1239.75 256.206 1126.96 282.439C1122.48 283.479 1118.03 284.513 1113.59 285.54C991.823 313.693 847.123 347.339 722.227 342.898C673.975 341.182 626.259 335.061 589.328 324.764C549.142 313.56 513.222 290.016 474.981 273.341L58.6888 91.8057" stroke="url(#paint20_linear_4_16)"/>
<path d="M1439.26 370.845V370.845C1357.16 289.04 1239.71 255.033 1127.31 283.319C1120.14 285.124 1113 286.916 1105.91 288.684C984.676 318.946 839.414 352.612 714.812 343.185C669.408 339.75 624.521 332.35 588.852 321.504C546.333 308.575 507.934 283.785 466.879 266.77L55.6543 96.3462" stroke="url(#paint21_linear_4_16)"/>
<path d="M1438.75 370.827V370.827C1357.74 287.795 1239.65 253.842 1127.66 284.064C1117.78 286.729 1107.95 289.373 1098.24 291.969C977.506 324.225 831.695 357.614 707.567 343.18C664.898 338.219 622.715 329.718 588.371 318.391C543.552 303.609 502.601 277.602 458.673 260.351L52.6155 100.887" stroke="url(#paint22_linear_4_16)"/>
<path d="M1438.25 370.808V370.808C1358.32 286.567 1239.6 252.633 1127.99 284.685C1115.38 288.304 1102.84 291.895 1090.49 295.402C970.267 329.542 824.013 362.326 700.549 342.905C660.463 336.6 620.819 327.151 587.824 315.398C540.744 298.629 497.23 271.471 450.372 254.09L49.5806 105.426" stroke="url(#paint23_linear_4_16)"/>
<path d="M1437.75 370.79V370.79C1358.91 285.36 1239.53 251.413 1128.3 285.197C1112.95 289.857 1097.69 294.481 1082.72 298.972C962.999 334.893 816.403 366.738 693.801 342.391C656.151 334.914 618.891 324.661 587.251 312.541C537.951 293.654 491.82 265.397 441.975 247.998L46.5498 109.967" stroke="url(#paint24_linear_4_16)"/>
<path d="M1437.23 370.771V370.771C1359.47 284.17 1239.44 250.176 1128.57 285.603C1110.48 291.386 1092.46 297.13 1074.88 302.676C955.678 340.276 808.889 370.845 687.35 341.673C651.989 333.185 616.96 322.256 586.664 309.823C535.186 288.696 486.355 259.38 433.468 242.078L43.5074 114.507" stroke="url(#paint25_linear_4_16)"/>
<path d="M1436.73 370.753V370.753C1360.04 282.998 1239.36 248.927 1128.84 285.915C1107.96 292.903 1087.17 299.851 1066.97 306.52C948.321 345.7 801.547 374.657 681.269 340.799C648.035 331.444 615.07 319.947 586.082 307.245C532.473 283.757 480.857 253.425 424.877 236.343L40.4764 119.047" stroke="url(#paint26_linear_4_16)"/>
<path d="M1436.23 370.734V370.734C1360.6 281.842 1239.27 247.664 1129.08 286.139C1105.1 294.513 1081.19 302.851 1058.12 310.795C940.557 351.272 794.732 378.169 676.377 340.078C644.83 329.924 613.46 317.852 585.484 304.806C529.794 278.834 475.313 247.533 416.188 230.797L37.4417 123.587" stroke="url(#paint27_linear_4_16)"/>
<path d="M1435.72 370.716V370.716C1361.16 280.704 1239.16 246.391 1129.29 286.284C1101.88 296.239 1074.51 306.166 1048.3 315.542C932.402 357.005 788.489 381.467 672.712 339.666C642.395 328.72 612.141 316.005 584.842 302.49C527.127 273.915 469.721 241.711 407.406 225.451L34.4033 128.128" stroke="url(#paint28_linear_4_16)"/>
<path d="M1435.22 370.697V370.697C1361.7 279.581 1239.05 245.108 1129.48 286.356C1098.54 298.003 1067.61 309.637 1038.25 320.522C924.153 362.815 782.562 384.626 669.589 339.429C640.285 327.705 610.928 314.328 584.162 300.293C524.481 268.999 464.089 235.958 398.542 220.312L31.3685 132.667" stroke="url(#paint29_linear_4_16)"/>
<path d="M1434.71 370.681V370.681C1362.24 278.476 1238.92 243.818 1129.63 286.364C1095.04 299.828 1060.41 313.305 1027.83 325.786C915.723 368.738 776.978 387.705 667.048 339.454C638.541 326.941 609.857 312.856 583.464 298.232C521.877 264.106 458.412 230.283 389.595 215.39L28.3294 137.209" stroke="url(#paint30_linear_4_16)"/>
<path d="M1434.21 370.661V370.661C1362.77 277.384 1238.78 242.517 1129.75 286.307C1091.36 301.728 1052.84 317.197 1016.99 331.362C907.092 374.784 771.781 390.761 665.155 339.833C637.215 326.488 608.961 311.613 582.75 296.297C519.322 259.232 452.697 224.683 380.578 210.689L25.2951 141.749" stroke="url(#paint31_linear_4_16)"/>
<path d="M1433.7 370.643V370.643C1363.29 276.308 1238.62 241.211 1129.85 286.197C1087.48 303.719 1044.87 321.337 1005.69 337.27C898.292 380.949 767 393.872 663.976 340.687C636.354 326.426 608.261 310.638 582.011 294.491C516.81 254.383 446.937 219.166 371.491 206.219L22.2561 146.289" stroke="url(#paint32_linear_4_16)"/>
<path d="M1433.2 370.624V370.624C1363.81 275.247 1238.46 239.898 1129.91 286.035C1083.31 305.846 1036.31 325.817 993.696 343.623C889.165 387.301 762.697 397.126 663.634 342.163C636.054 326.86 607.81 309.979 581.249 292.809C514.347 249.559 441.143 213.733 362.35 201.986L19.2213 150.829" stroke="url(#paint33_linear_4_16)"/>
<path d="M1432.69 370.606V370.606C1364.32 274.201 1238.28 238.581 1129.95 285.828C1078.77 308.145 1027.03 330.705 980.869 350.492C879.703 393.852 758.939 400.64 664.287 344.466C636.427 327.932 607.652 309.698 580.44 291.239C511.911 244.751 435.309 208.39 353.154 197.997L16.1827 155.37" stroke="url(#paint34_linear_4_16)"/>
<path d="M1432.18 370.588V370.588C1364.82 273.168 1238.1 237.258 1129.96 285.576C1073.78 310.678 1016.79 336.13 966.933 358.019C869.813 400.654 755.773 404.524 666.125 347.838C637.631 329.821 607.878 309.884 579.598 289.781C509.519 239.965 429.444 203.137 343.923 194.257L13.1479 159.911" stroke="url(#paint35_linear_4_16)"/>
<path d="M1431.68 370.57V370.57C1365.31 272.149 1237.9 235.929 1129.94 285.283C1068.08 313.56 1005.12 342.326 951.369 366.461C859.261 407.818 753.344 408.975 669.522 352.689C639.962 332.84 608.633 310.693 578.721 288.439C507.172 235.21 423.543 197.979 334.657 190.771L10.1093 164.451" stroke="url(#paint36_linear_4_16)"/>
<path d="M1431.17 370.55V370.55C1365.79 271.142 1237.69 234.597 1129.89 284.953C1061.37 316.961 991.343 349.646 933.484 376.182C847.831 415.463 751.805 414.221 675.014 359.609C643.87 337.46 610.146 312.353 577.814 287.208C504.877 230.487 417.616 192.917 325.376 187.541L7.07476 168.99" stroke="url(#paint37_linear_4_16)"/>
<path d="M1430.67 370.533V370.533C1366.27 270.151 1237.48 233.265 1129.82 284.594C1053.03 321.208 974.162 358.763 912.011 387.835C835.112 423.805 751.541 420.714 683.674 369.71C650.28 344.614 612.873 315.325 576.87 286.089C502.628 225.802 411.662 187.958 316.086 184.575L4.03997 173.532" stroke="url(#paint38_linear_4_16)"/>
<path d="M1430.16 370.514V370.514C1366.73 269.171 1237.24 231.929 1129.71 284.203C1041.64 327.019 950.621 371.186 884.324 402.758C820.198 433.297 753.201 429.2 697.537 385.084C661.142 356.24 617.774 320.556 575.883 285.072C500.423 221.152 405.682 183.099 306.795 181.87L1.00117 178.071" stroke="url(#paint39_linear_4_16)"/>
</g>
<defs>
<linearGradient id="paint0_linear_4_16" x1="1735.35" y1="175.609" x2="-37.6311" y2="883.673" gradientUnits="userSpaceOnUse">
<stop offset="0.09375" stop-color="white"/>
<stop offset="0.875" stop-color="#0F4BA6"/>
</linearGradient>
<linearGradient id="paint1_linear_4_16" x1="1735.39" y1="175.829" x2="-27.5339" y2="899.11" gradientUnits="userSpaceOnUse">
<stop offset="0.09375" stop-color="white"/>
<stop offset="0.875" stop-color="#0F4BA6"/>
</linearGradient>
<linearGradient id="paint2_linear_4_16" x1="1735.43" y1="176.076" x2="-16.6067" y2="914.884" gradientUnits="userSpaceOnUse">
<stop offset="0.09375" stop-color="white"/>
<stop offset="0.875" stop-color="#0F4BA6"/>
</linearGradient>
<linearGradient id="paint3_linear_4_16" x1="1735.47" y1="176.351" x2="-4.79761" y2="930.976" gradientUnits="userSpaceOnUse">
<stop offset="0.09375" stop-color="white"/>
<stop offset="0.875" stop-color="#0F4BA6"/>
</linearGradient>
<linearGradient id="paint4_linear_4_16" x1="1735.5" y1="176.659" x2="7.92806" y2="947.364" gradientUnits="userSpaceOnUse">
<stop offset="0.09375" stop-color="white"/>
<stop offset="0.875" stop-color="#0F4BA6"/>
</linearGradient>
<linearGradient id="paint5_linear_4_16" x1="1735.54" y1="177.006" x2="21.616" y2="964.019" gradientUnits="userSpaceOnUse">
<stop offset="0.09375" stop-color="white"/>
<stop offset="0.875" stop-color="#0F4BA6"/>
</linearGradient>
<linearGradient id="paint6_linear_4_16" x1="1735.58" y1="177.398" x2="36.2979" y2="980.902" gradientUnits="userSpaceOnUse">
<stop offset="0.09375" stop-color="white"/>
<stop offset="0.875" stop-color="#0F4BA6"/>
</linearGradient>
<linearGradient id="paint7_linear_4_16" x1="1735.62" y1="177.842" x2="51.9802" y2="997.969" gradientUnits="userSpaceOnUse">
<stop offset="0.09375" stop-color="white"/>
<stop offset="0.875" stop-color="#0F4BA6"/>
</linearGradient>
<linearGradient id="paint8_linear_4_16" x1="1735.66" y1="178.346" x2="68.6931" y2="1015.16" gradientUnits="userSpaceOnUse">
<stop offset="0.09375" stop-color="white"/>
<stop offset="0.875" stop-color="#0F4BA6"/>
</linearGradient>
<linearGradient id="paint9_linear_4_16" x1="1735.69" y1="179.157" x2="85.2078" y2="1031.79" gradientUnits="userSpaceOnUse">
<stop offset="0.09375" stop-color="white"/>
<stop offset="0.875" stop-color="#0F4BA6"/>
</linearGradient>
<linearGradient id="paint10_linear_4_16" x1="1735.73" y1="181.797" x2="93.2814" y2="1043.81" gradientUnits="userSpaceOnUse">
<stop offset="0.09375" stop-color="white"/>
<stop offset="0.875" stop-color="#0F4BA6"/>
</linearGradient>
<linearGradient id="paint11_linear_4_16" x1="1735.77" y1="184.435" x2="101.731" y2="1055.87" gradientUnits="userSpaceOnUse">
<stop offset="0.09375" stop-color="white"/>
<stop offset="0.875" stop-color="#0F4BA6"/>
</linearGradient>
<linearGradient id="paint12_linear_4_16" x1="1735.81" y1="187.074" x2="110.581" y2="1067.97" gradientUnits="userSpaceOnUse">
<stop offset="0.09375" stop-color="white"/>
<stop offset="0.875" stop-color="#0F4BA6"/>
</linearGradient>
<linearGradient id="paint13_linear_4_16" x1="1735.84" y1="189.714" x2="119.837" y2="1080.11" gradientUnits="userSpaceOnUse">
<stop offset="0.09375" stop-color="white"/>
<stop offset="0.875" stop-color="#0F4BA6"/>
</linearGradient>
<linearGradient id="paint14_linear_4_16" x1="1735.88" y1="192.353" x2="129.523" y2="1092.26" gradientUnits="userSpaceOnUse">
<stop offset="0.09375" stop-color="white"/>
<stop offset="0.875" stop-color="#0F4BA6"/>
</linearGradient>
<linearGradient id="paint15_linear_4_16" x1="1735.92" y1="194.992" x2="139.647" y2="1104.44" gradientUnits="userSpaceOnUse">
<stop offset="0.09375" stop-color="white"/>
<stop offset="0.875" stop-color="#0F4BA6"/>
</linearGradient>
<linearGradient id="paint16_linear_4_16" x1="1735.96" y1="197.631" x2="150.222" y2="1116.63" gradientUnits="userSpaceOnUse">
<stop offset="0.09375" stop-color="white"/>
<stop offset="0.875" stop-color="#0F4BA6"/>
</linearGradient>
<linearGradient id="paint17_linear_4_16" x1="1736" y1="200.269" x2="161.27" y2="1128.81" gradientUnits="userSpaceOnUse">
<stop offset="0.09375" stop-color="white"/>
<stop offset="0.875" stop-color="#0F4BA6"/>
</linearGradient>
<linearGradient id="paint18_linear_4_16" x1="1736.03" y1="202.909" x2="172.799" y2="1140.98" gradientUnits="userSpaceOnUse">
<stop offset="0.09375" stop-color="white"/>
<stop offset="0.875" stop-color="#0F4BA6"/>
</linearGradient>
<linearGradient id="paint19_linear_4_16" x1="1736.07" y1="205.548" x2="184.833" y2="1153.12" gradientUnits="userSpaceOnUse">
<stop offset="0.09375" stop-color="white"/>
<stop offset="0.875" stop-color="#0F4BA6"/>
</linearGradient>
<linearGradient id="paint20_linear_4_16" x1="1736.11" y1="208.187" x2="197.38" y2="1165.22" gradientUnits="userSpaceOnUse">
<stop offset="0.09375" stop-color="white"/>
<stop offset="0.875" stop-color="#0F4BA6"/>
</linearGradient>
<linearGradient id="paint21_linear_4_16" x1="1736.14" y1="210.826" x2="210.465" y2="1177.28" gradientUnits="userSpaceOnUse">
<stop offset="0.09375" stop-color="white"/>
<stop offset="0.875" stop-color="#0F4BA6"/>
</linearGradient>
<linearGradient id="paint22_linear_4_16" x1="1736.18" y1="213.466" x2="224.098" y2="1189.26" gradientUnits="userSpaceOnUse">
<stop offset="0.09375" stop-color="white"/>
<stop offset="0.875" stop-color="#0F4BA6"/>
</linearGradient>
<linearGradient id="paint23_linear_4_16" x1="1736.22" y1="216.104" x2="238.302" y2="1201.16" gradientUnits="userSpaceOnUse">
<stop offset="0.09375" stop-color="white"/>
<stop offset="0.875" stop-color="#0F4BA6"/>
</linearGradient>
<linearGradient id="paint24_linear_4_16" x1="1736.26" y1="218.744" x2="253.095" y2="1212.95" gradientUnits="userSpaceOnUse">
<stop offset="0.09375" stop-color="white"/>
<stop offset="0.875" stop-color="#0F4BA6"/>
</linearGradient>
<linearGradient id="paint25_linear_4_16" x1="1736.29" y1="221.382" x2="268.479" y2="1224.62" gradientUnits="userSpaceOnUse">
<stop offset="0.09375" stop-color="white"/>
<stop offset="0.875" stop-color="#0F4BA6"/>
</linearGradient>
<linearGradient id="paint26_linear_4_16" x1="1736.34" y1="224.021" x2="284.495" y2="1236.15" gradientUnits="userSpaceOnUse">
<stop offset="0.09375" stop-color="white"/>
<stop offset="0.875" stop-color="#0F4BA6"/>
</linearGradient>
<linearGradient id="paint27_linear_4_16" x1="1736.38" y1="226.672" x2="301.037" y2="1247.49" gradientUnits="userSpaceOnUse">
<stop offset="0.09375" stop-color="white"/>
<stop offset="0.875" stop-color="#0F4BA6"/>
</linearGradient>
<linearGradient id="paint28_linear_4_16" x1="1736.41" y1="231.664" x2="296.003" y2="1253.46" gradientUnits="userSpaceOnUse">
<stop offset="0.09375" stop-color="white"/>
<stop offset="0.875" stop-color="#0F4BA6"/>
</linearGradient>
<linearGradient id="paint29_linear_4_16" x1="1736.45" y1="236.749" x2="290.109" y2="1259.22" gradientUnits="userSpaceOnUse">
<stop offset="0.09375" stop-color="white"/>
<stop offset="0.875" stop-color="#0F4BA6"/>
</linearGradient>
<linearGradient id="paint30_linear_4_16" x1="1736.49" y1="241.915" x2="283.509" y2="1264.8" gradientUnits="userSpaceOnUse">
<stop offset="0.09375" stop-color="white"/>
<stop offset="0.875" stop-color="#0F4BA6"/>
</linearGradient>
<linearGradient id="paint31_linear_4_16" x1="1736.52" y1="247.144" x2="276.344" y2="1270.21" gradientUnits="userSpaceOnUse">
<stop offset="0.09375" stop-color="white"/>
<stop offset="0.875" stop-color="#0F4BA6"/>
</linearGradient>
<linearGradient id="paint32_linear_4_16" x1="1736.56" y1="252.429" x2="268.713" y2="1275.49" gradientUnits="userSpaceOnUse">
<stop offset="0.09375" stop-color="white"/>
<stop offset="0.875" stop-color="#0F4BA6"/>
</linearGradient>
<linearGradient id="paint33_linear_4_16" x1="1736.6" y1="257.76" x2="260.711" y2="1280.64" gradientUnits="userSpaceOnUse">
<stop offset="0.09375" stop-color="white"/>
<stop offset="0.875" stop-color="#0F4BA6"/>
</linearGradient>
<linearGradient id="paint34_linear_4_16" x1="1736.63" y1="263.132" x2="252.402" y2="1285.69" gradientUnits="userSpaceOnUse">
<stop offset="0.09375" stop-color="white"/>
<stop offset="0.875" stop-color="#0F4BA6"/>
</linearGradient>
<linearGradient id="paint35_linear_4_16" x1="1736.67" y1="268.538" x2="243.853" y2="1290.64" gradientUnits="userSpaceOnUse">
<stop offset="0.09375" stop-color="white"/>
<stop offset="0.875" stop-color="#0F4BA6"/>
</linearGradient>
<linearGradient id="paint36_linear_4_16" x1="1736.71" y1="273.974" x2="235.105" y2="1295.5" gradientUnits="userSpaceOnUse">
<stop offset="0.09375" stop-color="white"/>
<stop offset="0.875" stop-color="#0F4BA6"/>
</linearGradient>
<linearGradient id="paint37_linear_4_16" x1="1736.75" y1="279.434" x2="226.207" y2="1300.28" gradientUnits="userSpaceOnUse">
<stop offset="0.09375" stop-color="white"/>
<stop offset="0.875" stop-color="#0F4BA6"/>
</linearGradient>
<linearGradient id="paint38_linear_4_16" x1="1736.79" y1="284.92" x2="217.187" y2="1305" gradientUnits="userSpaceOnUse">
<stop offset="0.09375" stop-color="white"/>
<stop offset="0.875" stop-color="#0F4BA6"/>
</linearGradient>
<linearGradient id="paint39_linear_4_16" x1="1736.82" y1="290.423" x2="208.071" y2="1309.65" gradientUnits="userSpaceOnUse">
<stop offset="0.09375" stop-color="white"/>
<stop offset="0.875" stop-color="#0F4BA6"/>
</linearGradient>
</defs>
</svg>
