<svg width="100" height="100" viewBox="0 0 100 100" fill="none" xmlns="http://www.w3.org/2000/svg">
<path fill-rule="evenodd" clip-rule="evenodd" d="M34.55 15.308L19.2687 30.6159L24.9982 36.3548L30.728 42.0936L40.3642 32.4466L50 22.7999L59.6359 32.4466L69.272 42.0936L75.0018 36.3548L80.7313 30.6159L65.4501 15.308C57.0456 6.88859 50.0927 0 50 0C49.9073 0 42.9545 6.88859 34.55 15.308ZM5.64209 44.2613L0 49.9196L5.72881 55.6578L11.458 61.3959L17.1871 55.6578L22.9159 49.9196L17.2738 44.2613C14.1705 41.1492 11.5533 38.6027 11.458 38.6027C11.3626 38.6027 8.74539 41.1492 5.64209 44.2613ZM44.1841 44.2613L38.5421 49.9196L44.2709 55.6578L50 61.3959L55.7291 55.6578L61.458 49.9196L55.8159 44.2613C52.7126 41.1492 50.0954 38.6027 50 38.6027C49.9046 38.6027 47.2874 41.1492 44.1841 44.2613ZM82.7262 44.2613L77.0841 49.9196L82.8129 55.6578L88.5421 61.3959L94.2712 55.6578L100 49.9196L94.3579 44.2613C91.2546 41.1492 88.6374 38.6027 88.5421 38.6027C88.4467 38.6027 85.8295 41.1492 82.7262 44.2613ZM24.9128 63.563L19.27 69.222L34.635 84.6108L50 100L65.3663 84.6098L80.7323 69.2193L75.0022 63.4802L69.272 57.741L59.6359 67.388L50 77.0347L40.4456 67.4696C35.1906 62.2086 30.8154 57.9041 30.7233 57.9041C30.631 57.9041 28.0164 60.4505 24.9128 63.563Z" fill="#9DA3AE"/>
</svg>
