<svg width="86" height="100" viewBox="0 0 86 100" fill="none" xmlns="http://www.w3.org/2000/svg">
<path fill-rule="evenodd" clip-rule="evenodd" d="M0.000997561 28.9112C0.00189517 57.8769 0.0221415 59.7737 0.358148 62.4541C2.2943 77.8971 12.3447 90.9879 26.7841 96.8745C33.6281 99.6646 41.4379 100.628 48.8556 99.5976C64.4753 97.4277 77.661 86.8245 83.1545 72.0164C84.5069 68.3712 85.3601 64.4196 85.6776 60.3314C85.8289 58.3838 85.7507 54.1631 85.5296 52.3439C84.9196 47.3245 83.5787 42.7289 81.4735 38.4421C79.3238 34.0648 76.7131 30.402 73.3073 26.9848C68.0284 21.6884 61.5346 17.8744 54.5051 15.9418C45.3079 13.4133 35.8094 13.9268 26.9533 17.4315L25.6318 17.9544V25.2689C25.6318 31.0944 25.6572 32.5682 25.7565 32.5081C25.8251 32.4667 26.1823 32.239 26.5502 32.0021C31.5643 28.7746 36.9847 27.1789 42.9358 27.1785C47.7487 27.1782 52.0403 28.1914 56.3609 30.348C62.5007 33.4128 67.4979 38.6019 70.3154 44.8384C75.889 57.1758 72.5374 71.6109 62.0849 80.287C55.528 85.7294 46.9187 88.1485 38.5475 86.9005C29.8091 85.5979 22.0756 80.5244 17.3777 73.0125C15.231 69.58 13.8766 65.9205 13.1382 61.5576L12.9275 60.3125L12.8949 30.1563L12.8623 0H6.4312H0L0.000997561 28.9112ZM40.4309 40.0904C38.5336 40.3799 37.0913 40.8407 35.2562 41.7433C26.6541 45.9747 23.1831 56.3046 27.477 64.8945C28.3568 66.6544 29.2266 67.8411 30.766 69.3816C33.253 71.8703 36.1608 73.43 39.6191 74.13C40.5974 74.328 41.03 74.3565 42.9857 74.3517C44.9234 74.3471 45.3726 74.3158 46.2769 74.122C50.5261 73.2118 54.1862 70.917 56.6872 67.5949C61.1114 61.7179 61.3591 53.7419 57.3061 47.6658C56.5981 46.6044 55.3898 45.1408 54.7937 44.6223C51.9956 42.189 49.4353 40.8791 46.2241 40.238C44.8186 39.9573 41.806 39.8806 40.4309 40.0904Z" fill="#9DA3AE"/>
</svg>
