<svg width="102" height="100" viewBox="0 0 102 100" fill="none" xmlns="http://www.w3.org/2000/svg">
<path fill-rule="evenodd" clip-rule="evenodd" d="M45.0468 0.265979C27.1123 2.079 10.2679 14.6497 3.62872 31.1749C-2.65117 46.8063 -0.693944 64.5635 8.83169 78.3787C11.3253 81.9954 16.3874 87.2082 20.0957 89.9784C24.0093 92.9016 32.0393 96.791 37.0366 98.1836C49.0863 101.542 62.424 100.203 73.7446 94.5C87.7438 87.4478 97.1639 75.1953 100.582 59.5938C101.563 55.1141 101.56 44.9357 100.575 40.406C97.829 27.7652 91.1785 17.3775 81.0779 9.95092C70.889 2.45964 57.8956 -1.03255 45.0468 0.265979ZM58.4212 18.1339C66.2782 19.5645 70.9125 24.8001 70.2918 31.5435C70.001 34.7019 68.3138 37.7755 66.0929 39.1923C65.2384 39.7371 64.5447 40.2833 64.5506 40.406C64.5565 40.5287 65.4966 41.2132 66.6392 41.9267C70.6334 44.4216 72.8965 49.8295 71.8377 54.3489C70.7123 59.1498 67.9826 62.0998 62.7819 64.1355C60.3412 65.0909 59.5144 65.1445 44.707 65.3015L29.1896 65.4662V62.1333V58.8009L30.7622 58.5104C35.4065 57.6518 37.7484 52.2775 35.4849 47.6715C34.5049 45.6777 32.0312 43.9758 30.1138 43.9758C29.2779 43.9758 29.1896 43.6974 29.1896 41.0615C29.1896 39.1191 29.3785 38.0896 29.7559 37.9749C30.0676 37.8803 30.923 37.6724 31.657 37.5122C33.4556 37.1204 35.88 34.4979 36.2524 32.5412C36.9134 29.0718 34.2539 25.178 30.7848 24.5372L29.1896 24.2423V21.2427C29.1896 19.593 29.3255 18.1093 29.4918 17.946C30.0006 17.4444 55.5465 17.6104 58.4212 18.1339ZM43.6876 31.2079V37.7286L49.6906 37.7277C54.5017 37.7273 56.0068 37.5725 57.2704 36.9468C61.8907 34.6608 62.1064 28.1713 57.6392 25.8358C56.4916 25.236 54.707 25.0129 49.9172 24.871L43.6876 24.6867V31.2079ZM43.6876 51.1155L43.6871 58.032L49.9167 57.9111C57.9391 57.7549 58.6486 57.6237 60.3575 55.978C62.6863 53.7353 62.9287 49.0053 60.8278 46.7902C58.736 44.584 57.554 44.2962 50.3798 44.2458L43.688 44.1989L43.6876 51.1155ZM72.2305 78.5585V81.9052H50.71H29.1896V78.5585V75.2118H50.71H72.2305V78.5585Z" fill="#9DA3AE"/>
</svg>
