<svg width="92" height="100" viewBox="0 0 92 100" fill="none" xmlns="http://www.w3.org/2000/svg">
<path fill-rule="evenodd" clip-rule="evenodd" d="M18.8498 7.69231V15.3846H23.1141H27.3789L27.5052 12.5L27.632 9.61538H55.0499H82.4677L82.5778 38.9957L82.6879 68.3761H55.0529H27.4178V52.7778V37.1795H23.1338H18.8498V57.4786V77.7778H55.0499H91.25V38.8889V0H55.0499H18.8498V7.69231ZM0 61.1111V100H36.2001H72.4002V92.094V84.188H68.1351H63.8699L63.7439 87.2863L63.618 90.3846H36.2001H8.78228L8.67218 61.0043L8.56208 31.6239H36.1971H63.8322V47.0085V62.3932H68.1162H72.4002V42.3077V22.2222H36.2001H0V61.1111Z" fill="#9DA3AE"/>
</svg>
