<svg enable-background="new 0 0 832 505" height="246.459302" viewBox="0 0 832 505" width="405.746503" xmlns="http://www.w3.org/2000/svg"><path d="m785.5 232.3h-18.8v72.9h18.8z"/><path d="m785.5 197.4h-18.8v19.8h18.8z"/><path d="m747.2 198.4v17.1h-48v29.8h41v17.1h-41v42.8h-19.5v-106.8z"/><path d="m627.2 261 34.8 44.2h-22.8l-24.6-31.2-7.5 7.8v23.6h-18.8v-107.4h18.8v60.2l28.4-29.8h22.8z"/><path d="m565.8 284.4 5.5 15.8c-8.3 4.9-17.9 7.4-27.6 7.4-12.6-.1-22.3-3.8-29-11.2s-10-17.7-10-30.8 3.4-23 10-30.4 16.4-11 29-11c3.9 0 7.8.2 11.6.8 3.4.6 6.8 1.6 10 3v17.7c-6.1-3.1-12.9-4.7-19.8-4.5-14.3.1-21.3 8.2-21.3 24.3 0 16.7 6.9 25 20.9 25 6.8 0 13.6-2 20.7-6.1z"/><path d="m484.8 244.6c3.1 6.6 4.6 13.9 4.5 21.2.1 7.4-1.5 14.7-4.5 21.3-2.9 6.2-7.7 11.5-13.6 15-6.1 3.7-13.4 5.5-21.9 5.5-8.8 0-16.1-1.8-22.2-5.5-6-3.5-10.7-8.8-13.7-15-3.1-6.7-4.7-14-4.5-21.3-.1-7.3 1.5-14.5 4.5-21.2 3-6.2 7.8-11.5 13.7-15 6.1-3.7 13.4-5.5 22.2-5.5s16 1.8 21.9 5.5c5.9 3.5 10.6 8.8 13.6 15zm-14.8 21.2c0-7.8-1.8-14-5.4-18.5s-8.6-6.8-15.3-6.8-11.9 2.3-15.5 6.8-5.4 10.6-5.4 18.5 1.8 14 5.4 18.5 8.8 6.8 15.5 6.8 11.7-2.3 15.3-6.8 5.4-10.8 5.4-18.5z"/><path d="m396.6 289.2v16.4c-3.9 1-8 1.5-12 1.6-7.8-.1-13.4-1.7-17-5s-5.4-8.2-5.4-15v-89.4h18.8v83.2c0 3.4.6 5.8 1.7 7.1s3.1 2 6.1 2c2.6 0 5.2-.2 7.8-.9z"/><path d="m335.6 260.3c3.4 4.2 4.9 9.3 4.9 15.5 0 9.9-3.1 17.2-9.2 22.2s-16.4 7.2-30.8 7.2h-40.7v-106.8h40.7c13 0 22.2 2.4 27.7 7.2s8.2 11.9 8.2 21.5c0 5.8-1.1 10.6-3.5 14.6s-6.2 7.1-11.3 9.3c5.4 1.6 10.3 4.9 14 9.3zm-19.4 25.6c3.1-2.4 4.5-6.2 4.5-11.5s-1.7-8.9-5.1-11.3-8.5-3.5-15.1-3.5h-21.2v29.8h21.2c7.4 0 12.6-1.2 15.7-3.5zm.3-57.3c0-5.2-1.3-8.9-3.7-11.2s-6.5-3.4-12.3-3.4h-21.2v29.7h21.2c10.6 0 16-5.1 16-15.1z"/><path d="m200.3 228.5c13.2 13.2 13.3 34.5.1 47.8 0 0-.1.1-.1.1l-47.9 48c-13.2 13.2-34.5 13.3-47.8.1 0 0-.1-.1-.1-.1l-48.1-47.9c-13.2-13.2-13.3-34.5-.1-47.8 0 0 .1-.1.1-.1l47.9-48c13.3-13.3 34.7-13.3 48 0zm-35.9 36c6.6-6.6 6.6-17.4 0-24l-24-24c-6.6-6.6-17.4-6.6-24 0l-24 24c-6.6 6.6-6.6 17.4 0 24l24 24c6.6 6.6 17.4 6.6 24 0z" fill="#004bef"/><path d="m22 149h788v207h-788z" fill="none"/></svg>