<?xml version="1.0" encoding="UTF-8"?>
<svg fill="#382bc6" height="44" viewBox="0,0,134,44" width="134" xmlns="http://www.w3.org/2000/svg" xmlns:xlink="http://www.w3.org/1999/xlink">
 <linearGradient id="paint0_linear" gradientUnits="userSpaceOnUse" x1="10.54" x2="116.39" y1="46.59" y2="-5.03">
  <stop offset="0" stop-color="#382bc6"/>
  <stop offset="1" stop-color="#ff3cac"/>
 </linearGradient>
 <path d="m116.286 24.01c0 2.425-1.405 3.523-3.038 3.523-1.533 0-2.401-.863-2.401-3.702v-5.847h-3.886v7.68c0 3.452 1.507 5.49 4.699 5.49 1.787 0 3.37-.817 4.647-1.941l.204 1.686h3.624v-12.915h-3.854zm-84.366-7.728a1.065 1.065 0 1 0 0 2.131 1.065 1.065 0 0 0 0-2.13zm-10.643-15.56a21.278 21.278 0 1 0 .003 42.558 21.278 21.278 0 0 0 -.003-42.557zm9.678 30.18a13.29 13.29 0 0 1 -9.797 4.371h-.025a13.293 13.293 0 0 1 -9.877-4.417 13.152 13.152 0 0 1 -3.317-10.33 13.32 13.32 0 0 1 11.636-11.707c.515-.06 1.034-.09 1.553-.09a13.13 13.13 0 0 1 8.082 2.762.625.625 0 0 1 .195.745.631.631 0 0 1 -.16.224l-1.409 1.262a.808.808 0 0 1 -.538.205.829.829 0 0 1 -.475-.15 9.923 9.923 0 0 0 -9.781-.91 10.037 10.037 0 0 0 -3.378 2.476 9.921 9.921 0 0 0 -2.477 7.814 10.047 10.047 0 0 0 8.804 8.795c.38.041.763.063 1.146.063a9.93 9.93 0 0 0 7.1-2.975.83.83 0 0 1 .588-.247.81.81 0 0 1 .447.134l1.564 1.026a.64.64 0 0 1 .28.448.63.63 0 0 1 -.16.503zm.965-10.342a3.212 3.212 0 1 1 0-6.425 3.212 3.212 0 0 1 0 6.425zm70.572-4.133a1.868 1.868 0 0 0 1.726-1.147 1.866 1.866 0 0 0 -.4-2.033 1.867 1.867 0 0 0 -2.87.28 1.866 1.866 0 0 0 -.315 1.036 1.854 1.854 0 0 0 1.144 1.726c.227.093.47.14.715.138zm-29.365 1.297c-3.956 0-6.46 3.064-6.46 6.638 0 3.677 2.631 6.793 6.691 6.793 3.677 0 5.697-2.657 6-4.393l-3.345-.358a3.105 3.105 0 0 1 -2.63 1.33c-1.99 0-2.783-1.1-2.859-2.12h9.064v-.986c0-3.76-2.451-6.904-6.461-6.904zm-2.603 5.264c.076-.996 1.072-1.838 2.603-1.838 1.553 0 2.529.863 2.605 1.838zm59.571.206c-2.808-.92-3.452-.996-3.452-1.533s.741-.74 1.353-.74c.613 0 1.533.229 1.554 1.021h3.882c-.052-2.273-2.071-4.213-5.567-4.213-2.655 0-5.106 1.48-5.106 3.932 0 2.146 1.609 3.293 4.008 3.958 2.553.715 3.372.842 3.372 1.554 0 .587-.895.792-1.609.792-1.329 0-2.222-.485-2.299-1.226h-3.848c.076 3.012 2.553 4.418 6.076 4.418 2.988 0 5.541-1.33 5.541-3.909.002-1.425-.687-3.034-3.905-4.054zm-48.745 7.71h3.855v-19.15h-3.855zm19.226 0h3.855v-12.92h-3.855zm-50.346-9.064c0 5.311 4.035 9.321 9.09 9.321 2.911 0 4.672-1.226 5.285-1.762v-3.859c-.433.537-2.092 1.966-4.799 1.966-3.09 0-5.72-2.221-5.72-5.668s2.63-5.697 5.72-5.697c2.707 0 4.366 1.456 4.799 1.992v-3.852c-.613-.537-2.374-1.763-5.286-1.763-5.06 0-9.09 4.01-9.09 9.32zm44.635 1.355c-2.809-.92-3.453-.996-3.453-1.533s.74-.74 1.353-.74 1.532.229 1.554 1.021h3.882c-.052-2.273-2.071-4.213-5.567-4.213-2.654 0-5.106 1.48-5.106 3.932 0 2.146 1.607 3.293 4.008 3.958 2.553.715 3.37.842 3.37 1.554 0 .587-.893.792-1.607.792-1.33 0-2.222-.485-2.3-1.226h-3.852c.076 3.012 2.553 4.418 6.076 4.418 2.988 0 5.54-1.33 5.54-3.909 0-1.425-.688-3.034-3.905-4.054z" fill="url(#paint0_linear)"/>
</svg>
