<svg width="94" height="107" viewBox="0 0 94 107" fill="none" xmlns="http://www.w3.org/2000/svg">
<g clip-path="url(#clip0_292_15888)">
<path d="M83.8005 95.57C90.8017 81.6631 85.8291 57.6669 70.2726 36.3464C54.5184 14.7703 32.8986 2.72679 17.5625 5.68087L16.342 4.01068L8.60612 9.69159C-5.44161 21.0477 -1.97206 50.3783 16.6302 75.8913C35.2324 101.404 62.0225 113.539 76.9744 103.449V103.483L85.1623 97.4447L83.8005 95.57Z" fill="url(#paint0_linear_292_15888)"/>
<path d="M84.7274 97.7856C99.5411 86.8657 96.2402 57.0221 77.3547 31.128C58.4692 5.23388 31.1506 -6.90517 16.3369 4.01468C1.52326 14.9345 4.82413 44.7781 23.7096 70.6722C42.5951 96.5664 69.9137 108.705 84.7274 97.7856Z" fill="url(#paint1_linear_292_15888)"/>
<path d="M78.5409 87.5261C90.3118 78.8492 87.6903 55.1374 72.6856 34.5643C57.6809 13.9912 35.975 4.34741 24.2041 13.0243C12.4332 21.7012 15.0547 45.413 30.0594 65.9861C45.0641 86.5591 66.77 96.2029 78.5409 87.5261Z" fill="url(#paint2_linear_292_15888)"/>
<path d="M31.7741 64.7283C17.4834 45.1349 14.6523 22.7236 25.4566 14.7704C36.2608 6.81709 56.6825 16.2588 70.9732 35.8522C85.2639 55.4457 88.1006 77.891 77.2908 85.8443C66.4809 93.7976 46.0648 84.3218 31.7741 64.7283ZM70.7642 35.9943C56.5639 16.5315 36.3229 7.10114 25.643 14.9749C14.9631 22.8486 17.8224 45.0837 32.0171 64.5579C46.2117 84.0321 66.4866 93.4567 77.1438 85.5773C87.8011 77.6979 84.9475 55.4628 70.7472 35.9943H70.7642Z" fill="white"/>
<g clip-path="url(#clip1_292_15888)">
<path opacity="0.4" d="M39.4809 24.2744L39.849 25.4665L55.9062 57.3493L56.254 57.5787L60.3304 44.5588L39.4809 24.2744Z" fill="white"/>
<path opacity="0.2" d="M39.481 24.2744L43.366 53.1025L56.2541 57.5788L48.4604 42.1038L39.481 24.2744Z" fill="white"/>
<path opacity="0.4" d="M57.6652 60.3809L57.6726 60.6556L63.3925 72.013L63.7649 72.4925L61.7488 47.3629L57.6652 60.3809Z" fill="white"/>
<path opacity="0.3" d="M63.7649 72.4922L57.6652 60.3806L44.7794 55.9089L63.7649 72.4922Z" fill="white"/>
<path opacity="0.6" d="M56.2539 57.5787L60.3302 44.5589L48.4603 42.1039L56.2539 57.5787Z" fill="white"/>
<path opacity="0.5" d="M43.3662 53.1026L56.254 57.5787L48.4604 42.1039L43.3662 53.1026Z" fill="white"/>
</g>
</g>
<defs>
<linearGradient id="paint0_linear_292_15888" x1="3.25312" y1="4.84731" x2="71.9711" y2="98.6879" gradientUnits="userSpaceOnUse">
<stop stop-color="#7CA4FF" stop-opacity="0"/>
<stop offset="0.0001" stop-color="#4D70C6" stop-opacity="0"/>
<stop offset="1" stop-color="#4D70C6"/>
</linearGradient>
<linearGradient id="paint1_linear_292_15888" x1="16.2786" y1="4.07881" x2="85.147" y2="97.5045" gradientUnits="userSpaceOnUse">
<stop stop-color="#7B9AFF" stop-opacity="0"/>
<stop offset="1" stop-color="#97AFFF"/>
</linearGradient>
<linearGradient id="paint2_linear_292_15888" x1="24.1446" y1="13.0964" x2="78.8617" y2="87.3248" gradientUnits="userSpaceOnUse">
<stop stop-color="#4D70C6"/>
<stop offset="1" stop-color="#96B3F9"/>
<stop offset="1" stop-color="#4D70C6" stop-opacity="0"/>
</linearGradient>
<clipPath id="clip0_292_15888">
<rect width="94" height="107" fill="white"/>
</clipPath>
<clipPath id="clip1_292_15888">
<rect width="19" height="54" fill="white" transform="translate(30.9988 28.5463) rotate(-26.7312)"/>
</clipPath>
</defs>
</svg>
