<svg width="100" height="100" viewBox="0 0 100 100" fill="none" xmlns="http://www.w3.org/2000/svg">
<path fill-rule="evenodd" clip-rule="evenodd" d="M39.7342 0.85083C26.7972 3.62693 15.2644 11.6173 7.9073 22.9029C-2.8047 39.335 -2.61767 61.2076 8.37461 77.6553C28.2863 107.448 71.6993 107.448 91.6109 77.6553C102.796 60.9192 102.796 38.9782 91.6109 22.2421C84.1856 11.1316 72.8748 3.49522 59.8673 0.81137C54.5465 -0.286289 44.9478 -0.267393 39.7342 0.85083ZM60.5377 16.5248C73.2683 20.6165 82.373 31.4013 84.6624 45.1001L85.0131 47.1982L76.354 47.0453L67.6944 46.8919L66.3585 43.5995C64.7107 39.5373 60.8374 35.4646 56.9813 33.74C53.0436 31.9788 46.9419 31.9788 43.0042 33.74C39.4572 35.3262 35.4374 39.3784 33.8157 43.0015C32.0591 46.9269 32.0491 53.0694 33.7929 56.8959C35.4518 60.5351 39.4722 64.5779 43.0042 66.1574C46.9419 67.9186 53.0436 67.9186 56.9813 66.1574C60.8374 64.4328 64.7107 60.3601 66.3585 56.2979L67.6944 53.0055L76.3773 52.8521L85.0603 52.6987L84.6646 55.0752C81.6471 73.2085 66.1482 85.7885 48.0503 84.7937C39.1692 84.3057 31.5585 80.9138 25.3148 74.6613C19.0816 68.4194 15.7378 60.8853 15.2111 51.8939C14.2121 34.8571 25.7066 19.521 42.2955 15.7573C47.1662 14.6519 55.8485 15.0176 60.5377 16.5248Z" fill="#9DA3AE"/>
</svg>
