<svg width="90" height="108" viewBox="0 0 90 108" fill="none" xmlns="http://www.w3.org/2000/svg">
<g clip-path="url(#clip0_292_15902)">
<path d="M53.2869 98.622C63.9823 91.7854 70.4185 72.8826 68.2817 51.4482C66.1177 29.7449 55.8519 12.3029 43.8118 7.98068L43.6381 6.30579L35.82 7.08424L35.8132 7.10949C21.2241 9.18601 11.5173 31.2043 14.0737 56.8469C16.6301 82.4894 30.4846 102.16 45.2094 101.311L45.2027 101.336L53.4833 100.515L53.2869 98.622Z" fill="url(#paint0_linear_292_15902)"/>
<path d="M53.029 100.56C38.0556 102.051 23.8222 82.1611 21.229 56.1343C18.6357 30.1075 28.6729 7.79881 43.6422 6.30679C58.6114 4.81476 72.8478 24.71 75.4369 50.7356C78.026 76.7613 67.9972 99.0723 53.029 100.56Z" fill="url(#paint1_linear_292_15902)"/>
<path d="M52.9124 90.7949C41.0164 91.9783 29.7063 76.178 27.6393 55.493C25.5723 34.808 33.5549 17.0865 45.4635 15.9065C57.3721 14.7266 68.6727 30.5288 70.7366 51.2084C72.8005 71.8881 64.7915 89.6071 52.9124 90.7949Z" fill="url(#paint2_linear_292_15902)"/>
<path d="M29.3723 55.3214C27.4301 35.6351 34.7048 18.7207 45.6237 17.6319C56.5426 16.5431 67.0278 31.6848 68.991 51.3767C70.9542 71.0686 63.6627 87.9785 52.7564 89.0707C41.8501 90.1629 31.3377 75.0049 29.3723 55.3214ZM68.7633 51.4014C66.8118 31.8344 56.4435 16.7782 45.6473 17.8638C34.851 18.9494 27.6568 35.7319 29.6041 55.2978C31.5515 74.8637 41.922 89.9115 52.7115 88.8512C63.501 87.7908 70.6897 70.9617 68.7591 51.4003L68.7633 51.4014Z" fill="white"/>
<g clip-path="url(#clip1_292_15902)">
<path opacity="0.4" d="M57.6202 32.3709L57.1571 33.2442L48.2456 60.0875L48.3114 60.4109L57.898 55.4165L57.6202 32.3709Z" fill="white"/>
<path opacity="0.2" d="M57.6202 32.3708L43.6151 50.6748L48.3114 60.411L52.6368 47.382L57.6202 32.3708Z" fill="white"/>
<path opacity="0.4" d="M47.5281 62.7702L47.3781 62.9279L44.2036 72.4901L44.1428 72.9673L57.1177 57.7808L47.5281 62.7702Z" fill="white"/>
<path opacity="0.3" d="M44.1429 72.9672L47.5282 62.77L42.8307 53.0376L44.1429 72.9672Z" fill="white"/>
<path opacity="0.6" d="M48.3113 60.4108L57.8978 55.4164L52.6367 47.3821L48.3113 60.4108Z" fill="white"/>
<path opacity="0.5" d="M43.6152 50.6749L48.3114 60.4109L52.6367 47.3822L43.6152 50.6749Z" fill="white"/>
</g>
</g>
<defs>
<linearGradient id="paint0_linear_292_15902" x1="36.4882" y1="7.02361" x2="45.8794" y2="101.278" gradientUnits="userSpaceOnUse">
<stop stop-color="#4D70C6" stop-opacity="0"/>
<stop offset="1" stop-color="#4D70C6"/>
</linearGradient>
<linearGradient id="paint1_linear_292_15902" x1="43.6417" y1="6.31072" x2="53.0329" y2="100.565" gradientUnits="userSpaceOnUse">
<stop stop-color="#4D70C6" stop-opacity="0"/>
<stop offset="1" stop-color="#4D70C6"/>
</linearGradient>
<linearGradient id="paint2_linear_292_15902" x1="45.4562" y1="15.9074" x2="52.9182" y2="90.799" gradientUnits="userSpaceOnUse">
<stop stop-color="#7CA4FF"/>
<stop offset="1" stop-color="#96B3F9" stop-opacity="0"/>
</linearGradient>
<clipPath id="clip0_292_15902">
<rect width="93.2219" height="67.6987" fill="white" transform="translate(89.5195 17.5217) rotate(105)"/>
</clipPath>
<clipPath id="clip1_292_15902">
<rect width="15.0539" height="42.7847" fill="white" transform="translate(50.4788 30) rotate(18.3653)"/>
</clipPath>
</defs>
</svg>
