<svg width="624" height="514" viewBox="0 0 624 514" fill="none" xmlns="http://www.w3.org/2000/svg">
<path d="M61 511H624" stroke="#263238" stroke-miterlimit="10"/>
<g opacity="0.15">
<path d="M193.15 198.692C188.046 203.718 172.956 209.105 172.943 209.105C172.93 209.105 172.413 198.072 172.465 197.374C173.123 189.247 179.17 173.937 188.059 171.844C194.519 170.332 200.178 175.138 200.979 181.392C201.78 187.645 197.491 194.428 193.15 198.692Z" fill="black"/>
</g>
<path d="M148.562 19.5498L10.5042 10.38L1.49619 146.001L139.554 155.171L148.562 19.5498Z" fill="white" stroke="#263238" stroke-linecap="round" stroke-linejoin="round"/>
<path d="M27.1094 51.0786L121.207 57.7196" stroke="#263238" stroke-miterlimit="10"/>
<path d="M25.4414 66.4277L124.526 73.0558" stroke="#263238" stroke-miterlimit="10"/>
<path d="M25.0273 86.7383L121.619 97.1003" stroke="#263238" stroke-miterlimit="10"/>
<path d="M24.2031 107.048H97.1634" stroke="#263238" stroke-miterlimit="10"/>
<path d="M196.804 130.268L59.418 146.675L75.535 281.636L212.921 265.229L196.804 130.268Z" fill="white" stroke="#263238" stroke-linecap="round" stroke-linejoin="round"/>
<path d="M95.0977 173.795L193.769 161.779" stroke="#263238" stroke-miterlimit="10"/>
<path d="M94.2695 193.278L194.181 177.528" stroke="#263238" stroke-miterlimit="10"/>
<path d="M98.832 214.428L191.689 196.185" stroke="#263238" stroke-miterlimit="10"/>
<path d="M100.07 232.672L196.662 220.643" stroke="#263238" stroke-miterlimit="10"/>
<path d="M38.6094 24.6309L41.7231 28.5974" stroke="#263238" stroke-width="2" stroke-linecap="round" stroke-linejoin="round"/>
<path d="M40.9785 25.3232C45.126 21.1757 45.126 14.4512 40.9785 10.3037C36.8309 6.15621 30.1065 6.15621 25.959 10.3037C21.8114 14.4512 21.8114 21.1757 25.959 25.3232C30.1065 29.4707 36.8309 29.4707 40.9785 25.3232Z" fill="#4A77BC"/>
<path d="M40.9785 25.3232C45.126 21.1757 45.126 14.4512 40.9785 10.3037C36.8309 6.15621 30.1065 6.15621 25.959 10.3037C21.8114 14.4512 21.8114 21.1757 25.959 25.3232C30.1065 29.4707 36.8309 29.4707 40.9785 25.3232Z" fill="#4A77BC"/>
<path d="M40.9785 25.3232C45.126 21.1757 45.126 14.4512 40.9785 10.3037C36.8309 6.15621 30.1065 6.15621 25.959 10.3037C21.8114 14.4512 21.8114 21.1757 25.959 25.3232C30.1065 29.4707 36.8309 29.4707 40.9785 25.3232Z" stroke="#263238" stroke-linecap="round" stroke-linejoin="round"/>
<path d="M38.1059 14.9795C38.1084 16.2807 37.7249 17.5534 37.0038 18.6366C36.2828 19.7198 35.2566 20.5647 34.0551 21.0644C32.8537 21.5642 31.531 21.6963 30.2544 21.444C28.9779 21.1917 27.8049 20.5664 26.8839 19.6472C25.9629 18.7279 25.3352 17.5562 25.0804 16.2801C24.8256 15.0041 24.9551 13.6811 25.4525 12.4787C25.9499 11.2763 26.7928 10.2484 27.8745 9.52524C28.9563 8.80205 30.2283 8.41602 31.5295 8.41602C33.2714 8.41601 34.9422 9.1071 36.1751 10.3376C37.4081 11.5681 38.1024 13.2375 38.1059 14.9795Z" fill="#4A77BC"/>
<path d="M38.1059 14.9795C38.1084 16.2807 37.7249 17.5534 37.0038 18.6366C36.2828 19.7198 35.2566 20.5647 34.0551 21.0644C32.8537 21.5642 31.531 21.6963 30.2544 21.444C28.9779 21.1917 27.8049 20.5664 26.8839 19.6472C25.9629 18.7279 25.3352 17.5562 25.0804 16.2801C24.8256 15.0041 24.9551 13.6811 25.4525 12.4787C25.9499 11.2763 26.7928 10.2484 27.8745 9.52524C28.9563 8.80205 30.2283 8.41602 31.5295 8.41602C33.2714 8.41601 34.9422 9.1071 36.1751 10.3376C37.4081 11.5681 38.1024 13.2375 38.1059 14.9795Z" fill="#4A77BC"/>
<path d="M38.1059 14.9795C38.1084 16.2807 37.7249 17.5534 37.0038 18.6366C36.2828 19.7198 35.2566 20.5647 34.0551 21.0644C32.8537 21.5642 31.531 21.6963 30.2544 21.444C28.9779 21.1917 27.8049 20.5664 26.8839 19.6472C25.9629 18.7279 25.3352 17.5562 25.0804 16.2801C24.8256 15.0041 24.9551 13.6811 25.4525 12.4787C25.9499 11.2763 26.7928 10.2484 27.8745 9.52524C28.9563 8.80205 30.2283 8.41602 31.5295 8.41602C33.2714 8.41601 34.9422 9.1071 36.1751 10.3376C37.4081 11.5681 38.1024 13.2375 38.1059 14.9795Z" stroke="#263238" stroke-linecap="round" stroke-linejoin="round"/>
<path d="M37.3319 10.4707C37.3319 12.2901 36.7924 14.0686 35.7816 15.5814C34.7708 17.0942 33.3341 18.2733 31.6531 18.9696C29.9722 19.6658 28.1226 19.848 26.3381 19.4931C24.5536 19.1381 22.9145 18.262 21.628 16.9754C20.3414 15.6889 19.4653 14.0498 19.1104 12.2653C18.7554 10.4809 18.9376 8.63121 19.6338 6.95028C20.3301 5.26935 21.5092 3.83264 23.022 2.82182C24.5348 1.81101 26.3133 1.27148 28.1328 1.27148C29.3408 1.27148 30.537 1.50943 31.6531 1.97173C32.7692 2.43403 33.7833 3.11164 34.6376 3.96586C35.4918 4.82008 36.1694 5.83419 36.6317 6.95028C37.094 8.06638 37.3319 9.2626 37.3319 10.4707Z" fill="#4A77BC"/>
<path d="M37.3319 10.4707C37.3319 12.2901 36.7924 14.0686 35.7816 15.5814C34.7708 17.0942 33.3341 18.2733 31.6531 18.9696C29.9722 19.6658 28.1226 19.848 26.3381 19.4931C24.5536 19.1381 22.9145 18.262 21.628 16.9754C20.3414 15.6889 19.4653 14.0498 19.1104 12.2653C18.7554 10.4809 18.9376 8.63121 19.6338 6.95028C20.3301 5.26935 21.5092 3.83264 23.022 2.82182C24.5348 1.81101 26.3133 1.27148 28.1328 1.27148C29.3408 1.27148 30.537 1.50943 31.6531 1.97173C32.7692 2.43403 33.7833 3.11164 34.6376 3.96586C35.4918 4.82008 36.1694 5.83419 36.6317 6.95028C37.094 8.06638 37.3319 9.2626 37.3319 10.4707Z" fill="#4A77BC"/>
<path d="M37.3319 10.4707C37.3319 12.2901 36.7924 14.0686 35.7816 15.5814C34.7708 17.0942 33.3341 18.2733 31.6531 18.9696C29.9722 19.6658 28.1226 19.848 26.3381 19.4931C24.5536 19.1381 22.9145 18.262 21.628 16.9754C20.3414 15.6889 19.4653 14.0498 19.1104 12.2653C18.7554 10.4809 18.9376 8.63121 19.6338 6.95028C20.3301 5.26935 21.5092 3.83264 23.022 2.82182C24.5348 1.81101 26.3133 1.27148 28.1328 1.27148C29.3408 1.27148 30.537 1.50943 31.6531 1.97173C32.7692 2.43403 33.7833 3.11164 34.6376 3.96586C35.4918 4.82008 36.1694 5.83419 36.6317 6.95028C37.094 8.06638 37.3319 9.2626 37.3319 10.4707Z" stroke="#263238" stroke-linecap="round" stroke-linejoin="round"/>
<path d="M167.953 139.879L171.08 143.845" stroke="#263238" stroke-width="2" stroke-linecap="round" stroke-linejoin="round"/>
<path d="M173.152 135.514C174.505 129.807 170.974 124.084 165.267 122.731C159.559 121.379 153.836 124.909 152.484 130.617C151.131 136.324 154.662 142.047 160.369 143.4C166.077 144.752 171.8 141.222 173.152 135.514Z" fill="#4A77BC"/>
<path d="M173.152 135.514C174.505 129.807 170.974 124.084 165.267 122.731C159.559 121.379 153.836 124.909 152.484 130.617C151.131 136.324 154.662 142.047 160.369 143.4C166.077 144.752 171.8 141.222 173.152 135.514Z" fill="#4A77BC"/>
<path d="M173.152 135.514C174.505 129.807 170.974 124.084 165.267 122.731C159.559 121.379 153.836 124.909 152.484 130.617C151.131 136.324 154.662 142.047 160.369 143.4C166.077 144.752 171.8 141.222 173.152 135.514Z" stroke="#263238" stroke-linecap="round" stroke-linejoin="round"/>
<path d="M167.45 130.253C167.45 131.554 167.064 132.825 166.341 133.907C165.619 134.988 164.592 135.831 163.39 136.329C162.188 136.827 160.866 136.957 159.59 136.703C158.315 136.449 157.143 135.823 156.223 134.903C155.303 133.984 154.677 132.812 154.423 131.536C154.169 130.26 154.3 128.938 154.797 127.736C155.295 126.535 156.138 125.508 157.22 124.785C158.301 124.062 159.573 123.677 160.873 123.677C161.737 123.675 162.593 123.844 163.392 124.174C164.191 124.504 164.916 124.988 165.527 125.599C166.138 126.21 166.623 126.936 166.952 127.734C167.282 128.533 167.451 129.389 167.45 130.253Z" fill="#4A77BC"/>
<path d="M167.45 130.253C167.45 131.554 167.064 132.825 166.341 133.907C165.619 134.988 164.592 135.831 163.39 136.329C162.188 136.827 160.866 136.957 159.59 136.703C158.315 136.449 157.143 135.823 156.223 134.903C155.303 133.984 154.677 132.812 154.423 131.536C154.169 130.26 154.3 128.938 154.797 127.736C155.295 126.535 156.138 125.508 157.22 124.785C158.301 124.062 159.573 123.677 160.873 123.677C161.737 123.675 162.593 123.844 163.392 124.174C164.191 124.504 164.916 124.988 165.527 125.599C166.138 126.21 166.623 126.936 166.952 127.734C167.282 128.533 167.451 129.389 167.45 130.253Z" fill="#4A77BC"/>
<path d="M167.45 130.253C167.45 131.554 167.064 132.825 166.341 133.907C165.619 134.988 164.592 135.831 163.39 136.329C162.188 136.827 160.866 136.957 159.59 136.703C158.315 136.449 157.143 135.823 156.223 134.903C155.303 133.984 154.677 132.812 154.423 131.536C154.169 130.26 154.3 128.938 154.797 127.736C155.295 126.535 156.138 125.508 157.22 124.785C158.301 124.062 159.573 123.677 160.873 123.677C161.737 123.675 162.593 123.844 163.392 124.174C164.191 124.504 164.916 124.988 165.527 125.599C166.138 126.21 166.623 126.936 166.952 127.734C167.282 128.533 167.451 129.389 167.45 130.253Z" stroke="#263238" stroke-linecap="round" stroke-linejoin="round"/>
<path d="M166.687 125.718C166.687 127.538 166.148 129.316 165.137 130.829C164.126 132.342 162.69 133.521 161.009 134.217C159.328 134.913 157.478 135.096 155.694 134.741C153.909 134.386 152.27 133.51 150.983 132.223C149.697 130.936 148.821 129.297 148.466 127.513C148.111 125.728 148.293 123.879 148.989 122.198C149.686 120.517 150.865 119.08 152.377 118.069C153.89 117.059 155.669 116.519 157.488 116.519C159.928 116.519 162.268 117.488 163.993 119.213C165.718 120.939 166.687 123.278 166.687 125.718Z" fill="#4A77BC"/>
<path d="M166.687 125.718C166.687 127.538 166.148 129.316 165.137 130.829C164.126 132.342 162.69 133.521 161.009 134.217C159.328 134.913 157.478 135.096 155.694 134.741C153.909 134.386 152.27 133.51 150.983 132.223C149.697 130.936 148.821 129.297 148.466 127.513C148.111 125.728 148.293 123.879 148.989 122.198C149.686 120.517 150.865 119.08 152.377 118.069C153.89 117.059 155.669 116.519 157.488 116.519C159.928 116.519 162.268 117.488 163.993 119.213C165.718 120.939 166.687 123.278 166.687 125.718Z" fill="#4A77BC"/>
<path d="M166.687 125.718C166.687 127.538 166.148 129.316 165.137 130.829C164.126 132.342 162.69 133.521 161.009 134.217C159.328 134.913 157.478 135.096 155.694 134.741C153.909 134.386 152.27 133.51 150.983 132.223C149.697 130.936 148.821 129.297 148.466 127.513C148.111 125.728 148.293 123.879 148.989 122.198C149.686 120.517 150.865 119.08 152.377 118.069C153.89 117.059 155.669 116.519 157.488 116.519C159.928 116.519 162.268 117.488 163.993 119.213C165.718 120.939 166.687 123.278 166.687 125.718Z" stroke="#263238" stroke-linecap="round" stroke-linejoin="round"/>
<path d="M236.004 23.2358L233.95 48.7919C233.64 52.6364 231.875 56.2177 229.015 58.8051L223.446 63.8698C220.008 66.9925 217.903 71.318 217.567 75.9502L212.813 141.287C212.598 144.232 213.107 147.185 214.297 149.887C215.486 152.59 217.318 154.96 219.635 156.792C221.574 158.328 223.109 160.316 224.104 162.581C225.1 164.847 225.526 167.321 225.345 169.789L202.309 486.708L501.85 508.531L535.546 45.058L236.004 23.2358Z" fill="#4A77BC"/>
<path d="M236.004 23.2358L233.95 48.7919C233.64 52.6364 231.875 56.2177 229.015 58.8051L223.446 63.8698C220.008 66.9925 217.903 71.318 217.567 75.9502L212.813 141.287C212.598 144.232 213.107 147.185 214.297 149.887C215.486 152.59 217.318 154.96 219.635 156.792C221.574 158.328 223.109 160.316 224.104 162.581C225.1 164.847 225.526 167.321 225.345 169.789L202.309 486.708L501.85 508.531L535.546 45.058L236.004 23.2358Z" fill="#4A77BC"/>
<path d="M236.004 23.2358L233.95 48.7919C233.64 52.6364 231.875 56.2177 229.015 58.8051L223.446 63.8698C220.008 66.9925 217.903 71.318 217.567 75.9502L212.813 141.287C212.598 144.232 213.107 147.185 214.297 149.887C215.486 152.59 217.318 154.96 219.635 156.792C221.574 158.328 223.109 160.316 224.104 162.581C225.1 164.847 225.526 167.321 225.345 169.789L202.309 486.708L501.85 508.531L535.546 45.058L236.004 23.2358Z" stroke="#263238" stroke-linecap="round" stroke-linejoin="round"/>
<path d="M299.476 32.6516L196.66 33.4053L199.842 467.499L302.658 466.745L299.476 32.6516Z" fill="white" stroke="#263238" stroke-linecap="round" stroke-linejoin="round"/>
<path d="M321.05 38.3845L218.234 39.1382L221.417 473.231L324.233 472.478L321.05 38.3845Z" fill="white" stroke="#263238" stroke-linecap="round" stroke-linejoin="round"/>
<path d="M241.714 23.649L239.66 49.2052C239.347 53.0524 237.582 56.6367 234.724 59.2312L229.169 64.283C225.726 67.4036 223.617 71.7293 223.277 76.3634L218.523 141.701C218.308 144.646 218.817 147.598 220.006 150.301C221.196 153.003 223.028 155.374 225.344 157.205C227.284 158.741 228.819 160.729 229.814 162.994C230.81 165.26 231.236 167.735 231.055 170.203L208.031 487.122L507.573 508.905L541.269 45.4325L241.714 23.649Z" fill="#4A77BC"/>
<path d="M241.714 23.649L239.66 49.2052C239.347 53.0524 237.582 56.6367 234.724 59.2312L229.169 64.283C225.726 67.4036 223.617 71.7293 223.277 76.3634L218.523 141.701C218.308 144.646 218.817 147.598 220.006 150.301C221.196 153.003 223.028 155.374 225.344 157.205C227.284 158.741 228.819 160.729 229.814 162.994C230.81 165.26 231.236 167.735 231.055 170.203L208.031 487.122L507.573 508.905L541.269 45.4325L241.714 23.649Z" fill="#4A77BC"/>
<path d="M241.714 23.649L239.66 49.2052C239.347 53.0524 237.582 56.6367 234.724 59.2312L229.169 64.283C225.726 67.4036 223.617 71.7293 223.277 76.3634L218.523 141.701C218.308 144.646 218.817 147.598 220.006 150.301C221.196 153.003 223.028 155.374 225.344 157.205C227.284 158.741 228.819 160.729 229.814 162.994C230.81 165.26 231.236 167.735 231.055 170.203L208.031 487.122L507.573 508.905L541.269 45.4325L241.714 23.649Z" stroke="#263238" stroke-linecap="round" stroke-linejoin="round"/>
<path d="M520.065 114.478H245.227V508.388H520.065V114.478Z" fill="white" stroke="#263238" stroke-width="5" stroke-linecap="round" stroke-linejoin="round"/>
<path d="M520.051 112.346H248.133V510.584H520.051V112.346Z" fill="white" stroke="#263238" stroke-linecap="round" stroke-linejoin="round"/>
<path d="M511.82 113.729V133.005" stroke="#263238" stroke-linecap="round" stroke-linejoin="round"/>
<path d="M514.746 125.034V212.129" stroke="#263238" stroke-linecap="round" stroke-linejoin="round"/>
<path d="M511.797 234.067V150.964" stroke="#263238" stroke-linecap="round" stroke-linejoin="round"/>
<path d="M514.746 267.311V418.89" stroke="#263238" stroke-linecap="round" stroke-linejoin="round"/>
<path d="M511.371 433.516V392.3" stroke="#263238" stroke-linecap="round" stroke-linejoin="round"/>
<path d="M508.797 112.346H236.879V510.584H508.797V112.346Z" fill="white" stroke="#263238" stroke-linecap="round" stroke-linejoin="round"/>
<path d="M282.891 130.822C285.838 130.822 288.227 128.433 288.227 125.486C288.227 122.539 285.838 120.15 282.891 120.15C279.944 120.15 277.555 122.539 277.555 125.486C277.555 128.433 279.944 130.822 282.891 130.822Z" fill="white" stroke="#263238" stroke-linecap="round" stroke-linejoin="round"/>
<path d="M329.699 130.822C332.646 130.822 335.035 128.433 335.035 125.486C335.035 122.539 332.646 120.15 329.699 120.15C326.752 120.15 324.363 122.539 324.363 125.486C324.363 128.433 326.752 130.822 329.699 130.822Z" fill="white" stroke="#263238" stroke-linecap="round" stroke-linejoin="round"/>
<path d="M376.508 130.822C379.455 130.822 381.844 128.433 381.844 125.486C381.844 122.539 379.455 120.15 376.508 120.15C373.561 120.15 371.172 122.539 371.172 125.486C371.172 128.433 373.561 130.822 376.508 130.822Z" fill="white" stroke="#263238" stroke-linecap="round" stroke-linejoin="round"/>
<path d="M423.32 130.822C426.267 130.822 428.656 128.433 428.656 125.486C428.656 122.539 426.267 120.15 423.32 120.15C420.373 120.15 417.984 122.539 417.984 125.486C417.984 128.433 420.373 130.822 423.32 130.822Z" fill="white" stroke="#263238" stroke-linecap="round" stroke-linejoin="round"/>
<path d="M470.129 130.822C473.076 130.822 475.465 128.433 475.465 125.486C475.465 122.539 473.076 120.15 470.129 120.15C467.182 120.15 464.793 122.539 464.793 125.486C464.793 128.433 467.182 130.822 470.129 130.822Z" fill="white" stroke="#263238" stroke-linecap="round" stroke-linejoin="round"/>
<path d="M278.823 94.6586C282.515 94.6654 286.054 96.135 288.664 98.7455C291.275 101.356 292.744 104.895 292.751 108.587C292.747 109.528 292.652 110.467 292.467 111.39C292.389 111.665 292.389 111.955 292.467 112.23H295.477C295.483 112.166 295.483 112.101 295.477 112.036C296.189 108.576 295.813 104.98 294.401 101.742C292.988 98.504 290.609 95.7822 287.588 93.9499C284.568 92.1176 281.054 91.2647 277.53 91.5079C274.006 91.7512 270.643 93.0789 267.903 95.3088C265.163 97.5387 263.18 100.562 262.226 103.963C261.272 107.365 261.393 110.978 262.574 114.308C263.755 117.637 265.936 120.52 268.82 122.561C271.704 124.601 275.148 125.7 278.681 125.706C279.106 125.706 279.513 125.537 279.814 125.236C280.114 124.936 280.283 124.529 280.283 124.104C280.283 123.679 280.114 123.271 279.814 122.971C279.513 122.67 279.106 122.502 278.681 122.502C276.817 122.558 274.961 122.24 273.222 121.566C271.483 120.892 269.898 119.876 268.559 118.577C267.221 117.279 266.157 115.725 265.43 114.008C264.703 112.291 264.329 110.445 264.329 108.58C264.329 106.715 264.703 104.87 265.43 103.152C266.157 101.435 267.221 99.881 268.559 98.5827C269.898 97.2843 271.483 96.268 273.222 95.5939C274.961 94.9198 276.817 94.6018 278.681 94.6586H278.823Z" fill="#263238"/>
<path d="M285.176 122.502C282.421 122.502 279.728 121.684 277.437 120.153C275.146 118.622 273.361 116.446 272.307 113.901C271.254 111.355 270.979 108.554 271.517 105.852C272.056 103.15 273.383 100.668 275.332 98.7205C277.282 96.7731 279.765 95.4476 282.467 94.9117C285.17 94.3757 287.971 94.6534 290.515 95.7095C293.06 96.7657 295.234 98.5529 296.763 100.845C298.292 103.137 299.107 105.831 299.104 108.587C299.101 109.528 299.005 110.467 298.82 111.39C298.748 111.666 298.748 111.955 298.82 112.23H301.831C301.858 112.167 301.879 112.103 301.895 112.036C302.607 108.576 302.231 104.98 300.819 101.742C299.406 98.504 297.027 95.7822 294.006 93.9499C290.986 92.1176 287.472 91.2647 283.948 91.5079C280.424 91.7512 277.061 93.0789 274.321 95.3088C271.581 97.5387 269.598 100.562 268.644 103.963C267.69 107.365 267.811 110.978 268.992 114.308C270.173 117.637 272.354 120.52 275.238 122.561C278.122 124.601 281.566 125.7 285.099 125.706C285.524 125.706 285.931 125.537 286.232 125.236C286.532 124.936 286.701 124.529 286.701 124.104C286.701 123.679 286.532 123.271 286.232 122.971C285.931 122.67 285.524 122.502 285.099 122.502H285.176Z" fill="#263238"/>
<path d="M325.188 94.6586C328.881 94.662 332.422 96.1305 335.033 98.7417C337.644 101.353 339.113 104.894 339.116 108.587C339.119 109.528 339.024 110.468 338.832 111.39C338.775 111.671 338.797 111.962 338.896 112.23H341.907C341.907 112.165 341.907 112.101 341.907 112.036C342.619 108.576 342.243 104.98 340.83 101.742C339.418 98.504 337.038 95.7822 334.018 93.9499C330.997 92.1176 327.484 91.2647 323.96 91.5079C320.435 91.7512 317.073 93.0789 314.333 95.3088C311.593 97.5387 309.61 100.562 308.656 103.963C307.702 107.365 307.823 110.978 309.004 114.308C310.184 117.637 312.366 120.52 315.25 122.561C318.133 124.601 321.578 125.7 325.111 125.706C325.536 125.706 325.943 125.537 326.243 125.236C326.544 124.936 326.713 124.529 326.713 124.104C326.713 123.679 326.544 123.271 326.243 122.971C325.943 122.67 325.536 122.502 325.111 122.502C321.492 122.391 318.058 120.876 315.537 118.277C313.017 115.679 311.607 112.201 311.607 108.58C311.607 104.96 313.017 101.481 315.537 98.8826C318.058 96.2839 321.492 94.7688 325.111 94.6586H325.188Z" fill="#263238"/>
<path d="M331.55 122.502C328.794 122.502 326.101 121.684 323.81 120.153C321.52 118.622 319.734 116.446 318.681 113.901C317.627 111.355 317.352 108.554 317.89 105.852C318.429 103.15 319.756 100.668 321.706 98.7205C323.655 96.7731 326.138 95.4476 328.84 94.9117C331.543 94.3757 334.344 94.6534 336.889 95.7095C339.433 96.7657 341.608 98.5529 343.137 100.845C344.665 103.137 345.48 105.831 345.478 108.587C345.48 109.528 345.385 110.468 345.193 111.39C345.122 111.666 345.122 111.955 345.193 112.23H348.204C348.204 112.165 348.204 112.101 348.204 112.036C348.916 108.576 348.54 104.98 347.127 101.742C345.715 98.504 343.335 95.7822 340.315 93.9499C337.294 92.1176 333.781 91.2647 330.257 91.5079C326.732 91.7512 323.37 93.0789 320.63 95.3088C317.89 97.5387 315.907 100.562 314.953 103.963C313.998 107.365 314.12 110.978 315.301 114.308C316.481 117.637 318.663 120.52 321.547 122.561C324.43 124.601 327.875 125.7 331.407 125.706C331.832 125.706 332.24 125.537 332.54 125.236C332.841 124.936 333.01 124.529 333.01 124.104C333.01 123.679 332.841 123.271 332.54 122.971C332.24 122.67 331.832 122.502 331.407 122.502H331.55Z" fill="#263238"/>
<path d="M371.574 122.502C368.818 122.504 366.124 121.689 363.831 120.16C361.539 118.63 359.752 116.455 358.696 113.91C357.64 111.364 357.363 108.563 357.9 105.86C358.437 103.157 359.764 100.674 361.712 98.725C363.661 96.7764 366.144 95.4496 368.847 94.9126C371.55 94.3756 374.351 94.6525 376.897 95.7083C379.443 96.7641 381.618 98.5513 383.147 100.844C384.677 103.136 385.492 105.831 385.489 108.587C385.492 109.528 385.396 110.468 385.205 111.39C385.135 111.772 385.204 112.166 385.399 112.501H388.163C388.245 112.355 388.306 112.199 388.344 112.036C389.056 108.576 388.68 104.98 387.268 101.742C385.855 98.504 383.476 95.7822 380.455 93.9499C377.435 92.1176 373.922 91.2647 370.397 91.5079C366.873 91.7512 363.51 93.0789 360.77 95.3088C358.03 97.5387 356.047 100.562 355.093 103.963C354.139 107.365 354.261 110.978 355.441 114.308C356.622 117.637 358.804 120.52 361.687 122.561C364.571 124.601 368.015 125.7 371.548 125.706C371.973 125.706 372.38 125.537 372.681 125.236C372.981 124.936 373.15 124.529 373.15 124.104C373.15 123.679 372.981 123.271 372.681 122.971C372.38 122.67 371.973 122.502 371.548 122.502H371.574Z" fill="#263238"/>
<path d="M377.929 122.502C375.174 122.504 372.479 121.689 370.186 120.16C367.894 118.63 366.107 116.455 365.051 113.91C363.995 111.364 363.718 108.563 364.255 105.86C364.792 103.157 366.119 100.674 368.068 98.725C370.016 96.7764 372.499 95.4496 375.202 94.9126C377.905 94.3756 380.707 94.6525 383.252 95.7083C385.798 96.7641 387.973 98.5513 389.502 100.844C391.032 103.136 391.847 105.831 391.844 108.587C391.847 109.528 391.752 110.468 391.56 111.39C391.49 111.772 391.559 112.166 391.754 112.501H394.519C394.6 112.355 394.661 112.199 394.7 112.036C395.412 108.576 395.035 104.98 393.623 101.742C392.211 98.504 389.831 95.7822 386.811 93.9499C383.79 92.1176 380.277 91.2647 376.753 91.5079C373.228 91.7512 369.866 93.0789 367.126 95.3088C364.386 97.5387 362.403 100.562 361.449 103.963C360.494 107.365 360.616 110.978 361.797 114.308C362.977 117.637 365.159 120.52 368.043 122.561C370.926 124.601 374.371 125.7 377.903 125.706C378.328 125.706 378.736 125.537 379.036 125.236C379.337 124.936 379.506 124.529 379.506 124.104C379.506 123.679 379.337 123.271 379.036 122.971C378.736 122.67 378.328 122.502 377.903 122.502H377.929Z" fill="#263238"/>
<path d="M417.945 122.502C415.19 122.502 412.496 121.684 410.206 120.153C407.915 118.622 406.13 116.446 405.076 113.901C404.022 111.355 403.747 108.554 404.286 105.852C404.824 103.15 406.152 100.668 408.101 98.7205C410.05 96.7731 412.533 95.4476 415.236 94.9117C417.938 94.3757 420.739 94.6534 423.284 95.7095C425.829 96.7657 428.003 98.5529 429.532 100.845C431.061 103.137 431.876 105.831 431.873 108.587C431.869 109.528 431.774 110.467 431.589 111.39C431.509 111.774 431.574 112.174 431.77 112.514H434.522C434.61 112.366 434.676 112.205 434.715 112.036C435.427 108.576 435.051 104.98 433.639 101.742C432.226 98.504 429.847 95.7822 426.826 93.9499C423.806 92.1176 420.293 91.2647 416.768 91.5079C413.244 91.7512 409.881 93.0789 407.141 95.3088C404.401 97.5387 402.418 100.562 401.464 103.963C400.51 107.365 400.632 110.978 401.812 114.308C402.993 117.637 405.175 120.52 408.058 122.561C410.942 124.601 414.387 125.7 417.919 125.706C418.344 125.706 418.752 125.537 419.052 125.236C419.353 124.936 419.521 124.529 419.521 124.104C419.521 123.679 419.353 123.271 419.052 122.971C418.752 122.67 418.344 122.502 417.919 122.502H417.945Z" fill="#263238"/>
<path d="M424.301 122.502C421.545 122.502 418.852 121.684 416.561 120.153C414.271 118.622 412.485 116.446 411.432 113.901C410.378 111.355 410.103 108.554 410.641 105.852C411.18 103.15 412.508 100.668 414.457 98.7205C416.406 96.7731 418.889 95.4476 421.591 94.9117C424.294 94.3757 427.095 94.6534 429.64 95.7095C432.184 96.7657 434.359 98.5529 435.888 100.845C437.416 103.137 438.231 105.831 438.229 108.587C438.225 109.528 438.13 110.467 437.944 111.39C437.865 111.774 437.929 112.174 438.125 112.514H440.877C440.966 112.366 441.031 112.205 441.071 112.036C441.783 108.576 441.407 104.98 439.994 101.742C438.582 98.504 436.202 95.7822 433.182 93.9499C430.162 92.1176 426.648 91.2647 423.124 91.5079C419.6 91.7512 416.237 93.0789 413.497 95.3088C410.757 97.5387 408.774 100.562 407.82 103.963C406.866 107.365 406.987 110.978 408.168 114.308C409.349 117.637 411.53 120.52 414.414 122.561C417.298 124.601 420.742 125.7 424.275 125.706C424.7 125.706 425.107 125.537 425.408 125.236C425.708 124.936 425.877 124.529 425.877 124.104C425.877 123.679 425.708 123.271 425.408 122.971C425.107 122.67 424.7 122.502 424.275 122.502H424.301Z" fill="#263238"/>
<path d="M464.313 122.502C461.558 122.502 458.865 121.684 456.574 120.153C454.283 118.622 452.498 116.446 451.444 113.901C450.39 111.355 450.115 108.554 450.654 105.852C451.192 103.15 452.52 100.668 454.469 98.7205C456.418 96.7731 458.901 95.4476 461.604 94.9117C464.306 94.3757 467.107 94.6534 469.652 95.7095C472.197 96.7657 474.371 98.5529 475.9 100.845C477.429 103.137 478.244 105.831 478.241 108.587C478.244 109.528 478.149 110.468 477.957 111.39C477.899 111.637 477.899 111.893 477.957 112.14H481.032C481.038 112.105 481.038 112.07 481.032 112.036C481.744 108.576 481.368 104.98 479.955 101.742C478.543 98.504 476.163 95.7822 473.143 93.9499C470.122 92.1176 466.609 91.2647 463.085 91.5079C459.56 91.7512 456.198 93.0789 453.458 95.3088C450.718 97.5387 448.735 100.562 447.781 103.963C446.827 107.365 446.948 110.978 448.129 114.308C449.309 117.637 451.491 120.52 454.375 122.561C457.258 124.601 460.703 125.7 464.236 125.706C464.66 125.706 465.068 125.537 465.368 125.236C465.669 124.936 465.838 124.529 465.838 124.104C465.838 123.679 465.669 123.271 465.368 122.971C465.068 122.67 464.66 122.502 464.236 122.502H464.313Z" fill="#263238"/>
<path d="M470.67 122.502C467.915 122.502 465.221 121.684 462.93 120.153C460.64 118.622 458.855 116.446 457.801 113.901C456.747 111.355 456.472 108.554 457.01 105.852C457.549 103.15 458.877 100.668 460.826 98.7205C462.775 96.7731 465.258 95.4476 467.961 94.9117C470.663 94.3757 473.464 94.6534 476.009 95.7095C478.554 96.7657 480.728 98.5529 482.257 100.845C483.786 103.137 484.6 105.831 484.598 108.587C484.6 109.528 484.505 110.468 484.313 111.39C484.248 111.636 484.248 111.894 484.313 112.14H487.376C487.381 112.105 487.381 112.07 487.376 112.036C488.087 108.576 487.711 104.98 486.299 101.742C484.887 98.504 482.507 95.7822 479.487 93.9499C476.466 92.1176 472.953 91.2647 469.429 91.5079C465.904 91.7512 462.541 93.0789 459.801 95.3088C457.061 97.5387 455.078 100.562 454.124 103.963C453.17 107.365 453.292 110.978 454.473 114.308C455.653 117.637 457.835 120.52 460.719 122.561C463.602 124.601 467.047 125.7 470.579 125.706C471.004 125.706 471.412 125.537 471.712 125.236C472.013 124.936 472.181 124.529 472.181 124.104C472.181 123.679 472.013 123.271 471.712 122.971C471.412 122.67 471.004 122.502 470.579 122.502H470.67Z" fill="#263238"/>
<path d="M423.944 206.586C449.411 206.586 470.056 194.467 470.056 179.518C470.056 164.569 449.411 152.45 423.944 152.45C398.477 152.45 377.832 164.569 377.832 179.518C377.832 194.467 398.477 206.586 423.944 206.586Z" stroke="#263238" stroke-miterlimit="10"/>
<path d="M456.358 352.958C479.692 352.958 498.607 339.237 498.607 322.312C498.607 305.386 479.692 291.665 456.358 291.665C433.025 291.665 414.109 305.386 414.109 322.312C414.109 339.237 433.025 352.958 456.358 352.958Z" stroke="#263238" stroke-miterlimit="10"/>
<path d="M298.098 199.441C316.501 199.441 331.42 188.52 331.42 175.048C331.42 161.576 316.501 150.654 298.098 150.654C279.696 150.654 264.777 161.576 264.777 175.048C264.777 188.52 279.696 199.441 298.098 199.441Z" stroke="#263238" stroke-miterlimit="10"/>
<path d="M430.184 220.863H474.216" stroke="#263238" stroke-miterlimit="10"/>
<path d="M430.184 226.819H474.216" stroke="#263238" stroke-miterlimit="10"/>
<path d="M430.184 232.762H474.216" stroke="#4A77BC" stroke-width="2" stroke-miterlimit="10"/>
<path d="M430.184 232.762H474.216" stroke="#4A77BC" stroke-width="2" stroke-miterlimit="10"/>
<path d="M434.355 316.058H478.374" stroke="#263238" stroke-miterlimit="10"/>
<path d="M434.355 322.015H478.374" stroke="#263238" stroke-miterlimit="10"/>
<path d="M434.355 327.958H478.374" stroke="#263238" stroke-miterlimit="10"/>
<path d="M433.527 337.984C433.527 337.984 458.877 334.818 487.392 333.449" stroke="#4A77BC" stroke-width="2" stroke-miterlimit="10"/>
<path d="M433.527 337.984C433.527 337.984 458.877 334.818 487.392 333.449" stroke="#4A77BC" stroke-width="2" stroke-miterlimit="10"/>
<path d="M403.41 173.264H447.442" stroke="#263238" stroke-miterlimit="10"/>
<path d="M401.613 178.936L447.919 176.792" stroke="#4A77BC" stroke-width="2" stroke-miterlimit="10"/>
<path d="M401.613 178.936L447.919 176.792" stroke="#4A77BC" stroke-width="2" stroke-miterlimit="10"/>
<path d="M401.41 181.934L447.703 179.789" stroke="#4A77BC" stroke-miterlimit="10"/>
<path d="M401.41 181.934L447.703 179.789" stroke="#4A77BC" stroke-miterlimit="10"/>
<path d="M403.41 185.164H447.442" stroke="#263238" stroke-miterlimit="10"/>
<path d="M431.367 377.933H475.399" stroke="#263238" stroke-miterlimit="10"/>
<path d="M431.367 383.889H475.399" stroke="#263238" stroke-miterlimit="10"/>
<path d="M431.367 389.833H475.399" stroke="#4A77BC" stroke-width="2" stroke-miterlimit="10"/>
<path d="M431.367 389.833H475.399" stroke="#4A77BC" stroke-width="2" stroke-miterlimit="10"/>
<path d="M431.367 398.166H475.399" stroke="#263238" stroke-miterlimit="10"/>
<path d="M431.367 404.122H475.399" stroke="#263238" stroke-miterlimit="10"/>
<path d="M431.367 410.066H475.399" stroke="#4A77BC" stroke-width="2" stroke-miterlimit="10"/>
<path d="M431.367 410.066H475.399" stroke="#4A77BC" stroke-width="2" stroke-miterlimit="10"/>
<path d="M281.445 169.699H314.766" stroke="#263238" stroke-miterlimit="10"/>
<path d="M281.445 175.655H314.766" stroke="#263238" stroke-miterlimit="10"/>
<path d="M281.445 181.598H314.766" stroke="#263238" stroke-miterlimit="10"/>
<path d="M456.358 291.665L445.66 255.373" stroke="#263238" stroke-miterlimit="10"/>
<path d="M442.078 264.3L443.861 250.023L453.978 261.328" stroke="#263238" stroke-miterlimit="10"/>
<path d="M321.895 155.422C321.895 155.422 346.882 139.363 378.42 156.017" stroke="#263238" stroke-miterlimit="10"/>
<path d="M373.073 147.088L382.582 157.799H367.711" stroke="#263238" stroke-miterlimit="10"/>
<path d="M348.719 204.712L367.776 210.488" stroke="#263238" stroke-linecap="round" stroke-linejoin="round"/>
<path d="M222.723 301.782L219.867 302.027" stroke="#263238" stroke-linecap="round" stroke-linejoin="round"/>
<path d="M357.612 214.403C357.242 216.731 356.573 219.002 355.62 221.159C354.011 224.79 353.322 229.585 354.471 231.163C355.62 232.742 356.325 233.921 355.375 235.024C354.123 235.992 352.706 236.724 351.192 237.184C351.192 237.184 348.343 243.589 345.324 244.63C342.306 245.672 336.408 244.232 336.408 244.232C336.408 244.232 333.711 247.112 333.849 248.966C333.987 250.82 339.411 257.255 339.411 257.255C339.411 257.255 323.891 257.117 311.343 249.135C298.795 241.153 296.758 233.216 296.758 233.216C296.758 233.216 307.176 234.32 311.956 231.914C313.27 231.368 314.406 230.467 315.237 229.312C316.068 228.156 316.56 226.792 316.659 225.372C316.659 225.372 312.998 206.206 323.676 199.45C334.355 192.693 346.902 197.581 353.49 203.096C360.078 208.611 357.612 214.403 357.612 214.403Z" fill="white" stroke="#263238" stroke-linecap="round" stroke-linejoin="round"/>
<path d="M332.048 226.782C330.81 228.005 329.329 228.955 327.701 229.57C326.072 230.185 324.333 230.451 322.596 230.352C316.391 230.183 314.276 229.509 312.3 225.097L310.339 220.7C310.339 220.7 308.807 224.53 305.743 222.477C303.939 221.284 302.413 219.717 301.269 217.881C301.269 217.881 304.226 227.38 299.14 228.605C294.053 229.831 277.599 224.99 278.258 213.989C278.916 202.989 294.084 184.129 305.697 184.528C312.55 184.748 319.051 187.614 323.837 192.525C323.837 192.525 329.475 187.776 335.48 187.76C337.183 187.71 338.877 188.011 340.459 188.644C342.04 189.276 343.474 190.227 344.673 191.437C344.673 191.437 350.464 185.86 355.075 189.66C357.813 191.874 359.886 194.8 361.066 198.117C361.066 198.117 370.366 198.117 370.013 204.705C369.828 207.743 368.675 210.642 366.723 212.977C364.771 215.312 362.123 216.961 359.166 217.682C356.192 218.328 353.085 217.894 350.403 216.456C350.403 216.456 344.887 220.363 341.394 220.608C337.901 220.853 337.058 217.819 335.909 216.257C334.76 214.694 329.658 222.201 332.048 226.782Z" fill="#263238" stroke="#263238" stroke-linecap="round" stroke-linejoin="round"/>
<path d="M339.107 224.408C339.107 224.408 335.691 214.112 333.53 215.721C331.37 217.329 329.302 228.835 334.879 228.636" fill="white"/>
<path d="M339.107 224.408C339.107 224.408 335.691 214.112 333.53 215.721C331.37 217.329 329.302 228.835 334.879 228.636" stroke="#263238" stroke-linecap="round" stroke-linejoin="round"/>
<path d="M356.294 219.551C356.905 219.605 357.493 219.804 358.01 220.133C359.059 220.9 359.763 222.05 359.967 223.333C360.17 224.616 359.858 225.928 359.098 226.982C358.553 227.962 357.703 228.736 356.676 229.187C355.65 229.638 354.504 229.741 353.414 229.479" stroke="#263238" stroke-linecap="round" stroke-linejoin="round"/>
<path d="M339.106 255.83C339.106 255.83 323.049 250.989 312.54 242.854C302.03 234.718 296.591 230.781 290.769 230.367C284.947 229.954 276.98 231.976 273.916 234.473C271.037 237.169 268.411 240.123 266.072 243.298C266.072 243.298 241.559 261.805 236.763 266.693C231.968 271.58 213.093 302.497 210.55 307.43C208.006 312.364 200.729 320.33 200.729 320.33C200.729 320.33 181.594 324.39 180.445 325.509C179.295 326.627 176.124 337.398 176.002 338.44C175.879 339.481 183.08 339.175 184.688 338.639C186.297 338.103 187.477 334.303 187.477 334.303C187.477 334.303 198.952 332.863 202.139 331.239C204.786 329.585 207.15 327.516 209.14 325.111C209.707 324.452 244.73 294.239 246.967 290.777C249.204 287.314 251.471 284.465 251.471 284.465L267.267 277.126L264.341 285.399C264.341 285.399 253.233 294.668 249.265 299.709C245.297 304.749 243.397 307.369 243.397 307.369C243.397 307.369 228.077 319.227 225.503 331.392C222.929 343.557 220.906 399.569 218.991 407.551C217.076 415.533 209.615 429.521 206.03 437.212C202.445 444.903 202.231 456.899 201.036 468.129C199.841 479.359 197.971 494.803 197.834 495.431C196.382 499.488 195.23 503.646 194.386 507.871C193.85 512.038 197.65 513.004 199.718 513.065C202.297 513.13 204.863 512.666 207.256 511.701C209.048 510.736 213.568 510.169 215.606 509.863C216.699 509.731 217.734 509.299 218.597 508.615C219.459 507.931 220.116 507.021 220.493 505.987C221.55 503.443 219.574 501.927 218.808 499.705C218.042 497.484 214.732 491.938 214.518 489.057C214.303 486.177 220.033 468.007 228.919 456.409C237.805 444.811 243.091 426.457 245.328 420.298C247.564 414.139 264.172 369.081 264.172 369.081C264.172 369.081 286.096 412.408 290.003 417.923C293.91 423.439 294.599 424.205 296.989 437.457C299.379 450.71 308.342 465.984 313.842 474.686C319.342 483.389 320.675 496.733 320.675 496.733C320.675 496.733 318.331 504.393 320.384 507.09C322.437 509.786 335.03 509.556 337.099 509.602C339.167 509.648 344.468 511.563 349.202 511.211C353.936 510.859 358.256 507.871 357.904 505.833C357.552 503.796 354.932 504.608 353.4 503.474C351.868 502.34 341.358 494.282 341.358 494.282L333.866 484.89C333.866 484.89 331.139 469.998 330.511 464.054C329.883 458.11 326.665 427.759 325.455 419.624C324.245 411.489 320.215 384.187 316.921 369.97C313.627 355.752 309.843 340.462 309.843 340.462C309.843 340.462 312.049 322.322 312.233 319.212C312.417 316.102 312.54 311.95 312.54 311.95L329.668 297.089C329.668 297.089 367.357 312.563 375.982 311.935C384.608 311.307 400.725 296.721 406.777 288.846C412.829 280.972 424.702 268.133 424.702 268.133L431.29 261.882C431.29 261.882 431.106 256.52 430.156 254.727C429.207 252.935 428.716 251.939 428.716 251.939C428.716 251.939 429.896 248.339 427.184 247.71C425.231 247.121 423.147 247.121 421.194 247.71C420.397 248.185 418.13 249.365 418.13 249.365C418.13 249.365 419.064 250.744 416.705 252.567C415.458 253.586 414.05 254.389 412.538 254.942C412.538 254.942 411.925 254.942 411.864 257.056C411.802 259.17 411.082 266.248 411.082 266.248C411.082 266.248 400.94 274.828 397.37 276.743C393.8 278.658 381.973 284.051 381.973 284.051L362.592 278.827C362.592 278.827 351.071 258.481 339.106 255.83Z" fill="white" stroke="#263238" stroke-linecap="round" stroke-linejoin="round"/>
<path d="M180.71 338.317L179.684 336.969L182.901 328.833" stroke="#263238" stroke-linecap="round" stroke-linejoin="round"/>
<path d="M176 338.439L180.703 328.159" stroke="#263238" stroke-linecap="round" stroke-linejoin="round"/>
<path d="M332.642 477.842C331.83 473.139 330.865 467.225 330.512 463.977C329.884 458.033 326.667 427.682 325.456 419.547C324.246 411.412 320.217 384.11 316.923 369.893C313.629 355.675 309.845 340.462 309.845 340.462C309.845 340.462 310.258 337.06 310.748 332.939C304.069 334.379 291.996 335.467 274.592 331.3C254.935 326.596 242.863 317.787 237.347 312.915C232.751 317.511 227.021 324.436 225.504 331.468C222.869 343.648 220.908 399.645 218.993 407.627C217.078 415.61 209.617 429.597 206.032 437.288C202.447 444.979 202.232 456.899 201.037 468.129C200.761 470.611 200.455 473.292 200.148 475.973C205.652 478.575 211.912 479.092 217.767 477.428C220.496 469.94 224.25 462.866 228.921 456.409C237.791 444.811 243.092 426.457 245.329 420.298C247.566 414.139 264.174 369.081 264.174 369.081C264.174 369.081 286.098 412.407 290.004 417.923C293.911 423.438 294.601 424.204 296.991 437.457C299.381 450.709 308.343 465.984 313.843 474.686C314.996 476.506 315.966 478.436 316.739 480.447C322.176 480.966 327.654 480.068 332.642 477.842Z" fill="#263238" stroke="#263238" stroke-linecap="round" stroke-linejoin="round"/>
<path d="M362.651 278.72C362.651 278.72 351.069 258.481 339.103 255.83C339.103 255.83 323.047 250.989 312.537 242.854C302.027 234.718 296.589 230.781 290.767 230.367C284.945 229.954 276.978 231.976 273.914 234.473C271.035 237.169 268.409 240.123 266.07 243.298C266.07 243.298 253.537 252.766 244.621 259.952C244.728 264.257 245.463 270.186 248.39 273.51C251.305 276.667 254.774 279.263 258.624 281.171L267.249 277.172L264.323 285.445C264.323 285.445 253.216 294.714 249.248 299.755C245.28 304.795 243.38 307.415 243.38 307.415C240.067 310.115 236.992 313.093 234.187 316.316C246.764 327.599 261.947 335.58 278.372 339.543C293.325 342.929 303.575 341.963 309.841 340.355C309.933 339.681 312.047 322.184 312.231 319.135C312.415 316.087 312.537 311.873 312.537 311.873L329.666 297.012C329.666 297.012 338.184 300.506 348.051 304.121C352.264 300.26 359.02 292.401 363.371 278.919L362.651 278.72Z" fill="#4A77BC"/>
<path d="M362.651 278.72C362.651 278.72 351.069 258.481 339.103 255.83C339.103 255.83 323.047 250.989 312.537 242.854C302.027 234.718 296.589 230.781 290.767 230.367C284.945 229.954 276.978 231.976 273.914 234.473C271.035 237.169 268.409 240.123 266.07 243.298C266.07 243.298 253.537 252.766 244.621 259.952C244.728 264.257 245.463 270.186 248.39 273.51C251.305 276.667 254.774 279.263 258.624 281.171L267.249 277.172L264.323 285.445C264.323 285.445 253.216 294.714 249.248 299.755C245.28 304.795 243.38 307.415 243.38 307.415C240.067 310.115 236.992 313.093 234.187 316.316C246.764 327.599 261.947 335.58 278.372 339.543C293.325 342.929 303.575 341.963 309.841 340.355C309.933 339.681 312.047 322.184 312.231 319.135C312.415 316.087 312.537 311.873 312.537 311.873L329.666 297.012C329.666 297.012 338.184 300.506 348.051 304.121C352.264 300.26 359.02 292.401 363.371 278.919L362.651 278.72Z" fill="#4A77BC"/>
<path d="M362.651 278.72C362.651 278.72 351.069 258.481 339.103 255.83C339.103 255.83 323.047 250.989 312.537 242.854C302.027 234.718 296.589 230.781 290.767 230.367C284.945 229.954 276.978 231.976 273.914 234.473C271.035 237.169 268.409 240.123 266.07 243.298C266.07 243.298 253.537 252.766 244.621 259.952C244.728 264.257 245.463 270.186 248.39 273.51C251.305 276.667 254.774 279.263 258.624 281.171L267.249 277.172L264.323 285.445C264.323 285.445 253.216 294.714 249.248 299.755C245.28 304.795 243.38 307.415 243.38 307.415C240.067 310.115 236.992 313.093 234.187 316.316C246.764 327.599 261.947 335.58 278.372 339.543C293.325 342.929 303.575 341.963 309.841 340.355C309.933 339.681 312.047 322.184 312.231 319.135C312.415 316.087 312.537 311.873 312.537 311.873L329.666 297.012C329.666 297.012 338.184 300.506 348.051 304.121C352.264 300.26 359.02 292.401 363.371 278.919L362.651 278.72Z" stroke="#263238" stroke-linecap="round" stroke-linejoin="round"/>
<path d="M268.816 258.956L269.046 256.428" stroke="#263238" stroke-linecap="round" stroke-linejoin="round"/>
<path d="M267.266 277.111L268.553 262.097" stroke="#263238" stroke-linecap="round" stroke-linejoin="round"/>
<path d="M310.273 258.45C303.928 260.368 297.899 263.207 292.379 266.876" stroke="#263238" stroke-linecap="round" stroke-linejoin="round"/>
<path d="M317.563 256.489C317.563 256.489 316.199 256.765 314.023 257.347" stroke="#263238" stroke-linecap="round" stroke-linejoin="round"/>
<path d="M296.118 260.794C296.118 260.794 286.558 267.351 284.383 269.174" stroke="#263238" stroke-linecap="round" stroke-linejoin="round"/>
<path d="M329.665 297.012L321.82 298.223" stroke="#263238" stroke-linecap="round" stroke-linejoin="round"/>
<path d="M357.901 505.818C357.548 503.78 354.929 504.592 353.397 503.458C352.569 502.845 349.168 500.225 346.181 497.927C346.346 498.873 346.377 499.838 346.272 500.792L346.058 502.554C339.596 501.625 333.192 500.331 326.876 498.678C324.303 497.866 322.28 497.253 320.641 496.809C320.396 497.621 318.45 504.469 320.38 507.074C322.311 509.678 335.027 509.54 337.095 509.586C339.164 509.632 344.465 511.547 349.199 511.195C353.933 510.843 358.253 507.855 357.901 505.818Z" fill="white" stroke="#263238" stroke-linecap="round" stroke-linejoin="round"/>
<path d="M220.491 505.925C221.548 503.382 219.571 501.865 218.805 499.644C218.576 499 218.131 498.112 217.61 497.009C217.61 497.009 216.814 500.563 215.098 501.038C213.382 501.513 213.029 501.528 207.3 499.843C203.939 498.879 200.49 498.258 197.004 497.989C195.884 501.178 195.023 504.452 194.43 507.779C193.894 511.946 197.693 512.912 199.762 512.973C202.341 513.038 204.907 512.574 207.3 511.609C209.092 510.644 213.612 510.077 215.649 509.771C216.731 509.634 217.754 509.203 218.608 508.525C219.461 507.847 220.113 506.948 220.491 505.925Z" fill="white" stroke="#263238" stroke-linecap="round" stroke-linejoin="round"/>
<path d="M418.253 249.304L411.711 245.994C411.264 245.767 410.75 245.708 410.263 245.829C409.776 245.95 409.349 246.243 409.061 246.653L408.524 247.45C406.992 249.794 408.754 250.698 408.754 250.698L414.883 254.053C414.883 254.053 417.977 251.602 418.253 249.304Z" fill="#4A77BC"/>
<path d="M418.253 249.304L411.711 245.994C411.264 245.767 410.75 245.708 410.263 245.829C409.776 245.95 409.349 246.243 409.061 246.653L408.524 247.45C406.992 249.794 408.754 250.698 408.754 250.698L414.883 254.053C414.883 254.053 417.977 251.602 418.253 249.304Z" fill="#4A77BC"/>
<path d="M418.253 249.304L411.711 245.994C411.264 245.767 410.75 245.708 410.263 245.829C409.776 245.95 409.349 246.243 409.061 246.653L408.524 247.45C406.992 249.794 408.754 250.698 408.754 250.698L414.883 254.053C414.883 254.053 417.977 251.602 418.253 249.304Z" stroke="#263238" stroke-linecap="round" stroke-linejoin="round"/>
</svg>
