<svg width="720" height="592" viewBox="0 0 720 592" fill="none" xmlns="http://www.w3.org/2000/svg">
<g clip-path="url(#clip0_292_15179)">
<path d="M158.388 536.385C158.388 536.385 182.366 549.223 182.634 552.014C182.901 554.804 167.868 554.804 156.715 553.42C145.563 552.036 135.793 550.339 137.466 545.606C139.139 540.873 156.983 535.827 156.983 535.827L158.388 536.385Z" fill="#4A77BC"/>
<path d="M158.388 536.385C158.388 536.385 182.366 549.223 182.634 552.014C182.901 554.804 167.868 554.804 156.715 553.42C145.563 552.036 135.793 550.339 137.466 545.606C139.139 540.873 156.983 535.827 156.983 535.827L158.388 536.385Z" fill="#4A77BC"/>
<path d="M158.388 536.385C158.388 536.385 182.366 549.223 182.634 552.014C182.901 554.804 167.868 554.804 156.715 553.42C145.563 552.036 135.793 550.339 137.466 545.606C139.139 540.873 156.983 535.827 156.983 535.827L158.388 536.385Z" stroke="#263238" stroke-width="0.87" stroke-linecap="round" stroke-linejoin="round"/>
<path d="M67.7391 548.107C67.7391 548.107 57.7018 560.676 56.5865 567.106C55.4713 573.536 61.0475 572.956 72.7577 567.374C79.5828 564.223 85.5218 559.429 90.0442 553.42L67.7391 548.107Z" fill="#4A77BC"/>
<path d="M67.7391 548.107C67.7391 548.107 57.7018 560.676 56.5865 567.106C55.4713 573.536 61.0475 572.956 72.7577 567.374C79.5828 564.223 85.5218 559.429 90.0442 553.42L67.7391 548.107Z" fill="#4A77BC"/>
<path d="M67.7391 548.107C67.7391 548.107 57.7018 560.676 56.5865 567.106C55.4713 573.536 61.0475 572.956 72.7577 567.374C79.5828 564.223 85.5218 559.429 90.0442 553.42L67.7391 548.107Z" stroke="#263238" stroke-width="0.87" stroke-linecap="round" stroke-linejoin="round"/>
<path d="M169.656 289.263C171.626 310.147 171.43 331.178 169.072 352.021C165.286 389.336 160.029 436.865 160.029 469.818C160.029 502.771 164.398 536.587 165.567 547.385C165.959 552.699 166.899 557.958 168.371 563.08C168.371 563.08 158.44 567.162 149.094 569.797C140.049 571.797 130.875 573.161 121.639 573.878C121.639 573.878 119.583 550.837 119.583 510.304C119.583 469.771 122.504 435.675 122.504 435.675C122.504 435.675 112.877 493.699 109.933 522.874C108.178 540.703 107.982 558.651 109.349 576.513C109.349 576.513 108.484 579.732 90.3756 578.846C79.986 578.461 69.7277 576.397 60 572.735C60 572.735 68.4818 513.242 69.0659 488.172C69.6501 463.101 80.1647 437.728 87.4782 420.796C94.7917 403.865 95.9366 398.035 93.6001 388.706C91.2635 379.377 77.5478 334.18 77.5478 313.191C77.5478 292.202 78.716 286.651 78.716 286.651C78.716 286.651 81.6368 282.267 117.27 281.101C152.902 279.935 169.656 289.263 169.656 289.263Z" fill="#263238" stroke="#263238" stroke-width="0.87" stroke-linecap="round" stroke-linejoin="round"/>
<path d="M120.605 409.818C119.2 414.708 118.218 417.186 118.218 417.186" stroke="white" stroke-width="0.87" stroke-linecap="round" stroke-linejoin="round"/>
<path d="M134.813 305C134.813 305 135.98 361.003 132.481 390.778C131.286 401.287 129.456 411.713 127 422" stroke="white" stroke-width="0.87" stroke-linecap="round" stroke-linejoin="round"/>
<path d="M78.5354 425.849C77.4649 428.296 76.5995 430.827 75.948 433.417" stroke="white" stroke-width="0.87" stroke-linecap="round" stroke-linejoin="round"/>
<path d="M80.0718 298.233C81.2261 311.004 83.2305 323.683 86.0719 336.187C92.7634 365.903 98.8973 384.121 98.2282 390.886C97.6929 396.11 87.0756 408.613 80.3841 421.83" stroke="white" stroke-width="0.87" stroke-linecap="round" stroke-linejoin="round"/>
<path d="M109.677 34.5437C109.677 34.5437 115.71 22.4969 102.009 12.0844C88.308 1.6719 65.5124 13.1817 63.5953 24.1312C61.6781 35.0807 69.0662 43.3219 66.0502 49.0652C63.0341 54.8084 49.3334 57.003 42.1791 65.4077C35.0248 73.8124 32.3127 87.867 36.4276 96.3651C40.5425 104.863 48.4917 111.704 43.5585 116.91C38.6253 122.116 26 132.809 26 144.599C26 156.389 36.7081 168.692 45.7562 173.362C54.8043 178.031 71.264 171.704 79.7743 167.058C88.2847 162.412 95.4156 148.708 92.9373 135.821C90.459 122.933 81.2472 121.813 85.5258 114.809C89.8044 107.805 98.1511 102.482 94.3167 95.6413C90.4824 88.8008 84.9647 83.5946 85.8064 77.5712C86.648 71.5478 95.1584 66.3182 95.1584 66.3182C95.1584 66.3182 104.51 45.5165 106.404 41.4075C108.298 37.2986 109.677 34.5437 109.677 34.5437Z" fill="#263238" stroke="#263238" stroke-width="0.87" stroke-linecap="round" stroke-linejoin="round"/>
<path d="M96 34.7755C96 34.7755 92.0829 20.2005 78.9951 22.1859C65.9073 24.1712 77.0366 39.4236 74.3867 50.7053C71.7369 61.9869 45.6075 61.3096 44.2941 80.5327C42.9807 99.7559 65.9304 109.122 61.9902 123.627C58.0501 138.132 34.5244 137.642 39.7548 153.478C44.9853 169.314 50.8841 170.716 56.1146 164.736" stroke="white" stroke-width="0.66" stroke-linecap="round" stroke-linejoin="round"/>
<path d="M81 72C81 72 61.4653 79.3268 62.0112 90.0117C62.5572 100.697 82.2343 104.102 74.8286 120" stroke="white" stroke-width="0.66" stroke-linecap="round" stroke-linejoin="round"/>
<path d="M121.763 115C121.763 115 163.201 124.034 165.698 127.255C168.194 130.476 207.696 187.386 207.696 187.386L258.887 158.487L265 170.159L211.616 216.844L166.981 191.471L161.731 215.094C161.731 215.094 169.898 264.72 171.064 276.111C172.231 287.503 172.534 293.035 172.534 293.035C157.531 297.137 141.95 298.714 126.43 297.703C109.969 296.778 93.7891 293.027 78.5985 286.616C78.5985 286.616 89.9613 252.465 94.6277 240.49C99.2942 228.516 104.264 214.51 104.264 214.51L89.378 181.247L70.9455 224.291L45 214.953C45 214.953 64.8791 133.371 66.909 130.289C68.9389 127.208 99.2942 116.564 99.2942 116.564L121.763 115Z" fill="#4A77BC"/>
<path d="M121.763 115C121.763 115 163.201 124.034 165.698 127.255C168.194 130.476 207.696 187.386 207.696 187.386L258.887 158.487L265 170.159L211.616 216.844L166.981 191.471L161.731 215.094C161.731 215.094 169.898 264.72 171.064 276.111C172.231 287.503 172.534 293.035 172.534 293.035C157.531 297.137 141.95 298.714 126.43 297.703C109.969 296.778 93.7891 293.027 78.5985 286.616C78.5985 286.616 89.9613 252.465 94.6277 240.49C99.2942 228.516 104.264 214.51 104.264 214.51L89.378 181.247L70.9455 224.291L45 214.953C45 214.953 64.8791 133.371 66.909 130.289C68.9389 127.208 99.2942 116.564 99.2942 116.564L121.763 115Z" fill="#4A77BC"/>
<path d="M121.763 115C121.763 115 163.201 124.034 165.698 127.255C168.194 130.476 207.696 187.386 207.696 187.386L258.887 158.487L265 170.159L211.616 216.844L166.981 191.471L161.731 215.094C161.731 215.094 169.898 264.72 171.064 276.111C172.231 287.503 172.534 293.035 172.534 293.035C157.531 297.137 141.95 298.714 126.43 297.703C109.969 296.778 93.7891 293.027 78.5985 286.616C78.5985 286.616 89.9613 252.465 94.6277 240.49C99.2942 228.516 104.264 214.51 104.264 214.51L89.378 181.247L70.9455 224.291L45 214.953C45 214.953 64.8791 133.371 66.909 130.289C68.9389 127.208 99.2942 116.564 99.2942 116.564L121.763 115Z" stroke="#263238" stroke-width="0.87" stroke-linecap="round" stroke-linejoin="round"/>
<path d="M161 159L166 143" stroke="#263238" stroke-width="0.87" stroke-linecap="round" stroke-linejoin="round"/>
<path d="M128 142C132.464 153.742 136.253 165.726 139.348 177.895C144.318 197.598 140.778 205.322 140.778 218C140.778 230.678 137.941 294 137.941 294" stroke="#263238" stroke-width="0.87" stroke-linecap="round" stroke-linejoin="round"/>
<path d="M167.151 191C167.151 191 173.277 174.136 171.758 169.566C170.238 164.996 161.342 159.854 160.73 158.986C160.117 158.118 156 149 156 149" stroke="#263238" stroke-width="0.87" stroke-linecap="round" stroke-linejoin="round"/>
<path d="M99.5185 158L89 181L101 168.599" stroke="#263238" stroke-width="0.87" stroke-linecap="round" stroke-linejoin="round"/>
<path d="M120.027 109.463C120.027 109.463 128.453 110.949 130.501 114.181C132.549 117.413 143 140.72 143 140.72L123.518 132.18L111.299 149C111.299 149 95.285 119.205 95.0056 116.846C94.7263 114.487 104.898 108 105.782 108C106.667 108 120.027 109.463 120.027 109.463Z" fill="white" stroke="#263238" stroke-width="0.87" stroke-linecap="round" stroke-linejoin="round"/>
<path d="M125.228 107.984C124.744 113.794 124.744 119.633 125.228 125.443C126.105 131.565 129.067 140.295 127.598 139.992C126.128 139.69 108.024 119.926 105.654 115.852C103.284 111.778 103 101 103 101C103 101 117.526 109.567 125.228 107.984Z" fill="white" stroke="#263238" stroke-width="0.87" stroke-linecap="round" stroke-linejoin="round"/>
<path d="M89.4377 71.9482C89.4377 71.9482 87.489 46.84 95.2131 39.3704C102.937 31.9008 121.649 29.8065 132.777 39.6496C143.906 49.4928 139.281 81.7913 137.661 90.7968C136.041 99.8022 127.19 111.274 120.311 110.995C113.432 110.716 104.322 102.269 101.857 99.5462C99.3922 96.8237 97.7487 89.1679 97.7487 89.1679C97.7487 89.1679 89.7429 86.1661 88.3577 81.5121C87.6345 78.2938 88.0145 74.9284 89.4377 71.9482Z" fill="white" stroke="#263238" stroke-width="0.87" stroke-linecap="round" stroke-linejoin="round"/>
<path d="M127.039 67C126.852 69.5979 127.346 72.2004 128.46 74.4881C130.199 77.2219 132.32 77.626 131.96 79.2425C131.599 80.859 128.099 82 128.099 82" stroke="#263238" stroke-width="0.87" stroke-linecap="round" stroke-linejoin="round"/>
<path d="M126 92.2C126 92.2 124.688 97 121.765 97C118.843 97 120.431 91 120.431 91C122.204 91.7938 124.093 92.201 126 92.2Z" fill="#263238"/>
<path d="M129 91.1184C129 91.1184 123.01 93.713 119 90" stroke="#263238" stroke-width="0.87" stroke-linecap="round" stroke-linejoin="round"/>
<path d="M133.5 73C132.672 73 132 71.6569 132 70C132 68.3432 132.672 67 133.5 67C134.328 67 135 68.3432 135 70C135 71.6569 134.328 73 133.5 73Z" fill="#263238"/>
<path d="M118 70.988C118 72.6506 118.667 74 119.515 74C120.364 74 121 72.6506 121 70.988C121 69.3253 120.333 68 119.515 68C118.697 68 118 69.3494 118 70.988Z" fill="#263238"/>
<path d="M138 64C137.79 63.4203 137.466 62.8895 137.047 62.4397C136.628 61.9899 136.123 61.6305 135.562 61.383C135.001 61.1356 134.396 61.0053 133.784 61.0002C133.172 60.995 132.565 61.115 132 61.3529" stroke="#263238" stroke-width="0.87" stroke-linecap="round" stroke-linejoin="round"/>
<path d="M123 61.4715C122.097 61.1205 121.121 60.962 120.144 61.0077C119.167 61.0533 118.213 61.3019 117.351 61.7355C116.49 62.169 115.742 62.7766 115.162 63.5142C114.583 64.2518 114.186 65.1009 114 66" stroke="#263238" stroke-width="0.87" stroke-linecap="round" stroke-linejoin="round"/>
<path d="M95.8589 39.3729C103.561 31.9551 122.221 29.7555 133.318 39.6537C135.466 41.7121 137.074 44.2678 138 47.0949C133.842 44.8954 129.276 43.5733 124.585 43.2105C114.986 42.3915 105.364 48.9903 102.625 55.5656C99.8857 62.141 99.3238 77 99.3238 77C99.3238 77 95.7418 71.2202 93.5411 70.682C92.9214 70.5223 92.2666 70.5683 91.6754 70.8131C91.0841 71.0579 90.5886 71.4883 90.2635 72.0392C90.2635 72.0392 88.1564 46.7907 95.8589 39.3729Z" fill="#263238" stroke="#263238" stroke-width="0.87" stroke-linecap="round" stroke-linejoin="round"/>
<path d="M64.255 208.849L130 239.376L127.663 248C127.663 248 41 229.208 41 226.833C41 224.457 48.1985 205 48.1985 205" fill="#4A77BC"/>
<path d="M64.255 208.849L130 239.376L127.663 248C127.663 248 41 229.208 41 226.833C41 224.457 48.1985 205 48.1985 205" fill="#4A77BC"/>
<path d="M64.255 208.849L130 239.376L127.663 248C127.663 248 41 229.208 41 226.833C41 224.457 48.1985 205 48.1985 205" stroke="#263238" stroke-width="0.87" stroke-linecap="round" stroke-linejoin="round"/>
<path d="M146.83 200.265C145.38 202.513 144.356 205.018 143.809 207.65C142.299 213.218 140.468 230.178 139.873 234.488C139.278 238.798 132 259.765 132 259.765L137.149 261L155 206.997C155 206.997 152.597 198.401 146.83 200.265Z" fill="white" stroke="#263238" stroke-width="0.87" stroke-linecap="round" stroke-linejoin="round"/>
<path d="M189 215.263L172.325 274L135 264.557L149.654 207L189 215.263Z" fill="white" stroke="#263238" stroke-width="0.87" stroke-linecap="round" stroke-linejoin="round"/>
<path d="M189.548 215.528C189.548 215.528 193 217.32 193 213.921C193 210.522 191.46 209.265 187.752 208.985C184.043 208.706 159.037 203.747 153.182 201.279C147.327 198.811 147 200.674 147 200.674C148.046 201.415 148.845 202.453 149.294 203.652C149.743 204.852 149.822 206.158 149.519 207.402L189.548 215.528Z" fill="white" stroke="#263238" stroke-width="0.87" stroke-linecap="round" stroke-linejoin="round"/>
<path d="M129.352 238.973C129.352 238.973 143.183 236 144.053 236C144.923 236 162 248.201 162 248.201L160.542 253.243C159.48 253.502 158.387 253.606 157.296 253.552C154.944 253.552 146.405 252.958 146.405 252.958L157.884 255.931L157.013 258C157.013 258 141.113 255.027 139.067 254.742C137.02 254.456 127 247.606 127 247.606L129.352 238.973Z" fill="white" stroke="#263238" stroke-width="0.87" stroke-linecap="round" stroke-linejoin="round"/>
<path d="M262.475 147.335L274.94 142.868L288.842 133L290 135.619L278.856 148.083L283.629 159.027L274.06 166.323L265.371 171L259 158.442L262.475 147.335Z" fill="white" stroke="#263238" stroke-width="0.87" stroke-linecap="round" stroke-linejoin="round"/>
<path d="M259 157.656C259 157.656 260.506 147.252 262.643 144.876C265.192 142.483 267.937 140.298 270.851 138.344L274.179 133C274.179 133 276 133.285 276 134.781C275.28 137.931 274.264 141.008 272.964 143.974C272.177 146.028 271.044 147.939 269.613 149.627C269.613 149.627 271.75 154.378 270.536 157.347C269.503 159.48 268.06 161.4 266.286 163" fill="white"/>
<path d="M259 157.656C259 157.656 260.506 147.252 262.643 144.876C265.192 142.483 267.937 140.298 270.851 138.344L274.179 133C274.179 133 276 133.285 276 134.781C275.28 137.931 274.264 141.008 272.964 143.974C272.177 146.028 271.044 147.939 269.613 149.627C269.613 149.627 271.75 154.378 270.536 157.347C269.503 159.48 268.06 161.4 266.286 163" stroke="#263238" stroke-width="0.87" stroke-linecap="round" stroke-linejoin="round"/>
<path d="M282.047 143C282.047 143 287.781 158.973 286.91 160.155C286.038 161.336 278.308 163.699 277.459 162.801C275.438 158.763 273.616 154.623 272 150.396L282.047 143Z" fill="white" stroke="#263238" stroke-width="0.87" stroke-linecap="round" stroke-linejoin="round"/>
<path d="M82 297C82 297 82 299.593 82 304" stroke="white" stroke-width="0.87" stroke-linecap="round" stroke-linejoin="round"/>
<path d="M346.996 82.3131C354.279 82.1614 361.495 83.7277 368.07 86.8868C374.644 90.0459 380.394 94.7102 384.86 100.507C400.907 120.562 397.315 154.88 397.315 157.411C397.315 159.941 416.912 172.907 405.349 194.886C393.786 216.865 397.647 216.865 400.221 229.162C402.796 241.459 392.52 254.257 369.416 259.548C346.311 264.839 328.355 255.01 319.366 240.727C310.378 226.443 301.389 198.713 302.033 188.445C302.676 178.177 320.716 165.776 320.155 156.721C319.595 147.665 301.368 126.209 312.952 103.77C321.338 87.4786 336.741 80.3683 346.996 82.3131Z" fill="#263238" stroke="#263238" stroke-linecap="round" stroke-linejoin="round"/>
<path d="M385 191C385.6 191.649 386.26 192.325 387 193" stroke="white" stroke-width="0.5" stroke-linecap="round" stroke-linejoin="round"/>
<path d="M329.132 93C329.132 93 320.229 107 323.878 114.31C327.526 121.62 353.712 126.736 372.038 134.067C390.364 141.398 394.971 149.682 387.737 162.149C381.753 172.317 376.479 179.379 382.108 187" stroke="white" stroke-width="0.5" stroke-linecap="round" stroke-linejoin="round"/>
<path d="M341.766 91C339.517 95.1441 338.392 101.36 344.848 108.136C356.365 120.112 384.834 117.439 393.081 133.601C401.328 149.763 393.997 156 393.997 156" stroke="white" stroke-width="0.5" stroke-linecap="round" stroke-linejoin="round"/>
<path d="M346 85C345.28 85.6125 344.611 86.2814 344 87" stroke="white" stroke-width="0.5" stroke-linecap="round" stroke-linejoin="round"/>
<path d="M313.373 202L289.016 266.076L243.256 300.712H217.006L208 312H245.44L297.44 284.583C301.737 282.322 305.399 279.015 308.09 274.965L325 249.509L313.373 202Z" fill="white" stroke="#263238" stroke-linecap="round" stroke-linejoin="round"/>
<path d="M255 292.106L288.97 266.307L313.33 202L325 249.681L308.088 275.228C305.396 279.293 301.734 282.612 297.437 284.881L268.854 300L255 292.106Z" fill="#4A77BC"/>
<path d="M255 292.106L288.97 266.307L313.33 202L325 249.681L308.088 275.228C305.396 279.293 301.734 282.612 297.437 284.881L268.854 300L255 292.106Z" fill="#4A77BC"/>
<mask id="mask0_292_15179" style="mask-type:luminance" maskUnits="userSpaceOnUse" x="255" y="202" width="71" height="99">
<path d="M255.233 292.172L289.283 266.459L313.701 202.363L325.398 249.887L308.446 275.35C305.748 279.401 302.077 282.71 297.77 284.972L269.12 300.041L255.233 292.172Z" fill="white"/>
</mask>
<g mask="url(#mask0_292_15179)">
<path opacity="0.6" d="M255.233 292.172L289.283 266.459L313.701 202.363L325.398 249.887L308.446 275.35C305.748 279.401 302.077 282.71 297.77 284.972L269.12 300.041L255.233 292.172Z" fill="white"/>
</g>
<path d="M255 292.106L288.97 266.307L313.33 202L325 249.681L308.088 275.228C305.396 279.293 301.734 282.612 297.437 284.881L268.854 300L255 292.106Z" stroke="#263238" stroke-linecap="round" stroke-linejoin="round"/>
<path d="M361.56 154C361.56 154 360.482 179.748 360.482 185.4C360.482 191.053 372.591 194.315 372.591 194.315C372.591 194.315 388.993 198.472 391.378 204.041C395.877 214.556 374.54 264.306 373.234 266.904C371.928 269.502 377.589 320 377.589 320H299L317.662 265.158C317.662 265.158 305.656 246.871 305.656 240.346C305.656 233.82 308.538 211.252 313.764 202.503C318.989 193.754 335.246 187.416 336.988 186.107C338.73 184.798 338.045 169.004 338.045 169.004L357.62 157.159L361.56 154Z" fill="#4A77BC"/>
<path d="M361.56 154C361.56 154 360.482 179.748 360.482 185.4C360.482 191.053 372.591 194.315 372.591 194.315C372.591 194.315 388.993 198.472 391.378 204.041C395.877 214.556 374.54 264.306 373.234 266.904C371.928 269.502 377.589 320 377.589 320H299L317.662 265.158C317.662 265.158 305.656 246.871 305.656 240.346C305.656 233.82 308.538 211.252 313.764 202.503C318.989 193.754 335.246 187.416 336.988 186.107C338.73 184.798 338.045 169.004 338.045 169.004L357.62 157.159L361.56 154Z" fill="#4A77BC"/>
<path d="M361.56 154C361.56 154 360.482 179.748 360.482 185.4C360.482 191.053 372.591 194.315 372.591 194.315C372.591 194.315 388.993 198.472 391.378 204.041C395.877 214.556 374.54 264.306 373.234 266.904C371.928 269.502 377.589 320 377.589 320H299L317.662 265.158C317.662 265.158 305.656 246.871 305.656 240.346C305.656 233.82 308.538 211.252 313.764 202.503C318.989 193.754 335.246 187.416 336.988 186.107C338.73 184.798 338.045 169.004 338.045 169.004L357.62 157.159L361.56 154Z" stroke="#263238" stroke-linecap="round" stroke-linejoin="round"/>
<path d="M361.122 185.242C361.143 186.111 361.427 186.954 361.937 187.661L361.477 188.426C361.477 188.426 357.172 197.668 352.511 205.834C348.395 212.509 343.843 218.911 338.884 225L336 187.02L336.188 186.648C336.623 186.445 337.042 186.21 337.442 185.945C338.181 184.745 338.552 183.359 338.508 181.955L347.37 163.657L358.238 157.145L358.405 157L362 159.067C361.686 166.821 361.122 181.19 361.122 185.242Z" fill="white" stroke="#263238" stroke-linecap="round" stroke-linejoin="round"/>
<path d="M385.142 199C385.142 199 398.849 202.433 400.163 208.127C401.478 213.821 425.491 278.716 420.254 283.97C415.018 289.224 380.927 308.525 377.443 310.263C373.959 312 325.453 312.901 324.138 310.703C322.824 308.504 331.127 300.633 338.555 297.996C345.982 295.358 366.073 303.69 367.387 303.69C368.702 303.69 400.685 276.078 400.685 276.078L381.449 224.351" fill="#4A77BC"/>
<path d="M385.142 199C385.142 199 398.849 202.433 400.163 208.127C401.478 213.821 425.491 278.716 420.254 283.97C415.018 289.224 380.927 308.525 377.443 310.263C373.959 312 325.453 312.901 324.138 310.703C322.824 308.504 331.127 300.633 338.555 297.996C345.982 295.358 366.073 303.69 367.387 303.69C368.702 303.69 400.685 276.078 400.685 276.078L381.449 224.351" fill="#4A77BC"/>
<path d="M385.142 199C385.142 199 398.849 202.433 400.163 208.127C401.478 213.821 425.491 278.716 420.254 283.97C415.018 289.224 380.927 308.525 377.443 310.263C373.959 312 325.453 312.901 324.138 310.703C322.824 308.504 331.127 300.633 338.555 297.996C345.982 295.358 366.073 303.69 367.387 303.69C368.702 303.69 400.685 276.078 400.685 276.078L381.449 224.351" stroke="#263238" stroke-linecap="round" stroke-linejoin="round"/>
<path d="M338.481 298.03C345.87 295.416 365.859 303.674 367.166 303.674C367.997 303.674 380.741 292.926 390.165 285C391.662 285.818 392.987 286.917 394.067 288.237L401 296.661C390.414 302.885 379.102 309.317 377.171 310.272C373.684 312.015 325.445 312.886 324.138 310.708C322.83 308.529 331.091 300.645 338.481 298.03Z" fill="white" stroke="#263238" stroke-linecap="round" stroke-linejoin="round"/>
<path d="M365.995 134.829V143.117C367.33 142.716 368.748 142.684 370.1 143.023C371.452 143.362 372.688 144.06 373.676 145.044C376.782 147.716 373.449 152.979 373.449 152.979C370.919 154.253 368.173 155.041 365.353 155.299C365.353 155.299 355.911 174.216 348.25 177.406C340.589 180.597 335.31 181.55 328.498 176.143C317.938 167.689 318.973 152.275 318.973 145.23C318.973 138.186 318 128.406 318 128.406L324.481 119C324.481 119 352.64 134.829 365.995 134.829Z" fill="white" stroke="#263238" stroke-linecap="round" stroke-linejoin="round"/>
<path d="M341.051 143.698C341.317 145.632 342.38 147.104 343.467 146.994C344.554 146.884 345.206 145.214 344.941 143.28C344.675 141.346 343.612 139.896 342.525 140.006C341.438 140.116 340.81 141.786 341.051 143.698Z" fill="#263238"/>
<path d="M324.057 143.698C324.298 145.632 325.379 147.104 326.46 146.994C327.542 146.884 328.19 145.214 327.95 143.28C327.71 141.346 326.629 139.896 325.547 140.006C324.466 140.116 323.793 141.786 324.057 143.698Z" fill="#263238"/>
<path d="M334 156.936C332.878 157.078 331.738 156.984 330.657 156.66C329.575 156.337 328.577 155.79 327.73 155.059C329.436 152.359 330.434 149.29 330.635 146.124C330.709 144.402 330.351 142.688 329.594 141.132C328.836 139.575 327.702 138.222 326.288 137.189C326.288 137.189 321.961 132.966 321 136.251" stroke="#263238" stroke-linecap="round" stroke-linejoin="round"/>
<path d="M332 164C334.937 164 338.063 164 341 164" stroke="#263238" stroke-linecap="round" stroke-linejoin="round"/>
<path d="M347 136C345.372 135.348 343.458 135 341.5 135C339.542 135 337.628 135.348 336 136" stroke="#263238" stroke-linecap="round" stroke-linejoin="round"/>
<path d="M362.019 178L349 200.62L355.13 220L366 192.362L362.019 178Z" fill="white" stroke="#263238" stroke-linecap="round" stroke-linejoin="round"/>
<path d="M348.693 200L338 225L352 210.711L348.693 200Z" fill="white" stroke="#263238" stroke-linecap="round" stroke-linejoin="round"/>
<path d="M338 225L330 201.422L335.387 187L338 225Z" fill="white" stroke="#263238" stroke-linecap="round" stroke-linejoin="round"/>
<path d="M330.46 201L325 218L333 210.985L330.46 201Z" fill="white" stroke="#263238" stroke-linecap="round" stroke-linejoin="round"/>
<path d="M477.768 121.007L456.154 209.24L403.157 253.892L408.666 264.185L473.128 232.928L506.742 168.897C506.742 168.897 484.66 118.552 477.768 121.007Z" fill="#4A77BC"/>
<path d="M477.768 121.007L456.154 209.24L403.157 253.892L408.666 264.185L473.128 232.928L506.742 168.897C506.742 168.897 484.66 118.552 477.768 121.007Z" fill="#4A77BC"/>
<path d="M477.768 121.007L456.154 209.24L403.157 253.892L408.666 264.185L473.128 232.928L506.742 168.897C506.742 168.897 484.66 118.552 477.768 121.007Z" stroke="#263238" stroke-width="0.97" stroke-linecap="round" stroke-linejoin="round"/>
<path d="M527.175 566.48L493.672 585.011H549.212L543.926 565.587L527.175 566.48Z" fill="white" stroke="#263238" stroke-width="0.97" stroke-linecap="round" stroke-linejoin="round"/>
<path d="M607.271 256.572C607.271 256.572 617.844 301.581 614.32 312.164C610.796 322.747 593.152 424.241 593.152 424.241L616.082 565.588L599.331 566.481L543.791 422.477L555.256 318.348L548.207 320.112L521.754 425.045L543.546 566.191H526.795L486.4 399.526L517.337 283.051L516.467 267.155L607.271 256.572Z" fill="#263238" stroke="#263238" stroke-width="0.97" stroke-linecap="round" stroke-linejoin="round"/>
<path d="M537.386 99.3732C537.386 99.3732 585.676 108.527 588.308 109.866C590.94 111.206 594.264 117.792 592.948 121.699C591.632 125.606 606.175 239.581 607.491 248.958C608.807 258.335 604.836 262.198 598.234 265.502C591.632 268.806 527.482 270.793 520.858 270.793C514.233 270.793 515.571 262.198 514.166 259.63C512.761 257.063 477.14 129.915 476.471 125.941C475.801 121.967 477.809 120.65 484.411 114.778C491.013 108.906 515.482 96.2476 515.482 96.2476L537.386 99.3732Z" fill="#4A77BC"/>
<path d="M537.386 99.3732C537.386 99.3732 585.676 108.527 588.308 109.866C590.94 111.206 594.264 117.792 592.948 121.699C591.632 125.606 606.175 239.581 607.491 248.958C608.807 258.335 604.836 262.198 598.234 265.502C591.632 268.806 527.482 270.793 520.858 270.793C514.233 270.793 515.571 262.198 514.166 259.63C512.761 257.063 477.14 129.915 476.471 125.941C475.801 121.967 477.809 120.65 484.411 114.778C491.013 108.906 515.482 96.2476 515.482 96.2476L537.386 99.3732Z" fill="#4A77BC"/>
<path d="M537.386 99.3732C537.386 99.3732 585.676 108.527 588.308 109.866C590.94 111.206 594.264 117.792 592.948 121.699C591.632 125.606 606.175 239.581 607.491 248.958C608.807 258.335 604.836 262.198 598.234 265.502C591.632 268.806 527.482 270.793 520.858 270.793C514.233 270.793 515.571 262.198 514.166 259.63C512.761 257.063 477.14 129.915 476.471 125.941C475.801 121.967 477.809 120.65 484.411 114.778C491.013 108.906 515.482 96.2476 515.482 96.2476L537.386 99.3732Z" stroke="#263238" stroke-width="0.97" stroke-linecap="round" stroke-linejoin="round"/>
<path d="M599.334 566.48L565.831 585.011H621.371L616.085 565.587L599.334 566.48Z" fill="white" stroke="#263238" stroke-width="0.97" stroke-linecap="round" stroke-linejoin="round"/>
<path d="M583.545 108.661C583.545 108.661 600.564 107.88 599.002 153.559C598.69 162.846 593.604 207.744 592.043 217.791C590.482 227.838 548.749 312.231 548.749 312.231L536.369 310.69L560.347 209.285L554.927 143.49" fill="#4A77BC"/>
<path d="M583.545 108.661C583.545 108.661 600.564 107.88 599.002 153.559C598.69 162.846 593.604 207.744 592.043 217.791C590.482 227.838 548.749 312.231 548.749 312.231L536.369 310.69L560.347 209.285L554.927 143.49" fill="#4A77BC"/>
<path d="M583.545 108.661C583.545 108.661 600.564 107.88 599.002 153.559C598.69 162.846 593.604 207.744 592.043 217.791C590.482 227.838 548.749 312.231 548.749 312.231L536.369 310.69L560.347 209.285L554.927 143.49" stroke="#263238" stroke-width="0.97" stroke-linecap="round" stroke-linejoin="round"/>
<path d="M548.749 312.231C548.749 312.231 544.868 320.759 542.548 321.518C540.228 322.277 498.473 323.081 498.473 323.081C498.473 323.081 506.213 317.656 511.611 314.553C517.009 311.449 540.228 309.909 540.228 309.909L548.749 312.231Z" fill="white" stroke="#263238" stroke-width="0.97" stroke-linecap="round" stroke-linejoin="round"/>
<path d="M526.822 83.3877L534.093 88.0092L546.004 103.838L538.063 140.23L525.506 125.004L517.565 136.167L508.308 128.397L495.751 140.967C495.751 140.967 495.082 121.766 500.368 106.54C505.654 91.3135 519.55 78.7439 526.822 83.3877Z" fill="#4A77BC"/>
<path d="M526.822 83.3877L534.093 88.0092L546.004 103.838L538.063 140.23L525.506 125.004L517.565 136.167L508.308 128.397L495.751 140.967C495.751 140.967 495.082 121.766 500.368 106.54C505.654 91.3135 519.55 78.7439 526.822 83.3877Z" fill="#4A77BC"/>
<path d="M526.822 83.3877L534.093 88.0092L546.004 103.838L538.063 140.23L525.506 125.004L517.565 136.167L508.308 128.397L495.751 140.967C495.751 140.967 495.082 121.766 500.368 106.54C505.654 91.3135 519.55 78.7439 526.822 83.3877Z" stroke="#263238" stroke-width="0.97" stroke-linecap="round" stroke-linejoin="round"/>
<path d="M526.169 62.8706C526.169 62.8706 528.132 85.3753 526.816 94.6407C525.5 103.906 520.125 133.019 516.244 125.071C512.362 117.123 498.399 91.3364 498.399 91.3364C498.399 91.3364 522.087 73.4532 526.169 62.8706Z" fill="white" stroke="#263238" stroke-width="0.97" stroke-linecap="round" stroke-linejoin="round"/>
<path d="M530.119 58.8967C530.119 58.8967 534.758 31.1006 530.788 20.5181C526.818 9.93549 512.275 4.62187 495.1 9.91316C477.925 15.2045 467.977 20.5181 465.323 32.3956C464.617 35.9025 464.865 39.5349 466.042 42.9127C467.22 46.2905 469.282 49.2896 472.014 51.596C472.014 51.596 479.932 33.0653 489.189 31.0783C498.446 29.0913 507.033 28.4215 505.74 35.0524C504.446 41.6832 503.754 50.2788 507.725 53.583C511.695 56.8873 512.342 58.2045 514.416 63.5182C516.491 68.8318 522.089 74.1231 526.818 68.1173C531.547 62.1116 530.119 58.8967 530.119 58.8967Z" fill="#263238" stroke="#263238" stroke-width="0.97" stroke-linecap="round" stroke-linejoin="round"/>
<path d="M525.506 60.8824C525.506 60.8824 526.822 52.2869 532.777 55.5912C538.733 58.8954 530.123 71.465 530.123 71.465C529.191 80.4197 525.759 88.9309 520.219 96.0237C510.963 107.946 494.925 109.553 485.825 101.985C475.542 93.4339 470.613 54.3409 470.613 54.3409C470.613 54.3409 466.665 49.0273 475.252 35.7879C483.84 22.5485 512.948 22.5708 514.933 27.8621C516.918 33.1534 508.978 43.736 510.963 47.71C512.948 51.6841 518.881 47.0403 520.219 54.4079C521.558 61.7755 522.851 66.8435 525.506 60.8824Z" fill="white" stroke="#263238" stroke-width="0.97" stroke-linecap="round" stroke-linejoin="round"/>
<path d="M481.807 55.5249C481.807 55.5249 487.294 61.0171 487.294 67.0452C487.294 73.0732 481.807 77.0473 486.402 78.5654C490.997 80.0836 492.402 79.0566 492.402 79.0566" stroke="#263238" stroke-width="0.97" stroke-linecap="round" stroke-linejoin="round"/>
<path d="M494.324 87.0718C496.268 87.3147 498.242 87.0774 500.073 86.3808C501.905 85.6841 503.538 84.5493 504.83 83.0754" stroke="#263238" stroke-width="0.97" stroke-linecap="round" stroke-linejoin="round"/>
<path d="M498.162 61.8875C498.63 63.7405 499.768 65.0578 500.705 64.8345C501.642 64.6113 502.043 62.8922 501.575 61.0391C501.106 59.186 499.969 57.8465 499.032 58.092C498.095 58.3376 497.694 60.0344 498.162 61.8875Z" fill="#263238"/>
<path d="M479.133 64.9015C479.602 66.7545 480.761 68.0718 481.698 67.8262C482.635 67.5806 483.014 65.9062 482.546 64.0308C482.077 62.1554 480.94 60.8605 480.003 61.106C479.066 61.3516 478.687 63.0261 479.133 64.9015Z" fill="#263238"/>
<path d="M505.313 49.4971C505.313 49.4971 501.32 45.0319 494.316 50.5018" stroke="#263238" stroke-width="0.97" stroke-linecap="round" stroke-linejoin="round"/>
<path d="M479.707 54.0068C479.707 54.0068 474.711 51.9974 473.707 57.0208" stroke="#263238" stroke-width="0.97" stroke-linecap="round" stroke-linejoin="round"/>
<path d="M514.932 27.796C513.589 29.798 511.83 31.4851 509.773 32.7415C507.717 33.9979 505.414 34.7938 503.021 35.0743C494.434 36.3916 483.839 35.0743 481.854 42.3526C479.869 49.6309 470.701 58.2265 460.039 53.5157C449.377 48.8049 448.151 28.3542 454.753 19.7586C461.355 11.1631 469.296 12.5696 477.237 9.26534C485.177 5.96107 485.177 0 497.066 0C508.954 0 522.851 11.1631 514.91 17.8609" fill="#263238"/>
<path d="M514.932 27.796C513.589 29.798 511.83 31.4851 509.773 32.7415C507.717 33.9979 505.414 34.7938 503.021 35.0743C494.434 36.3916 483.839 35.0743 481.854 42.3526C479.869 49.6309 470.701 58.2265 460.039 53.5157C449.377 48.8049 448.151 28.3542 454.753 19.7586C461.355 11.1631 469.296 12.5696 477.237 9.26534C485.177 5.96107 485.177 0 497.066 0C508.954 0 522.851 11.1631 514.91 17.8609" stroke="#263238" stroke-width="0.97" stroke-linecap="round" stroke-linejoin="round"/>
<path d="M403.166 253.848L391.567 253.513L380.415 264.676L382.065 267.221C380.155 269.486 378.722 272.113 377.85 274.946C377.158 278.451 379.946 283.363 379.946 283.363C383.354 281.309 386.443 278.767 389.114 275.816C391.88 272.133 402.497 271.351 408.742 264.073L403.166 253.848Z" fill="white" stroke="#263238" stroke-width="0.97" stroke-linecap="round" stroke-linejoin="round"/>
<path d="M381.995 267.288L391.363 261.126C391.363 261.126 396.806 265.591 402.047 262.22" stroke="#263238" stroke-width="0.97" stroke-linecap="round" stroke-linejoin="round"/>
<path d="M266.456 315.625H417.93V321.742H266.456V315.625Z" fill="white" stroke="#263238" stroke-linecap="round" stroke-linejoin="round"/>
<path d="M223.739 315.625H375.213V321.742H223.739V315.625Z" fill="white" stroke="#263238" stroke-linecap="round" stroke-linejoin="round"/>
<path d="M199.247 208.237H325.561V304.752H199.247V208.237Z" fill="white" stroke="#263238" stroke-linecap="round" stroke-linejoin="round"/>
<path d="M194.033 208.237H320.347V304.752H194.033V208.237Z" fill="white" stroke="#263238" stroke-linecap="round" stroke-linejoin="round"/>
<path d="M232.732 259.899H265.319V321.742H232.732V259.899Z" fill="white" stroke="#263238" stroke-linecap="round" stroke-linejoin="round"/>
<path d="M76.8861 294.415H183.081V319.778H76.8861V294.415Z" fill="white" stroke="#263238" stroke-linecap="round" stroke-linejoin="round"/>
<path d="M76.9047 294.415H136.37V319.778H76.9047V294.415Z" fill="white" stroke="#263238" stroke-linecap="round" stroke-linejoin="round"/>
<path d="M45.9184 316.069C46.2355 316.208 46.5749 316.288 46.9202 316.305L46.9789 316.285L47.0601 316.286C47.8049 316.286 48.5202 315.993 49.0524 315.471C49.5845 314.95 49.891 314.239 49.9059 313.494L49.9059 313.493L50.6642 278.329L50.6661 278.242L50.6972 278.161L67.3146 234.781L67.4949 234.311L67.9642 234.495L107.778 250.123C107.778 250.123 107.778 250.123 107.778 250.123C108.483 250.397 109.267 250.38 109.959 250.076C110.651 249.771 111.194 249.204 111.468 248.498C111.743 247.793 111.726 247.007 111.422 246.314C111.117 245.621 110.55 245.078 109.846 244.803L109.846 244.803L66.8861 228.059L66.8861 228.059L66.8796 228.056C66.1801 227.772 65.3979 227.771 64.6978 228.053C64.3577 228.205 64.0511 228.422 63.796 228.694C63.5391 228.967 63.3396 229.29 63.2094 229.642L63.2095 229.642L63.2074 229.647L45.1654 276.703C45.0554 277.021 44.9904 277.353 44.9723 277.689L44.2141 313.402C44.2066 313.776 44.2728 314.148 44.4089 314.497C44.545 314.845 44.7484 315.164 45.0074 315.434C45.2664 315.703 45.576 315.919 45.9184 316.069Z" fill="#BBD6FF" stroke="#263238"/>
<path d="M25.1563 307.096H68.9858V319.777H25.1563V307.096Z" fill="#BBD6FF" stroke="#263238" stroke-linecap="round" stroke-linejoin="round"/>
<path d="M58.5816 230.607C58.5816 234.634 61.8435 237.899 65.8662 237.899C69.8888 237.899 73.1506 234.634 73.1506 230.607C73.1506 226.579 69.8888 223.315 65.8662 223.315C61.8435 223.315 58.5816 226.579 58.5816 230.607Z" fill="#BBD6FF" stroke="#263238"/>
<path d="M42.0456 275.475C41.2451 276.681 40.82 278.097 40.8242 279.545C40.8297 281.481 41.6021 283.336 42.9718 284.703C44.3415 286.07 46.1968 286.838 48.131 286.838C49.5769 286.838 50.9903 286.408 52.1924 285.604C53.3944 284.799 54.331 283.656 54.8835 282.318C55.436 280.98 55.5795 279.508 55.2958 278.089C55.0121 276.669 54.314 275.366 53.29 274.344C52.2661 273.322 50.9622 272.627 49.5435 272.347C48.1249 272.068 46.6551 272.215 45.3204 272.772C43.9857 273.329 42.846 274.27 42.0456 275.475Z" fill="#BBD6FF" stroke="#263238"/>
<path d="M122.278 277.709L139.968 238.815L111.7 240.576L105.035 255.211L122.278 277.709Z" fill="#BBD6FF" stroke="#263238"/>
<path d="M3.96954 329.914H563.917V592H3.96954V329.914Z" fill="white" stroke="#263238" stroke-linecap="round" stroke-linejoin="round"/>
<path d="M453.797 329.914H563.917V592H453.797V329.914Z" fill="#BBD6FF" stroke="#263238" stroke-linecap="round" stroke-linejoin="round"/>
<path d="M457.97 320.76H491.271L500.35 279.836H467.048L457.97 320.76Z" fill="white" stroke="#263238" stroke-linecap="round" stroke-linejoin="round"/>
<path d="M461.759 320.76H495.061L504.139 279.836H470.837L461.759 320.76Z" fill="white" stroke="#263238" stroke-linecap="round" stroke-linejoin="round"/>
<path d="M493.545 320.76H477.507L473.136 301.069H489.173L493.545 320.76Z" fill="white" stroke="#263238" stroke-linecap="round" stroke-linejoin="round"/>
<path d="M-2.14001 319.71H570.031V336.031H-2.14001V319.71Z" fill="#BBD6FF" stroke="#263238" stroke-linecap="round" stroke-linejoin="round"/>
<path d="M-2.14218 319.71H446.481V336.031H-2.14218V319.71Z" fill="white" stroke="#263238" stroke-linecap="round" stroke-linejoin="round"/>
<path d="M446.481 336.031H25.1147" stroke="#263238" stroke-linecap="round" stroke-linejoin="round"/>
</g>
<defs>
<clipPath id="clip0_292_15179">
<rect width="720" height="592" fill="white"/>
</clipPath>
</defs>
</svg>
