<svg width="81" height="25" viewBox="0 0 81 25" fill="none" xmlns="http://www.w3.org/2000/svg">
<g clip-path="url(#clip0_25_295)">
<path d="M15.6498 18.4814H9.05078V24.8694H15.6498V18.4814Z" fill="#ABEBF4"/>
<path d="M21.4918 9.68927H9.05078V16.0541H23.7388V9.68927H21.4918Z" fill="#00B3C8"/>
<path d="M29.4628 0.875061H9.05078V7.26313H29.4628V0.875061Z" fill="#009BB5"/>
<path d="M7.5365 9.68903H0.9375V16.0761H7.5365V9.68903Z" fill="#00B3C8"/>
<path d="M42.0203 9.553V12.7582H48.6903V15.9633H42.0203V20.9772H37.7383V6.34784H49.5883V9.52977H42.0203V9.553ZM55.7623 9.62171H51.1263V6.34784H64.6553V9.62171H60.0433V20.954H55.7623V9.62171ZM76.0103 20.954L72.8873 16.4211L69.8133 20.954H64.9403L70.4043 13.5817L65.1533 6.3701H69.9543L72.9823 10.5827L75.9623 6.3701H80.5753L75.3233 13.4211L80.9293 20.9762H76.0103V20.954Z" fill="#35363E"/>
</g>
<defs>
<clipPath id="clip0_25_295">
<rect width="80" height="24" fill="white" transform="translate(0.9375 0.875061)"/>
</clipPath>
</defs>
</svg>
