<svg width="1920" height="922" viewBox="0 0 1920 922" fill="none" xmlns="http://www.w3.org/2000/svg" preserveAspectRatio="none">
<g opacity="0.12">
<path d="M-242 768.717C-219.217 759.378 111.262 595.134 377.697 462.309C499.599 401.537 643.861 406.997 761.486 475.684C1070.36 656.051 1475.41 884.678 1502.08 868.345C1534.75 848.341 2192.21 281.78 2516.85 1" stroke="url(#paint0_linear_292_15106)"/>
<path d="M-240.953 768.678L77.8432 605.453C176.957 561.484 288.357 514.308 389.291 470.128C513.917 415.578 658.166 421.412 776.369 488.755C1080.11 661.808 1479.77 875.657 1509.97 855.822L2523.15 10.4136" stroke="url(#paint1_linear_292_15106)"/>
<path d="M-239.906 768.643L76.5835 599.995C178.855 559.739 296.286 517.906 401.203 477.889C528.145 429.471 672.404 435.787 791.212 501.692C1089.88 667.368 1484.17 866.607 1517.86 843.304L2529.44 19.8311" stroke="url(#paint2_linear_292_15106)"/>
<path d="M-238.855 768.603L45.0749 611.293C65.2059 600.14 86.2339 590.704 108.052 583.382C205.841 550.568 315.538 517.856 413.41 485.635C542.281 443.208 686.645 450.153 806.083 514.515C1099.72 672.746 1488.62 857.517 1525.75 830.781L2535.74 29.2446" stroke="url(#paint3_linear_292_15106)"/>
<path d="M-237.809 768.565L34.1557 612.041C60.6763 596.778 88.8039 584.526 118.232 576.14C216.965 548.004 327.797 520.944 425.902 493.406C556.339 456.792 700.896 464.521 820.989 527.227C1109.64 677.944 1493.1 848.39 1533.64 818.26L2542.04 38.6594" stroke="url(#paint4_linear_292_15106)"/>
<path d="M-236.758 768.527L23.5886 613.013C56.2374 593.51 91.4641 578.617 128.471 569.856C228.319 546.22 340.29 524.406 438.679 501.232C570.348 470.22 715.166 478.889 835.939 539.819C1119.65 682.95 1497.62 839.222 1541.53 805.738L2548.34 48.0742" stroke="url(#paint5_linear_292_15106)"/>
<path d="M-235.711 768.489L13.3695 614.191C51.8782 590.336 94.0852 572.996 138.579 564.496C239.73 545.171 352.936 528.242 451.722 509.139C584.32 483.499 729.452 493.254 850.925 552.277C1129.74 687.752 1502.19 830.013 1549.42 793.217L2554.63 57.4893" stroke="url(#paint6_linear_292_15106)"/>
<path d="M-234.664 768.452L3.50396 615.563C47.5999 587.256 96.7816 567.628 148.617 559.959C251.224 544.78 365.749 532.432 465.022 517.15C598.276 496.637 743.76 507.616 865.953 564.592C1139.93 692.339 1506.81 820.76 1557.31 780.697L2560.93 66.9053" stroke="url(#paint7_linear_292_15106)"/>
<path d="M-233.617 768.413L-6.00848 617.11C43.4 584.266 99.4317 562.518 158.422 556.183C262.664 544.989 378.666 536.966 478.563 525.279C612.233 509.642 758.095 521.969 881.024 576.747C1150.2 696.696 1511.47 811.457 1565.19 768.175L2567.22 76.3188" stroke="url(#paint8_linear_292_15106)"/>
<path d="M-232.566 768.375L-15.166 618.822C39.2803 581.368 102.107 557.647 168.034 553.079C274.072 545.734 391.704 541.823 492.348 533.542C626.22 522.528 772.44 536.3 896.113 588.72C1160.55 700.806 1516.19 802.107 1573.09 755.653L2573.52 85.7334" stroke="url(#paint9_linear_292_15106)"/>
<path d="M-231.523 768.338L-23.9832 620.687C35.2278 578.563 104.782 553.002 177.408 550.572C285.415 546.956 404.859 546.988 506.384 541.95C640.27 535.305 786.731 550.579 911.151 600.474C1170.91 704.644 1520.95 792.713 1580.97 743.133L2579.81 95.1499" stroke="url(#paint10_linear_292_15106)"/>
<path d="M-230.473 768.299L-32.449 622.688C31.2568 575.844 107.389 548.57 186.464 548.582C296.617 548.6 418.081 552.442 520.633 550.51C654.371 547.99 801.064 564.835 926.226 612.023C1181.37 708.215 1525.78 783.263 1588.86 730.611L2586.11 104.563" stroke="url(#paint11_linear_292_15106)"/>
<path d="M-229.426 768.259L-40.5809 624.816C27.3543 573.214 109.993 544.331 195.261 547.042C307.715 550.617 431.373 558.166 535.07 559.23C668.517 560.599 815.434 579.062 941.325 623.352C1166.91 702.719 1463.98 761.088 1569.21 731.313C1589.05 725.698 1605.61 712.715 1623.24 702.016L2592.41 113.977" stroke="url(#paint12_linear_292_15106)"/>
<path d="M-228.375 768.222L-48.377 627.063C23.5276 570.674 112.596 540.277 203.801 545.893C318.705 552.968 444.735 564.149 549.688 568.118C682.72 573.148 829.854 593.256 956.448 634.447C1176.08 705.913 1465.06 753.176 1573.7 720.806C1595.97 714.171 1614.73 699.663 1634.78 687.918L2598.7 123.393" stroke="url(#paint13_linear_292_15106)"/>
<path d="M-227.328 768.184L-55.8521 629.414C19.7682 568.217 115.123 536.385 212.015 545.071C329.533 555.605 458.134 570.368 564.468 577.169C696.974 585.644 844.326 607.401 971.583 645.284C1185.47 708.955 1466.59 745.548 1578.19 710.418C1602.85 702.658 1623.87 686.649 1646.37 673.943L2605 132.808" stroke="url(#paint14_linear_292_15106)"/>
<path d="M-226.281 768.145L-63.0096 631.86C16.0797 565.844 117.6 532.64 219.933 544.525C340.217 558.494 471.579 576.811 579.403 586.386C711.285 598.098 858.843 621.48 986.709 655.84C1195.03 711.82 1468.53 738.162 1582.71 700.148C1609.71 691.159 1633.03 673.674 1658.03 660.09L2611.29 142.222" stroke="url(#paint15_linear_292_15106)"/>
<path d="M-225.234 768.108L-69.8577 634.396C12.4613 563.555 120.052 529.035 227.589 544.217C350.78 561.609 485.075 583.466 594.482 595.771C725.654 610.524 873.313 635.446 1001.71 666.074C1204.71 714.495 1470.97 731.002 1587.33 689.963C1616.63 679.628 1642.22 660.742 1669.77 646.364L2617.59 151.638" stroke="url(#paint16_linear_292_15106)"/>
<path d="M-224.184 768.068L-76.4002 637.007C8.91711 561.343 122.48 525.551 234.996 544.103C361.239 564.92 498.646 590.32 609.725 605.32C740.108 622.926 887.847 649.317 1016.68 675.993C1214.57 716.966 1473.87 724.011 1592.08 679.846C1623.65 668.05 1651.45 647.847 1681.59 632.76L2623.89 161.051" stroke="url(#paint17_linear_292_15106)"/>
<path d="M-223.137 768.03L-82.6532 639.69C5.43884 559.213 124.875 522.182 242.153 544.156C371.622 568.415 512.354 597.384 625.199 615.052C754.721 635.33 902.443 663.078 1031.6 685.585C1224.5 719.203 1477.01 717.156 1596.81 669.842C1630.62 656.489 1660.71 634.996 1693.49 619.288L2630.18 170.466" stroke="url(#paint18_linear_292_15106)"/>
<path d="M-222.09 767.994L-88.6214 642.437C2.03007 557.16 127.241 518.918 249.075 544.346C381.905 572.07 526.129 604.635 640.809 624.953C769.402 647.735 917.108 676.702 1046.44 694.833C1234.49 721.196 1480.38 710.421 1601.54 659.948C1637.56 644.943 1670.01 622.189 1705.49 605.95L2636.48 179.882" stroke="url(#paint19_linear_292_15106)"/>
<path d="M-221.043 767.955L-94.3128 645.238C-1.30899 555.179 129.533 515.735 255.728 544.634C392.063 575.856 539.963 612.061 656.554 635.019C784.15 660.144 931.842 690.161 1061.18 703.719C1244.5 722.937 1483.94 703.789 1606.26 650.16C1644.47 633.409 1679.34 609.426 1717.58 592.75L2642.77 189.296" stroke="url(#paint20_linear_292_15106)"/>
<path d="M-219.992 767.918L-99.7324 648.089C-4.57528 553.273 131.795 512.636 262.166 545.01C402.139 579.769 553.878 619.662 672.435 645.254C798.97 672.569 946.539 703.408 1075.69 712.23C1254.41 724.44 1487.66 697.266 1610.98 640.481C1651.34 621.893 1688.72 596.712 1729.77 579.698L2649.07 198.712" stroke="url(#paint21_linear_292_15106)"/>
<path d="M-218.945 767.88L-104.896 650.982C-7.77631 551.437 134.025 509.612 268.4 545.455C412.137 583.794 567.877 627.43 688.448 655.655C813.853 685.011 961.223 716.426 1089.96 720.37C1264.22 725.709 1491.51 690.841 1615.68 630.905C1658.18 610.39 1698.13 584.047 1742.06 566.796L2655.37 208.127" stroke="url(#paint22_linear_292_15106)"/>
<path d="M-217.898 767.84L-109.808 653.909C-10.9086 549.667 136.229 506.655 274.444 545.951C422.074 587.923 581.973 635.364 704.598 666.22C828.804 697.475 975.929 729.195 1104 728.145C1273.92 726.752 1495.49 684.504 1620.38 621.43C1664.99 598.901 1707.59 571.432 1754.44 554.051L2661.66 217.54" stroke="url(#paint23_linear_292_15106)"/>
<path d="M-216.852 767.803L-114.476 656.87C-13.9722 547.967 138.408 503.764 280.308 546.49C431.959 592.152 596.181 643.467 720.892 676.958C843.824 709.971 990.636 741.691 1117.78 735.571C1283.48 727.594 1499.57 678.262 1625.07 612.062C1671.76 587.43 1717.09 558.876 1766.93 541.476L2667.96 226.956" stroke="url(#paint24_linear_292_15106)"/>
<path d="M-215.801 767.764L-118.904 659.855C-16.964 546.329 140.568 500.928 286.007 547.056C441.873 596.491 610.653 651.78 737.495 687.908C859.07 722.536 1005.32 753.884 1131.23 742.662C1292.86 728.255 1503.74 672.111 1629.76 602.789C1678.52 575.971 1726.63 546.375 1779.52 529.074L2674.25 236.37" stroke="url(#paint25_linear_292_15106)"/>
<path d="M-214.754 767.726L-123.109 662.86C-19.8917 544.753 142.703 498.146 291.543 547.642C451.786 600.93 625.326 660.29 754.323 699.059C874.447 735.161 1019.92 765.757 1144.29 749.451C1302.02 728.771 1508.04 666.036 1634.52 593.569C1685.31 564.473 1736.22 533.936 1792.2 516.855L2680.55 245.785" stroke="url(#paint26_linear_292_15106)"/>
<path d="M-213.707 767.688L-127.094 665.882C-22.752 543.237 144.817 495.413 296.929 548.24C461.7 605.463 640.19 668.991 771.353 710.406C889.916 747.842 1034.29 777.304 1156.78 756.003C1310.76 729.227 1512.32 660.095 1639.27 584.451C1692.06 552.997 1745.85 521.563 1804.97 504.827L2686.84 255.2" stroke="url(#paint27_linear_292_15106)"/>
<path d="M-212.66 767.65L-130.866 668.914C-25.5453 541.779 146.912 492.723 302.175 548.841C471.636 610.09 655.276 677.896 788.609 721.959C905.485 760.583 1048.45 788.533 1168.73 762.369C1319.09 729.663 1516.55 654.295 1644 575.431C1698.77 541.544 1755.52 509.257 1817.84 492.997L2693.14 264.614" stroke="url(#paint28_linear_292_15106)"/>
<path d="M-211.609 767.61L-134.429 671.952C-28.2678 540.376 148.993 490.074 307.292 549.439C481.62 614.816 670.633 687.021 806.131 733.734C921.165 773.392 1062.39 799.455 1180.1 768.621C1326.98 730.143 1520.73 648.653 1648.72 566.51C1705.44 530.113 1765.24 497.021 1830.79 481.375L2699.44 274.028" stroke="url(#paint29_linear_292_15106)"/>
<path d="M-210.562 767.575L-137.797 674.997C-30.9285 539.029 151.055 487.467 312.28 550.035C491.676 619.655 686.308 696.396 823.955 745.757C936.962 786.282 1076.02 810.107 1190.78 774.857C1334.34 730.761 1524.79 643.206 1653.42 557.691C1712.06 518.711 1775 484.863 1843.82 469.971L2705.73 283.445" stroke="url(#paint30_linear_292_15106)"/>
<path d="M-209.516 767.535L-140.975 678.037C-33.5234 537.73 153.103 484.892 317.151 550.617C501.892 624.632 702.485 706.091 842.259 758.092C953.007 799.294 1089.27 820.526 1200.7 781.185C1341.08 731.618 1528.7 637.984 1658.11 548.966C1718.64 507.331 1784.8 472.78 1856.92 458.786L2712.03 292.859" stroke="url(#paint31_linear_292_15106)"/>
<path d="M-208.469 767.497L-143.967 681.074C-36.0534 536.482 155.137 482.351 321.912 551.186C512.381 629.8 719.401 716.22 861.262 770.842C969.46 812.502 1102.08 830.786 1209.74 787.752C1347.09 732.854 1532.4 633.042 1662.79 540.338C1725.17 495.981 1794.64 460.78 1870.09 447.834L2718.32 302.274" stroke="url(#paint32_linear_292_15106)"/>
<path d="M-207.418 767.459L-146.778 684.102C-38.515 535.28 157.162 479.841 326.572 551.737C523.122 635.151 737.001 726.772 880.867 783.986C986.137 825.85 1114.36 840.973 1217.79 794.736C1352.22 734.635 1535.84 628.44 1667.46 531.806C1731.67 484.659 1804.52 448.865 1883.32 437.118L2724.62 311.688" stroke="url(#paint33_linear_292_15106)"/>
<path d="M-206.371 767.421L-149.422 687.12C-40.9171 534.124 159.173 477.36 331.131 552.27C534.203 640.734 755.482 737.854 901.232 797.611C1003.07 839.365 1126.03 851.203 1224.67 802.362C1356.29 737.186 1538.91 624.265 1672.11 523.369C1738.12 473.368 1814.44 437.038 1896.59 426.646L2730.92 321.104" stroke="url(#paint34_linear_292_15106)"/>
<path d="M-205.324 767.384L-151.899 690.125C-43.2559 533.012 161.174 474.907 335.597 552.782C545.769 646.618 775.154 749.62 922.6 811.84C1020.32 853.077 1137 861.618 1230.17 810.927C1359.05 740.807 1541.51 620.633 1676.76 515.025C1744.53 462.109 1824.39 425.304 1909.91 416.424L2737.21 330.52" stroke="url(#paint35_linear_292_15106)"/>
<path d="M-204.277 767.345L-154.218 693.111C-45.5325 531.938 163.165 472.477 339.975 553.269C558.368 653.062 797.216 762.647 946.01 827.152C1038.65 867.311 1147.17 872.388 1233.99 820.833C1360.11 745.934 1543.46 617.71 1681.4 506.771C1750.89 450.882 1834.37 413.662 1923.26 406.453L2743.51 339.933" stroke="url(#paint36_linear_292_15106)"/>
<path d="M-203.227 767.306L-156.379 696.077C-47.7435 530.903 165.152 470.071 344.274 553.732C572.13 660.153 821.958 777.127 971.511 843.635C1057.61 881.925 1155.99 884.001 1235.2 832.962C1358.39 753.583 1544.33 615.907 1686.03 498.606C1757.21 439.689 1844.39 402.117 1936.63 396.741L2749.81 349.347" stroke="url(#paint37_linear_292_15106)"/>
<path d="M-202.18 767.27L-158.396 699.025C-49.8977 529.91 167.127 467.692 348.491 554.173C588.044 668.401 851.58 794.182 1000.69 862.086C1077.95 897.272 1163.65 896.607 1233.33 848.113C1353.04 764.802 1543.76 615.612 1690.69 490.514C1763.51 428.516 1854.43 390.676 1950 387.293L2756.1 358.764" stroke="url(#paint38_linear_292_15106)"/>
<path d="M-201.133 767.231L-160.271 701.946C-51.9921 528.948 169.095 465.33 352.634 554.585C607.861 678.701 889.991 815.815 1035.87 883.701C1100.27 913.667 1169.06 911.241 1225.94 868.697C1340.52 782.986 1540.32 618.159 1695.36 482.48C1769.79 417.353 1864.49 379.333 1963.38 378.105L2762.4 368.178" stroke="url(#paint39_linear_292_15106)"/>
</g>
<defs>
<linearGradient id="paint0_linear_292_15106" x1="-833.981" y1="363.072" x2="2842.51" y2="1831.33" gradientUnits="userSpaceOnUse">
<stop offset="0.09375" stop-color="#8CB3FF"/>
<stop offset="0.875" stop-color="#0F4BA6"/>
</linearGradient>
<linearGradient id="paint1_linear_292_15106" x1="-834.06" y1="363.528" x2="2821.57" y2="1863.34" gradientUnits="userSpaceOnUse">
<stop offset="0.09375" stop-color="#8CB3FF"/>
<stop offset="0.875" stop-color="#0F4BA6"/>
</linearGradient>
<linearGradient id="paint2_linear_292_15106" x1="-834.139" y1="364.04" x2="2798.91" y2="1896.05" gradientUnits="userSpaceOnUse">
<stop offset="0.09375" stop-color="#8CB3FF"/>
<stop offset="0.875" stop-color="#0F4BA6"/>
</linearGradient>
<linearGradient id="paint3_linear_292_15106" x1="-834.215" y1="364.61" x2="2774.43" y2="1929.41" gradientUnits="userSpaceOnUse">
<stop offset="0.09375" stop-color="#8CB3FF"/>
<stop offset="0.875" stop-color="#0F4BA6"/>
</linearGradient>
<linearGradient id="paint4_linear_292_15106" x1="-834.294" y1="365.25" x2="2748.03" y2="1963.4" gradientUnits="userSpaceOnUse">
<stop offset="0.09375" stop-color="#8CB3FF"/>
<stop offset="0.875" stop-color="#0F4BA6"/>
</linearGradient>
<linearGradient id="paint5_linear_292_15106" x1="-834.369" y1="365.969" x2="2719.65" y2="1997.93" gradientUnits="userSpaceOnUse">
<stop offset="0.09375" stop-color="#8CB3FF"/>
<stop offset="0.875" stop-color="#0F4BA6"/>
</linearGradient>
<linearGradient id="paint6_linear_292_15106" x1="-834.448" y1="366.782" x2="2689.22" y2="2032.94" gradientUnits="userSpaceOnUse">
<stop offset="0.09375" stop-color="#8CB3FF"/>
<stop offset="0.875" stop-color="#0F4BA6"/>
</linearGradient>
<linearGradient id="paint7_linear_292_15106" x1="-834.528" y1="367.703" x2="2656.69" y2="2068.33" gradientUnits="userSpaceOnUse">
<stop offset="0.09375" stop-color="#8CB3FF"/>
<stop offset="0.875" stop-color="#0F4BA6"/>
</linearGradient>
<linearGradient id="paint8_linear_292_15106" x1="-834.607" y1="368.748" x2="2622.04" y2="2103.98" gradientUnits="userSpaceOnUse">
<stop offset="0.09375" stop-color="#8CB3FF"/>
<stop offset="0.875" stop-color="#0F4BA6"/>
</linearGradient>
<linearGradient id="paint9_linear_292_15106" x1="-834.682" y1="370.429" x2="2587.79" y2="2138.47" gradientUnits="userSpaceOnUse">
<stop offset="0.09375" stop-color="#8CB3FF"/>
<stop offset="0.875" stop-color="#0F4BA6"/>
</linearGradient>
<linearGradient id="paint10_linear_292_15106" x1="-834.765" y1="375.903" x2="2571.05" y2="2163.39" gradientUnits="userSpaceOnUse">
<stop offset="0.09375" stop-color="#8CB3FF"/>
<stop offset="0.875" stop-color="#0F4BA6"/>
</linearGradient>
<linearGradient id="paint11_linear_292_15106" x1="-834.841" y1="381.375" x2="2553.53" y2="2188.4" gradientUnits="userSpaceOnUse">
<stop offset="0.09375" stop-color="#8CB3FF"/>
<stop offset="0.875" stop-color="#0F4BA6"/>
</linearGradient>
<linearGradient id="paint12_linear_292_15106" x1="-834.92" y1="386.845" x2="2535.18" y2="2213.49" gradientUnits="userSpaceOnUse">
<stop offset="0.09375" stop-color="#8CB3FF"/>
<stop offset="0.875" stop-color="#0F4BA6"/>
</linearGradient>
<linearGradient id="paint13_linear_292_15106" x1="-834.995" y1="392.32" x2="2515.98" y2="2238.65" gradientUnits="userSpaceOnUse">
<stop offset="0.09375" stop-color="#8CB3FF"/>
<stop offset="0.875" stop-color="#0F4BA6"/>
</linearGradient>
<linearGradient id="paint14_linear_292_15106" x1="-835.074" y1="397.792" x2="2495.9" y2="2263.86" gradientUnits="userSpaceOnUse">
<stop offset="0.09375" stop-color="#8CB3FF"/>
<stop offset="0.875" stop-color="#0F4BA6"/>
</linearGradient>
<linearGradient id="paint15_linear_292_15106" x1="-835.154" y1="403.263" x2="2474.91" y2="2289.11" gradientUnits="userSpaceOnUse">
<stop offset="0.09375" stop-color="#8CB3FF"/>
<stop offset="0.875" stop-color="#0F4BA6"/>
</linearGradient>
<linearGradient id="paint16_linear_292_15106" x1="-835.233" y1="408.737" x2="2452.97" y2="2314.38" gradientUnits="userSpaceOnUse">
<stop offset="0.09375" stop-color="#8CB3FF"/>
<stop offset="0.875" stop-color="#0F4BA6"/>
</linearGradient>
<linearGradient id="paint17_linear_292_15106" x1="-835.308" y1="414.208" x2="2430.07" y2="2339.64" gradientUnits="userSpaceOnUse">
<stop offset="0.09375" stop-color="#8CB3FF"/>
<stop offset="0.875" stop-color="#0F4BA6"/>
</linearGradient>
<linearGradient id="paint18_linear_292_15106" x1="-835.387" y1="419.681" x2="2406.16" y2="2364.87" gradientUnits="userSpaceOnUse">
<stop offset="0.09375" stop-color="#8CB3FF"/>
<stop offset="0.875" stop-color="#0F4BA6"/>
</linearGradient>
<linearGradient id="paint19_linear_292_15106" x1="-835.467" y1="425.154" x2="2381.2" y2="2390.05" gradientUnits="userSpaceOnUse">
<stop offset="0.09375" stop-color="#8CB3FF"/>
<stop offset="0.875" stop-color="#0F4BA6"/>
</linearGradient>
<linearGradient id="paint20_linear_292_15106" x1="-835.546" y1="430.626" x2="2355.18" y2="2415.15" gradientUnits="userSpaceOnUse">
<stop offset="0.09375" stop-color="#8CB3FF"/>
<stop offset="0.875" stop-color="#0F4BA6"/>
</linearGradient>
<linearGradient id="paint21_linear_292_15106" x1="-835.621" y1="436.1" x2="2328.05" y2="2440.14" gradientUnits="userSpaceOnUse">
<stop offset="0.09375" stop-color="#8CB3FF"/>
<stop offset="0.875" stop-color="#0F4BA6"/>
</linearGradient>
<linearGradient id="paint22_linear_292_15106" x1="-835.7" y1="441.572" x2="2299.78" y2="2464.99" gradientUnits="userSpaceOnUse">
<stop offset="0.09375" stop-color="#8CB3FF"/>
<stop offset="0.875" stop-color="#0F4BA6"/>
</linearGradient>
<linearGradient id="paint23_linear_292_15106" x1="-835.78" y1="447.043" x2="2270.33" y2="2489.66" gradientUnits="userSpaceOnUse">
<stop offset="0.09375" stop-color="#8CB3FF"/>
<stop offset="0.875" stop-color="#0F4BA6"/>
</linearGradient>
<linearGradient id="paint24_linear_292_15106" x1="-835.859" y1="452.517" x2="2239.66" y2="2514.12" gradientUnits="userSpaceOnUse">
<stop offset="0.09375" stop-color="#8CB3FF"/>
<stop offset="0.875" stop-color="#0F4BA6"/>
</linearGradient>
<linearGradient id="paint25_linear_292_15106" x1="-835.934" y1="457.988" x2="2207.75" y2="2538.33" gradientUnits="userSpaceOnUse">
<stop offset="0.09375" stop-color="#8CB3FF"/>
<stop offset="0.875" stop-color="#0F4BA6"/>
</linearGradient>
<linearGradient id="paint26_linear_292_15106" x1="-836.013" y1="463.461" x2="2174.55" y2="2562.23" gradientUnits="userSpaceOnUse">
<stop offset="0.09375" stop-color="#8CB3FF"/>
<stop offset="0.875" stop-color="#0F4BA6"/>
</linearGradient>
<linearGradient id="paint27_linear_292_15106" x1="-836.093" y1="468.957" x2="2140.25" y2="2585.74" gradientUnits="userSpaceOnUse">
<stop offset="0.09375" stop-color="#8CB3FF"/>
<stop offset="0.875" stop-color="#0F4BA6"/>
</linearGradient>
<linearGradient id="paint28_linear_292_15106" x1="-836.172" y1="479.308" x2="2150.68" y2="2598.13" gradientUnits="userSpaceOnUse">
<stop offset="0.09375" stop-color="#8CB3FF"/>
<stop offset="0.875" stop-color="#0F4BA6"/>
</linearGradient>
<linearGradient id="paint29_linear_292_15106" x1="-836.247" y1="489.853" x2="2162.91" y2="2610.07" gradientUnits="userSpaceOnUse">
<stop offset="0.09375" stop-color="#8CB3FF"/>
<stop offset="0.875" stop-color="#0F4BA6"/>
</linearGradient>
<linearGradient id="paint30_linear_292_15106" x1="-836.326" y1="500.564" x2="2176.59" y2="2621.63" gradientUnits="userSpaceOnUse">
<stop offset="0.09375" stop-color="#8CB3FF"/>
<stop offset="0.875" stop-color="#0F4BA6"/>
</linearGradient>
<linearGradient id="paint31_linear_292_15106" x1="-836.406" y1="511.408" x2="2191.45" y2="2632.86" gradientUnits="userSpaceOnUse">
<stop offset="0.09375" stop-color="#8CB3FF"/>
<stop offset="0.875" stop-color="#0F4BA6"/>
</linearGradient>
<linearGradient id="paint32_linear_292_15106" x1="-836.485" y1="522.367" x2="2207.27" y2="2643.8" gradientUnits="userSpaceOnUse">
<stop offset="0.09375" stop-color="#8CB3FF"/>
<stop offset="0.875" stop-color="#0F4BA6"/>
</linearGradient>
<linearGradient id="paint33_linear_292_15106" x1="-836.56" y1="533.422" x2="2223.86" y2="2654.49" gradientUnits="userSpaceOnUse">
<stop offset="0.09375" stop-color="#8CB3FF"/>
<stop offset="0.875" stop-color="#0F4BA6"/>
</linearGradient>
<linearGradient id="paint34_linear_292_15106" x1="-836.639" y1="544.561" x2="2241.09" y2="2664.95" gradientUnits="userSpaceOnUse">
<stop offset="0.09375" stop-color="#8CB3FF"/>
<stop offset="0.875" stop-color="#0F4BA6"/>
</linearGradient>
<linearGradient id="paint35_linear_292_15106" x1="-836.719" y1="555.772" x2="2258.82" y2="2675.22" gradientUnits="userSpaceOnUse">
<stop offset="0.09375" stop-color="#8CB3FF"/>
<stop offset="0.875" stop-color="#0F4BA6"/>
</linearGradient>
<linearGradient id="paint36_linear_292_15106" x1="-836.798" y1="567.042" x2="2276.95" y2="2685.3" gradientUnits="userSpaceOnUse">
<stop offset="0.09375" stop-color="#8CB3FF"/>
<stop offset="0.875" stop-color="#0F4BA6"/>
</linearGradient>
<linearGradient id="paint37_linear_292_15106" x1="-836.873" y1="578.366" x2="2295.41" y2="2695.22" gradientUnits="userSpaceOnUse">
<stop offset="0.09375" stop-color="#8CB3FF"/>
<stop offset="0.875" stop-color="#0F4BA6"/>
</linearGradient>
<linearGradient id="paint38_linear_292_15106" x1="-836.952" y1="589.741" x2="2314.11" y2="2704.99" gradientUnits="userSpaceOnUse">
<stop offset="0.09375" stop-color="#8CB3FF"/>
<stop offset="0.875" stop-color="#0F4BA6"/>
</linearGradient>
<linearGradient id="paint39_linear_292_15106" x1="-837.032" y1="601.153" x2="2333.01" y2="2714.63" gradientUnits="userSpaceOnUse">
<stop offset="0.09375" stop-color="#8CB3FF"/>
<stop offset="0.875" stop-color="#0F4BA6"/>
</linearGradient>
</defs>
</svg>
