<svg width="279" height="275" viewBox="0 0 279 275" fill="none" xmlns="http://www.w3.org/2000/svg">
<g clip-path="url(#clip0_292_15583)">
<path d="M239.788 164.535V79.8694" stroke="#263238" stroke-linecap="round" stroke-linejoin="round"/>
<path d="M63.905 171.764V1.1084" stroke="#263238" stroke-linecap="round" stroke-linejoin="round"/>
<path d="M6.75659 100.001H279.257" stroke="#263238" stroke-linecap="round" stroke-linejoin="round"/>
<path d="M26.7057 219.42H267.008" stroke="#263238" stroke-miterlimit="10"/>
<path d="M142.889 233.63L155.799 263.332L198.446 257.892L173.702 233.63H142.889Z" fill="white" stroke="#263238" stroke-linecap="round" stroke-linejoin="round"/>
<path d="M188.817 231.065L217.942 252.565L172.059 258.753L152.823 231.573L188.817 231.065Z" fill="white" stroke="#263238" stroke-linecap="round" stroke-linejoin="round"/>
<path d="M23.3502 244.38L42.8619 226.366H120.538L89.8981 246.557L23.3502 244.38Z" fill="white" stroke="#263238" stroke-linecap="round" stroke-linejoin="round"/>
<path d="M89.1093 249.226L18.8949 245.335L9.83196 218.818L1.26819 193.738L73.858 196.69L85.7096 237.529L89.1093 249.226Z" fill="white" stroke="#263238" stroke-linecap="round" stroke-linejoin="round"/>
<path d="M89.108 249.226L18.8937 245.335L9.83069 218.818C21.381 220.143 33.0174 218.344 53.1746 221.615C70.8272 224.464 80.4754 231.272 85.7083 237.529L89.108 249.226Z" fill="#263238" stroke="#263238" stroke-miterlimit="10"/>
<path d="M120.54 226.934V229.413L89.7444 249.053L71.9713 197.533L74.6566 196.328L91.044 245.335L120.54 226.934Z" fill="white" stroke="#263238" stroke-miterlimit="10"/>
<path d="M75.0606 196.147L71.9707 197.533L1.84241 193.341L5.44866 191.586L74.9831 195.898L75.0606 196.147Z" fill="white" stroke="#263238" stroke-miterlimit="10"/>
<path d="M75.0599 196.147L74.9824 195.898L74.8619 195.45L5.4738 191.181H5.36191L0.748657 193.428L0.843333 193.746L71.9442 197.989H72.0475L75.1718 196.586L75.0599 196.147ZM71.8839 197.094L3.50284 193.014L5.53405 192.042L73.7775 196.268L71.8839 197.094Z" fill="#263238"/>
<path d="M91.0405 245.335L89.7408 249.053" stroke="#263238" stroke-miterlimit="10"/>
<path d="M252.798 211.64H212.725C212.725 211.64 212.725 222.407 218.397 236.496C218.397 239.19 224.869 241.359 232.874 241.359C240.878 241.359 247.333 239.182 247.333 236.496C247.35 236.362 247.35 236.226 247.333 236.092C252.738 222.166 252.798 211.64 252.798 211.64Z" fill="white" stroke="#263238" stroke-linecap="round" stroke-linejoin="round"/>
<path d="M232.877 217.484C244 217.484 253.017 214.867 253.017 211.64C253.017 208.412 244 205.796 232.877 205.796C221.754 205.796 212.737 208.412 212.737 211.64C212.737 214.867 221.754 217.484 232.877 217.484Z" fill="white" stroke="#263238" stroke-linecap="round" stroke-linejoin="round"/>
<path d="M232.874 206.751C242.858 206.751 250.948 208.937 250.948 211.64C250.948 214.342 242.858 216.528 232.874 216.528C222.89 216.528 214.799 214.333 214.799 211.64C214.799 208.946 222.89 206.751 232.874 206.751Z" fill="white" stroke="#263238" stroke-linecap="round" stroke-linejoin="round"/>
<path d="M216.503 213.705C219.394 215.375 225.626 216.511 232.856 216.511C240.085 216.511 246.334 215.375 249.208 213.705C246.325 212.053 240.077 210.899 232.856 210.899C225.634 210.899 219.394 212.053 216.503 213.705Z" fill="#263238" stroke="#263238" stroke-linecap="round" stroke-linejoin="round"/>
<path d="M224.449 214.17C224.449 214.17 219.216 201.088 220.748 197.602C222.28 194.116 227.29 194.546 229.037 198.041C230.784 201.535 231.619 214.609 231.619 214.609C231.619 214.609 226.412 216.356 224.449 214.17Z" fill="#455B8E"/>
<path d="M224.449 214.17C224.449 214.17 219.216 201.088 220.748 197.602C222.28 194.116 227.29 194.546 229.037 198.041C230.784 201.535 231.619 214.609 231.619 214.609C231.619 214.609 226.412 216.356 224.449 214.17Z" fill="#4A77BC"/>
<path d="M224.449 214.17C224.449 214.17 219.216 201.088 220.748 197.602C222.28 194.116 227.29 194.546 229.037 198.041C230.784 201.535 231.619 214.609 231.619 214.609C231.619 214.609 226.412 216.356 224.449 214.17Z" stroke="#263238" stroke-linecap="round" stroke-linejoin="round"/>
<path d="M229.079 215.478C229.079 215.478 224.931 192.386 226.015 188.014C227.1 183.642 232.565 182.118 236.481 185.389C240.397 188.659 238.908 205.236 238.908 207.629C238.908 210.022 238.693 215.039 238.693 215.039C235.586 216.048 232.265 216.2 229.079 215.478Z" fill="#455B8E"/>
<path d="M229.079 215.478C229.079 215.478 224.931 192.386 226.015 188.014C227.1 183.642 232.565 182.118 236.481 185.389C240.397 188.659 238.908 205.236 238.908 207.629C238.908 210.022 238.693 215.039 238.693 215.039C235.586 216.048 232.265 216.2 229.079 215.478Z" fill="#4A77BC"/>
<path d="M229.079 215.478C229.079 215.478 224.931 192.386 226.015 188.014C227.1 183.642 232.565 182.118 236.481 185.389C240.397 188.659 238.908 205.236 238.908 207.629C238.908 210.022 238.693 215.039 238.693 215.039C235.586 216.048 232.265 216.2 229.079 215.478Z" stroke="#263238" stroke-linecap="round" stroke-linejoin="round"/>
<path d="M237.529 215.039C237.529 215.039 234.293 206.097 236.23 202.611C238.166 199.125 242.108 200.434 242.108 203.265C242.108 206.097 242.332 212.87 241.893 214.385C241.454 215.9 239.061 216.356 237.529 215.039Z" fill="#455B8E"/>
<path d="M237.529 215.039C237.529 215.039 234.293 206.097 236.23 202.611C238.166 199.125 242.108 200.434 242.108 203.265C242.108 206.097 242.332 212.87 241.893 214.385C241.454 215.9 239.061 216.356 237.529 215.039Z" fill="#4A77BC"/>
<path d="M237.529 215.039C237.529 215.039 234.293 206.097 236.23 202.611C238.166 199.125 242.108 200.434 242.108 203.265C242.108 206.097 242.332 212.87 241.893 214.385C241.454 215.9 239.061 216.356 237.529 215.039Z" stroke="#263238" stroke-linecap="round" stroke-linejoin="round"/>
<path d="M232.747 214.824C227.29 194.168 231.886 183.84 231.886 183.84C231.886 183.84 238.428 195.183 234.933 214.824" stroke="#263238" stroke-linecap="round" stroke-linejoin="round"/>
<path d="M223.797 197.206C223.797 197.206 218.779 197.421 227.067 214.652" stroke="#263238" stroke-linecap="round" stroke-linejoin="round"/>
<g clip-path="url(#clip1_292_15583)">
<path d="M171.245 195.338C175.869 200.892 179.039 207.509 180.472 214.592H111.729C111.729 214.592 113.08 202.465 117.289 195.338C121.498 188.212 171.245 195.338 171.245 195.338Z" fill="#263238"/>
<path d="M204.379 102.333C201.538 99.949 176.725 89.7069 176.725 89.7069C175.4 81.7714 171.044 77.8983 171.044 77.8983C171.044 77.8983 156.017 73.5347 151.249 77.2356C148.39 79.4296 145.969 82.1421 144.114 85.2313C123.948 83.9489 117.149 90.6795 117.149 90.6795C117.149 90.6795 109.971 120.605 105.598 136.098C102.932 145.558 99.3698 154.743 94.9603 163.527C94.9603 163.527 88.4707 173.494 92.9979 178.899C97.5251 184.304 116.994 184.39 116.994 184.39L113.448 203.885C113.448 203.885 118.784 208.231 140.241 213.189C161.697 218.146 179.161 205.21 179.161 205.21L171.733 186.017C179.479 184.451 191.193 175.904 191.193 175.904C202.821 158.69 206.832 112.808 207.116 109.399C207.4 105.991 207.245 104.683 204.379 102.333ZM175.116 163.527L171.415 161.324L171.26 155.299L185.779 138.946L175.116 163.527Z" fill="#455B8E"/>
<path d="M204.379 102.333C201.538 99.949 176.725 89.7069 176.725 89.7069C175.4 81.7714 171.044 77.8983 171.044 77.8983C171.044 77.8983 156.017 73.5347 151.249 77.2356C148.39 79.4296 145.969 82.1421 144.114 85.2313C123.948 83.9489 117.149 90.6795 117.149 90.6795C117.149 90.6795 109.971 120.605 105.598 136.098C102.932 145.558 99.3698 154.743 94.9603 163.527C94.9603 163.527 88.4707 173.494 92.9979 178.899C97.5251 184.304 116.994 184.39 116.994 184.39L113.448 203.885C113.448 203.885 118.784 208.231 140.241 213.189C161.697 218.146 179.161 205.21 179.161 205.21L171.733 186.017C179.479 184.451 191.193 175.904 191.193 175.904C202.821 158.69 206.832 112.808 207.116 109.399C207.4 105.991 207.245 104.683 204.379 102.333ZM175.116 163.527L171.415 161.324L171.26 155.299L185.779 138.946L175.116 163.527Z" fill="#4A77BC"/>
<path opacity="0.1" d="M204.379 102.333C201.538 99.949 176.725 89.7069 176.725 89.7069C175.4 81.7714 171.044 77.8983 171.044 77.8983C171.044 77.8983 156.017 73.5347 151.249 77.2356C148.39 79.4296 145.969 82.1421 144.114 85.2313C123.948 83.9489 117.149 90.6795 117.149 90.6795C117.149 90.6795 109.971 120.605 105.598 136.098C102.932 145.558 99.3698 154.743 94.9603 163.527C94.9603 163.527 88.4707 173.494 92.9979 178.899C97.5251 184.304 116.994 184.39 116.994 184.39L113.448 203.885C113.448 203.885 118.784 208.231 140.241 213.189C161.697 218.146 179.161 205.21 179.161 205.21L171.733 186.017C179.479 184.451 191.193 175.904 191.193 175.904C202.821 158.69 206.832 112.808 207.116 109.399C207.4 105.991 207.245 104.683 204.379 102.333ZM175.116 163.527L171.415 161.324L171.26 155.299L185.779 138.946L175.116 163.527Z" fill="black"/>
<path d="M138.503 170.379C138.503 170.379 134.036 176.679 133.339 181.473C136.498 181.679 139.67 181.564 142.806 181.128C147.678 180.406 149.924 180.948 153.548 172.702L156.904 172.642C156.904 172.642 161.311 179.201 167.964 177.806C167.964 177.806 169.332 178.925 171.682 177.806L164.229 168.339C164.229 168.339 174.092 177.221 177.44 172.935L165.089 164.5C165.089 164.5 171.295 165.559 174.497 167.263C177.698 168.967 178.877 165.017 178.877 165.017L168.661 160.438C168.661 160.438 160.838 161.075 158.97 160.386C157.102 159.698 155.914 158.811 154.546 160.145C153.177 161.479 143.168 169.965 143.168 169.965L138.503 170.379Z" fill="white"/>
<path d="M133.62 181.516C133.62 181.516 146.771 181.516 149.043 179.855C151.315 178.194 153.536 172.703 153.536 172.703L156.893 172.642C156.893 172.642 163.373 179.442 167.952 177.806C167.952 177.806 156.961 166.118 155.042 165.447" stroke="#263238" stroke-width="0.99" stroke-linecap="round" stroke-linejoin="round"/>
<path d="M167.55 177.35C168.103 177.849 168.797 178.162 169.536 178.247C170.275 178.332 171.022 178.184 171.673 177.824C171.673 177.824 160.277 163.769 157.764 163.347" stroke="#263238" stroke-width="0.99" stroke-linecap="round" stroke-linejoin="round"/>
<path d="M139.292 170.026L143.165 169.966C143.165 169.966 151.608 163.562 153.174 161.488C154.741 159.414 156.557 159.155 157.71 160.042C158.864 160.928 168.658 160.438 168.658 160.438L178.874 165.034C178.874 165.034 177.446 168.279 175.156 167.513C172.867 166.747 167.711 164.5 165.086 164.5" stroke="#263238" stroke-width="0.99" stroke-linecap="round" stroke-linejoin="round"/>
<path d="M162.542 162.589C162.542 162.589 169.117 167.607 172.009 169.475C174.901 171.342 177.414 172.918 177.414 172.918C177.414 172.918 174.936 174.639 172.526 173.692C170.116 172.745 161.948 166.721 161.948 166.721" stroke="#263238" stroke-width="0.99" stroke-linecap="round" stroke-linejoin="round"/>
<path d="M133.81 183.039C133.81 183.039 134.585 172.771 141.246 168.726L131.013 166.945C131.013 166.945 124.127 174.63 124.368 182.721L133.81 183.039Z" fill="white"/>
<path d="M147.651 96.7905C147.651 96.7905 146.162 83.1573 151.222 77.2358C142.389 85.0401 136.66 95.7641 135.085 107.446C135.085 107.446 143.64 97.5135 147.651 96.7905Z" fill="white"/>
<path d="M119.103 164.836L113.56 156.444C113.5 156.355 113.41 156.29 113.307 156.261C113.204 156.233 113.093 156.242 112.996 156.288C112.899 156.334 112.822 156.413 112.778 156.511C112.735 156.61 112.728 156.72 112.759 156.823C113.415 158.944 114.346 160.97 115.531 162.848L109.239 157.615C109.128 157.524 108.99 157.471 108.846 157.464C108.703 157.457 108.561 157.497 108.441 157.577C108.322 157.657 108.231 157.773 108.182 157.909C108.134 158.044 108.13 158.191 108.172 158.329C108.766 160.231 109.971 163.028 112.226 164.698L119.103 164.836Z" fill="white" stroke="#263238" stroke-miterlimit="10"/>
<path d="M171.044 77.8984C171.044 77.8984 175.149 81.4961 175.941 85.6446C176.733 89.7931 178.05 97.6941 178.05 97.6941L168.832 116.095C168.832 116.095 163.436 102.85 155.061 99.4671C155.121 99.4671 169.271 90.9464 171.044 77.8984Z" fill="white"/>
<path d="M171.043 77.8984C171.749 78.8882 178.6 77.1668 179.521 76.9517C184.806 75.6951 189.97 73.0356 192.922 68.3449C196.829 62.0705 195.573 55.624 193.894 48.9193C192.664 44.0048 191.312 39.1247 189.944 34.2877C188.739 29.9843 188.068 25.4227 186.243 21.3775C183.609 15.5593 179.357 10.4296 173.496 7.70987C157.47 0.247767 135.05 12.0821 129.24 16.8417C123.43 21.6013 123.009 35.398 137.064 43.2388C151.118 51.0796 171.009 77.8554 171.043 77.8984Z" fill="#263238"/>
<path d="M140.91 25.9908C140.91 25.9908 135.272 30.5524 135.1 33.1689C134.928 35.7853 135.772 38.6084 135.436 43.6261C135.1 48.6439 134.179 57.7155 138.577 63.6972C138.577 63.6972 141.59 70.8151 150.679 74.516L151.221 77.2357C151.221 77.2357 147.546 84.9302 147.365 91.3423C147.236 95.8781 148.355 100.044 155.912 99.3897C166.291 93.2358 170.681 79.4391 170.681 79.4391L167.384 63.5681L168.245 55.6068C168.245 55.6068 173.134 55.9855 174.614 51.751C174.614 51.751 177.472 37.894 167.169 47.7144C154.285 44.3835 145.592 36.3362 140.91 25.9908Z" fill="white"/>
<path d="M144.577 59.497C145.836 60.1403 147.281 60.3204 148.659 60.0057C150.038 59.691 151.261 58.9016 152.116 57.7756" stroke="#263238" stroke-width="0.75" stroke-linecap="round" stroke-linejoin="round"/>
<path d="M143.433 44.0564C143.433 44.0564 141.944 52.7579 142.477 54.8493C142.477 54.8493 143.803 56.4158 146.936 56.0113" stroke="#263238" stroke-linecap="round" stroke-linejoin="round"/>
<path d="M140.914 25.9907C140.914 25.9907 136.361 30.2941 134.725 33.952C135.126 37.1626 135.365 40.3914 135.44 43.6261C135.44 47.6541 133.624 54.8149 137.428 61.7951C141.232 68.7752 149.426 75.4799 154.082 75.2647C158.738 75.0495 167.19 70.2642 168.714 56.9494C168.714 56.9494 176.847 56.0285 176.46 52.3792C176.425 52.3792 183.56 39.9338 140.914 25.9907Z" stroke="#263238" stroke-linecap="round" stroke-linejoin="round"/>
<path d="M170.682 79.4735L167.049 63.8779" stroke="#263238" stroke-linecap="round" stroke-linejoin="round"/>
<path d="M147.651 96.7903C148.154 97.3686 148.754 97.8549 149.424 98.2276C151.388 99.3623 153.683 99.7848 155.922 99.424" stroke="#263238" stroke-linecap="round" stroke-linejoin="round"/>
<path d="M150.678 74.5159C150.833 75.4282 151.221 77.2356 151.221 77.2356C151.221 77.2356 151.109 77.4078 150.928 77.7176" stroke="#263238" stroke-linecap="round" stroke-linejoin="round"/>
<path d="M143.277 44.8656C143.501 49.2379 140.927 52.9216 137.519 53.1023C134.111 53.2831 131.176 49.8662 130.96 45.4939C130.745 41.1216 133.31 37.4379 136.718 37.2658C140.127 37.0936 143.053 40.4933 143.277 44.8656Z" stroke="#263238" stroke-width="0.75" stroke-linecap="round" stroke-linejoin="round"/>
<path d="M152.151 51.5791C155.554 51.4043 158.131 47.7183 157.907 43.3462C157.682 38.974 154.741 35.5714 151.337 35.7462C147.934 35.921 145.356 39.6071 145.581 43.9792C145.806 48.3513 148.747 51.7539 152.151 51.5791Z" stroke="#263238" stroke-width="0.75" stroke-linecap="round" stroke-linejoin="round"/>
<path d="M152.412 161.169L130.181 147.459C130.118 147.405 130.074 147.332 130.055 147.252C130.037 147.171 130.045 147.087 130.077 147.011C130.119 146.92 130.194 146.849 130.288 146.813C130.381 146.778 130.485 146.781 130.577 146.822L152.808 160.55C152.887 160.602 152.943 160.684 152.964 160.777C152.985 160.87 152.969 160.967 152.92 161.049C152.89 161.109 152.843 161.159 152.785 161.192C152.726 161.226 152.66 161.242 152.593 161.238C152.527 161.236 152.463 161.211 152.412 161.169Z" fill="#263238"/>
<path d="M140.714 156.832L128.664 149.774C128.577 149.722 128.514 149.638 128.488 149.54C128.462 149.442 128.476 149.337 128.526 149.249C128.581 149.167 128.665 149.109 128.761 149.087C128.857 149.064 128.958 149.079 129.043 149.129L141.092 156.186C141.134 156.21 141.17 156.242 141.199 156.28C141.228 156.319 141.25 156.362 141.262 156.409C141.274 156.455 141.276 156.504 141.269 156.551C141.262 156.599 141.246 156.644 141.221 156.685C141.185 156.74 141.137 156.786 141.08 156.819C141.024 156.852 140.96 156.871 140.894 156.875C140.832 156.87 140.771 156.855 140.714 156.832Z" fill="#263238"/>
<path d="M194.332 121.466C194.244 121.42 194.176 121.341 194.144 121.247C194.112 121.152 194.118 121.049 194.16 120.958C197.322 114.999 200.864 109.249 204.764 103.745C204.821 103.663 204.908 103.607 205.006 103.588C205.103 103.569 205.205 103.588 205.289 103.641C205.366 103.698 205.419 103.783 205.435 103.878C205.451 103.973 205.429 104.07 205.375 104.149C201.487 109.617 197.959 115.333 194.814 121.26C194.784 121.326 194.736 121.382 194.675 121.422C194.614 121.462 194.543 121.483 194.47 121.483L194.332 121.466Z" fill="#263238"/>
<path d="M141.29 168.726C141.29 168.726 133.974 173.967 133.81 183.039H124.395C124.327 180.026 124.911 177.033 126.109 174.267C127.306 171.501 129.088 169.026 131.332 167.013L141.29 168.726Z" stroke="#263238" stroke-linecap="round" stroke-linejoin="round"/>
<path d="M175.124 162.839L189.42 130.787" stroke="#263238" stroke-linecap="round" stroke-linejoin="round"/>
<path d="M124.395 183.039C124.395 183.039 108.18 186.878 96.793 181.576C85.4062 176.274 94.1422 164.836 94.1422 164.836C104.763 149.197 117.122 90.6795 117.122 90.6795C117.122 90.6795 120.014 84.3535 143.012 85.2142" stroke="#263238" stroke-linecap="round" stroke-linejoin="round"/>
<path d="M131.333 167.013C131.333 167.013 111.408 162.641 103.249 165.757" stroke="#263238" stroke-linecap="round" stroke-linejoin="round"/>
<path d="M111.83 164.5C111.83 164.5 108.775 160.791 107.871 158.054C107.83 157.916 107.833 157.769 107.882 157.633C107.93 157.498 108.021 157.381 108.14 157.301C108.26 157.221 108.402 157.182 108.546 157.189C108.689 157.195 108.827 157.248 108.938 157.339L115.531 162.848C114.437 160.892 113.446 158.881 112.562 156.823C112.49 156.693 112.473 156.539 112.514 156.397C112.555 156.254 112.651 156.133 112.781 156.061C112.911 155.989 113.065 155.972 113.208 156.013C113.351 156.054 113.471 156.151 113.543 156.281L119.706 165.051" stroke="#263238" stroke-linecap="round" stroke-linejoin="round"/>
<path d="M176.727 89.707L203.063 101.55C204.382 102.14 205.486 103.124 206.224 104.365C206.962 105.607 207.298 107.047 207.186 108.487C206.136 122.258 202.685 156.289 190.893 176.421C190.893 176.421 160.064 201.38 124.397 183.039" stroke="#263238" stroke-linecap="round" stroke-linejoin="round"/>
<path d="M186.407 137.535L171.233 155.299L171.397 161.324" stroke="#263238" stroke-linecap="round" stroke-linejoin="round"/>
<path d="M142.667 128.653C142.667 128.653 146.066 116.552 150.86 109.606" stroke="#263238" stroke-linecap="round" stroke-linejoin="round"/>
<path d="M117.002 184.382L113.448 203.885C113.448 203.885 149.596 225.695 179.187 205.202L171.88 186.336" stroke="#263238" stroke-linecap="round" stroke-linejoin="round"/>
<path d="M119.196 107.179L117.758 126.183C117.758 126.183 108.773 140.814 119.196 152.072L119.703 165.06" stroke="#263238" stroke-linecap="round" stroke-linejoin="round"/>
<path d="M156.303 99.3466C156.303 99.3466 168.491 91.1099 171.047 77.8984C171.047 77.8984 175.35 81.8576 176.211 86.729C177.072 91.6005 178.053 97.6339 178.053 97.6339L168.499 116.836C168.499 116.836 163.034 102.686 158.042 101.438" stroke="#263238" stroke-linecap="round" stroke-linejoin="round"/>
<path d="M151.223 77.2358C151.223 77.2358 146.111 82.8216 147.651 96.7905C147.651 96.7905 137.891 102.669 134.862 108.384C134.862 108.384 140.43 82.9421 151.223 77.2358Z" stroke="#263238" stroke-linecap="round" stroke-linejoin="round"/>
<path d="M143.151 43.6606H145.57" stroke="#263238" stroke-width="0.75" stroke-linecap="round" stroke-linejoin="round"/>
<path d="M135.085 48.2051C135.085 48.2051 130.42 58.9636 132.503 68.4569C134.586 77.9502 151.257 77.2359 151.257 77.2359L150.715 74.5161C150.715 74.5161 133.131 66.1245 135.085 48.2051Z" fill="#263238"/>
<path d="M144.647 16.4629C144.647 16.4629 153.168 39.2795 173.91 41.7153" stroke="#263238" stroke-width="0.75" stroke-linecap="round" stroke-linejoin="round"/>
<path d="M150.678 13.1323C150.678 13.1323 164.931 33.8747 184.047 34.6063" stroke="#263238" stroke-width="0.75" stroke-linecap="round" stroke-linejoin="round"/>
<path d="M149.303 45.1754C149.303 45.1754 151.025 43.1012 155.122 44.3147" stroke="#263238" stroke-linecap="round" stroke-linejoin="round"/>
<path d="M141.581 46.234C140.878 45.6379 140.037 45.2284 139.134 45.0433C138.232 44.8583 137.297 44.9037 136.417 45.1754" stroke="#263238" stroke-linecap="round" stroke-linejoin="round"/>
<path d="M153.204 47.6197C153.869 47.6197 154.409 46.691 154.409 45.5454C154.409 44.3999 153.869 43.4712 153.204 43.4712C152.538 43.4712 151.999 44.3999 151.999 45.5454C151.999 46.691 152.538 47.6197 153.204 47.6197Z" fill="#263238"/>
<path d="M141.37 47.0602C141.37 48.007 140.922 48.7816 140.371 48.7816C139.82 48.7816 139.381 48.0242 139.381 47.0602C139.381 46.0963 139.829 45.3389 140.371 45.3389C140.913 45.3389 141.37 46.1221 141.37 47.0602Z" fill="#263238"/>
<path d="M146.936 40.0974C146.936 40.0974 149.458 36.7063 154.415 38.376" stroke="#263238" stroke-linecap="round" stroke-linejoin="round"/>
<path d="M140.369 40.0973C140.369 40.0973 137.615 37.5841 135.385 39.6153" stroke="#263238" stroke-linecap="round" stroke-linejoin="round"/>
</g>
</g>
<defs>
<clipPath id="clip0_292_15583">
<rect width="278" height="274" fill="white" transform="translate(0.998657 0.25)"/>
</clipPath>
<clipPath id="clip1_292_15583">
<rect width="117.13" height="209.318" fill="white" transform="translate(90.5104 5.27417)"/>
</clipPath>
</defs>
</svg>
