<svg width="125" height="97" viewBox="0 0 125 97" fill="none" xmlns="http://www.w3.org/2000/svg">
<path opacity="0.6" d="M65.5598 25.64V26.64H66.4921L66.5574 25.71L65.5598 25.64ZM52.9198 65H51.9198V66H52.9198V65ZM98.1998 65V66H99.1998V65H98.1998ZM98.1998 53.48H99.1998V52.48H98.1998V53.48ZM64.6798 53.48H63.6798V54.48H64.6798V53.48ZM53.5598 25.64L52.5614 25.5849L52.5031 26.64H53.5598V25.64ZM66.5574 25.71C66.6876 23.8549 67.7955 22.4358 69.5607 21.4412C71.3443 20.4363 73.7243 19.92 76.1198 19.92V17.92C73.4754 17.92 70.7354 18.4837 68.579 19.6988C66.4042 20.9242 64.7521 22.8651 64.5623 25.57L66.5574 25.71ZM76.1198 19.92C79.1655 19.92 81.4996 20.54 83.0423 21.6034C84.5388 22.6348 85.3598 24.1255 85.3598 26.12H87.3598C87.3598 23.4745 86.2209 21.3652 84.1774 19.9566C82.1801 18.58 79.3942 17.92 76.1198 17.92V19.92ZM85.3598 26.12C85.3598 28.4066 84.1481 29.7848 82.3715 30.6512C80.5374 31.5456 78.1718 31.84 76.1998 31.84V33.84C78.3079 33.84 81.0223 33.5344 83.2482 32.4488C85.5316 31.3352 87.3598 29.3534 87.3598 26.12H85.3598ZM76.1998 31.84C70.6111 31.84 64.5704 32.6846 59.8975 35.5473C55.144 38.4593 51.9198 43.3921 51.9198 51.24H53.9198C53.9198 44.0479 56.8156 39.7807 60.9422 37.2527C65.1493 34.6754 70.7486 33.84 76.1998 33.84V31.84ZM51.9198 51.24C51.9198 51.2491 51.9198 51.2581 51.9198 51.2672C51.9198 51.2762 51.9198 51.2853 51.9198 51.2944C51.9198 51.3034 51.9198 51.3125 51.9198 51.3216C51.9198 51.3306 51.9198 51.3397 51.9198 51.3487C51.9198 51.3578 51.9198 51.3669 51.9198 51.3759C51.9198 51.385 51.9198 51.394 51.9198 51.4031C51.9198 51.4122 51.9198 51.4212 51.9198 51.4303C51.9198 51.4393 51.9198 51.4484 51.9198 51.4574C51.9198 51.4665 51.9198 51.4756 51.9198 51.4846C51.9198 51.4937 51.9198 51.5027 51.9198 51.5118C51.9198 51.5208 51.9198 51.5299 51.9198 51.539C51.9198 51.548 51.9198 51.5571 51.9198 51.5661C51.9198 51.5752 51.9198 51.5842 51.9198 51.5933C51.9198 51.6023 51.9198 51.6114 51.9198 51.6204C51.9198 51.6295 51.9198 51.6386 51.9198 51.6476C51.9198 51.6567 51.9198 51.6657 51.9198 51.6748C51.9198 51.6838 51.9198 51.6929 51.9198 51.7019C51.9198 51.711 51.9198 51.72 51.9198 51.7291C51.9198 51.7381 51.9198 51.7472 51.9198 51.7562C51.9198 51.7653 51.9198 51.7743 51.9198 51.7834C51.9198 51.7924 51.9198 51.8015 51.9198 51.8105C51.9198 51.8196 51.9198 51.8286 51.9198 51.8377C51.9198 51.8467 51.9198 51.8558 51.9198 51.8648C51.9198 51.8739 51.9198 51.8829 51.9198 51.892C51.9198 51.901 51.9198 51.9101 51.9198 51.9191C51.9198 51.9282 51.9198 51.9372 51.9198 51.9463C51.9198 51.9553 51.9198 51.9644 51.9198 51.9734C51.9198 51.9825 51.9198 51.9915 51.9198 52.0005C51.9198 52.0096 51.9198 52.0186 51.9198 52.0277C51.9198 52.0367 51.9198 52.0458 51.9198 52.0548C51.9198 52.0639 51.9198 52.0729 51.9198 52.0819C51.9198 52.091 51.9198 52.1 51.9198 52.1091C51.9198 52.1181 51.9198 52.1272 51.9198 52.1362C51.9198 52.1453 51.9198 52.1543 51.9198 52.1633C51.9198 52.1724 51.9198 52.1814 51.9198 52.1905C51.9198 52.1995 51.9198 52.2085 51.9198 52.2176C51.9198 52.2266 51.9198 52.2357 51.9198 52.2447C51.9198 52.2538 51.9198 52.2628 51.9198 52.2718C51.9198 52.2809 51.9198 52.2899 51.9198 52.299C51.9198 52.308 51.9198 52.317 51.9198 52.3261C51.9198 52.3351 51.9198 52.3442 51.9198 52.3532C51.9198 52.3622 51.9198 52.3713 51.9198 52.3803C51.9198 52.3893 51.9198 52.3984 51.9198 52.4074C51.9198 52.4165 51.9198 52.4255 51.9198 52.4345C51.9198 52.4436 51.9198 52.4526 51.9198 52.4616C51.9198 52.4707 51.9198 52.4797 51.9198 52.4887C51.9198 52.4978 51.9198 52.5068 51.9198 52.5159C51.9198 52.5249 51.9198 52.5339 51.9198 52.543C51.9198 52.552 51.9198 52.561 51.9198 52.5701C51.9198 52.5791 51.9198 52.5881 51.9198 52.5972C51.9198 52.6062 51.9198 52.6152 51.9198 52.6243C51.9198 52.6333 51.9198 52.6423 51.9198 52.6514C51.9198 52.6604 51.9198 52.6694 51.9198 52.6785C51.9198 52.6875 51.9198 52.6965 51.9198 52.7055C51.9198 52.7146 51.9198 52.7236 51.9198 52.7326C51.9198 52.7417 51.9198 52.7507 51.9198 52.7597C51.9198 52.7688 51.9198 52.7778 51.9198 52.7868C51.9198 52.7959 51.9198 52.8049 51.9198 52.8139C51.9198 52.8229 51.9198 52.832 51.9198 52.841C51.9198 52.85 51.9198 52.8591 51.9198 52.8681C51.9198 52.8771 51.9198 52.8861 51.9198 52.8952C51.9198 52.9042 51.9198 52.9132 51.9198 52.9222C51.9198 52.9313 51.9198 52.9403 51.9198 52.9493C51.9198 52.9584 51.9198 52.9674 51.9198 52.9764C51.9198 52.9854 51.9198 52.9945 51.9198 53.0035C51.9198 53.0125 51.9198 53.0215 51.9198 53.0306C51.9198 53.0396 51.9198 53.0486 51.9198 53.0576C51.9198 53.0667 51.9198 53.0757 51.9198 53.0847C51.9198 53.0937 51.9198 53.1028 51.9198 53.1118C51.9198 53.1208 51.9198 53.1298 51.9198 53.1388C51.9198 53.1479 51.9198 53.1569 51.9198 53.1659C51.9198 53.1749 51.9198 53.184 51.9198 53.193C51.9198 53.202 51.9198 53.211 51.9198 53.22C51.9198 53.2291 51.9198 53.2381 51.9198 53.2471C51.9198 53.2561 51.9198 53.2651 51.9198 53.2742C51.9198 53.2832 51.9198 53.2922 51.9198 53.3012C51.9198 53.3102 51.9198 53.3193 51.9198 53.3283C51.9198 53.3373 51.9198 53.3463 51.9198 53.3553C51.9198 53.3644 51.9198 53.3734 51.9198 53.3824C51.9198 53.3914 51.9198 53.4004 51.9198 53.4094C51.9198 53.4185 51.9198 53.4275 51.9198 53.4365C51.9198 53.4455 51.9198 53.4545 51.9198 53.4635C51.9198 53.4726 51.9198 53.4816 51.9198 53.4906C51.9198 53.4996 51.9198 53.5086 51.9198 53.5176C51.9198 53.5267 51.9198 53.5357 51.9198 53.5447C51.9198 53.5537 51.9198 53.5627 51.9198 53.5717C51.9198 53.5807 51.9198 53.5898 51.9198 53.5988C51.9198 53.6078 51.9198 53.6168 51.9198 53.6258C51.9198 53.6348 51.9198 53.6438 51.9198 53.6529C51.9198 53.6619 51.9198 53.6709 51.9198 53.6799C51.9198 53.6889 51.9198 53.6979 51.9198 53.7069C51.9198 53.7159 51.9198 53.725 51.9198 53.734C51.9198 53.743 51.9198 53.752 51.9198 53.761C51.9198 53.77 51.9198 53.779 51.9198 53.788C51.9198 53.797 51.9198 53.8061 51.9198 53.8151C51.9198 53.8241 51.9198 53.8331 51.9198 53.8421C51.9198 53.8511 51.9198 53.8601 51.9198 53.8691C51.9198 53.8781 51.9198 53.8871 51.9198 53.8961C51.9198 53.9052 51.9198 53.9142 51.9198 53.9232C51.9198 53.9322 51.9198 53.9412 51.9198 53.9502C51.9198 53.9592 51.9198 53.9682 51.9198 53.9772C51.9198 53.9862 51.9198 53.9952 51.9198 54.0042C51.9198 54.0132 51.9198 54.0222 51.9198 54.0313C51.9198 54.0403 51.9198 54.0493 51.9198 54.0583C51.9198 54.0673 51.9198 54.0763 51.9198 54.0853C51.9198 54.0943 51.9198 54.1033 51.9198 54.1123C51.9198 54.1213 51.9198 54.1303 51.9198 54.1393C51.9198 54.1483 51.9198 54.1573 51.9198 54.1663C51.9198 54.1753 51.9198 54.1843 51.9198 54.1933C51.9198 54.2023 51.9198 54.2113 51.9198 54.2203C51.9198 54.2293 51.9198 54.2383 51.9198 54.2473C51.9198 54.2563 51.9198 54.2654 51.9198 54.2744C51.9198 54.2834 51.9198 54.2924 51.9198 54.3014C51.9198 54.3104 51.9198 54.3194 51.9198 54.3284C51.9198 54.3374 51.9198 54.3464 51.9198 54.3554C51.9198 54.3644 51.9198 54.3734 51.9198 54.3824C51.9198 54.3914 51.9198 54.4004 51.9198 54.4094C51.9198 54.4184 51.9198 54.4274 51.9198 54.4364C51.9198 54.4454 51.9198 54.4544 51.9198 54.4634C51.9198 54.4723 51.9198 54.4813 51.9198 54.4903C51.9198 54.4993 51.9198 54.5083 51.9198 54.5173C51.9198 54.5263 51.9198 54.5353 51.9198 54.5443C51.9198 54.5533 51.9198 54.5623 51.9198 54.5713C51.9198 54.5803 51.9198 54.5893 51.9198 54.5983C51.9198 54.6073 51.9198 54.6163 51.9198 54.6253C51.9198 54.6343 51.9198 54.6433 51.9198 54.6523C51.9198 54.6613 51.9198 54.6703 51.9198 54.6793C51.9198 54.6883 51.9198 54.6973 51.9198 54.7062C51.9198 54.7152 51.9198 54.7242 51.9198 54.7332C51.9198 54.7422 51.9198 54.7512 51.9198 54.7602C51.9198 54.7692 51.9198 54.7782 51.9198 54.7872C51.9198 54.7962 51.9198 54.8052 51.9198 54.8142C51.9198 54.8232 51.9198 54.8322 51.9198 54.8411C51.9198 54.8501 51.9198 54.8591 51.9198 54.8681C51.9198 54.8771 51.9198 54.8861 51.9198 54.8951C51.9198 54.9041 51.9198 54.9131 51.9198 54.9221C51.9198 54.9311 51.9198 54.94 51.9198 54.949C51.9198 54.958 51.9198 54.967 51.9198 54.976C51.9198 54.985 51.9198 54.994 51.9198 55.003C51.9198 55.012 51.9198 55.021 51.9198 55.0299C51.9198 55.0389 51.9198 55.0479 51.9198 55.0569C51.9198 55.0659 51.9198 55.0749 51.9198 55.0839C51.9198 55.0929 51.9198 55.1018 51.9198 55.1108C51.9198 55.1198 51.9198 55.1288 51.9198 55.1378C51.9198 55.1468 51.9198 55.1558 51.9198 55.1648C51.9198 55.1737 51.9198 55.1827 51.9198 55.1917C51.9198 55.2007 51.9198 55.2097 51.9198 55.2187C51.9198 55.2277 51.9198 55.2366 51.9198 55.2456C51.9198 55.2546 51.9198 55.2636 51.9198 55.2726C51.9198 55.2816 51.9198 55.2906 51.9198 55.2995C51.9198 55.3085 51.9198 55.3175 51.9198 55.3265C51.9198 55.3355 51.9198 55.3445 51.9198 55.3534C51.9198 55.3624 51.9198 55.3714 51.9198 55.3804C51.9198 55.3894 51.9198 55.3984 51.9198 55.4073C51.9198 55.4163 51.9198 55.4253 51.9198 55.4343C51.9198 55.4433 51.9198 55.4523 51.9198 55.4612C51.9198 55.4702 51.9198 55.4792 51.9198 55.4882C51.9198 55.4972 51.9198 55.5061 51.9198 55.5151C51.9198 55.5241 51.9198 55.5331 51.9198 55.5421C51.9198 55.551 51.9198 55.56 51.9198 55.569C51.9198 55.578 51.9198 55.587 51.9198 55.5959C51.9198 55.6049 51.9198 55.6139 51.9198 55.6229C51.9198 55.6319 51.9198 55.6408 51.9198 55.6498C51.9198 55.6588 51.9198 55.6678 51.9198 55.6768C51.9198 55.6857 51.9198 55.6947 51.9198 55.7037C51.9198 55.7127 51.9198 55.7216 51.9198 55.7306C51.9198 55.7396 51.9198 55.7486 51.9198 55.7576C51.9198 55.7665 51.9198 55.7755 51.9198 55.7845C51.9198 55.7935 51.9198 55.8024 51.9198 55.8114C51.9198 55.8204 51.9198 55.8294 51.9198 55.8383C51.9198 55.8473 51.9198 55.8563 51.9198 55.8653C51.9198 55.8742 51.9198 55.8832 51.9198 55.8922C51.9198 55.9012 51.9198 55.9101 51.9198 55.9191C51.9198 55.9281 51.9198 55.9371 51.9198 55.946C51.9198 55.955 51.9198 55.964 51.9198 55.973C51.9198 55.9819 51.9198 55.9909 51.9198 55.9999C51.9198 56.0089 51.9198 56.0178 51.9198 56.0268C51.9198 56.0358 51.9198 56.0448 51.9198 56.0537C51.9198 56.0627 51.9198 56.0717 51.9198 56.0806C51.9198 56.0896 51.9198 56.0986 51.9198 56.1076C51.9198 56.1165 51.9198 56.1255 51.9198 56.1345C51.9198 56.1434 51.9198 56.1524 51.9198 56.1614C51.9198 56.1704 51.9198 56.1793 51.9198 56.1883C51.9198 56.1973 51.9198 56.2062 51.9198 56.2152C51.9198 56.2242 51.9198 56.2332 51.9198 56.2421C51.9198 56.2511 51.9198 56.2601 51.9198 56.269C51.9198 56.278 51.9198 56.287 51.9198 56.2959C51.9198 56.3049 51.9198 56.3139 51.9198 56.3229C51.9198 56.3318 51.9198 56.3408 51.9198 56.3498C51.9198 56.3587 51.9198 56.3677 51.9198 56.3767C51.9198 56.3856 51.9198 56.3946 51.9198 56.4036C51.9198 56.4125 51.9198 56.4215 51.9198 56.4305C51.9198 56.4394 51.9198 56.4484 51.9198 56.4574C51.9198 56.4663 51.9198 56.4753 51.9198 56.4843C51.9198 56.4932 51.9198 56.5022 51.9198 56.5112C51.9198 56.5201 51.9198 56.5291 51.9198 56.5381C51.9198 56.547 51.9198 56.556 51.9198 56.565C51.9198 56.5739 51.9198 56.5829 51.9198 56.5919C51.9198 56.6008 51.9198 56.6098 51.9198 56.6188C51.9198 56.6277 51.9198 56.6367 51.9198 56.6456C51.9198 56.6546 51.9198 56.6636 51.9198 56.6725C51.9198 56.6815 51.9198 56.6905 51.9198 56.6994C51.9198 56.7084 51.9198 56.7174 51.9198 56.7263C51.9198 56.7353 51.9198 56.7442 51.9198 56.7532C51.9198 56.7622 51.9198 56.7711 51.9198 56.7801C51.9198 56.7891 51.9198 56.798 51.9198 56.807C51.9198 56.8159 51.9198 56.8249 51.9198 56.8339C51.9198 56.8428 51.9198 56.8518 51.9198 56.8608C51.9198 56.8697 51.9198 56.8787 51.9198 56.8876C51.9198 56.8966 51.9198 56.9056 51.9198 56.9145C51.9198 56.9235 51.9198 56.9324 51.9198 56.9414C51.9198 56.9504 51.9198 56.9593 51.9198 56.9683C51.9198 56.9772 51.9198 56.9862 51.9198 56.9952C51.9198 57.0041 51.9198 57.0131 51.9198 57.022C51.9198 57.031 51.9198 57.04 51.9198 57.0489C51.9198 57.0579 51.9198 57.0668 51.9198 57.0758C51.9198 57.0847 51.9198 57.0937 51.9198 57.1027C51.9198 57.1116 51.9198 57.1206 51.9198 57.1295C51.9198 57.1385 51.9198 57.1475 51.9198 57.1564C51.9198 57.1654 51.9198 57.1743 51.9198 57.1833C51.9198 57.1922 51.9198 57.2012 51.9198 57.2102C51.9198 57.2191 51.9198 57.2281 51.9198 57.237C51.9198 57.246 51.9198 57.2549 51.9198 57.2639C51.9198 57.2728 51.9198 57.2818 51.9198 57.2908C51.9198 57.2997 51.9198 57.3087 51.9198 57.3176C51.9198 57.3266 51.9198 57.3355 51.9198 57.3445C51.9198 57.3534 51.9198 57.3624 51.9198 57.3714C51.9198 57.3803 51.9198 57.3893 51.9198 57.3982C51.9198 57.4072 51.9198 57.4161 51.9198 57.4251C51.9198 57.434 51.9198 57.443 51.9198 57.4519C51.9198 57.4609 51.9198 57.4699 51.9198 57.4788C51.9198 57.4878 51.9198 57.4967 51.9198 57.5057C51.9198 57.5146 51.9198 57.5236 51.9198 57.5325C51.9198 57.5415 51.9198 57.5504 51.9198 57.5594C51.9198 57.5683 51.9198 57.5773 51.9198 57.5862C51.9198 57.5952 51.9198 57.6041 51.9198 57.6131C51.9198 57.622 51.9198 57.631 51.9198 57.6399C51.9198 57.6489 51.9198 57.6578 51.9198 57.6668C51.9198 57.6758 51.9198 57.6847 51.9198 57.6937C51.9198 57.7026 51.9198 57.7116 51.9198 57.7205C51.9198 57.7295 51.9198 57.7384 51.9198 57.7474C51.9198 57.7563 51.9198 57.7653 51.9198 57.7742C51.9198 57.7832 51.9198 57.7921 51.9198 57.8011C51.9198 57.81 51.9198 57.819 51.9198 57.8279C51.9198 57.8369 51.9198 57.8458 51.9198 57.8547C51.9198 57.8637 51.9198 57.8726 51.9198 57.8816C51.9198 57.8905 51.9198 57.8995 51.9198 57.9084C51.9198 57.9174 51.9198 57.9263 51.9198 57.9353C51.9198 57.9442 51.9198 57.9532 51.9198 57.9621C51.9198 57.9711 51.9198 57.98 51.9198 57.989C51.9198 57.9979 51.9198 58.0069 51.9198 58.0158C51.9198 58.0248 51.9198 58.0337 51.9198 58.0426C51.9198 58.0516 51.9198 58.0605 51.9198 58.0695C51.9198 58.0784 51.9198 58.0874 51.9198 58.0963C51.9198 58.1053 51.9198 58.1142 51.9198 58.1232C51.9198 58.1321 51.9198 58.1411 51.9198 58.15C51.9198 58.1589 51.9198 58.1679 51.9198 58.1768C51.9198 58.1858 51.9198 58.1947 51.9198 58.2037C51.9198 58.2126 51.9198 58.2216 51.9198 58.2305C51.9198 58.2394 51.9198 58.2484 51.9198 58.2573C51.9198 58.2663 51.9198 58.2752 51.9198 58.2842C51.9198 58.2931 51.9198 58.3021 51.9198 58.311C51.9198 58.3199 51.9198 58.3289 51.9198 58.3378C51.9198 58.3468 51.9198 58.3557 51.9198 58.3647C51.9198 58.3736 51.9198 58.3825 51.9198 58.3915C51.9198 58.4004 51.9198 58.4094 51.9198 58.4183C51.9198 58.4273 51.9198 58.4362 51.9198 58.4451C51.9198 58.4541 51.9198 58.463 51.9198 58.472C51.9198 58.4809 51.9198 58.4898 51.9198 58.4988C51.9198 58.5077 51.9198 58.5167 51.9198 58.5256C51.9198 58.5346 51.9198 58.5435 51.9198 58.5524C51.9198 58.5614 51.9198 58.5703 51.9198 58.5793C51.9198 58.5882 51.9198 58.5971 51.9198 58.6061C51.9198 58.615 51.9198 58.624 51.9198 58.6329C51.9198 58.6418 51.9198 58.6508 51.9198 58.6597C51.9198 58.6687 51.9198 58.6776 51.9198 58.6865C51.9198 58.6955 51.9198 58.7044 51.9198 58.7134C51.9198 58.7223 51.9198 58.7312 51.9198 58.7402C51.9198 58.7491 51.9198 58.7581 51.9198 58.767C51.9198 58.7759 51.9198 58.7849 51.9198 58.7938C51.9198 58.8027 51.9198 58.8117 51.9198 58.8206C51.9198 58.8296 51.9198 58.8385 51.9198 58.8474C51.9198 58.8564 51.9198 58.8653 51.9198 58.8742C51.9198 58.8832 51.9198 58.8921 51.9198 58.9011C51.9198 58.91 51.9198 58.9189 51.9198 58.9279C51.9198 58.9368 51.9198 58.9457 51.9198 58.9547C51.9198 58.9636 51.9198 58.9726 51.9198 58.9815C51.9198 58.9904 51.9198 58.9994 51.9198 59.0083C51.9198 59.0172 51.9198 59.0262 51.9198 59.0351C51.9198 59.044 51.9198 59.053 51.9198 59.0619C51.9198 59.0709 51.9198 59.0798 51.9198 59.0887C51.9198 59.0977 51.9198 59.1066 51.9198 59.1155C51.9198 59.1245 51.9198 59.1334 51.9198 59.1423C51.9198 59.1513 51.9198 59.1602 51.9198 59.1691C51.9198 59.1781 51.9198 59.187 51.9198 59.1959C51.9198 59.2049 51.9198 59.2138 51.9198 59.2227C51.9198 59.2317 51.9198 59.2406 51.9198 59.2495C51.9198 59.2585 51.9198 59.2674 51.9198 59.2763C51.9198 59.2853 51.9198 59.2942 51.9198 59.3031C51.9198 59.3121 51.9198 59.321 51.9198 59.3299C51.9198 59.3389 51.9198 59.3478 51.9198 59.3567C51.9198 59.3657 51.9198 59.3746 51.9198 59.3835C51.9198 59.3925 51.9198 59.4014 51.9198 59.4103C51.9198 59.4193 51.9198 59.4282 51.9198 59.4371C51.9198 59.4461 51.9198 59.455 51.9198 59.4639C51.9198 59.4729 51.9198 59.4818 51.9198 59.4907C51.9198 59.4997 51.9198 59.5086 51.9198 59.5175C51.9198 59.5265 51.9198 59.5354 51.9198 59.5443C51.9198 59.5532 51.9198 59.5622 51.9198 59.5711C51.9198 59.58 51.9198 59.589 51.9198 59.5979C51.9198 59.6068 51.9198 59.6158 51.9198 59.6247C51.9198 59.6336 51.9198 59.6426 51.9198 59.6515C51.9198 59.6604 51.9198 59.6693 51.9198 59.6783C51.9198 59.6872 51.9198 59.6961 51.9198 59.7051C51.9198 59.714 51.9198 59.7229 51.9198 59.7318C51.9198 59.7408 51.9198 59.7497 51.9198 59.7586C51.9198 59.7676 51.9198 59.7765 51.9198 59.7854C51.9198 59.7944 51.9198 59.8033 51.9198 59.8122C51.9198 59.8211 51.9198 59.8301 51.9198 59.839C51.9198 59.8479 51.9198 59.8569 51.9198 59.8658C51.9198 59.8747 51.9198 59.8836 51.9198 59.8926C51.9198 59.9015 51.9198 59.9104 51.9198 59.9193C51.9198 59.9283 51.9198 59.9372 51.9198 59.9461C51.9198 59.9551 51.9198 59.964 51.9198 59.9729C51.9198 59.9818 51.9198 59.9908 51.9198 59.9997C51.9198 60.0086 51.9198 60.0175 51.9198 60.0265C51.9198 60.0354 51.9198 60.0443 51.9198 60.0533C51.9198 60.0622 51.9198 60.0711 51.9198 60.08C51.9198 60.089 51.9198 60.0979 51.9198 60.1068C51.9198 60.1157 51.9198 60.1247 51.9198 60.1336C51.9198 60.1425 51.9198 60.1514 51.9198 60.1604C51.9198 60.1693 51.9198 60.1782 51.9198 60.1871C51.9198 60.1961 51.9198 60.205 51.9198 60.2139C51.9198 60.2229 51.9198 60.2318 51.9198 60.2407C51.9198 60.2496 51.9198 60.2586 51.9198 60.2675C51.9198 60.2764 51.9198 60.2853 51.9198 60.2943C51.9198 60.3032 51.9198 60.3121 51.9198 60.321C51.9198 60.3299 51.9198 60.3389 51.9198 60.3478C51.9198 60.3567 51.9198 60.3656 51.9198 60.3746C51.9198 60.3835 51.9198 60.3924 51.9198 60.4013C51.9198 60.4103 51.9198 60.4192 51.9198 60.4281C51.9198 60.437 51.9198 60.446 51.9198 60.4549C51.9198 60.4638 51.9198 60.4727 51.9198 60.4817C51.9198 60.4906 51.9198 60.4995 51.9198 60.5084C51.9198 60.5173 51.9198 60.5263 51.9198 60.5352C51.9198 60.5441 51.9198 60.553 51.9198 60.562C51.9198 60.5709 51.9198 60.5798 51.9198 60.5887C51.9198 60.5977 51.9198 60.6066 51.9198 60.6155C51.9198 60.6244 51.9198 60.6333 51.9198 60.6423C51.9198 60.6512 51.9198 60.6601 51.9198 60.669C51.9198 60.678 51.9198 60.6869 51.9198 60.6958C51.9198 60.7047 51.9198 60.7136 51.9198 60.7226C51.9198 60.7315 51.9198 60.7404 51.9198 60.7493C51.9198 60.7582 51.9198 60.7672 51.9198 60.7761C51.9198 60.785 51.9198 60.7939 51.9198 60.8028C51.9198 60.8118 51.9198 60.8207 51.9198 60.8296C51.9198 60.8385 51.9198 60.8475 51.9198 60.8564C51.9198 60.8653 51.9198 60.8742 51.9198 60.8831C51.9198 60.8921 51.9198 60.901 51.9198 60.9099C51.9198 60.9188 51.9198 60.9277 51.9198 60.9367C51.9198 60.9456 51.9198 60.9545 51.9198 60.9634C51.9198 60.9723 51.9198 60.9813 51.9198 60.9902C51.9198 60.9991 51.9198 61.008 51.9198 61.0169C51.9198 61.0259 51.9198 61.0348 51.9198 61.0437C51.9198 61.0526 51.9198 61.0615 51.9198 61.0705C51.9198 61.0794 51.9198 61.0883 51.9198 61.0972C51.9198 61.1061 51.9198 61.115 51.9198 61.124C51.9198 61.1329 51.9198 61.1418 51.9198 61.1507C51.9198 61.1596 51.9198 61.1686 51.9198 61.1775C51.9198 61.1864 51.9198 61.1953 51.9198 61.2042C51.9198 61.2131 51.9198 61.2221 51.9198 61.231C51.9198 61.2399 51.9198 61.2488 51.9198 61.2577C51.9198 61.2667 51.9198 61.2756 51.9198 61.2845C51.9198 61.2934 51.9198 61.3023 51.9198 61.3112C51.9198 61.3202 51.9198 61.3291 51.9198 61.338C51.9198 61.3469 51.9198 61.3558 51.9198 61.3648C51.9198 61.3737 51.9198 61.3826 51.9198 61.3915C51.9198 61.4004 51.9198 61.4093 51.9198 61.4183C51.9198 61.4272 51.9198 61.4361 51.9198 61.445C51.9198 61.4539 51.9198 61.4628 51.9198 61.4718C51.9198 61.4807 51.9198 61.4896 51.9198 61.4985C51.9198 61.5074 51.9198 61.5163 51.9198 61.5253C51.9198 61.5342 51.9198 61.5431 51.9198 61.552C51.9198 61.5609 51.9198 61.5698 51.9198 61.5787C51.9198 61.5877 51.9198 61.5966 51.9198 61.6055C51.9198 61.6144 51.9198 61.6233 51.9198 61.6322C51.9198 61.6412 51.9198 61.6501 51.9198 61.659C51.9198 61.6679 51.9198 61.6768 51.9198 61.6857C51.9198 61.6947 51.9198 61.7036 51.9198 61.7125C51.9198 61.7214 51.9198 61.7303 51.9198 61.7392C51.9198 61.7481 51.9198 61.7571 51.9198 61.766C51.9198 61.7749 51.9198 61.7838 51.9198 61.7927C51.9198 61.8016 51.9198 61.8105 51.9198 61.8195C51.9198 61.8284 51.9198 61.8373 51.9198 61.8462C51.9198 61.8551 51.9198 61.864 51.9198 61.873C51.9198 61.8819 51.9198 61.8908 51.9198 61.8997C51.9198 61.9086 51.9198 61.9175 51.9198 61.9264C51.9198 61.9354 51.9198 61.9443 51.9198 61.9532C51.9198 61.9621 51.9198 61.971 51.9198 61.9799C51.9198 61.9888 51.9198 61.9977 51.9198 62.0067C51.9198 62.0156 51.9198 62.0245 51.9198 62.0334C51.9198 62.0423 51.9198 62.0512 51.9198 62.0601C51.9198 62.0691 51.9198 62.078 51.9198 62.0869C51.9198 62.0958 51.9198 62.1047 51.9198 62.1136C51.9198 62.1225 51.9198 62.1315 51.9198 62.1404C51.9198 62.1493 51.9198 62.1582 51.9198 62.1671C51.9198 62.176 51.9198 62.1849 51.9198 62.1938C51.9198 62.2028 51.9198 62.2117 51.9198 62.2206C51.9198 62.2295 51.9198 62.2384 51.9198 62.2473C51.9198 62.2562 51.9198 62.2651 51.9198 62.2741C51.9198 62.283 51.9198 62.2919 51.9198 62.3008C51.9198 62.3097 51.9198 62.3186 51.9198 62.3275C51.9198 62.3364 51.9198 62.3454 51.9198 62.3543C51.9198 62.3632 51.9198 62.3721 51.9198 62.381C51.9198 62.3899 51.9198 62.3988 51.9198 62.4077C51.9198 62.4166 51.9198 62.4256 51.9198 62.4345C51.9198 62.4434 51.9198 62.4523 51.9198 62.4612C51.9198 62.4701 51.9198 62.479 51.9198 62.4879C51.9198 62.4969 51.9198 62.5058 51.9198 62.5147C51.9198 62.5236 51.9198 62.5325 51.9198 62.5414C51.9198 62.5503 51.9198 62.5592 51.9198 62.5681C51.9198 62.5771 51.9198 62.586 51.9198 62.5949C51.9198 62.6038 51.9198 62.6127 51.9198 62.6216C51.9198 62.6305 51.9198 62.6394 51.9198 62.6483C51.9198 62.6573 51.9198 62.6662 51.9198 62.6751C51.9198 62.684 51.9198 62.6929 51.9198 62.7018C51.9198 62.7107 51.9198 62.7196 51.9198 62.7285C51.9198 62.7375 51.9198 62.7464 51.9198 62.7553C51.9198 62.7642 51.9198 62.7731 51.9198 62.782C51.9198 62.7909 51.9198 62.7998 51.9198 62.8087C51.9198 62.8176 51.9198 62.8266 51.9198 62.8355C51.9198 62.8444 51.9198 62.8533 51.9198 62.8622C51.9198 62.8711 51.9198 62.88 51.9198 62.8889C51.9198 62.8978 51.9198 62.9067 51.9198 62.9157C51.9198 62.9246 51.9198 62.9335 51.9198 62.9424C51.9198 62.9513 51.9198 62.9602 51.9198 62.9691C51.9198 62.978 51.9198 62.9869 51.9198 62.9958C51.9198 63.0048 51.9198 63.0137 51.9198 63.0226C51.9198 63.0315 51.9198 63.0404 51.9198 63.0493C51.9198 63.0582 51.9198 63.0671 51.9198 63.076C51.9198 63.0849 51.9198 63.0938 51.9198 63.1028C51.9198 63.1117 51.9198 63.1206 51.9198 63.1295C51.9198 63.1384 51.9198 63.1473 51.9198 63.1562C51.9198 63.1651 51.9198 63.174 51.9198 63.1829C51.9198 63.1918 51.9198 63.2008 51.9198 63.2097C51.9198 63.2186 51.9198 63.2275 51.9198 63.2364C51.9198 63.2453 51.9198 63.2542 51.9198 63.2631C51.9198 63.272 51.9198 63.2809 51.9198 63.2898C51.9198 63.2988 51.9198 63.3077 51.9198 63.3166C51.9198 63.3255 51.9198 63.3344 51.9198 63.3433C51.9198 63.3522 51.9198 63.3611 51.9198 63.37C51.9198 63.3789 51.9198 63.3878 51.9198 63.3967C51.9198 63.4057 51.9198 63.4146 51.9198 63.4235C51.9198 63.4324 51.9198 63.4413 51.9198 63.4502C51.9198 63.4591 51.9198 63.468 51.9198 63.4769C51.9198 63.4858 51.9198 63.4947 51.9198 63.5036C51.9198 63.5126 51.9198 63.5215 51.9198 63.5304C51.9198 63.5393 51.9198 63.5482 51.9198 63.5571C51.9198 63.566 51.9198 63.5749 51.9198 63.5838C51.9198 63.5927 51.9198 63.6016 51.9198 63.6105C51.9198 63.6194 51.9198 63.6284 51.9198 63.6373C51.9198 63.6462 51.9198 63.6551 51.9198 63.664C51.9198 63.6729 51.9198 63.6818 51.9198 63.6907C51.9198 63.6996 51.9198 63.7085 51.9198 63.7174C51.9198 63.7263 51.9198 63.7352 51.9198 63.7442C51.9198 63.7531 51.9198 63.762 51.9198 63.7709C51.9198 63.7798 51.9198 63.7887 51.9198 63.7976C51.9198 63.8065 51.9198 63.8154 51.9198 63.8243C51.9198 63.8332 51.9198 63.8421 51.9198 63.851C51.9198 63.86 51.9198 63.8689 51.9198 63.8778C51.9198 63.8867 51.9198 63.8956 51.9198 63.9045C51.9198 63.9134 51.9198 63.9223 51.9198 63.9312C51.9198 63.9401 51.9198 63.949 51.9198 63.9579C51.9198 63.9668 51.9198 63.9757 51.9198 63.9847C51.9198 63.9936 51.9198 64.0025 51.9198 64.0114C51.9198 64.0203 51.9198 64.0292 51.9198 64.0381C51.9198 64.047 51.9198 64.0559 51.9198 64.0648C51.9198 64.0737 51.9198 64.0826 51.9198 64.0915C51.9198 64.1004 51.9198 64.1094 51.9198 64.1183C51.9198 64.1272 51.9198 64.1361 51.9198 64.145C51.9198 64.1539 51.9198 64.1628 51.9198 64.1717C51.9198 64.1806 51.9198 64.1895 51.9198 64.1984C51.9198 64.2073 51.9198 64.2162 51.9198 64.2251C51.9198 64.234 51.9198 64.243 51.9198 64.2519C51.9198 64.2608 51.9198 64.2697 51.9198 64.2786C51.9198 64.2875 51.9198 64.2964 51.9198 64.3053C51.9198 64.3142 51.9198 64.3231 51.9198 64.332C51.9198 64.3409 51.9198 64.3498 51.9198 64.3587C51.9198 64.3676 51.9198 64.3766 51.9198 64.3855C51.9198 64.3944 51.9198 64.4033 51.9198 64.4122C51.9198 64.4211 51.9198 64.43 51.9198 64.4389C51.9198 64.4478 51.9198 64.4567 51.9198 64.4656C51.9198 64.4745 51.9198 64.4834 51.9198 64.4923C51.9198 64.5012 51.9198 64.5102 51.9198 64.5191C51.9198 64.528 51.9198 64.5369 51.9198 64.5458C51.9198 64.5547 51.9198 64.5636 51.9198 64.5725C51.9198 64.5814 51.9198 64.5903 51.9198 64.5992C51.9198 64.6081 51.9198 64.617 51.9198 64.6259C51.9198 64.6348 51.9198 64.6437 51.9198 64.6527C51.9198 64.6616 51.9198 64.6705 51.9198 64.6794C51.9198 64.6883 51.9198 64.6972 51.9198 64.7061C51.9198 64.715 51.9198 64.7239 51.9198 64.7328C51.9198 64.7417 51.9198 64.7506 51.9198 64.7595C51.9198 64.7684 51.9198 64.7773 51.9198 64.7862C51.9198 64.7952 51.9198 64.8041 51.9198 64.813C51.9198 64.8219 51.9198 64.8308 51.9198 64.8397C51.9198 64.8486 51.9198 64.8575 51.9198 64.8664C51.9198 64.8753 51.9198 64.8842 51.9198 64.8931C51.9198 64.902 51.9198 64.9109 51.9198 64.9198C51.9198 64.9287 51.9198 64.9377 51.9198 64.9466C51.9198 64.9555 51.9198 64.9644 51.9198 64.9733C51.9198 64.9822 51.9198 64.9911 51.9198 65H53.9198C53.9198 64.9911 53.9198 64.9822 53.9198 64.9733C53.9198 64.9644 53.9198 64.9555 53.9198 64.9466C53.9198 64.9377 53.9198 64.9287 53.9198 64.9198C53.9198 64.9109 53.9198 64.902 53.9198 64.8931C53.9198 64.8842 53.9198 64.8753 53.9198 64.8664C53.9198 64.8575 53.9198 64.8486 53.9198 64.8397C53.9198 64.8308 53.9198 64.8219 53.9198 64.813C53.9198 64.8041 53.9198 64.7952 53.9198 64.7862C53.9198 64.7773 53.9198 64.7684 53.9198 64.7595C53.9198 64.7506 53.9198 64.7417 53.9198 64.7328C53.9198 64.7239 53.9198 64.715 53.9198 64.7061C53.9198 64.6972 53.9198 64.6883 53.9198 64.6794C53.9198 64.6705 53.9198 64.6616 53.9198 64.6527C53.9198 64.6437 53.9198 64.6348 53.9198 64.6259C53.9198 64.617 53.9198 64.6081 53.9198 64.5992C53.9198 64.5903 53.9198 64.5814 53.9198 64.5725C53.9198 64.5636 53.9198 64.5547 53.9198 64.5458C53.9198 64.5369 53.9198 64.528 53.9198 64.5191C53.9198 64.5102 53.9198 64.5012 53.9198 64.4923C53.9198 64.4834 53.9198 64.4745 53.9198 64.4656C53.9198 64.4567 53.9198 64.4478 53.9198 64.4389C53.9198 64.43 53.9198 64.4211 53.9198 64.4122C53.9198 64.4033 53.9198 64.3944 53.9198 64.3855C53.9198 64.3766 53.9198 64.3676 53.9198 64.3587C53.9198 64.3498 53.9198 64.3409 53.9198 64.332C53.9198 64.3231 53.9198 64.3142 53.9198 64.3053C53.9198 64.2964 53.9198 64.2875 53.9198 64.2786C53.9198 64.2697 53.9198 64.2608 53.9198 64.2519C53.9198 64.243 53.9198 64.234 53.9198 64.2251C53.9198 64.2162 53.9198 64.2073 53.9198 64.1984C53.9198 64.1895 53.9198 64.1806 53.9198 64.1717C53.9198 64.1628 53.9198 64.1539 53.9198 64.145C53.9198 64.1361 53.9198 64.1272 53.9198 64.1183C53.9198 64.1094 53.9198 64.1004 53.9198 64.0915C53.9198 64.0826 53.9198 64.0737 53.9198 64.0648C53.9198 64.0559 53.9198 64.047 53.9198 64.0381C53.9198 64.0292 53.9198 64.0203 53.9198 64.0114C53.9198 64.0025 53.9198 63.9936 53.9198 63.9847C53.9198 63.9757 53.9198 63.9668 53.9198 63.9579C53.9198 63.949 53.9198 63.9401 53.9198 63.9312C53.9198 63.9223 53.9198 63.9134 53.9198 63.9045C53.9198 63.8956 53.9198 63.8867 53.9198 63.8778C53.9198 63.8689 53.9198 63.86 53.9198 63.851C53.9198 63.8421 53.9198 63.8332 53.9198 63.8243C53.9198 63.8154 53.9198 63.8065 53.9198 63.7976C53.9198 63.7887 53.9198 63.7798 53.9198 63.7709C53.9198 63.762 53.9198 63.7531 53.9198 63.7442C53.9198 63.7352 53.9198 63.7263 53.9198 63.7174C53.9198 63.7085 53.9198 63.6996 53.9198 63.6907C53.9198 63.6818 53.9198 63.6729 53.9198 63.664C53.9198 63.6551 53.9198 63.6462 53.9198 63.6373C53.9198 63.6284 53.9198 63.6194 53.9198 63.6105C53.9198 63.6016 53.9198 63.5927 53.9198 63.5838C53.9198 63.5749 53.9198 63.566 53.9198 63.5571C53.9198 63.5482 53.9198 63.5393 53.9198 63.5304C53.9198 63.5215 53.9198 63.5126 53.9198 63.5036C53.9198 63.4947 53.9198 63.4858 53.9198 63.4769C53.9198 63.468 53.9198 63.4591 53.9198 63.4502C53.9198 63.4413 53.9198 63.4324 53.9198 63.4235C53.9198 63.4146 53.9198 63.4057 53.9198 63.3967C53.9198 63.3878 53.9198 63.3789 53.9198 63.37C53.9198 63.3611 53.9198 63.3522 53.9198 63.3433C53.9198 63.3344 53.9198 63.3255 53.9198 63.3166C53.9198 63.3077 53.9198 63.2988 53.9198 63.2898C53.9198 63.2809 53.9198 63.272 53.9198 63.2631C53.9198 63.2542 53.9198 63.2453 53.9198 63.2364C53.9198 63.2275 53.9198 63.2186 53.9198 63.2097C53.9198 63.2008 53.9198 63.1918 53.9198 63.1829C53.9198 63.174 53.9198 63.1651 53.9198 63.1562C53.9198 63.1473 53.9198 63.1384 53.9198 63.1295C53.9198 63.1206 53.9198 63.1117 53.9198 63.1028C53.9198 63.0938 53.9198 63.0849 53.9198 63.076C53.9198 63.0671 53.9198 63.0582 53.9198 63.0493C53.9198 63.0404 53.9198 63.0315 53.9198 63.0226C53.9198 63.0137 53.9198 63.0048 53.9198 62.9958C53.9198 62.9869 53.9198 62.978 53.9198 62.9691C53.9198 62.9602 53.9198 62.9513 53.9198 62.9424C53.9198 62.9335 53.9198 62.9246 53.9198 62.9157C53.9198 62.9067 53.9198 62.8978 53.9198 62.8889C53.9198 62.88 53.9198 62.8711 53.9198 62.8622C53.9198 62.8533 53.9198 62.8444 53.9198 62.8355C53.9198 62.8266 53.9198 62.8176 53.9198 62.8087C53.9198 62.7998 53.9198 62.7909 53.9198 62.782C53.9198 62.7731 53.9198 62.7642 53.9198 62.7553C53.9198 62.7464 53.9198 62.7375 53.9198 62.7285C53.9198 62.7196 53.9198 62.7107 53.9198 62.7018C53.9198 62.6929 53.9198 62.684 53.9198 62.6751C53.9198 62.6662 53.9198 62.6573 53.9198 62.6483C53.9198 62.6394 53.9198 62.6305 53.9198 62.6216C53.9198 62.6127 53.9198 62.6038 53.9198 62.5949C53.9198 62.586 53.9198 62.5771 53.9198 62.5681C53.9198 62.5592 53.9198 62.5503 53.9198 62.5414C53.9198 62.5325 53.9198 62.5236 53.9198 62.5147C53.9198 62.5058 53.9198 62.4969 53.9198 62.4879C53.9198 62.479 53.9198 62.4701 53.9198 62.4612C53.9198 62.4523 53.9198 62.4434 53.9198 62.4345C53.9198 62.4256 53.9198 62.4166 53.9198 62.4077C53.9198 62.3988 53.9198 62.3899 53.9198 62.381C53.9198 62.3721 53.9198 62.3632 53.9198 62.3543C53.9198 62.3454 53.9198 62.3364 53.9198 62.3275C53.9198 62.3186 53.9198 62.3097 53.9198 62.3008C53.9198 62.2919 53.9198 62.283 53.9198 62.2741C53.9198 62.2651 53.9198 62.2562 53.9198 62.2473C53.9198 62.2384 53.9198 62.2295 53.9198 62.2206C53.9198 62.2117 53.9198 62.2028 53.9198 62.1938C53.9198 62.1849 53.9198 62.176 53.9198 62.1671C53.9198 62.1582 53.9198 62.1493 53.9198 62.1404C53.9198 62.1315 53.9198 62.1225 53.9198 62.1136C53.9198 62.1047 53.9198 62.0958 53.9198 62.0869C53.9198 62.078 53.9198 62.0691 53.9198 62.0601C53.9198 62.0512 53.9198 62.0423 53.9198 62.0334C53.9198 62.0245 53.9198 62.0156 53.9198 62.0067C53.9198 61.9977 53.9198 61.9888 53.9198 61.9799C53.9198 61.971 53.9198 61.9621 53.9198 61.9532C53.9198 61.9443 53.9198 61.9354 53.9198 61.9264C53.9198 61.9175 53.9198 61.9086 53.9198 61.8997C53.9198 61.8908 53.9198 61.8819 53.9198 61.873C53.9198 61.864 53.9198 61.8551 53.9198 61.8462C53.9198 61.8373 53.9198 61.8284 53.9198 61.8195C53.9198 61.8105 53.9198 61.8016 53.9198 61.7927C53.9198 61.7838 53.9198 61.7749 53.9198 61.766C53.9198 61.7571 53.9198 61.7481 53.9198 61.7392C53.9198 61.7303 53.9198 61.7214 53.9198 61.7125C53.9198 61.7036 53.9198 61.6947 53.9198 61.6857C53.9198 61.6768 53.9198 61.6679 53.9198 61.659C53.9198 61.6501 53.9198 61.6412 53.9198 61.6322C53.9198 61.6233 53.9198 61.6144 53.9198 61.6055C53.9198 61.5966 53.9198 61.5877 53.9198 61.5787C53.9198 61.5698 53.9198 61.5609 53.9198 61.552C53.9198 61.5431 53.9198 61.5342 53.9198 61.5253C53.9198 61.5163 53.9198 61.5074 53.9198 61.4985C53.9198 61.4896 53.9198 61.4807 53.9198 61.4718C53.9198 61.4628 53.9198 61.4539 53.9198 61.445C53.9198 61.4361 53.9198 61.4272 53.9198 61.4183C53.9198 61.4093 53.9198 61.4004 53.9198 61.3915C53.9198 61.3826 53.9198 61.3737 53.9198 61.3648C53.9198 61.3558 53.9198 61.3469 53.9198 61.338C53.9198 61.3291 53.9198 61.3202 53.9198 61.3112C53.9198 61.3023 53.9198 61.2934 53.9198 61.2845C53.9198 61.2756 53.9198 61.2667 53.9198 61.2577C53.9198 61.2488 53.9198 61.2399 53.9198 61.231C53.9198 61.2221 53.9198 61.2131 53.9198 61.2042C53.9198 61.1953 53.9198 61.1864 53.9198 61.1775C53.9198 61.1686 53.9198 61.1596 53.9198 61.1507C53.9198 61.1418 53.9198 61.1329 53.9198 61.124C53.9198 61.115 53.9198 61.1061 53.9198 61.0972C53.9198 61.0883 53.9198 61.0794 53.9198 61.0705C53.9198 61.0615 53.9198 61.0526 53.9198 61.0437C53.9198 61.0348 53.9198 61.0259 53.9198 61.0169C53.9198 61.008 53.9198 60.9991 53.9198 60.9902C53.9198 60.9813 53.9198 60.9723 53.9198 60.9634C53.9198 60.9545 53.9198 60.9456 53.9198 60.9367C53.9198 60.9277 53.9198 60.9188 53.9198 60.9099C53.9198 60.901 53.9198 60.8921 53.9198 60.8831C53.9198 60.8742 53.9198 60.8653 53.9198 60.8564C53.9198 60.8475 53.9198 60.8385 53.9198 60.8296C53.9198 60.8207 53.9198 60.8118 53.9198 60.8028C53.9198 60.7939 53.9198 60.785 53.9198 60.7761C53.9198 60.7672 53.9198 60.7582 53.9198 60.7493C53.9198 60.7404 53.9198 60.7315 53.9198 60.7226C53.9198 60.7136 53.9198 60.7047 53.9198 60.6958C53.9198 60.6869 53.9198 60.678 53.9198 60.669C53.9198 60.6601 53.9198 60.6512 53.9198 60.6423C53.9198 60.6333 53.9198 60.6244 53.9198 60.6155C53.9198 60.6066 53.9198 60.5977 53.9198 60.5887C53.9198 60.5798 53.9198 60.5709 53.9198 60.562C53.9198 60.553 53.9198 60.5441 53.9198 60.5352C53.9198 60.5263 53.9198 60.5173 53.9198 60.5084C53.9198 60.4995 53.9198 60.4906 53.9198 60.4817C53.9198 60.4727 53.9198 60.4638 53.9198 60.4549C53.9198 60.446 53.9198 60.437 53.9198 60.4281C53.9198 60.4192 53.9198 60.4103 53.9198 60.4013C53.9198 60.3924 53.9198 60.3835 53.9198 60.3746C53.9198 60.3656 53.9198 60.3567 53.9198 60.3478C53.9198 60.3389 53.9198 60.3299 53.9198 60.321C53.9198 60.3121 53.9198 60.3032 53.9198 60.2943C53.9198 60.2853 53.9198 60.2764 53.9198 60.2675C53.9198 60.2586 53.9198 60.2496 53.9198 60.2407C53.9198 60.2318 53.9198 60.2229 53.9198 60.2139C53.9198 60.205 53.9198 60.1961 53.9198 60.1871C53.9198 60.1782 53.9198 60.1693 53.9198 60.1604C53.9198 60.1514 53.9198 60.1425 53.9198 60.1336C53.9198 60.1247 53.9198 60.1157 53.9198 60.1068C53.9198 60.0979 53.9198 60.089 53.9198 60.08C53.9198 60.0711 53.9198 60.0622 53.9198 60.0533C53.9198 60.0443 53.9198 60.0354 53.9198 60.0265C53.9198 60.0175 53.9198 60.0086 53.9198 59.9997C53.9198 59.9908 53.9198 59.9818 53.9198 59.9729C53.9198 59.964 53.9198 59.9551 53.9198 59.9461C53.9198 59.9372 53.9198 59.9283 53.9198 59.9193C53.9198 59.9104 53.9198 59.9015 53.9198 59.8926C53.9198 59.8836 53.9198 59.8747 53.9198 59.8658C53.9198 59.8569 53.9198 59.8479 53.9198 59.839C53.9198 59.8301 53.9198 59.8211 53.9198 59.8122C53.9198 59.8033 53.9198 59.7944 53.9198 59.7854C53.9198 59.7765 53.9198 59.7676 53.9198 59.7586C53.9198 59.7497 53.9198 59.7408 53.9198 59.7318C53.9198 59.7229 53.9198 59.714 53.9198 59.7051C53.9198 59.6961 53.9198 59.6872 53.9198 59.6783C53.9198 59.6693 53.9198 59.6604 53.9198 59.6515C53.9198 59.6426 53.9198 59.6336 53.9198 59.6247C53.9198 59.6158 53.9198 59.6068 53.9198 59.5979C53.9198 59.589 53.9198 59.58 53.9198 59.5711C53.9198 59.5622 53.9198 59.5532 53.9198 59.5443C53.9198 59.5354 53.9198 59.5265 53.9198 59.5175C53.9198 59.5086 53.9198 59.4997 53.9198 59.4907C53.9198 59.4818 53.9198 59.4729 53.9198 59.4639C53.9198 59.455 53.9198 59.4461 53.9198 59.4371C53.9198 59.4282 53.9198 59.4193 53.9198 59.4103C53.9198 59.4014 53.9198 59.3925 53.9198 59.3835C53.9198 59.3746 53.9198 59.3657 53.9198 59.3567C53.9198 59.3478 53.9198 59.3389 53.9198 59.3299C53.9198 59.321 53.9198 59.3121 53.9198 59.3031C53.9198 59.2942 53.9198 59.2853 53.9198 59.2763C53.9198 59.2674 53.9198 59.2585 53.9198 59.2495C53.9198 59.2406 53.9198 59.2317 53.9198 59.2227C53.9198 59.2138 53.9198 59.2049 53.9198 59.1959C53.9198 59.187 53.9198 59.1781 53.9198 59.1691C53.9198 59.1602 53.9198 59.1513 53.9198 59.1423C53.9198 59.1334 53.9198 59.1245 53.9198 59.1155C53.9198 59.1066 53.9198 59.0977 53.9198 59.0887C53.9198 59.0798 53.9198 59.0709 53.9198 59.0619C53.9198 59.053 53.9198 59.044 53.9198 59.0351C53.9198 59.0262 53.9198 59.0172 53.9198 59.0083C53.9198 58.9994 53.9198 58.9904 53.9198 58.9815C53.9198 58.9726 53.9198 58.9636 53.9198 58.9547C53.9198 58.9457 53.9198 58.9368 53.9198 58.9279C53.9198 58.9189 53.9198 58.91 53.9198 58.9011C53.9198 58.8921 53.9198 58.8832 53.9198 58.8742C53.9198 58.8653 53.9198 58.8564 53.9198 58.8474C53.9198 58.8385 53.9198 58.8296 53.9198 58.8206C53.9198 58.8117 53.9198 58.8027 53.9198 58.7938C53.9198 58.7849 53.9198 58.7759 53.9198 58.767C53.9198 58.7581 53.9198 58.7491 53.9198 58.7402C53.9198 58.7312 53.9198 58.7223 53.9198 58.7134C53.9198 58.7044 53.9198 58.6955 53.9198 58.6865C53.9198 58.6776 53.9198 58.6687 53.9198 58.6597C53.9198 58.6508 53.9198 58.6418 53.9198 58.6329C53.9198 58.624 53.9198 58.615 53.9198 58.6061C53.9198 58.5971 53.9198 58.5882 53.9198 58.5793C53.9198 58.5703 53.9198 58.5614 53.9198 58.5524C53.9198 58.5435 53.9198 58.5346 53.9198 58.5256C53.9198 58.5167 53.9198 58.5077 53.9198 58.4988C53.9198 58.4898 53.9198 58.4809 53.9198 58.472C53.9198 58.463 53.9198 58.4541 53.9198 58.4451C53.9198 58.4362 53.9198 58.4273 53.9198 58.4183C53.9198 58.4094 53.9198 58.4004 53.9198 58.3915C53.9198 58.3825 53.9198 58.3736 53.9198 58.3647C53.9198 58.3557 53.9198 58.3468 53.9198 58.3378C53.9198 58.3289 53.9198 58.3199 53.9198 58.311C53.9198 58.3021 53.9198 58.2931 53.9198 58.2842C53.9198 58.2752 53.9198 58.2663 53.9198 58.2573C53.9198 58.2484 53.9198 58.2394 53.9198 58.2305C53.9198 58.2216 53.9198 58.2126 53.9198 58.2037C53.9198 58.1947 53.9198 58.1858 53.9198 58.1768C53.9198 58.1679 53.9198 58.1589 53.9198 58.15C53.9198 58.1411 53.9198 58.1321 53.9198 58.1232C53.9198 58.1142 53.9198 58.1053 53.9198 58.0963C53.9198 58.0874 53.9198 58.0784 53.9198 58.0695C53.9198 58.0605 53.9198 58.0516 53.9198 58.0426C53.9198 58.0337 53.9198 58.0248 53.9198 58.0158C53.9198 58.0069 53.9198 57.9979 53.9198 57.989C53.9198 57.98 53.9198 57.9711 53.9198 57.9621C53.9198 57.9532 53.9198 57.9442 53.9198 57.9353C53.9198 57.9263 53.9198 57.9174 53.9198 57.9084C53.9198 57.8995 53.9198 57.8905 53.9198 57.8816C53.9198 57.8726 53.9198 57.8637 53.9198 57.8547C53.9198 57.8458 53.9198 57.8369 53.9198 57.8279C53.9198 57.819 53.9198 57.81 53.9198 57.8011C53.9198 57.7921 53.9198 57.7832 53.9198 57.7742C53.9198 57.7653 53.9198 57.7563 53.9198 57.7474C53.9198 57.7384 53.9198 57.7295 53.9198 57.7205C53.9198 57.7116 53.9198 57.7026 53.9198 57.6937C53.9198 57.6847 53.9198 57.6758 53.9198 57.6668C53.9198 57.6578 53.9198 57.6489 53.9198 57.6399C53.9198 57.631 53.9198 57.622 53.9198 57.6131C53.9198 57.6041 53.9198 57.5952 53.9198 57.5862C53.9198 57.5773 53.9198 57.5683 53.9198 57.5594C53.9198 57.5504 53.9198 57.5415 53.9198 57.5325C53.9198 57.5236 53.9198 57.5146 53.9198 57.5057C53.9198 57.4967 53.9198 57.4878 53.9198 57.4788C53.9198 57.4699 53.9198 57.4609 53.9198 57.4519C53.9198 57.443 53.9198 57.434 53.9198 57.4251C53.9198 57.4161 53.9198 57.4072 53.9198 57.3982C53.9198 57.3893 53.9198 57.3803 53.9198 57.3714C53.9198 57.3624 53.9198 57.3534 53.9198 57.3445C53.9198 57.3355 53.9198 57.3266 53.9198 57.3176C53.9198 57.3087 53.9198 57.2997 53.9198 57.2908C53.9198 57.2818 53.9198 57.2728 53.9198 57.2639C53.9198 57.2549 53.9198 57.246 53.9198 57.237C53.9198 57.2281 53.9198 57.2191 53.9198 57.2102C53.9198 57.2012 53.9198 57.1922 53.9198 57.1833C53.9198 57.1743 53.9198 57.1654 53.9198 57.1564C53.9198 57.1475 53.9198 57.1385 53.9198 57.1295C53.9198 57.1206 53.9198 57.1116 53.9198 57.1027C53.9198 57.0937 53.9198 57.0847 53.9198 57.0758C53.9198 57.0668 53.9198 57.0579 53.9198 57.0489C53.9198 57.04 53.9198 57.031 53.9198 57.022C53.9198 57.0131 53.9198 57.0041 53.9198 56.9952C53.9198 56.9862 53.9198 56.9772 53.9198 56.9683C53.9198 56.9593 53.9198 56.9504 53.9198 56.9414C53.9198 56.9324 53.9198 56.9235 53.9198 56.9145C53.9198 56.9056 53.9198 56.8966 53.9198 56.8876C53.9198 56.8787 53.9198 56.8697 53.9198 56.8608C53.9198 56.8518 53.9198 56.8428 53.9198 56.8339C53.9198 56.8249 53.9198 56.8159 53.9198 56.807C53.9198 56.798 53.9198 56.7891 53.9198 56.7801C53.9198 56.7711 53.9198 56.7622 53.9198 56.7532C53.9198 56.7442 53.9198 56.7353 53.9198 56.7263C53.9198 56.7174 53.9198 56.7084 53.9198 56.6994C53.9198 56.6905 53.9198 56.6815 53.9198 56.6725C53.9198 56.6636 53.9198 56.6546 53.9198 56.6456C53.9198 56.6367 53.9198 56.6277 53.9198 56.6188C53.9198 56.6098 53.9198 56.6008 53.9198 56.5919C53.9198 56.5829 53.9198 56.5739 53.9198 56.565C53.9198 56.556 53.9198 56.547 53.9198 56.5381C53.9198 56.5291 53.9198 56.5201 53.9198 56.5112C53.9198 56.5022 53.9198 56.4932 53.9198 56.4843C53.9198 56.4753 53.9198 56.4663 53.9198 56.4574C53.9198 56.4484 53.9198 56.4394 53.9198 56.4305C53.9198 56.4215 53.9198 56.4125 53.9198 56.4036C53.9198 56.3946 53.9198 56.3856 53.9198 56.3767C53.9198 56.3677 53.9198 56.3587 53.9198 56.3498C53.9198 56.3408 53.9198 56.3318 53.9198 56.3229C53.9198 56.3139 53.9198 56.3049 53.9198 56.2959C53.9198 56.287 53.9198 56.278 53.9198 56.269C53.9198 56.2601 53.9198 56.2511 53.9198 56.2421C53.9198 56.2332 53.9198 56.2242 53.9198 56.2152C53.9198 56.2062 53.9198 56.1973 53.9198 56.1883C53.9198 56.1793 53.9198 56.1704 53.9198 56.1614C53.9198 56.1524 53.9198 56.1434 53.9198 56.1345C53.9198 56.1255 53.9198 56.1165 53.9198 56.1076C53.9198 56.0986 53.9198 56.0896 53.9198 56.0806C53.9198 56.0717 53.9198 56.0627 53.9198 56.0537C53.9198 56.0448 53.9198 56.0358 53.9198 56.0268C53.9198 56.0178 53.9198 56.0089 53.9198 55.9999C53.9198 55.9909 53.9198 55.9819 53.9198 55.973C53.9198 55.964 53.9198 55.955 53.9198 55.946C53.9198 55.9371 53.9198 55.9281 53.9198 55.9191C53.9198 55.9101 53.9198 55.9012 53.9198 55.8922C53.9198 55.8832 53.9198 55.8742 53.9198 55.8653C53.9198 55.8563 53.9198 55.8473 53.9198 55.8383C53.9198 55.8294 53.9198 55.8204 53.9198 55.8114C53.9198 55.8024 53.9198 55.7935 53.9198 55.7845C53.9198 55.7755 53.9198 55.7665 53.9198 55.7576C53.9198 55.7486 53.9198 55.7396 53.9198 55.7306C53.9198 55.7216 53.9198 55.7127 53.9198 55.7037C53.9198 55.6947 53.9198 55.6857 53.9198 55.6768C53.9198 55.6678 53.9198 55.6588 53.9198 55.6498C53.9198 55.6408 53.9198 55.6319 53.9198 55.6229C53.9198 55.6139 53.9198 55.6049 53.9198 55.5959C53.9198 55.587 53.9198 55.578 53.9198 55.569C53.9198 55.56 53.9198 55.551 53.9198 55.5421C53.9198 55.5331 53.9198 55.5241 53.9198 55.5151C53.9198 55.5061 53.9198 55.4972 53.9198 55.4882C53.9198 55.4792 53.9198 55.4702 53.9198 55.4612C53.9198 55.4523 53.9198 55.4433 53.9198 55.4343C53.9198 55.4253 53.9198 55.4163 53.9198 55.4073C53.9198 55.3984 53.9198 55.3894 53.9198 55.3804C53.9198 55.3714 53.9198 55.3624 53.9198 55.3534C53.9198 55.3445 53.9198 55.3355 53.9198 55.3265C53.9198 55.3175 53.9198 55.3085 53.9198 55.2995C53.9198 55.2906 53.9198 55.2816 53.9198 55.2726C53.9198 55.2636 53.9198 55.2546 53.9198 55.2456C53.9198 55.2366 53.9198 55.2277 53.9198 55.2187C53.9198 55.2097 53.9198 55.2007 53.9198 55.1917C53.9198 55.1827 53.9198 55.1737 53.9198 55.1648C53.9198 55.1558 53.9198 55.1468 53.9198 55.1378C53.9198 55.1288 53.9198 55.1198 53.9198 55.1108C53.9198 55.1018 53.9198 55.0929 53.9198 55.0839C53.9198 55.0749 53.9198 55.0659 53.9198 55.0569C53.9198 55.0479 53.9198 55.0389 53.9198 55.0299C53.9198 55.021 53.9198 55.012 53.9198 55.003C53.9198 54.994 53.9198 54.985 53.9198 54.976C53.9198 54.967 53.9198 54.958 53.9198 54.949C53.9198 54.94 53.9198 54.9311 53.9198 54.9221C53.9198 54.9131 53.9198 54.9041 53.9198 54.8951C53.9198 54.8861 53.9198 54.8771 53.9198 54.8681C53.9198 54.8591 53.9198 54.8501 53.9198 54.8411C53.9198 54.8322 53.9198 54.8232 53.9198 54.8142C53.9198 54.8052 53.9198 54.7962 53.9198 54.7872C53.9198 54.7782 53.9198 54.7692 53.9198 54.7602C53.9198 54.7512 53.9198 54.7422 53.9198 54.7332C53.9198 54.7242 53.9198 54.7152 53.9198 54.7062C53.9198 54.6973 53.9198 54.6883 53.9198 54.6793C53.9198 54.6703 53.9198 54.6613 53.9198 54.6523C53.9198 54.6433 53.9198 54.6343 53.9198 54.6253C53.9198 54.6163 53.9198 54.6073 53.9198 54.5983C53.9198 54.5893 53.9198 54.5803 53.9198 54.5713C53.9198 54.5623 53.9198 54.5533 53.9198 54.5443C53.9198 54.5353 53.9198 54.5263 53.9198 54.5173C53.9198 54.5083 53.9198 54.4993 53.9198 54.4903C53.9198 54.4813 53.9198 54.4723 53.9198 54.4634C53.9198 54.4544 53.9198 54.4454 53.9198 54.4364C53.9198 54.4274 53.9198 54.4184 53.9198 54.4094C53.9198 54.4004 53.9198 54.3914 53.9198 54.3824C53.9198 54.3734 53.9198 54.3644 53.9198 54.3554C53.9198 54.3464 53.9198 54.3374 53.9198 54.3284C53.9198 54.3194 53.9198 54.3104 53.9198 54.3014C53.9198 54.2924 53.9198 54.2834 53.9198 54.2744C53.9198 54.2654 53.9198 54.2563 53.9198 54.2473C53.9198 54.2383 53.9198 54.2293 53.9198 54.2203C53.9198 54.2113 53.9198 54.2023 53.9198 54.1933C53.9198 54.1843 53.9198 54.1753 53.9198 54.1663C53.9198 54.1573 53.9198 54.1483 53.9198 54.1393C53.9198 54.1303 53.9198 54.1213 53.9198 54.1123C53.9198 54.1033 53.9198 54.0943 53.9198 54.0853C53.9198 54.0763 53.9198 54.0673 53.9198 54.0583C53.9198 54.0493 53.9198 54.0403 53.9198 54.0313C53.9198 54.0222 53.9198 54.0132 53.9198 54.0042C53.9198 53.9952 53.9198 53.9862 53.9198 53.9772C53.9198 53.9682 53.9198 53.9592 53.9198 53.9502C53.9198 53.9412 53.9198 53.9322 53.9198 53.9232C53.9198 53.9142 53.9198 53.9052 53.9198 53.8961C53.9198 53.8871 53.9198 53.8781 53.9198 53.8691C53.9198 53.8601 53.9198 53.8511 53.9198 53.8421C53.9198 53.8331 53.9198 53.8241 53.9198 53.8151C53.9198 53.8061 53.9198 53.797 53.9198 53.788C53.9198 53.779 53.9198 53.77 53.9198 53.761C53.9198 53.752 53.9198 53.743 53.9198 53.734C53.9198 53.725 53.9198 53.7159 53.9198 53.7069C53.9198 53.6979 53.9198 53.6889 53.9198 53.6799C53.9198 53.6709 53.9198 53.6619 53.9198 53.6529C53.9198 53.6438 53.9198 53.6348 53.9198 53.6258C53.9198 53.6168 53.9198 53.6078 53.9198 53.5988C53.9198 53.5898 53.9198 53.5807 53.9198 53.5717C53.9198 53.5627 53.9198 53.5537 53.9198 53.5447C53.9198 53.5357 53.9198 53.5267 53.9198 53.5176C53.9198 53.5086 53.9198 53.4996 53.9198 53.4906C53.9198 53.4816 53.9198 53.4726 53.9198 53.4635C53.9198 53.4545 53.9198 53.4455 53.9198 53.4365C53.9198 53.4275 53.9198 53.4185 53.9198 53.4094C53.9198 53.4004 53.9198 53.3914 53.9198 53.3824C53.9198 53.3734 53.9198 53.3644 53.9198 53.3553C53.9198 53.3463 53.9198 53.3373 53.9198 53.3283C53.9198 53.3193 53.9198 53.3102 53.9198 53.3012C53.9198 53.2922 53.9198 53.2832 53.9198 53.2742C53.9198 53.2651 53.9198 53.2561 53.9198 53.2471C53.9198 53.2381 53.9198 53.2291 53.9198 53.22C53.9198 53.211 53.9198 53.202 53.9198 53.193C53.9198 53.184 53.9198 53.1749 53.9198 53.1659C53.9198 53.1569 53.9198 53.1479 53.9198 53.1388C53.9198 53.1298 53.9198 53.1208 53.9198 53.1118C53.9198 53.1028 53.9198 53.0937 53.9198 53.0847C53.9198 53.0757 53.9198 53.0667 53.9198 53.0576C53.9198 53.0486 53.9198 53.0396 53.9198 53.0306C53.9198 53.0215 53.9198 53.0125 53.9198 53.0035C53.9198 52.9945 53.9198 52.9854 53.9198 52.9764C53.9198 52.9674 53.9198 52.9584 53.9198 52.9493C53.9198 52.9403 53.9198 52.9313 53.9198 52.9222C53.9198 52.9132 53.9198 52.9042 53.9198 52.8952C53.9198 52.8861 53.9198 52.8771 53.9198 52.8681C53.9198 52.8591 53.9198 52.85 53.9198 52.841C53.9198 52.832 53.9198 52.8229 53.9198 52.8139C53.9198 52.8049 53.9198 52.7959 53.9198 52.7868C53.9198 52.7778 53.9198 52.7688 53.9198 52.7597C53.9198 52.7507 53.9198 52.7417 53.9198 52.7326C53.9198 52.7236 53.9198 52.7146 53.9198 52.7055C53.9198 52.6965 53.9198 52.6875 53.9198 52.6785C53.9198 52.6694 53.9198 52.6604 53.9198 52.6514C53.9198 52.6423 53.9198 52.6333 53.9198 52.6243C53.9198 52.6152 53.9198 52.6062 53.9198 52.5972C53.9198 52.5881 53.9198 52.5791 53.9198 52.5701C53.9198 52.561 53.9198 52.552 53.9198 52.543C53.9198 52.5339 53.9198 52.5249 53.9198 52.5159C53.9198 52.5068 53.9198 52.4978 53.9198 52.4887C53.9198 52.4797 53.9198 52.4707 53.9198 52.4616C53.9198 52.4526 53.9198 52.4436 53.9198 52.4345C53.9198 52.4255 53.9198 52.4165 53.9198 52.4074C53.9198 52.3984 53.9198 52.3893 53.9198 52.3803C53.9198 52.3713 53.9198 52.3622 53.9198 52.3532C53.9198 52.3442 53.9198 52.3351 53.9198 52.3261C53.9198 52.317 53.9198 52.308 53.9198 52.299C53.9198 52.2899 53.9198 52.2809 53.9198 52.2718C53.9198 52.2628 53.9198 52.2538 53.9198 52.2447C53.9198 52.2357 53.9198 52.2266 53.9198 52.2176C53.9198 52.2085 53.9198 52.1995 53.9198 52.1905C53.9198 52.1814 53.9198 52.1724 53.9198 52.1633C53.9198 52.1543 53.9198 52.1453 53.9198 52.1362C53.9198 52.1272 53.9198 52.1181 53.9198 52.1091C53.9198 52.1 53.9198 52.091 53.9198 52.0819C53.9198 52.0729 53.9198 52.0639 53.9198 52.0548C53.9198 52.0458 53.9198 52.0367 53.9198 52.0277C53.9198 52.0186 53.9198 52.0096 53.9198 52.0005C53.9198 51.9915 53.9198 51.9825 53.9198 51.9734C53.9198 51.9644 53.9198 51.9553 53.9198 51.9463C53.9198 51.9372 53.9198 51.9282 53.9198 51.9191C53.9198 51.9101 53.9198 51.901 53.9198 51.892C53.9198 51.8829 53.9198 51.8739 53.9198 51.8648C53.9198 51.8558 53.9198 51.8467 53.9198 51.8377C53.9198 51.8286 53.9198 51.8196 53.9198 51.8105C53.9198 51.8015 53.9198 51.7924 53.9198 51.7834C53.9198 51.7743 53.9198 51.7653 53.9198 51.7562C53.9198 51.7472 53.9198 51.7381 53.9198 51.7291C53.9198 51.72 53.9198 51.711 53.9198 51.7019C53.9198 51.6929 53.9198 51.6838 53.9198 51.6748C53.9198 51.6657 53.9198 51.6567 53.9198 51.6476C53.9198 51.6386 53.9198 51.6295 53.9198 51.6204C53.9198 51.6114 53.9198 51.6023 53.9198 51.5933C53.9198 51.5842 53.9198 51.5752 53.9198 51.5661C53.9198 51.5571 53.9198 51.548 53.9198 51.539C53.9198 51.5299 53.9198 51.5208 53.9198 51.5118C53.9198 51.5027 53.9198 51.4937 53.9198 51.4846C53.9198 51.4756 53.9198 51.4665 53.9198 51.4574C53.9198 51.4484 53.9198 51.4393 53.9198 51.4303C53.9198 51.4212 53.9198 51.4122 53.9198 51.4031C53.9198 51.394 53.9198 51.385 53.9198 51.3759C53.9198 51.3669 53.9198 51.3578 53.9198 51.3487C53.9198 51.3397 53.9198 51.3306 53.9198 51.3216C53.9198 51.3125 53.9198 51.3034 53.9198 51.2944C53.9198 51.2853 53.9198 51.2762 53.9198 51.2672C53.9198 51.2581 53.9198 51.2491 53.9198 51.24H51.9198ZM52.9198 66H98.1998V64H52.9198V66ZM99.1998 65V53.48H97.1998V65H99.1998ZM98.1998 52.48H64.6798V54.48H98.1998V52.48ZM65.6798 53.48V51.32H63.6798V53.48H65.6798ZM65.6798 51.32C65.6798 49.7272 66.0619 48.5766 66.6422 47.7261C67.2254 46.8712 68.0588 46.2469 69.0767 45.7935C71.1539 44.8683 73.8406 44.72 76.1998 44.72V42.72C73.8391 42.72 70.7658 42.8517 68.263 43.9665C66.9909 44.5331 65.8293 45.3688 64.99 46.5989C64.1478 47.8334 63.6798 49.3928 63.6798 51.32H65.6798ZM76.1998 44.72C82.7071 44.72 88.5541 43.7167 92.7945 40.8153C97.1106 37.8622 99.5998 33.0593 99.5998 25.88H97.5998C97.5998 32.5407 95.3291 36.6578 91.6652 39.1647C87.9256 41.7233 82.5726 42.72 76.1998 42.72V44.72ZM99.5998 25.88C99.5998 19.502 96.7909 14.801 92.4032 11.7307C88.056 8.68867 82.2154 7.28 76.1198 7.28V9.28C81.9443 9.28 87.3437 10.6313 91.2565 13.3693C95.1288 16.079 97.5998 20.178 97.5998 25.88H99.5998ZM76.1198 7.28C70.5307 7.28 64.8562 8.37802 60.4558 11.2309C56.0056 14.1161 52.9388 18.7487 52.5614 25.5849L54.5583 25.6951C54.9009 19.4913 57.6341 15.4439 61.5438 12.9091C65.5035 10.342 70.749 9.28 76.1198 9.28V7.28ZM53.5598 26.64H65.5598V24.64H53.5598V26.64ZM105.824 59.16C105.824 61.5957 106.759 63.4937 108.214 64.7714C109.65 66.0322 111.534 66.64 113.384 66.64C115.234 66.64 117.118 66.0322 118.554 64.7714C120.009 63.4937 120.944 61.5957 120.944 59.16H118.944C118.944 61.0443 118.239 62.3863 117.234 63.2686C116.21 64.1678 114.814 64.64 113.384 64.64C111.954 64.64 110.558 64.1678 109.534 63.2686C108.529 62.3863 107.824 61.0443 107.824 59.16H105.824ZM120.944 59.16C120.944 56.7243 120.009 54.8263 118.554 53.5486C117.118 52.2878 115.234 51.68 113.384 51.68C111.534 51.68 109.65 52.2878 108.214 53.5486C106.759 54.8263 105.824 56.7243 105.824 59.16H107.824C107.824 57.2757 108.529 55.9337 109.534 55.0514C110.558 54.1522 111.954 53.68 113.384 53.68C114.814 53.68 116.21 54.1522 117.234 55.0514C118.239 55.9337 118.944 57.2757 118.944 59.16H120.944Z" fill="#0F4BA6"/>
<path d="M48.9883 3.14997C31.4883 -2.85012 15.9871 4.15055 5.98833 18.6502C-4.01046 33.1499 0.467997 62.15 24.468 68.65" stroke="#CEE2FF" stroke-width="2" stroke-linecap="round" stroke-dasharray="10 15"/>
</svg>
