<svg width="125" height="97" viewBox="0 0 125 97" fill="none" xmlns="http://www.w3.org/2000/svg">
<path opacity="0.6" d="M64.7559 47.96L65.7487 47.8397L65.642 46.96H64.7559V47.96ZM52.1959 47.96V46.96H51.1266L51.1982 48.0269L52.1959 47.96ZM99.3159 51.64L100.303 51.8013L100.304 51.793L100.305 51.7848L99.3159 51.64ZM90.7559 36.36L90.3587 35.4423L88.1798 36.3854L90.3769 37.2854L90.7559 36.36ZM97.8759 22.44L96.8881 22.596L96.8895 22.6044L97.8759 22.44ZM53.0759 24.84L52.0793 24.7575L51.9897 25.84H53.0759V24.84ZM65.4759 24.84V25.84H66.3041L66.4584 25.0263L65.4759 24.84ZM85.6359 25.72L86.6358 25.7354L86.6359 25.7277V25.72H85.6359ZM67.6359 31.24V30.24H66.6359V31.24H67.6359ZM67.6359 41.4H66.6359V42.4H67.6359V41.4ZM76.1959 42.4C80.8585 42.4 83.0489 43.5283 84.1011 44.6683C85.1559 45.8109 85.2759 47.1836 85.2759 48.2H87.2759C87.2759 47.0564 87.156 45.0291 85.5707 43.3117C83.983 41.5916 81.1333 40.4 76.1959 40.4V42.4ZM85.2759 48.2C85.2759 49.4512 84.8895 50.3913 84.2868 51.1254C83.6701 51.8766 82.787 52.4586 81.7393 52.8978C79.628 53.7829 77.062 54 75.3959 54V56C77.1699 56 80.0439 55.7771 82.5126 54.7422C83.7549 54.2214 84.9468 53.4734 85.8326 52.3946C86.7323 51.2987 87.2759 49.9088 87.2759 48.2H85.2759ZM75.3959 54C72.8873 54 70.582 53.572 68.8611 52.5912C67.1882 51.6377 66.0282 50.1456 65.7487 47.8397L63.7632 48.0803C64.1237 51.0544 65.6837 53.0823 67.8708 54.3288C70.0099 55.548 72.7046 56 75.3959 56V54ZM64.7559 46.96H52.1959V48.96H64.7559V46.96ZM51.1982 48.0269C51.6596 54.9065 54.8905 59.7233 59.4477 62.7897C63.968 65.8312 69.7397 67.12 75.3159 67.12V65.12C70.0122 65.12 64.6639 63.8888 60.5642 61.1303C56.5014 58.3967 53.6123 54.1335 53.1937 47.8931L51.1982 48.0269ZM75.3159 67.12C80.2081 67.12 85.8793 66.5581 90.6141 64.3784C95.4031 62.1738 99.2405 58.303 100.303 51.8013L98.329 51.4787C97.3914 57.217 94.0688 60.5862 89.7778 62.5616C85.4326 64.5619 80.1037 65.12 75.3159 65.12V67.12ZM100.305 51.7848C101.326 44.8129 98.2388 38.3446 91.135 35.4346L90.3769 37.2854C96.5531 39.8154 99.2262 45.3471 98.3265 51.4952L100.305 51.7848ZM91.1532 37.2777C96.9706 34.7597 99.9713 28.9292 98.8623 22.2756L96.8895 22.6044C97.8606 28.4308 95.2613 33.3203 90.3587 35.4423L91.1532 37.2777ZM98.8637 22.284C97.9659 16.5978 94.5295 12.7596 90.1658 10.3727C85.8292 8.00059 80.552 7.04 75.7959 7.04V9.04C80.3198 9.04 85.2427 9.95941 89.206 12.1273C93.1423 14.2804 96.106 17.6422 96.8882 22.596L98.8637 22.284ZM75.7959 7.04C70.3638 7.04 64.7391 8.11916 60.307 10.8813C55.8303 13.6713 52.6265 18.1494 52.0793 24.7575L54.0725 24.9225C54.5654 18.9706 57.4016 15.0486 61.3649 12.5787C65.3728 10.0808 70.5881 9.04 75.7959 9.04V7.04ZM53.0759 25.84H65.4759V23.84H53.0759V25.84ZM66.4584 25.0263C66.8218 23.1105 67.9944 21.9871 69.6557 21.3051C71.3703 20.6012 73.5502 20.4 75.7159 20.4V18.4C73.4817 18.4 70.9816 18.5988 68.8962 19.4549C66.7575 20.3329 65.0101 21.9295 64.4935 24.6537L66.4584 25.0263ZM75.7159 20.4C79.7326 20.4 81.9385 21.3469 83.1316 22.4074C84.3124 23.457 84.6359 24.7382 84.6359 25.72H86.6359C86.6359 24.3018 86.1595 22.423 84.4603 20.9126C82.7734 19.4131 80.0192 18.4 75.7159 18.4V20.4ZM84.6361 25.7046C84.6193 26.7939 84.2955 27.5603 83.813 28.1298C83.3166 28.7156 82.5933 29.1613 81.679 29.4885C79.8219 30.153 77.4444 30.24 75.3959 30.24V32.24C77.4275 32.24 80.1299 32.167 82.3529 31.3715C83.4786 30.9687 84.5453 30.3593 85.3389 29.4227C86.1464 28.4697 86.6126 27.2461 86.6358 25.7354L84.6361 25.7046ZM75.3959 30.24H67.6359V32.24H75.3959V30.24ZM66.6359 31.24V41.4H68.6359V31.24H66.6359ZM67.6359 42.4H76.1959V40.4H67.6359V42.4ZM106.289 59.16C106.289 61.5957 107.224 63.4937 108.679 64.7714C110.115 66.0322 111.999 66.64 113.849 66.64C115.699 66.64 117.583 66.0322 119.019 64.7714C120.474 63.4937 121.409 61.5957 121.409 59.16H119.409C119.409 61.0443 118.704 62.3863 117.699 63.2686C116.675 64.1678 115.279 64.64 113.849 64.64C112.419 64.64 111.023 64.1678 109.999 63.2686C108.994 62.3863 108.289 61.0443 108.289 59.16H106.289ZM121.409 59.16C121.409 56.7243 120.474 54.8263 119.019 53.5486C117.583 52.2878 115.699 51.68 113.849 51.68C111.999 51.68 110.115 52.2878 108.679 53.5486C107.224 54.8263 106.289 56.7243 106.289 59.16H108.289C108.289 57.2757 108.994 55.9337 109.999 55.0514C111.023 54.1522 112.419 53.68 113.849 53.68C115.279 53.68 116.675 54.1522 117.699 55.0514C118.704 55.9337 119.409 57.2757 119.409 59.16H121.409Z" fill="#0F4BA6"/>
<path d="M48.9883 3.14997C31.4883 -2.85012 15.9871 4.15055 5.98833 18.6502C-4.01046 33.1499 0.467997 62.15 24.468 68.65" stroke="#CEE2FF" stroke-width="2" stroke-linecap="round" stroke-dasharray="10 15"/>
</svg>
