<svg width="107" height="97" viewBox="0 0 107 97" fill="none" xmlns="http://www.w3.org/2000/svg">
<path opacity="0.6" d="M53.16 65H52.16V66H53.16V65ZM83.16 65V66H84.16V65H83.16ZM83.16 54.76H84.16V53.76H83.16V54.76ZM74.36 54.76H73.36V55.76H74.36V54.76ZM74.36 9H75.36V7.57841L74.0221 8.05883L74.36 9ZM53.64 16.44L53.3021 15.4988L52.64 15.7366V16.44H53.64ZM53.64 27.32H52.64V28.6802L53.9383 28.2745L53.64 27.32ZM62.6 24.52H63.6V23.1598L62.3017 23.5655L62.6 24.52ZM62.6 54.76V55.76H63.6V54.76H62.6ZM53.16 54.76V53.76H52.16V54.76H53.16ZM53.16 66H83.16V64H53.16V66ZM84.16 65V54.76H82.16V65H84.16ZM83.16 53.76H74.36V55.76H83.16V53.76ZM75.36 54.76V9H73.36V54.76H75.36ZM74.0221 8.05883L53.3021 15.4988L53.9779 17.3812L74.6979 9.94116L74.0221 8.05883ZM52.64 16.44V27.32H54.64V16.44H52.64ZM53.9383 28.2745L62.8983 25.4745L62.3017 23.5655L53.3417 26.3655L53.9383 28.2745ZM61.6 24.52V54.76H63.6V24.52H61.6ZM62.6 53.76H53.16V55.76H62.6V53.76ZM52.16 54.76V65H54.16V54.76H52.16ZM88.25 59.16C88.25 61.5957 89.185 63.4937 90.6402 64.7714C92.076 66.0322 93.9602 66.64 95.81 66.64C97.6598 66.64 99.544 66.0322 100.98 64.7714C102.435 63.4937 103.37 61.5957 103.37 59.16H101.37C101.37 61.0443 100.665 62.3863 99.6602 63.2686C98.636 64.1678 97.2402 64.64 95.81 64.64C94.3798 64.64 92.984 64.1678 91.9598 63.2686C90.955 62.3863 90.25 61.0443 90.25 59.16H88.25ZM103.37 59.16C103.37 56.7243 102.435 54.8263 100.98 53.5486C99.544 52.2878 97.6598 51.68 95.81 51.68C93.9602 51.68 92.076 52.2878 90.6402 53.5486C89.185 54.8263 88.25 56.7243 88.25 59.16H90.25C90.25 57.2757 90.955 55.9337 91.9598 55.0514C92.984 54.1522 94.3798 53.68 95.81 53.68C97.2402 53.68 98.636 54.1522 99.6602 55.0514C100.665 55.9337 101.37 57.2757 101.37 59.16H103.37Z" fill="#0F4BA6"/>
<path d="M48.9883 3.14997C31.4883 -2.85012 15.9871 4.15055 5.98833 18.6502C-4.01046 33.1499 0.467997 62.15 24.468 68.65" stroke="#CEE2FF" stroke-width="2" stroke-linecap="round" stroke-dasharray="10 15"/>
</svg>
