<svg width="278" height="295" viewBox="0 0 278 295" fill="none" xmlns="http://www.w3.org/2000/svg">
<g clip-path="url(#clip0_292_15665)">
<path d="M232.124 65.4225C232.124 65.4225 237.702 65.4225 238.964 69.4561C240.226 73.4897 236.76 78.8282 232.17 80.0328C227.579 81.2374 223.556 77.0761 223.821 73.0699C224.086 69.0637 229.628 65.313 232.124 65.4225Z" fill="#263238" stroke="#263238" stroke-linecap="round" stroke-linejoin="round"/>
<path d="M264.969 249.324C264.969 249.324 266.606 248.704 266.862 246.222C267.118 243.739 263.927 237.917 263.936 234.778C263.945 231.639 263.717 226.118 263.022 225.105C262.327 224.092 258.23 224.302 255.651 226.401C253.072 228.499 259.867 232.953 261.705 238.008C263.543 243.064 262.381 243.721 263.095 245.993C263.441 247.238 264.084 248.381 264.969 249.324Z" fill="white" stroke="#263238" stroke-linecap="round" stroke-linejoin="round"/>
<path d="M187.508 189.651C187.508 189.651 189.172 207.255 190.059 209.381C190.946 211.507 198.042 212.858 200.923 213.944C203.803 215.03 234.282 224.712 240.363 228.308C246.444 231.903 255.424 239.569 259.31 243.11C263.196 246.65 263.882 250.794 264.97 249.333C266.059 247.873 264.595 242.234 263.489 239.131C262.383 236.028 261.13 234.495 260.883 232.277C260.636 230.06 260.023 226.802 257.737 226.145C255.451 225.488 251.702 228.207 251.702 228.207C251.702 228.207 249.068 227.778 244.176 223.362C239.284 218.945 229.984 212.803 226.326 210.075C222.668 207.346 211.558 205.284 208.165 204.599C206.169 204.227 204.225 203.614 202.377 202.774L204.489 192.736C204.489 192.736 190.059 190.856 187.508 189.651Z" fill="white" stroke="#263238" stroke-linecap="round" stroke-linejoin="round"/>
<path d="M260.883 232.268C260.636 230.042 260.023 226.793 257.737 226.136C256.128 225.643 253.814 226.857 252.571 227.623C254.903 229.849 256.913 232.39 258.542 235.17C260.965 239.423 260.983 242.051 260.581 244.396C263.37 247.554 264.01 250.611 264.97 249.324C266.059 247.864 264.595 242.224 263.489 239.122C262.383 236.019 261.13 234.531 260.883 232.268Z" fill="#455B8E"/>
<path d="M260.883 232.268C260.636 230.042 260.023 226.793 257.737 226.136C256.128 225.643 253.814 226.857 252.571 227.623C254.903 229.849 256.913 232.39 258.542 235.17C260.965 239.423 260.983 242.051 260.581 244.396C263.37 247.554 264.01 250.611 264.97 249.324C266.059 247.864 264.595 242.224 263.489 239.122C262.383 236.019 261.13 234.531 260.883 232.268Z" fill="#4A77BC"/>
<path d="M260.883 232.268C260.636 230.042 260.023 226.793 257.737 226.136C256.128 225.643 253.814 226.857 252.571 227.623C254.903 229.849 256.913 232.39 258.542 235.17C260.965 239.423 260.983 242.051 260.581 244.396C263.37 247.554 264.01 250.611 264.97 249.324C266.059 247.864 264.595 242.224 263.489 239.122C262.383 236.019 261.13 234.531 260.883 232.268Z" stroke="#263238" stroke-linecap="round" stroke-linejoin="round"/>
<path d="M211.312 287.999C212.113 288.571 213.043 288.937 214.019 289.065C214.995 289.192 215.988 289.077 216.909 288.729C219.863 287.452 223.566 282.022 224.819 280.58C226.072 279.138 232.034 276.127 232.765 273.535C233.497 270.943 229.29 267.53 229.29 267.53C227.979 269.983 226.263 272.198 224.215 274.083C220.923 277.048 221.408 278.509 217.604 281.885C213.8 285.262 211.312 287.999 211.312 287.999Z" fill="white" stroke="#263238" stroke-linecap="round" stroke-linejoin="round"/>
<path d="M213.011 197.025C213.011 197.025 212.838 208.769 213.789 214.491C214.74 220.213 218.361 258.176 217.446 266.508C216.532 274.84 213.688 283.263 211.832 286.393C209.975 289.523 214.52 287.689 217.236 286.174C219.952 284.659 224.076 276.893 224.963 275.707C225.85 274.52 229.362 274.384 229.791 270.076C230.221 265.769 224.954 265.732 225.292 259.883C225.631 254.033 230.532 236.156 228.74 228.527C226.947 220.898 224.862 211.252 225.201 207.966C225.539 204.681 226.893 196.377 226.893 196.377L213.011 197.025Z" fill="white" stroke="#263238" stroke-linecap="round" stroke-linejoin="round"/>
<path d="M226.435 264.19C224.892 268.155 222.888 271.926 220.464 275.424C217.958 278.773 216.065 278.746 215.059 278.326C214.284 281.128 213.208 283.839 211.85 286.411C210.021 289.551 214.538 287.707 217.254 286.192C219.97 284.677 224.094 276.911 224.981 275.725C225.868 274.539 229.38 274.402 229.809 270.095C230.102 267.229 227.871 266.253 226.435 264.19Z" fill="#455B8E"/>
<path d="M226.435 264.19C224.892 268.155 222.888 271.926 220.464 275.424C217.958 278.773 216.065 278.746 215.059 278.326C214.284 281.128 213.208 283.839 211.85 286.411C210.021 289.551 214.538 287.707 217.254 286.192C219.97 284.677 224.094 276.911 224.981 275.725C225.868 274.539 229.38 274.402 229.809 270.095C230.102 267.229 227.871 266.253 226.435 264.19Z" fill="#4A77BC"/>
<path d="M226.435 264.19C224.892 268.155 222.888 271.926 220.464 275.424C217.958 278.773 216.065 278.746 215.059 278.326C214.284 281.128 213.208 283.839 211.85 286.411C210.021 289.551 214.538 287.707 217.254 286.192C219.97 284.677 224.094 276.911 224.981 275.725C225.868 274.539 229.38 274.402 229.809 270.095C230.102 267.229 227.871 266.253 226.435 264.19Z" stroke="#263238" stroke-linecap="round" stroke-linejoin="round"/>
<path d="M277.025 163.524C276.11 160.96 275.196 157.574 271.254 155.366C267.313 153.157 265.667 151.998 265.667 151.998C265.667 151.998 255.316 130.544 252.783 126.337C250.25 122.13 248.366 119.474 248.366 119.474C248.366 119.474 241.398 100.502 240.566 97.2895C239.734 94.0772 240.319 91.668 236.496 90.2991C232.674 88.9303 224.051 87.8808 220.951 87.4063C218.543 86.8994 216.204 86.1091 213.983 85.0518C213.983 85.0518 206.996 84.0115 204.601 83.2267C198.73 81.0216 192.974 78.5241 187.354 75.7436C184.08 73.9184 180.039 69.7388 180.039 69.7388C180.039 69.7388 171.013 49.8995 168.864 45.0994C167.09 41.1114 165.389 37.5889 164.841 36.4847C164.389 35.2431 164.013 33.9753 163.716 32.6884C163.643 30.3248 163.917 27.7513 163.716 26.3003C163.515 24.8493 163.249 24.2014 163.039 22.504C162.829 20.8066 161.21 21.8561 161.466 23.7725L161.302 24.8676L159.272 16.1343C159.272 16.1343 157.982 15.2217 157.781 16.2073L158.75 22.6774L158.385 22.7778L156.967 14.811C156.967 14.811 156.757 13.9806 155.596 14.1266C155.596 14.1266 154.974 14.3091 155.065 15.897L156.373 23.2888L155.632 23.3801L154.388 15.4133C154.388 15.4133 153.886 14.8293 153.474 15.3038C153.134 15.9745 153.04 16.7431 153.209 17.4757C153.309 18.3153 154.014 24.1102 154.014 24.1102L152.843 19.7663C152.843 19.7663 151.737 18.6165 151.929 20.7336C152.292 23.3858 152.905 25.9981 153.758 28.5361C154.537 30.4481 155.733 32.1627 157.26 33.5553C158.43 34.3766 159.006 34.7325 159.089 35.1614C159.089 35.2618 159.491 36.5577 160.113 38.5288H160.186C161.402 42.2339 170.858 71.1168 172.568 75.5976C174.397 80.3886 196.553 97.4994 196.553 97.4994C196.553 97.4994 192.356 107.93 193.902 113.844C195.025 117.774 196.826 121.48 199.224 124.794C199.224 124.794 195.657 129.038 189.604 144.716C183.55 160.394 184.858 192.936 184.858 192.936C192.281 197.064 200.58 199.372 209.072 199.671C223.045 200.1 228.413 199.169 228.413 199.169C228.413 199.169 234.741 162.949 232.134 149.689C230.573 141.718 228.337 133.894 225.45 126.3L232.4 109.509C232.4 109.509 244.205 129.585 248.695 137.324C253.185 145.063 264.241 156.488 264.241 156.488C264.241 156.488 264.433 159.472 265.768 160.923C266.714 161.894 267.795 162.724 268.977 163.387C268.977 163.387 266.636 168.58 268.063 168.863C269.49 169.146 270.569 163.688 270.569 163.688C270.569 163.688 269.517 169.164 270.642 169.456C271.766 169.748 272.964 164.428 272.964 164.428C272.964 164.428 271.794 169.41 273.102 169.538C274.409 169.666 274.93 164.136 274.93 164.136C274.93 164.136 275.781 168.698 276.65 168.26C277.518 167.822 277.921 166.088 277.025 163.524Z" fill="white" stroke="#263238" stroke-linecap="round" stroke-linejoin="round"/>
<path d="M161.335 24.8311C161.43 25.3108 161.364 25.8085 161.148 26.2472C160.931 26.6859 160.576 27.0413 160.137 27.2585C158.573 28.0889 159.534 29.9962 160.85 31.6115" stroke="#263238" stroke-linecap="round" stroke-linejoin="round"/>
<path d="M267.934 158.295C268.532 159.16 269.238 159.946 270.037 160.631C270.96 161.019 271.938 161.259 272.936 161.343C272.936 161.343 273.722 166.089 275.286 165.395C276.849 164.701 274.746 160.257 274.015 159.126C273.695 158.55 273.232 158.066 272.67 157.72" fill="white"/>
<path d="M267.934 158.295C268.532 159.16 269.238 159.946 270.037 160.631C270.96 161.019 271.938 161.259 272.936 161.343C272.936 161.343 273.722 166.089 275.286 165.395C276.849 164.701 274.746 160.257 274.015 159.126C273.695 158.55 273.232 158.066 272.67 157.72" stroke="#263238" stroke-linecap="round" stroke-linejoin="round"/>
<path d="M209.042 199.571C223.015 200 228.383 199.069 228.383 199.069C228.383 199.069 234.711 162.849 232.104 149.589C231.94 148.731 231.766 147.901 231.583 147.07C217.59 149.948 203.091 149.21 189.464 144.926C183.548 160.713 184.828 192.836 184.828 192.836C192.251 196.963 200.55 199.272 209.042 199.571Z" fill="#263238" stroke="#263238" stroke-linecap="round" stroke-linejoin="round"/>
<path d="M201.18 157.693C201.18 157.693 206.813 167.54 213.159 172.458" stroke="white" stroke-linecap="round" stroke-linejoin="round"/>
<path d="M211.328 176.702C212.015 177.203 212.73 177.666 213.468 178.089" stroke="white" stroke-linecap="round" stroke-linejoin="round"/>
<path d="M201.836 166.837C203.887 169.772 206.281 172.453 208.969 174.822" stroke="white" stroke-linecap="round" stroke-linejoin="round"/>
<path d="M254.491 129.467C253.778 128.098 253.174 127.003 252.781 126.337C250.239 122.13 248.364 119.474 248.364 119.474C248.364 119.474 241.396 100.502 240.564 97.2895C239.732 94.0772 240.317 91.668 236.495 90.2992C232.672 88.9303 224.049 87.8809 220.949 87.4063C218.541 86.8995 216.202 86.1091 213.981 85.0519C213.981 85.0519 206.995 84.0115 204.599 83.2267C198.728 81.0216 192.972 78.5241 187.352 75.7436C184.079 73.9185 180.037 69.7389 180.037 69.7389L174.898 58.4047C172.396 59.0934 169.95 59.9721 167.582 61.0329C169.804 67.713 171.834 73.7177 172.538 75.5702C174.367 80.3612 196.524 97.472 196.524 97.472C196.524 97.472 192.327 107.903 193.872 113.816C194.996 117.747 196.797 121.453 199.194 124.767C199.194 124.767 195.628 129.011 189.575 144.689C189.005 146.197 188.519 147.735 188.121 149.297C197.119 153.239 212.811 157.51 232.508 152.601C232.407 151.533 232.279 150.538 232.105 149.662C230.544 141.691 228.308 133.867 225.421 126.273L232.398 109.509C232.398 109.509 241.926 125.744 247.12 134.623C249.689 133.069 252.151 131.347 254.491 129.467Z" fill="#455B8E"/>
<path d="M254.491 129.467C253.778 128.098 253.174 127.003 252.781 126.337C250.239 122.13 248.364 119.474 248.364 119.474C248.364 119.474 241.396 100.502 240.564 97.2895C239.732 94.0772 240.317 91.668 236.495 90.2992C232.672 88.9303 224.049 87.8809 220.949 87.4063C218.541 86.8995 216.202 86.1091 213.981 85.0519C213.981 85.0519 206.995 84.0115 204.599 83.2267C198.728 81.0216 192.972 78.5241 187.352 75.7436C184.079 73.9185 180.037 69.7389 180.037 69.7389L174.898 58.4047C172.396 59.0934 169.95 59.9721 167.582 61.0329C169.804 67.713 171.834 73.7177 172.538 75.5702C174.367 80.3612 196.524 97.472 196.524 97.472C196.524 97.472 192.327 107.903 193.872 113.816C194.996 117.747 196.797 121.453 199.194 124.767C199.194 124.767 195.628 129.011 189.575 144.689C189.005 146.197 188.519 147.735 188.121 149.297C197.119 153.239 212.811 157.51 232.508 152.601C232.407 151.533 232.279 150.538 232.105 149.662C230.544 141.691 228.308 133.867 225.421 126.273L232.398 109.509C232.398 109.509 241.926 125.744 247.12 134.623C249.689 133.069 252.151 131.347 254.491 129.467Z" fill="#4A77BC"/>
<path d="M254.491 129.467C253.778 128.098 253.174 127.003 252.781 126.337C250.239 122.13 248.364 119.474 248.364 119.474C248.364 119.474 241.396 100.502 240.564 97.2895C239.732 94.0772 240.317 91.668 236.495 90.2992C232.672 88.9303 224.049 87.8809 220.949 87.4063C218.541 86.8995 216.202 86.1091 213.981 85.0519C213.981 85.0519 206.995 84.0115 204.599 83.2267C198.728 81.0216 192.972 78.5241 187.352 75.7436C184.079 73.9185 180.037 69.7389 180.037 69.7389L174.898 58.4047C172.396 59.0934 169.95 59.9721 167.582 61.0329C169.804 67.713 171.834 73.7177 172.538 75.5702C174.367 80.3612 196.524 97.472 196.524 97.472C196.524 97.472 192.327 107.903 193.872 113.816C194.996 117.747 196.797 121.453 199.194 124.767C199.194 124.767 195.628 129.011 189.575 144.689C189.005 146.197 188.519 147.735 188.121 149.297C197.119 153.239 212.811 157.51 232.508 152.601C232.407 151.533 232.279 150.538 232.105 149.662C230.544 141.691 228.308 133.867 225.421 126.273L232.398 109.509C232.398 109.509 241.926 125.744 247.12 134.623C249.689 133.069 252.151 131.347 254.491 129.467Z" stroke="#263238" stroke-linecap="round" stroke-linejoin="round"/>
<path d="M191.972 84.194L196.526 97.4354L187.391 79.9688" stroke="#263238" stroke-linecap="round" stroke-linejoin="round"/>
<path d="M232.398 109.463L228.621 107.401" stroke="#263238" stroke-linecap="round" stroke-linejoin="round"/>
<path d="M237.071 92.6355C237.071 92.6355 233.203 93.3382 230.734 99.3155" stroke="#263238" stroke-linecap="round" stroke-linejoin="round"/>
<path d="M207.828 119.711C207.828 119.711 212.4 125.689 219.46 125.689" stroke="#263238" stroke-linecap="round" stroke-linejoin="round"/>
<path d="M229.874 88.757C226.39 88.1455 222.751 87.6801 220.958 87.4063C218.547 86.9002 216.205 86.1098 213.981 85.0519C213.981 85.0519 206.995 84.0116 204.599 83.2268C204.352 83.1537 203.977 83.0169 203.538 82.8526C203.309 86.9227 203.136 96.2948 205.714 103.084C209.089 111.991 212.801 113.834 212.801 113.834C212.801 113.834 224.095 100.675 227.432 94.0955C228.612 91.7411 229.362 89.9981 229.874 88.757Z" fill="#263238" stroke="#263238" stroke-linecap="round" stroke-linejoin="round"/>
<path d="M217.007 47.0796C217.007 47.0796 210.881 47.6637 207.552 52.5551C204.223 57.4465 203.154 61.9911 202.02 67.1562C200.886 72.3214 202.203 77.2584 204.004 77.441L210.213 78.0706C210.213 78.0706 210.213 91.595 210.579 96.2673C210.945 100.94 212.408 104.316 213.77 102.655C215.133 100.994 219.623 88.9668 219.623 88.9668L220.354 77.7421C220.354 77.7421 223.646 75.2508 228.511 71.1077C233.376 66.9646 234.775 59.2442 231.254 52.6189C227.734 45.9937 217.007 47.0796 217.007 47.0796Z" fill="white" stroke="#263238" stroke-linecap="round" stroke-linejoin="round"/>
<path d="M220.629 69.5199C220.629 69.5199 221.745 69.9853 221.827 69.1822C221.909 68.3792 224.36 67.0103 225.32 68.9541" stroke="#263238" stroke-linecap="round" stroke-linejoin="round"/>
<path d="M221.828 69.1821C221.828 69.1821 224.672 69.7023 223.008 71.2628" stroke="#263238" stroke-linecap="round" stroke-linejoin="round"/>
<path d="M207.526 59.0709C207.233 59.9835 206.611 60.5949 206.2 60.458C205.788 60.3211 205.642 59.4633 205.935 58.5598C206.227 57.6564 206.849 57.0358 207.27 57.1727C207.69 57.3096 207.818 58.1674 207.526 59.0709Z" fill="#263238"/>
<path d="M213.351 62.055C213.049 62.9676 212.437 63.579 212.016 63.433C211.596 63.287 211.467 62.4474 211.76 61.544C212.053 60.6405 212.675 60.02 213.086 60.1569C213.498 60.2937 213.644 61.1424 213.351 62.055Z" fill="#263238"/>
<path d="M205.586 65.3311C205.586 65.3311 205.586 66.2436 207.15 66.4444" stroke="#263238" stroke-linecap="round" stroke-linejoin="round"/>
<path d="M205.164 69.4743C205.164 69.4743 209.599 70.6424 211.84 68.5618" stroke="#263238" stroke-linecap="round" stroke-linejoin="round"/>
<path d="M213.379 57.0358C214.515 56.9525 215.638 57.3197 216.504 58.0579C217.371 58.796 217.91 59.8453 218.006 60.9781" stroke="#263238" stroke-linecap="round" stroke-linejoin="round"/>
<path d="M206.895 54.8274C206.895 54.8274 208.312 52.7011 209.638 56.0594" stroke="#263238" stroke-linecap="round" stroke-linejoin="round"/>
<path d="M207.734 70.0947C207.734 70.0947 209.7 73.1609 210.615 72.4126C211.529 71.6643 210.807 69.3281 210.807 69.3281C209.807 69.671 208.779 69.9274 207.734 70.0947Z" fill="#263238" stroke="#263238" stroke-linecap="round" stroke-linejoin="round"/>
<path d="M230.833 71.0987C235.707 66.9556 236.32 59.6459 232.662 53.0754C227.916 44.5337 216.998 47.0798 216.998 47.0798C215.845 47.2268 214.715 47.5149 213.633 47.9376C215.919 48.2661 220.994 49.5164 223.125 54.3256C225.923 60.7136 221.808 67.3115 221.808 67.3115C221.808 67.3115 227.112 64.8202 226.929 68.6348C226.835 70.0024 226.231 71.2853 225.235 72.2298C224.24 73.1744 222.925 73.7118 221.552 73.7361C220.47 73.5733 219.415 73.2664 218.415 72.8235C218.393 73.7144 218.563 74.5996 218.915 75.4186C219.267 76.2376 219.792 76.9711 220.455 77.5689C221.003 77.1856 226.426 74.8312 230.833 71.0987Z" fill="#263238" stroke="#263238" stroke-linecap="round" stroke-linejoin="round"/>
<path d="M212.406 48.5216C212.406 48.5216 215.15 49.9817 217.545 56.7347C219.941 63.4878 224.715 62.7851 227.467 62.2102C230.22 61.6353 232.25 61.4801 232.25 61.4801C230.134 59.5292 228.661 56.9836 228.025 54.1795C226.918 49.4342 219.566 38.4376 212.406 48.5216Z" fill="#263238" stroke="#263238" stroke-linecap="round" stroke-linejoin="round"/>
<path d="M152.512 0.456299V8.73334" stroke="#263238" stroke-linecap="round" stroke-linejoin="round"/>
<path d="M160.469 10.0566L164.785 4.76367" stroke="#263238" stroke-linecap="round" stroke-linejoin="round"/>
<path d="M139.902 7.41016L143.88 10.7228" stroke="#263238" stroke-linecap="round" stroke-linejoin="round"/>
<path d="M135.258 18.3337H142.226" stroke="#263238" stroke-linecap="round" stroke-linejoin="round"/>
<path d="M163.457 18.0051H168.77" stroke="#263238" stroke-linecap="round" stroke-linejoin="round"/>
<path d="M92.2789 50.1916C92.2789 50.1916 94.1078 47.4539 90.8707 45.8386C87.3103 44.2155 83.3121 43.8124 79.4983 44.6921C75.6845 45.5718 72.2691 47.6849 69.7836 50.7026C62.02 59.655 68.2839 68.2788 72.3258 72.6044C76.3676 76.93 82.2292 78.8738 82.156 79.6586C81.7272 81.2051 81.2175 82.7282 80.6289 84.2215L94.2815 84.8694C94.2815 84.8694 95.9458 79.7864 97.4364 78.0981C98.9269 76.4099 101.625 79.0107 103.645 74.7033C105.666 70.396 103.188 64.7198 103.188 64.7198C103.188 64.7198 104.478 59.8558 102.649 59.6732C100.82 59.4907 99.4664 57.2367 98.1679 54.4807C96.8694 51.7247 92.2789 50.1916 92.2789 50.1916Z" fill="white" stroke="#263238" stroke-linecap="round" stroke-linejoin="round"/>
<path d="M98.2867 55.8496C98.2867 55.8496 96.4578 52.9933 96.2109 56.8991" stroke="#263238" stroke-linecap="round" stroke-linejoin="round"/>
<path d="M103.865 67.3661C103.865 67.3661 103.463 68.589 101.359 67.1106" stroke="#263238" stroke-linecap="round" stroke-linejoin="round"/>
<path d="M99.8135 59.3173C100.262 60.1751 100.408 60.9873 100.134 61.1424C99.8592 61.2976 99.2739 60.7135 98.8259 59.8557C98.3778 58.9979 98.2315 58.1948 98.5058 58.0306C98.7801 57.8663 99.3654 58.4047 99.8135 59.3173Z" fill="#263238"/>
<path d="M89.1495 71.0166C88.8855 70.9725 88.6333 70.8748 88.4087 70.7296C88.184 70.5843 87.9916 70.3947 87.8433 70.1723C87.695 69.9499 87.5941 69.6995 87.5466 69.4366C87.4992 69.1737 87.5063 68.9039 87.5675 68.6439C87.9698 67.2568 91.1704 67.8408 91.1704 67.8408C91.1704 67.8408 89.7713 68.7534 91.2618 69.5382C92.7524 70.323 93.5754 68.6256 93.5754 68.6256" stroke="#263238" stroke-linecap="round" stroke-linejoin="round"/>
<path d="M90.8707 45.8477C87.3103 44.2245 83.3121 43.8214 79.4983 44.7011C75.6845 45.5808 72.2691 47.6939 69.7836 50.7117C62.02 59.664 68.2839 68.2878 72.3258 72.6134C75.5263 76.0721 79.8699 77.9794 81.4702 79.0015C82.9982 78.9947 84.5148 78.7389 85.9601 78.244C88.1573 77.4546 90.111 76.1086 91.6297 74.3382C91.6297 74.3382 86.2985 74.8584 85.7315 70.0582C85.1645 65.2581 90.13 65.7691 92.2149 65.979C94.2998 66.1889 92.9739 63.6885 91.9863 63.0679C90.9987 62.4474 92.0412 59.9104 92.599 57.0723C93.1568 54.2342 89.8556 55.74 89.3893 54.9095C88.9229 54.0791 92.2789 50.1915 92.2789 50.1915C92.2789 50.1915 94.1352 47.4538 90.8707 45.8477Z" fill="#263238" stroke="#263238" stroke-linecap="round" stroke-linejoin="round"/>
<path d="M98.0394 84.2033C94.0973 82.9476 90.016 82.1783 85.8865 81.9127C79.0739 81.4838 75.5898 84.5501 75.5898 84.5501C75.5898 84.5501 80.5827 84.7965 88.6938 85.3531C96.8049 85.9098 98.0394 84.2033 98.0394 84.2033Z" fill="#455B8E"/>
<path d="M98.0394 84.2033C94.0973 82.9476 90.016 82.1783 85.8865 81.9127C79.0739 81.4838 75.5898 84.5501 75.5898 84.5501C75.5898 84.5501 80.5827 84.7965 88.6938 85.3531C96.8049 85.9098 98.0394 84.2033 98.0394 84.2033Z" fill="#4A77BC"/>
<path d="M98.0394 84.2033C94.0973 82.9476 90.016 82.1783 85.8865 81.9127C79.0739 81.4838 75.5898 84.5501 75.5898 84.5501C75.5898 84.5501 80.5827 84.7965 88.6938 85.3531C96.8049 85.9098 98.0394 84.2033 98.0394 84.2033Z" stroke="#263238" stroke-linecap="round" stroke-linejoin="round"/>
<path d="M130.024 60.0747C130.024 60.0747 143.11 40.354 143.137 37.4612C143.165 34.5683 142.086 29.7225 142.269 27.8974C142.452 26.0722 142.799 25.3239 143.009 23.2433C143.22 21.1626 145.204 22.4128 144.966 24.7581L145.195 26.0905L147.463 15.3586C147.463 15.3586 149.017 14.2179 149.292 15.4134L148.039 22.5953L148.688 22.7048L150.252 13.6886C150.252 13.6886 150.48 12.6665 151.907 12.776C151.907 12.776 152.675 12.9859 152.602 14.9388L151.377 23.3893L152.026 23.6722L153.443 14.3639C153.443 14.3639 154.038 13.643 154.504 14.2179C154.946 15.0254 155.083 15.9648 154.888 16.8644C154.788 17.8956 154.065 24.9954 154.065 24.9954L155.391 19.6568C155.391 19.6568 156.717 18.2241 156.58 20.8158C156.199 24.0779 155.516 27.2978 154.541 30.4343C153.965 32.2047 151.797 35.636 150.38 36.6672C148.962 37.6984 148.268 38.1456 148.213 38.6657C148.158 39.1859 140.897 64.5372 136.627 70.2408C136.627 70.2408 135.1 64.7654 131.643 63.9897C128.186 63.214 128.744 64.2178 128.744 64.2178L130.024 60.0747Z" fill="white" stroke="#263238" stroke-linecap="round" stroke-linejoin="round"/>
<path d="M125.059 67.4666C125.059 67.4666 124.83 64.5464 126.815 63.1684C128.799 61.7904 128.488 59.655 130.372 59.3264C132.255 58.9979 137.44 62.4109 137.925 65.3494C138.41 68.2879 137.632 68.2149 137.395 70.5602C137.157 72.9055 133.947 76.0357 131.204 74.4022C128.461 72.7687 125.059 67.4666 125.059 67.4666Z" fill="#455B8E"/>
<path d="M125.059 67.4666C125.059 67.4666 124.83 64.5464 126.815 63.1684C128.799 61.7904 128.488 59.655 130.372 59.3264C132.255 58.9979 137.44 62.4109 137.925 65.3494C138.41 68.2879 137.632 68.2149 137.395 70.5602C137.157 72.9055 133.947 76.0357 131.204 74.4022C128.461 72.7687 125.059 67.4666 125.059 67.4666Z" fill="#4A77BC"/>
<path d="M125.059 67.4666C125.059 67.4666 124.83 64.5464 126.815 63.1684C128.799 61.7904 128.488 59.655 130.372 59.3264C132.255 58.9979 137.44 62.4109 137.925 65.3494C138.41 68.2879 137.632 68.2149 137.395 70.5602C137.157 72.9055 133.947 76.0357 131.204 74.4022C128.461 72.7687 125.059 67.4666 125.059 67.4666Z" stroke="#263238" stroke-linecap="round" stroke-linejoin="round"/>
<path d="M37.8143 117.33C37.8143 117.33 33.05 134.86 31.4132 144.789C29.7763 154.718 28.5235 157.948 27.4353 160.613C26.3472 163.278 25.1492 165.523 25.4601 168.324C25.7711 171.126 29.2459 170.095 30.8371 170.058C32.4282 170.022 34.8881 169.282 35.1075 167.129C35.327 164.975 35.7568 164.619 35.3636 162.566C34.9704 160.513 33.5347 158.824 33.6901 157.647C33.8456 156.47 42.67 135.599 44.4257 130.042C46.1814 124.484 47.3336 121.035 47.3336 121.035C47.3336 121.035 39.5974 119.292 37.8143 117.33Z" fill="white" stroke="#263238" stroke-linecap="round" stroke-linejoin="round"/>
<path d="M62.8424 144.187C58.9743 156.853 59.6053 150.575 58.9743 156.853C58.3434 163.132 55.8744 177.514 55.8744 177.514L46.2544 215.55C46.2544 215.55 34.2935 224.822 28.2399 233.738C22.1863 242.653 6.21094 261.845 6.21094 261.845C6.21094 261.845 9.73155 262.438 11.0301 263.67C12.3286 264.902 15.3371 267.977 15.3371 267.977C17.3775 266.505 19.1946 264.747 20.7323 262.757C26.7219 255.055 35.7658 248.494 42.7612 241.677C49.7567 234.86 58.2428 227.925 63.8757 219.775C66.7288 215.112 81.177 178.381 81.177 178.381L84.1581 178.29C84.1581 178.29 99.0635 201.378 101.139 204.353C103.215 207.328 109.735 218.835 109.735 218.835C109.735 218.835 98.5149 227.788 95.5704 235.207C92.6259 242.626 77.9856 269.638 77.062 270.925C76.454 271.854 76.0145 272.883 75.7635 273.964C75.7635 273.964 81.1587 275.497 83.8838 275.972C85.4441 276.219 86.9394 276.774 88.2822 277.605C88.2822 277.605 89.0504 275.908 89.8551 273.809C90.6454 272.027 91.2343 270.163 91.6108 268.251C91.7571 266.882 106.544 252.153 114.71 238.136C122.876 224.119 126.808 220.56 127.311 217.649C127.814 214.738 120.48 193.201 117.023 182.369C113.567 171.537 104.322 159.107 104.029 158.094C103.736 157.081 102.822 146.486 102.822 146.486C102.822 146.486 96.8414 146.87 84.3501 146.797C77.1026 146.78 69.8827 145.904 62.8424 144.187Z" fill="#263238" stroke="#263238" stroke-linecap="round" stroke-linejoin="round"/>
<path d="M71.6836 174.53L81.1755 178.326" stroke="white" stroke-linecap="round" stroke-linejoin="round"/>
<path d="M107.742 106.379C107.742 106.379 106.956 114.163 117.097 120.67C127.238 127.176 130.466 138.711 130.466 138.711L127.769 145.382L121.724 141.841C121.724 141.841 122.639 129.321 116.238 124.101C109.836 118.881 106.8 116.016 104.871 109.783C102.942 103.55 98.918 94.561 98.918 94.561C98.918 94.561 106.362 100.21 107.742 106.379Z" fill="#263238" stroke="#263238" stroke-linecap="round" stroke-linejoin="round"/>
<path d="M80.6287 84.2762C76.3364 83.985 72.0629 83.4641 67.8265 82.7157C62.7057 81.6663 58.2066 84.3675 57.5208 88.5197C56.8349 92.6719 39.4971 112.739 39.3691 114.072C39.241 115.404 45.7244 119.41 48.6507 118.635C51.5769 117.859 63.3915 105.913 63.3915 105.913C63.3915 105.913 63.739 133.583 62.7971 137.698C61.8552 141.814 60.2549 144.543 62.413 146.605C64.5711 148.667 81.022 150.337 89.508 149.881C97.994 149.425 102.923 147.554 103.225 144.689C103.526 141.823 103.974 134.769 104.368 130.863C104.761 126.957 108.94 101.852 108.94 101.852C108.94 101.852 120.974 87.2512 126.543 81.7758C132.112 76.3003 134.206 73.8729 134.526 70.7428C134.846 67.6126 130.722 64.0445 127.979 65.0848C125.235 66.1251 117.728 75.1231 113.521 77.5597C109.315 79.9963 103.188 80.7263 100.6 82.8252C98.0123 84.9242 95.0587 85.4261 90.1024 84.9242C85.1461 84.4222 80.6287 84.2762 80.6287 84.2762Z" fill="#455B8E"/>
<path d="M80.6287 84.2762C76.3364 83.985 72.0629 83.4641 67.8265 82.7157C62.7057 81.6663 58.2066 84.3675 57.5208 88.5197C56.8349 92.6719 39.4971 112.739 39.3691 114.072C39.241 115.404 45.7244 119.41 48.6507 118.635C51.5769 117.859 63.3915 105.913 63.3915 105.913C63.3915 105.913 63.739 133.583 62.7971 137.698C61.8552 141.814 60.2549 144.543 62.413 146.605C64.5711 148.667 81.022 150.337 89.508 149.881C97.994 149.425 102.923 147.554 103.225 144.689C103.526 141.823 103.974 134.769 104.368 130.863C104.761 126.957 108.94 101.852 108.94 101.852C108.94 101.852 120.974 87.2512 126.543 81.7758C132.112 76.3003 134.206 73.8729 134.526 70.7428C134.846 67.6126 130.722 64.0445 127.979 65.0848C125.235 66.1251 117.728 75.1231 113.521 77.5597C109.315 79.9963 103.188 80.7263 100.6 82.8252C98.0123 84.9242 95.0587 85.4261 90.1024 84.9242C85.1461 84.4222 80.6287 84.2762 80.6287 84.2762Z" fill="#4A77BC"/>
<path d="M80.6287 84.2762C76.3364 83.985 72.0629 83.4641 67.8265 82.7157C62.7057 81.6663 58.2066 84.3675 57.5208 88.5197C56.8349 92.6719 39.4971 112.739 39.3691 114.072C39.241 115.404 45.7244 119.41 48.6507 118.635C51.5769 117.859 63.3915 105.913 63.3915 105.913C63.3915 105.913 63.739 133.583 62.7971 137.698C61.8552 141.814 60.2549 144.543 62.413 146.605C64.5711 148.667 81.022 150.337 89.508 149.881C97.994 149.425 102.923 147.554 103.225 144.689C103.526 141.823 103.974 134.769 104.368 130.863C104.761 126.957 108.94 101.852 108.94 101.852C108.94 101.852 120.974 87.2512 126.543 81.7758C132.112 76.3003 134.206 73.8729 134.526 70.7428C134.846 67.6126 130.722 64.0445 127.979 65.0848C125.235 66.1251 117.728 75.1231 113.521 77.5597C109.315 79.9963 103.188 80.7263 100.6 82.8252C98.0123 84.9242 95.0587 85.4261 90.1024 84.9242C85.1461 84.4222 80.6287 84.2762 80.6287 84.2762Z" stroke="#263238" stroke-linecap="round" stroke-linejoin="round"/>
<path d="M59.9693 93.0552L63.3985 105.941L56.2109 95.9389" stroke="#263238" stroke-linecap="round" stroke-linejoin="round"/>
<path d="M108.895 101.88L102.805 110.385" stroke="#263238" stroke-linecap="round" stroke-linejoin="round"/>
<path d="M97.1413 122.586L96.1445 124.247" stroke="#263238" stroke-linecap="round" stroke-linejoin="round"/>
<path d="M104.834 109.737L99.0273 119.447" stroke="#263238" stroke-linecap="round" stroke-linejoin="round"/>
<path d="M78.4688 116.125C81.8522 124.137 87.156 135.49 91.8105 140.135" stroke="#263238" stroke-linecap="round" stroke-linejoin="round"/>
<path d="M74.9844 107.492C74.9844 107.492 75.5605 109.071 76.5481 111.544" stroke="#263238" stroke-linecap="round" stroke-linejoin="round"/>
<path d="M77.6289 123.38C77.6289 123.38 84.2861 135.243 87.7518 139.806" stroke="#263238" stroke-linecap="round" stroke-linejoin="round"/>
<path d="M40.238 112.831C41.6719 114.156 43.3001 115.254 45.0662 116.089C47.5352 117.129 51.6777 115.377 51.4673 117.33C51.3273 118.719 50.7286 120.023 49.7651 121.035C48.8017 122.048 47.5284 122.712 46.1453 122.924C42.2955 123.727 37.9153 120.305 36.6899 118.407C35.4646 116.508 36.3699 110.057 40.238 112.831Z" fill="#455B8E"/>
<path d="M40.238 112.831C41.6719 114.156 43.3001 115.254 45.0662 116.089C47.5352 117.129 51.6777 115.377 51.4673 117.33C51.3273 118.719 50.7286 120.023 49.7651 121.035C48.8017 122.048 47.5284 122.712 46.1453 122.924C42.2955 123.727 37.9153 120.305 36.6899 118.407C35.4646 116.508 36.3699 110.057 40.238 112.831Z" fill="#4A77BC"/>
<path d="M40.238 112.831C41.6719 114.156 43.3001 115.254 45.0662 116.089C47.5352 117.129 51.6777 115.377 51.4673 117.33C51.3273 118.719 50.7286 120.023 49.7651 121.035C48.8017 122.048 47.5284 122.712 46.1453 122.924C42.2955 123.727 37.9153 120.305 36.6899 118.407C35.4646 116.508 36.3699 110.057 40.238 112.831Z" stroke="#263238" stroke-linecap="round" stroke-linejoin="round"/>
<path d="M31.9236 163.442C31.9236 163.442 26.7022 166.07 28.7962 166.882C30.8903 167.694 34.2829 167.238 34.8499 165.915" fill="white"/>
<path d="M31.9236 163.442C31.9236 163.442 26.7022 166.07 28.7962 166.882C30.8903 167.694 34.2829 167.238 34.8499 165.915" stroke="#263238" stroke-linecap="round" stroke-linejoin="round"/>
<path d="M28.7983 166.882L26.7773 167.266" stroke="#263238" stroke-linecap="round" stroke-linejoin="round"/>
<path d="M88.3192 277.605C88.3192 277.605 93.3578 285.645 97.0064 288.556C100.655 291.467 101.213 291.294 101.094 292.553C100.975 293.812 97.8385 294.551 92.5073 294.013C87.1761 293.475 82.7228 289.614 77.7848 286.968C72.8468 284.321 71.5026 283.464 72.4901 280.872C73.4765 278.527 74.5813 276.233 75.8004 274C75.8004 274 82.8508 273.827 88.3192 277.605Z" fill="white" stroke="#263238" stroke-linecap="round" stroke-linejoin="round"/>
<path d="M72.4883 280.835C72.4883 280.835 76.2832 282.204 83.8731 287.57C91.463 292.936 96.7759 293.666 101.092 292.516" fill="white"/>
<path d="M72.4883 280.835C72.4883 280.835 76.2832 282.204 83.8731 287.57C91.463 292.936 96.7759 293.666 101.092 292.516" stroke="#263238" stroke-linecap="round" stroke-linejoin="round"/>
<path d="M15.3364 267.941C15.3364 267.941 15.4005 274.484 16.4063 278.107C17.4122 281.73 19.927 285.234 18.7748 286.019C17.6226 286.804 16.4429 287.014 14.2025 285.818C11.9621 284.623 9.13652 282.168 6.21944 278.709C3.97268 276.324 2.25298 273.495 1.17171 270.405C-0.21824 266.855 0.540748 264.847 2.87258 263.843C4.09619 263.371 5.23087 262.695 6.22859 261.845C6.22859 261.845 13.0046 261.489 15.3364 267.941Z" fill="white" stroke="#263238" stroke-linecap="round" stroke-linejoin="round"/>
<path d="M1.39844 265.559C4.44941 268.141 6.93896 271.318 8.71399 274.895C12.07 281.283 15.5997 284.833 18.7729 286.028" fill="white"/>
<path d="M1.39844 265.559C4.44941 268.141 6.93896 271.318 8.71399 274.895C12.07 281.283 15.5997 284.833 18.7729 286.028" stroke="#263238" stroke-linecap="round" stroke-linejoin="round"/>
</g>
<defs>
<clipPath id="clip0_292_15665">
<rect width="278" height="294.606" fill="white"/>
</clipPath>
</defs>
</svg>
