<svg width="279" height="270" viewBox="0 0 279 270" fill="none" xmlns="http://www.w3.org/2000/svg">
<path d="M87.1893 221.057C90.9897 221.995 90.8066 229.794 90.6496 229.834C90.4141 230.609 90.1655 231.384 89.8974 232.151C89.9497 231.042 88.8442 228.676 86.5483 226.441C84.2523 224.206 83.5917 219.972 87.1893 221.057Z" fill="#455B8E"/>
<path d="M87.1893 221.057C90.9897 221.995 90.8066 229.794 90.6496 229.834C90.4141 230.609 90.1655 231.384 89.8974 232.151C89.9497 231.042 88.8442 228.676 86.5483 226.441C84.2523 224.206 83.5917 219.972 87.1893 221.057Z" fill="#4A77BC"/>
<path d="M98.0484 224.32C101.751 225.405 98.7941 230.797 95.7328 230.748C92.6715 230.699 90.611 231.376 89.9438 232.11C90.2578 231.368 90.5456 230.617 90.8269 229.859C90.925 230.03 94.5161 223.504 98.0484 224.32Z" fill="#455B8E"/>
<path d="M98.0484 224.32C101.751 225.405 98.7941 230.797 95.7328 230.748C92.6715 230.699 90.611 231.376 89.9438 232.11C90.2578 231.368 90.5456 230.617 90.8269 229.859C90.925 230.03 94.5161 223.504 98.0484 224.32Z" fill="#4A77BC"/>
<path d="M113.242 224.671C116.899 228.113 111.535 232.257 108.179 230.381C104.843 228.652 102.292 227.975 101.272 228.391C101.9 227.754 102.515 227.102 103.117 226.433C103.189 226.612 109.684 221.579 113.242 224.671Z" fill="#455B8E"/>
<path d="M113.242 224.671C116.899 228.113 111.535 232.257 108.179 230.381C104.843 228.652 102.292 227.975 101.272 228.391C101.9 227.754 102.515 227.102 103.117 226.433C103.189 226.612 109.684 221.579 113.242 224.671Z" fill="#4A77BC"/>
<path d="M0.23291 236.866H278.037" stroke="#263238" stroke-linecap="round" stroke-linejoin="round"/>
<path d="M256.588 115.325C257.852 115.358 259.099 114.955 260.191 114.161C261.283 113.366 262.177 112.211 262.776 110.822C265.111 105.871 267.211 97.4282 267.211 97.4282H252.735C252.735 97.4282 249 106.744 250.171 110.822C251.342 114.901 256.588 115.325 256.588 115.325Z" fill="#263238" stroke="#263238" stroke-linecap="round" stroke-linejoin="round"/>
<path d="M257.883 24.7323C257.883 24.7323 267.905 22.9867 267.584 41.5359C267.263 60.0851 254.822 100.153 253.677 106.858C252.507 113.726 256.588 115.325 256.588 115.325H222.96C222.96 115.325 220.697 66.1296 225.871 50.003C231.045 33.8764 243.99 26.1027 257.883 24.7323Z" fill="#D6D6D6" stroke="#263238" stroke-linecap="round" stroke-linejoin="round"/>
<path d="M257.881 24.7321C248.815 25.6049 240.161 29.2267 233.803 36.1521H267.333C265.803 23.3617 257.881 24.7321 257.881 24.7321Z" fill="#263238" stroke="#263238" stroke-linecap="round" stroke-linejoin="round"/>
<path d="M257.882 24.7322H154.832C154.832 24.7322 140.899 29.1778 136.713 50.5739C132.527 71.9699 136.713 137.039 136.386 161.706C136.059 186.373 123.749 214.238 114.028 226.767C104.308 239.297 79.3601 251.818 71.9032 255.056C64.4462 258.294 44.561 261.117 44.561 261.117H181.082C190.288 260.709 199.33 257.958 207.652 253.033C220.937 244.949 231.043 230.038 234.55 197.671C236.695 177.898 229.362 111.597 229.362 90.9841C229.362 70.3711 228.708 52.189 237.467 38.0527C245.342 25.3521 257.882 24.7322 257.882 24.7322Z" fill="white" stroke="#263238" stroke-linecap="round" stroke-linejoin="round"/>
<path d="M141.856 216.489C142.936 216.539 143.995 216.876 144.962 217.478C145.928 218.08 146.781 218.934 147.461 219.98C149.561 223.472 149.79 231.914 149.79 231.914H119.917C119.917 231.914 132.521 216.489 141.856 216.489Z" fill="#263238" stroke="#263238" stroke-linecap="round" stroke-linejoin="round"/>
<path d="M148.163 261.027C148.163 261.027 131.914 258.515 128.539 243.848C125.74 231.613 130.639 223.765 135.08 220.274C139.522 216.783 141.851 216.489 141.851 216.489C141.851 216.489 102.603 219.98 77.191 219.401C51.7785 218.822 38.2448 211.244 31.2392 219.401C24.2336 227.558 25.8755 240.357 30.0945 250.26C34.3136 260.162 44.5505 261.133 44.5505 261.133L148.163 261.027Z" fill="white" stroke="#263238" stroke-linecap="round" stroke-linejoin="round"/>
<path d="M80.8941 86.31C80.8941 86.31 94.9838 87.868 104.383 85.1354C113.783 82.4027 123.17 66.374 123.17 66.374L128.808 70.2813C128.808 70.2813 122.542 84.3441 111.585 90.2009C100.629 96.0577 84.6553 98.0073 78.0749 94.1C71.4944 90.1928 80.8941 86.31 80.8941 86.31Z" fill="#263238" stroke="#263238" stroke-linecap="round" stroke-linejoin="round"/>
<path d="M170.186 137.488C170.186 137.488 173.96 131.892 173.725 120.423C173.489 108.954 168.766 99.2147 168.766 99.2147L165.496 105.716C165.496 105.716 167.622 96.009 164.083 87.183C160.544 78.357 158.66 73.944 158.66 73.944C158.66 73.944 157.712 78.357 156.77 81.8809C155.828 85.4048 156.534 69.5311 154.409 61.586C152.283 53.641 142.85 41.2912 135.302 33.6398C130.296 28.7182 124.831 24.5688 119.027 21.2818C119.027 21.2818 120.205 28.6232 119.969 30.6951C119.734 32.767 117.608 30.4014 115.959 27.1712C114.311 23.941 110.772 13.3042 110.772 13.3042C104.443 8.9523 97.7072 5.59328 90.7171 3.30357C80.1008 0.0407261 57.2197 2.4226 57.2197 2.4226C60.2737 6.09063 63.1154 10.0241 65.7233 14.1933C67.5633 17.3477 69.6159 20.3004 71.8589 23.0193C71.8589 23.0193 64.2122 18.2229 59.9605 13.5163C55.7087 8.80961 48.8274 2.06369 43.1758 0.595409C37.5242 -0.872869 20.6349 4.81263 17.0962 8.33649C13.5574 11.8604 2.70557 22.2036 2.70557 22.2036C2.70557 22.2036 16.357 52.7601 27.2284 57.173C38.0999 61.586 43.0319 60.7051 43.0319 60.7051L50.3711 57.173L45.4064 62.4344C45.4064 62.4344 53.2558 65.4117 67.2539 68.0628C81.252 70.7138 83.8685 70.1184 90.7105 72.7613C97.5526 75.4042 114.54 72.174 114.54 72.174L109.346 76.2933C109.346 76.2933 112.617 80.119 119.963 82.77C124.728 84.5764 129.318 87.0387 133.647 90.1114L129.402 91.5879C129.402 91.5879 135.289 100.112 139.305 102.192C143.321 104.272 148.979 107.486 148.979 107.486L144.028 108.661C144.028 108.661 152.754 117.78 155.802 122.781C158.85 127.781 165.705 138.671 170.186 137.488Z" fill="#455B8E"/>
<path d="M170.186 137.488C170.186 137.488 173.96 131.892 173.725 120.423C173.489 108.954 168.766 99.2147 168.766 99.2147L165.496 105.716C165.496 105.716 167.622 96.009 164.083 87.183C160.544 78.357 158.66 73.944 158.66 73.944C158.66 73.944 157.712 78.357 156.77 81.8809C155.828 85.4048 156.534 69.5311 154.409 61.586C152.283 53.641 142.85 41.2912 135.302 33.6398C130.296 28.7182 124.831 24.5688 119.027 21.2818C119.027 21.2818 120.205 28.6232 119.969 30.6951C119.734 32.767 117.608 30.4014 115.959 27.1712C114.311 23.941 110.772 13.3042 110.772 13.3042C104.443 8.9523 97.7072 5.59328 90.7171 3.30357C80.1008 0.0407261 57.2197 2.4226 57.2197 2.4226C60.2737 6.09063 63.1154 10.0241 65.7233 14.1933C67.5633 17.3477 69.6159 20.3004 71.8589 23.0193C71.8589 23.0193 64.2122 18.2229 59.9605 13.5163C55.7087 8.80961 48.8274 2.06369 43.1758 0.595409C37.5242 -0.872869 20.6349 4.81263 17.0962 8.33649C13.5574 11.8604 2.70557 22.2036 2.70557 22.2036C2.70557 22.2036 16.357 52.7601 27.2284 57.173C38.0999 61.586 43.0319 60.7051 43.0319 60.7051L50.3711 57.173L45.4064 62.4344C45.4064 62.4344 53.2558 65.4117 67.2539 68.0628C81.252 70.7138 83.8685 70.1184 90.7105 72.7613C97.5526 75.4042 114.54 72.174 114.54 72.174L109.346 76.2933C109.346 76.2933 112.617 80.119 119.963 82.77C124.728 84.5764 129.318 87.0387 133.647 90.1114L129.402 91.5879C129.402 91.5879 135.289 100.112 139.305 102.192C143.321 104.272 148.979 107.486 148.979 107.486L144.028 108.661C144.028 108.661 152.754 117.78 155.802 122.781C158.85 127.781 165.705 138.671 170.186 137.488Z" fill="#4A77BC"/>
<path d="M87.854 3.04248C87.854 3.04248 94.6961 11.5748 97.5284 22.1627" stroke="#263238" stroke-linecap="round" stroke-linejoin="round"/>
<path d="M97.5259 13.0513C97.5259 13.0513 100.796 17.7579 102.478 26.9183" stroke="#263238" stroke-linecap="round" stroke-linejoin="round"/>
<path d="M133.151 34.2598C133.151 34.2598 139.515 44.864 141.877 66.3253" stroke="#263238" stroke-linecap="round" stroke-linejoin="round"/>
<path d="M129.846 33.3459C131.679 37.7827 132.952 42.5453 133.62 47.4659" stroke="#263238" stroke-linecap="round" stroke-linejoin="round"/>
<path d="M136.452 90.4131C138.441 90.7185 140.409 91.2121 142.339 91.8895" stroke="#263238" stroke-linecap="round" stroke-linejoin="round"/>
<path d="M35.0142 56.5855C35.0142 56.5855 47.7564 53.6408 57.6597 48.0532" stroke="#263238" stroke-linecap="round" stroke-linejoin="round"/>
<path d="M42.3267 51.5854C42.3267 51.5854 51.1442 48.3226 54.8268 45.9978" stroke="#263238" stroke-linecap="round" stroke-linejoin="round"/>
<path d="M73.6978 26.5757C73.6978 26.5757 77.2365 30.9887 79.3624 39.8147" stroke="#263238" stroke-linecap="round" stroke-linejoin="round"/>
<path d="M104.662 54.8399C97.1531 51.9278 83.8941 47.8737 83.8941 47.8737C73.1601 45.5898 20.811 27.636 20.811 27.636C20.811 27.636 30.492 33.8354 58.5013 43.6321C86.5106 53.4287 101.542 56.7568 112.741 62.5402C127.825 70.3221 155.088 99.7692 160.589 115.439C165.482 129.396 179.147 180.353 182.071 191.3C182.078 191.336 182.097 191.366 182.123 191.384C182.149 191.403 182.179 191.408 182.208 191.398C182.237 191.388 182.261 191.365 182.276 191.333C182.29 191.3 182.294 191.262 182.287 191.227C181.43 185.867 179.049 171.552 176.341 160.368C172.939 146.33 167.131 126.215 165.299 120.333C162.674 112.081 159.052 104.379 154.558 97.4934L150.902 92.5991C150.902 92.5991 134.935 71.3907 122.631 62.891" fill="white"/>
<path d="M104.662 54.8399C97.1531 51.9278 83.8941 47.8737 83.8941 47.8737C73.1601 45.5898 20.811 27.636 20.811 27.636C20.811 27.636 30.492 33.8354 58.5013 43.6321C86.5106 53.4287 101.542 56.7568 112.741 62.5402C127.825 70.3221 155.088 99.7692 160.589 115.439C165.482 129.396 179.147 180.353 182.071 191.3C182.078 191.336 182.097 191.366 182.123 191.384C182.149 191.403 182.179 191.408 182.208 191.398C182.237 191.388 182.261 191.365 182.276 191.333C182.29 191.3 182.294 191.262 182.287 191.227C181.43 185.867 179.049 171.552 176.341 160.368C172.939 146.33 167.131 126.215 165.299 120.333C162.674 112.081 159.052 104.379 154.558 97.4934L150.902 92.5991C150.902 92.5991 134.935 71.3907 122.631 62.891" stroke="#8F8F8F" stroke-linecap="round" stroke-linejoin="round"/>
<path d="M119.709 61.5778L108.249 56.031" stroke="#8F8F8F" stroke-linecap="round" stroke-linejoin="round"/>
<path d="M72.0879 53.3554C72.0879 53.3554 75.208 52.9231 76.5947 54.4322C77.9815 55.9412 79.7999 59.408 80.7549 59.8403C81.7099 60.2727 84.1367 59.6283 84.2218 60.705C84.166 61.8554 83.9628 62.9873 83.62 64.0576C83.62 64.0576 85.4384 69.2455 85.5823 71.089C85.6815 71.7706 85.629 72.4731 85.4307 73.1202C85.2324 73.7673 84.8957 74.3343 84.4572 74.7597C83.7639 75.4122 81.2521 75.7385 81.2521 75.7385L81.3371 81.4485L71.1067 81.995L70.1517 77.2313L66.0765 75.5998C66.0765 75.5998 67.0316 74.1968 67.2016 68.0382C67.3717 61.8796 67.895 56.2512 69.6284 54.1712C71.3618 52.0911 72.0879 53.3554 72.0879 53.3554Z" fill="white" stroke="#263238" stroke-linecap="round" stroke-linejoin="round"/>
<path d="M78.8437 60.4929C78.8437 60.4929 78.6736 62.1243 76.8813 62.5485" stroke="#263238" stroke-linecap="round" stroke-linejoin="round"/>
<path d="M77.3724 57.5727C77.1705 57.4373 76.9475 57.3578 76.7187 57.3395C76.4899 57.3213 76.2606 57.3647 76.0464 57.4669C75.8323 57.5691 75.6383 57.7276 75.4777 57.9316C75.3171 58.1357 75.1936 58.3805 75.1157 58.6494" stroke="#263238" stroke-linecap="round" stroke-linejoin="round"/>
<path d="M83.4449 66.5457C82.9837 66.9968 82.4219 67.2593 81.8365 67.2973C81.2511 67.3353 80.6706 67.1468 80.1743 66.7577" stroke="#263238" stroke-linecap="round" stroke-linejoin="round"/>
<path d="M81.2766 75.7385L77.8032 75.0859L81.185 79.3032L81.2766 75.7385Z" fill="#263238" stroke="#263238" stroke-linecap="round" stroke-linejoin="round"/>
<path d="M72.7816 67.8424C72.7816 67.8424 73.7301 66.3252 73.2133 65.7868C72.6966 65.2485 70.695 63.6252 70.5969 62.3282C70.4987 61.0313 71.5519 59.9464 71.4668 57.5727C71.3818 55.1989 71.2052 53.4941 72.4219 52.5968C73.6385 51.6995 75.8887 53.2494 76.6671 51.7322C77.4455 50.2149 76.7521 45.3533 73.8086 43.1917C70.8651 41.0301 65.4817 43.4038 64.9649 46.4545C64.4482 49.5053 66.005 49.595 65.3966 50.2394C64.7883 50.8838 62.1849 51.2183 61.4065 52.8415C61.0504 53.5284 60.8142 54.301 60.7131 55.1092C60.5431 55.5415 56.9847 58.0294 56.1343 62.0264C55.284 66.0234 56.3894 72.8427 60.8113 75.763C65.2331 78.6832 69.6549 79.4337 71.9967 77.06C74.3384 74.6862 73.3049 72.0841 73.3049 72.0841C73.3049 72.0841 69.3802 74.0337 68.798 70.1346C68.2159 66.2355 72.7816 67.8424 72.7816 67.8424Z" fill="#263238" stroke="#263238" stroke-linecap="round" stroke-linejoin="round"/>
<path d="M55.9574 66.7576C55.9574 66.7576 51.5356 61.6758 45.3803 62.4344C39.2251 63.193 39.3101 70.3305 36.7983 72.4921C34.2865 74.6537 30.5515 72.5981 32.2195 69.6779C33.8875 66.7576 32.9128 64.3839 31.6111 63.9679C30.3094 63.5519 25.2858 62.2386 23.7225 73.0468C22.1591 83.8549 27.8827 94.2552 35.1695 91.5389C42.4564 88.8226 45.3999 77.6719 47.48 72.2963C49.5601 66.9208 54.6753 69.3761 56.1536 70.3468C57.6319 71.3175 57.1937 70.3468 57.1021 70.0205C57.0105 69.6942 55.9574 66.7576 55.9574 66.7576Z" fill="#263238" stroke="#263238" stroke-linecap="round" stroke-linejoin="round"/>
<path d="M70.4397 88.276C70.4397 88.276 68.6147 81.2527 69.6547 80.4941C70.6948 79.7355 82.083 79.3032 82.7371 79.9558C83.005 80.2216 83.2108 80.5723 83.3327 80.9712C83.4547 81.3702 83.4885 81.8027 83.4304 82.2234C83.4304 83.0881 83.2604 88.8225 83.2604 88.8225L70.4397 88.276Z" fill="#455B8E"/>
<path d="M70.4397 88.276C70.4397 88.276 68.6147 81.2527 69.6547 80.4941C70.6948 79.7355 82.083 79.3032 82.7371 79.9558C83.005 80.2216 83.2108 80.5723 83.3327 80.9712C83.4547 81.3702 83.4885 81.8027 83.4304 82.2234C83.4304 83.0881 83.2604 88.8225 83.2604 88.8225L70.4397 88.276Z" fill="#4A77BC"/>
<path d="M70.4397 88.276C70.4397 88.276 68.6147 81.2527 69.6547 80.4941C70.6948 79.7355 82.083 79.3032 82.7371 79.9558C83.005 80.2216 83.2108 80.5723 83.3327 80.9712C83.4547 81.3702 83.4885 81.8027 83.4304 82.2234C83.4304 83.0881 83.2604 88.8225 83.2604 88.8225L70.4397 88.276Z" stroke="#263238" stroke-linecap="round" stroke-linejoin="round"/>
<path d="M55.9637 142.749C55.9637 142.749 53.0594 149.275 50.2925 156.021C47.5256 162.766 45.0595 167.75 45.0595 167.75C45.0595 167.75 40.9124 158.778 38.4202 154.985C35.9281 151.192 29.9887 142.227 29.8513 141.191C29.7139 140.155 29.9887 141.191 29.7074 140.163C29.4261 139.135 31.5062 133.434 31.3689 131.884C31.2315 130.334 28.1898 127.919 25.9789 126.712C23.768 125.505 17.5408 121.712 14.9178 120.676C12.2948 119.64 11.4575 120.847 12.0135 121.883C12.5695 122.919 19.7517 133.956 21.6879 137.227C23.6241 140.498 32.4743 161.543 33.861 165.679C35.2478 169.814 42.8486 184.13 44.2288 184.815C45.609 185.5 47.4078 183.787 48.1012 183.437C48.7945 183.086 59.1623 172.017 62.3413 168.436C65.5203 164.855 67.3192 162.921 67.3192 162.921C67.3192 162.921 71.1915 175.337 74.9265 184.995C78.6616 194.653 80.5912 199.131 81.0098 203.96C81.4285 208.789 78.9363 216.195 80.7351 224.132C82.5339 232.069 85.8503 242.078 86.5371 244.656C87.224 247.233 87.0931 252.584 87.0931 252.584C87.0931 252.584 84.4767 256.206 83.7768 259.11C83.0769 262.014 87.5052 262.373 88.3556 262.373C89.2059 262.373 92.3653 265.823 93.8894 266.68C95.4135 267.536 97.8992 269.616 100.666 269.266C103.433 268.915 100.247 266.508 99.5541 265.13C98.8607 263.751 98.0365 260.994 96.1003 255.301C94.1642 249.607 93.4839 246.507 93.3334 245.129C93.183 243.75 91.2599 221.677 90.9851 212.37C90.7104 203.063 90.1544 202.712 90.1544 195.297C90.1544 187.882 88.192 172.881 86.282 162.187C84.372 151.493 81.9976 146.501 81.9976 146.501L55.9637 142.749Z" fill="white" stroke="#263238" stroke-linecap="round" stroke-linejoin="round"/>
<path d="M90.9296 212.435C90.6548 203.12 90.0988 202.777 90.0988 195.362C90.0988 187.948 88.1365 172.947 86.2265 162.253C84.3164 151.559 81.942 146.567 81.942 146.567L55.967 142.749C55.967 142.749 53.0627 149.275 50.2958 156.021C47.5289 162.767 45.0629 167.751 45.0629 167.751C45.0629 167.751 40.9157 158.778 38.4236 154.985C37.305 153.28 35.4866 150.523 33.812 147.921C31.8185 149.128 30.1202 150.978 28.8931 153.28C31.1825 158.721 33.2495 163.884 33.8644 165.679C35.2445 169.814 42.8519 184.13 44.2321 184.815C45.6123 185.5 47.4111 183.787 48.1045 183.437C48.7979 183.086 59.1656 172.017 62.3446 168.436C65.5237 164.855 67.3225 162.922 67.3225 162.922C67.3225 162.922 71.1949 175.337 74.9299 184.995C78.6649 194.653 80.5945 199.131 81.0131 203.96C81.4318 208.789 78.9396 216.196 80.7384 224.132C81.8177 228.896 83.4399 234.394 84.722 238.603C87.3909 238.734 90.0634 238.515 92.6957 237.951C92.0416 230.332 91.1324 218.61 90.9296 212.435Z" fill="#263238" stroke="#263238" stroke-linecap="round" stroke-linejoin="round"/>
<path d="M100.625 269.331C103.386 268.988 100.207 266.574 99.5133 265.195C98.8199 263.817 97.9957 261.06 96.0595 255.366C95.7848 254.55 95.5428 253.816 95.3139 253.115H95.0914C95.0914 253.115 92.1872 254.844 91.7751 255.701C91.5527 256.166 89.0147 254.958 86.4833 253.466C85.6656 254.722 84.2396 257.104 83.7556 259.175C83.0622 262.112 87.4841 262.438 88.3344 262.438C89.1848 262.438 92.3442 265.889 93.8683 266.745C95.3923 267.602 97.8584 269.682 100.625 269.331Z" stroke="#263238" stroke-linecap="round" stroke-linejoin="round"/>
<path d="M23.4673 133.287C23.4673 133.287 27.9742 135.807 30.1655 137.365C30.6888 135.326 31.4345 132.822 31.3494 131.876C31.2121 130.326 28.1704 127.911 25.9595 126.704C23.7486 125.497 17.5214 121.704 14.8984 120.668C12.2754 119.632 11.4381 120.839 11.9941 121.875C12.5501 122.911 18.4241 131.925 20.9817 136.085L23.4673 133.287Z" fill="white" stroke="#263238" stroke-linecap="round" stroke-linejoin="round"/>
<path d="M56.6535 139.323L54.9985 144.324C54.9985 144.324 62.0499 149.838 70.2068 151.567C78.3636 153.296 84.1722 152.595 84.3095 151.567C84.4469 150.539 84.1722 145.36 84.1722 145.36C84.1722 145.36 81.5557 146.909 70.0694 143.116C58.5831 139.323 56.6535 139.323 56.6535 139.323Z" fill="#455B8E"/>
<path d="M56.6535 139.323L54.9985 144.324C54.9985 144.324 62.0499 149.838 70.2068 151.567C78.3636 153.296 84.1722 152.595 84.3095 151.567C84.4469 150.539 84.1722 145.36 84.1722 145.36C84.1722 145.36 81.5557 146.909 70.0694 143.116C58.5831 139.323 56.6535 139.323 56.6535 139.323Z" fill="#4A77BC"/>
<path d="M56.6535 139.323L54.9985 144.324C54.9985 144.324 62.0499 149.838 70.2068 151.567C78.3636 153.296 84.1722 152.595 84.3095 151.567C84.4469 150.539 84.1722 145.36 84.1722 145.36C84.1722 145.36 81.5557 146.909 70.0694 143.116C58.5831 139.323 56.6535 139.323 56.6535 139.323Z" stroke="#263238" stroke-linecap="round" stroke-linejoin="round"/>
<path d="M58.7296 142.341L58.0493 145.498" stroke="#263238" stroke-linecap="round" stroke-linejoin="round"/>
<path d="M64.4755 144.69L63.8345 147.301" stroke="#263238" stroke-linecap="round" stroke-linejoin="round"/>
<path d="M73.4672 148.5L72.6626 150.498" stroke="#263238" stroke-linecap="round" stroke-linejoin="round"/>
<path d="M86.5634 89.7932C86.5634 89.7932 81.4482 85.576 76.5096 86.3346C71.571 87.0932 69.9161 87.5255 68.2677 92.4932C66.6193 97.4609 67.1426 113.473 66.5343 116.149C65.926 118.824 57.2589 132.61 56.2189 136.223C55.1788 139.837 54.9106 140.873 58.7307 142.382C62.5507 143.891 73.9912 148.761 78.9364 149.307C83.8815 149.854 84.915 147.79 85.0916 145.955C85.2682 144.119 83.875 143.573 85.1767 138.165C86.4783 132.757 89.5985 119.134 90.6385 115.325C91.6786 111.516 92.8102 107.984 92.6336 104.623C92.457 101.262 89.7751 95.8621 88.9051 94.2388C88.0351 92.6156 86.5634 89.7932 86.5634 89.7932Z" fill="#455B8E"/>
<path d="M86.5634 89.7932C86.5634 89.7932 81.4482 85.576 76.5096 86.3346C71.571 87.0932 69.9161 87.5255 68.2677 92.4932C66.6193 97.4609 67.1426 113.473 66.5343 116.149C65.926 118.824 57.2589 132.61 56.2189 136.223C55.1788 139.837 54.9106 140.873 58.7307 142.382C62.5507 143.891 73.9912 148.761 78.9364 149.307C83.8815 149.854 84.915 147.79 85.0916 145.955C85.2682 144.119 83.875 143.573 85.1767 138.165C86.4783 132.757 89.5985 119.134 90.6385 115.325C91.6786 111.516 92.8102 107.984 92.6336 104.623C92.457 101.262 89.7751 95.8621 88.9051 94.2388C88.0351 92.6156 86.5634 89.7932 86.5634 89.7932Z" fill="#4A77BC"/>
<path d="M86.5634 89.7932C86.5634 89.7932 81.4482 85.576 76.5096 86.3346C71.571 87.0932 69.9161 87.5255 68.2677 92.4932C66.6193 97.4609 67.1426 113.473 66.5343 116.149C65.926 118.824 57.2589 132.61 56.2189 136.223C55.1788 139.837 54.9106 140.873 58.7307 142.382C62.5507 143.891 73.9912 148.761 78.9364 149.307C83.8815 149.854 84.915 147.79 85.0916 145.955C85.2682 144.119 83.875 143.573 85.1767 138.165C86.4783 132.757 89.5985 119.134 90.6385 115.325C91.6786 111.516 92.8102 107.984 92.6336 104.623C92.457 101.262 89.7751 95.8621 88.9051 94.2388C88.0351 92.6156 86.5634 89.7932 86.5634 89.7932Z" stroke="#263238" stroke-linecap="round" stroke-linejoin="round"/>
<path d="M123.932 72.0596C123.932 72.0596 125.24 67.8424 125.842 67.0838C126.886 65.7893 127.711 64.2471 128.269 62.5484C128.701 60.811 128.877 59.6282 129.224 60.7049C129.571 61.7817 130.094 62.7605 129.571 64.9221L129.047 67.0838C129.047 67.0838 135.033 63.9514 136.243 63.0868C137.453 62.2221 138.238 61.8959 138.323 62.6545C138.408 63.4131 138.061 63.9514 136.936 64.9221C135.811 65.8928 133.011 67.7363 132.769 68.495C132.527 69.2536 134.077 69.5717 134.594 69.2454C135.111 68.9191 138.408 67.0838 138.931 66.8717C139.454 66.6596 140.488 66.6515 140.056 67.6303C139.624 68.6092 137.976 70.2243 136.498 70.9747C135.715 71.3597 134.962 71.832 134.248 72.3859C135.369 72.5665 136.502 72.6021 137.629 72.4919C139.016 72.2798 140.318 71.6273 140.246 72.1657C140.174 72.704 139.297 73.6829 137.564 74.4415C136.548 74.8854 135.501 75.2103 134.437 75.4122C134.437 75.4122 137.368 76.6765 138.244 76.6765C139.121 76.6765 139.108 77.4351 137.551 77.6472C135.73 77.8306 133.898 77.7951 132.082 77.5412C130.349 77.3291 127.922 78.9442 127.922 78.9442L123.932 72.0596Z" fill="white" stroke="#263238" stroke-linecap="round" stroke-linejoin="round"/>
<path d="M75.5576 102.445C75.5576 102.445 90.7266 105.039 94.9783 104.607C98.8642 104.086 102.648 102.731 106.164 100.601C108.074 99.3044 123.936 83.1942 124.806 81.8972C125.676 80.6002 128.966 79.1972 128.966 79.1972C128.966 79.1972 124.459 72.9244 123.936 72.0597L123.419 71.1951C123.419 71.1951 123.766 72.8265 117.264 78.7649C110.762 84.7032 105.987 88.6023 101.912 89.3691C97.5647 90.0651 93.1603 89.991 88.8296 89.1488C85.7945 88.3984 77.9909 84.8256 74.0858 87.8519C70.1807 90.8781 71.1423 95.5277 71.1423 95.5277" fill="#455B8E"/>
<path d="M75.5576 102.445C75.5576 102.445 90.7266 105.039 94.9783 104.607C98.8642 104.086 102.648 102.731 106.164 100.601C108.074 99.3044 123.936 83.1942 124.806 81.8972C125.676 80.6002 128.966 79.1972 128.966 79.1972C128.966 79.1972 124.459 72.9244 123.936 72.0597L123.419 71.1951C123.419 71.1951 123.766 72.8265 117.264 78.7649C110.762 84.7032 105.987 88.6023 101.912 89.3691C97.5647 90.0651 93.1603 89.991 88.8296 89.1488C85.7945 88.3984 77.9909 84.8256 74.0858 87.8519C70.1807 90.8781 71.1423 95.5277 71.1423 95.5277" fill="#4A77BC"/>
<path d="M75.5576 102.445C75.5576 102.445 90.7266 105.039 94.9783 104.607C98.8642 104.086 102.648 102.731 106.164 100.601C108.074 99.3044 123.936 83.1942 124.806 81.8972C125.676 80.6002 128.966 79.1972 128.966 79.1972C128.966 79.1972 124.459 72.9244 123.936 72.0597L123.419 71.1951C123.419 71.1951 123.766 72.8265 117.264 78.7649C110.762 84.7032 105.987 88.6023 101.912 89.3691C97.5647 90.0651 93.1603 89.991 88.8296 89.1488C85.7945 88.3984 77.9909 84.8256 74.0858 87.8519C70.1807 90.8781 71.1423 95.5277 71.1423 95.5277" stroke="#263238" stroke-linecap="round" stroke-linejoin="round"/>
<path d="M120.729 76.2769L123.849 81.1385" stroke="#263238" stroke-linecap="round" stroke-linejoin="round"/>
<path d="M122.202 78.5446L124.89 75.5183" stroke="#263238" stroke-linecap="round" stroke-linejoin="round"/>
<path d="M125.151 77.794L126.538 76.603" stroke="#263238" stroke-linecap="round" stroke-linejoin="round"/>
<path d="M73.2255 108.865C72.5675 109.15 71.897 109.39 71.2174 109.582" stroke="#263238" stroke-linecap="round" stroke-linejoin="round"/>
<path d="M82.0571 103.521C79.7437 105.242 77.3398 106.765 74.8618 108.081" stroke="#263238" stroke-linecap="round" stroke-linejoin="round"/>
<path d="M83.1822 104.068C83.1822 104.068 77.027 112.282 73.4751 115.423" stroke="#263238" stroke-linecap="round" stroke-linejoin="round"/>
<path d="M72.1731 116.288C72.1731 116.288 69.3997 118.735 68.2484 119.55" stroke="#263238" stroke-linecap="round" stroke-linejoin="round"/>
</svg>
