<svg width="65" height="100" viewBox="0 0 65 100" fill="none" xmlns="http://www.w3.org/2000/svg">
<path fill-rule="evenodd" clip-rule="evenodd" d="M29.8932 0.105212C29.8638 0.177598 29.844 0.473163 29.8295 1.05212C29.5573 11.9127 27.2023 20.6332 22.5253 28.0997C20.7587 30.9199 18.6159 33.6618 15.6823 36.856C15.0692 37.5236 14.9473 37.6534 12.8233 39.9013C9.042 43.9031 7.70864 45.4952 6.04395 47.9961C2.51336 53.3003 0.511983 58.8826 0.0522273 64.7088C-0.0174844 65.5922 -0.0173875 68.7254 0.0523888 69.6065C0.508273 75.3626 2.45281 80.9253 5.76001 85.934C8.82361 90.5738 12.8744 94.4303 17.3904 97.0064C19.8395 98.4035 22.654 99.4691 25.1003 99.9254C25.5227 100.004 26.3881 100.006 26.5553 99.9277C26.7112 99.8551 26.8664 99.6718 26.8932 99.5285C26.9855 99.0345 26.6594 98.2734 25.3196 95.8563C24.3147 94.0433 23.8731 93.2094 23.3395 92.1172C21.1749 87.6871 20.0049 83.6813 19.5619 79.1842C19.4832 78.3857 19.4837 76.3938 19.5629 75.5746C20.0075 70.9711 21.6924 66.6053 25.1102 61.201C26.5764 58.8826 28.1819 56.6389 31.5901 52.1456C35.9046 46.4574 37.58 44.0381 39.1963 41.1622C39.5579 40.5187 40.324 38.9985 40.5667 38.4429C41.5066 36.2907 42.0482 34.403 42.2764 32.4845C42.4198 31.2791 42.3947 29.1094 42.212 26.9181C41.5943 19.5105 39.118 11.9793 35.3249 5.97281C33.8698 3.6686 32.1556 1.61279 30.6296 0.341793C30.2457 0.0220136 30.2102 0 30.0776 0C29.9479 0 29.9322 0.0089673 29.8932 0.105212ZM51.2448 40.2867C51.192 40.3396 51.1656 40.4025 51.1656 40.4752C51.1656 40.6327 51.0487 41.2621 50.9365 41.7085C50.2755 44.3402 48.4231 48.3191 45.8329 52.6708C44.707 54.5625 43.6755 56.1608 42.1996 58.3005C40.5183 60.7379 39.2228 62.8352 37.9882 65.1182C37.5613 65.9076 36.596 67.8791 36.2367 68.6954C34.4567 72.7394 33.4726 76.456 33.2279 80.0583C33.1752 80.8354 33.184 82.5743 33.2445 83.3118C33.6206 87.8966 35.1828 91.7676 38.3135 95.8725C39.1457 96.9635 40.9475 99.1045 41.5078 99.6682L41.8377 100H42.0277C42.2645 100 42.2734 99.9913 42.701 99.3373C43.1422 98.6627 43.4546 98.2762 43.9838 97.7501C45.0003 96.7394 46.0788 96.0039 47.8913 95.0854C50.2173 93.9066 53.3611 91.4714 55.5595 89.1455C58.6016 85.9271 60.7114 82.6767 62.2355 78.8605C63.7065 75.1771 64.4295 71.2576 64.433 66.9472C64.4346 64.9549 64.3125 63.4164 64.0014 61.5086C63.0994 55.9762 60.7825 50.7273 57.1631 46.0164C55.5833 43.9603 53.4835 41.7707 51.7369 40.3582C51.5143 40.1782 51.3732 40.1577 51.2448 40.2867Z" fill="#9DA3AE"/>
</svg>
