<svg width="100" height="100" viewBox="0 0 100 100" fill="none" xmlns="http://www.w3.org/2000/svg">
<path fill-rule="evenodd" clip-rule="evenodd" d="M43.73 0.320471C26.6889 2.63433 12.1546 13.0327 4.8324 28.1492C1.25226 35.5406 0 41.2007 0 49.9908C0 56.9221 0.505378 60.2986 2.38512 65.915C6.86777 79.311 17.5934 90.8023 30.6125 96.1579C49.8285 104.063 71.68 99.5416 86.0042 84.6974C92.9717 77.4767 96.9977 69.9432 99.258 59.8974C100.247 55.5002 100.247 44.4813 99.258 40.0841C96.9011 29.6077 92.8406 22.2092 85.3534 14.7466C79.2634 8.67686 73.4672 5.0369 65.8682 2.50908C59.4893 0.387332 50.0843 -0.542492 43.73 0.320471ZM55.9266 33.9551C60.2281 35.2281 62.2903 37.8246 62.2903 41.9673C62.2903 44.8839 61.5318 46.571 59.504 48.1636C58.6994 48.7953 58.2924 49.3146 58.5993 49.3172C59.5264 49.3253 62.8332 52.5676 63.4768 54.0996C64.9451 57.5952 63.5564 62.2924 60.449 64.342C57.6721 66.1735 54.4162 66.6915 45.6307 66.6991L37.6923 66.7062V64.7003V62.6945H39.7048H41.7174V49.9908V37.287H39.7048H37.6923V35.2812V33.2753H45.6611C51.5003 33.2753 54.2441 33.4572 55.9266 33.9551ZM30.9837 40.6301V47.5392H33.2199H35.4561V49.3221V51.1051H33.2199H30.9837V56.3649C30.9837 59.8613 31.1635 61.8039 31.5204 62.1596C31.8156 62.4538 32.8218 62.6945 33.7566 62.6945H35.4561V64.7623V66.8301L32.7565 66.5858C27.5252 66.1134 26.5113 64.4703 26.5113 56.4683V51.1051H24.7224H22.9334V49.3221V47.5392H24.7224H26.5113L26.5279 42.0788L26.5449 36.6184L28.4286 35.1769C29.4649 34.3839 30.464 33.7322 30.6483 33.7282C30.8325 33.7242 30.9837 36.8301 30.9837 40.6301ZM83.3104 40.6301V47.5392H85.5466H87.7828V49.3221V51.1051H85.5466H83.3104V56.3649C83.3104 59.8613 83.4902 61.8039 83.8471 62.1596C84.1423 62.4538 85.1486 62.6945 86.0833 62.6945H87.7828V64.7003V66.7062L85.8821 66.6812C83.0126 66.6429 81.0054 65.775 79.86 64.0772C78.9275 62.6954 78.8381 62.0615 78.8381 56.8338V51.1051H77.0491H75.2602V49.3221V47.5392H77.0491H78.8381V42.0471V36.5547L80.7388 35.1555C81.7845 34.3861 82.7908 33.7482 82.975 33.7389C83.1593 33.7291 83.3104 36.8301 83.3104 40.6301ZM19.5537 36.9407C21.0188 39.025 19.8578 41.2987 17.3282 41.2987C15.5898 41.2987 14.7342 40.3876 14.7342 38.5373C14.7342 36.0501 18.1359 34.9228 19.5537 36.9407ZM72.1157 37.3985C72.7306 38.499 72.7306 38.7495 72.1157 39.85C71.1706 41.5412 68.5194 41.8167 67.476 40.3323C66.5162 38.9666 66.578 37.9169 67.6835 36.815C69.0029 35.5 71.218 35.7915 72.1157 37.3985ZM46.637 42.459V47.6305L50.4059 47.4736C54.7919 47.2904 56.3626 46.4515 57.2473 43.819C57.6793 42.5343 57.6793 41.8372 57.2473 40.5187C56.4749 38.1602 54.5477 37.2888 50.1031 37.2879L46.637 37.287V42.459ZM20.25 55.1168V62.6945H22.039H23.8279V64.7003V66.7062H18.0138H12.1997V64.7003V62.6945H13.9887H15.7776V56.8998V51.1051H13.9887H12.1997V49.3221V47.5392H16.2249H20.25V55.1168ZM72.5768 55.1168V62.6945H74.3657H76.1547V64.7003V66.7062H70.3406H64.5265V64.7003V62.6945H66.3154H68.1044V56.8998V51.1051H66.3154H64.5265V49.3221V47.5392H68.5516H72.5768V55.1168ZM46.637 56.8468V62.6945H50.4296C55.1895 62.6945 57.47 61.8739 58.4544 59.8065C59.3551 57.9143 59.3475 56.315 58.4284 54.3845C57.3653 52.1517 55.5996 51.4149 50.7739 51.1907L46.637 50.9986V56.8468Z" fill="#9DA3AE"/>
</svg>
