<svg width="129" height="100" viewBox="0 0 129 100" fill="none" xmlns="http://www.w3.org/2000/svg">
<path fill-rule="evenodd" clip-rule="evenodd" d="M55.804 0.496301C31.9324 3.44014 10.6307 20.8952 3.17513 43.6218C0.227202 52.6068 0 54.8744 0 75.2856C0 93.6119 0.0381516 94.2663 1.19124 95.8031C3.48946 98.8661 5.91693 100.044 9.43258 99.8015C13.1657 99.544 15.6536 98.037 17.0128 95.2095C17.7941 93.5838 17.9376 90.9497 17.9404 78.194C17.9421 69.7257 18.1966 62.2005 18.5207 61.0487C19.2564 58.4354 22.8102 55.228 25.5292 54.7243C29.9724 53.9019 34.9299 56.9036 36.1684 61.1668C36.4764 62.2269 36.7281 69.8875 36.7281 78.1901C36.7281 95.1212 36.9052 96.0426 40.6429 98.5496C44.6882 101.263 50.2708 100.069 53.4739 95.8054C54.603 94.3028 54.6799 93.3483 54.9498 77.5364C55.2681 58.8812 55.3592 58.4309 59.3088 56.0211C63.325 53.5714 68.8205 54.663 71.5606 58.4557C72.8595 60.2533 72.8925 60.6305 73.1715 76.8736C73.4363 92.305 73.5377 93.5928 74.6258 95.422C78.0435 101.165 86.3276 101.538 90.0534 96.1162C91.0043 94.7323 91.1364 92.9351 91.3932 77.9551L91.6779 61.3298L93.1932 59.0712C97.1666 53.1481 106.141 53.8052 109.1 60.2353C110.049 62.2995 110.16 64.1359 110.172 77.8798C110.183 92.0155 110.273 93.3905 111.306 95.3894C113.017 98.7003 115.75 100.106 119.903 99.8094C122.822 99.6008 123.573 99.3001 125.295 97.6519C126.397 96.5985 127.573 94.8273 127.91 93.7159C128.32 92.3657 128.432 85.555 128.247 73.1827C127.949 53.2397 127.548 50.0418 124.264 41.4526C113.652 13.6949 85.4746 -3.16199 55.804 0.496301Z" fill="#9DA3AE"/>
</svg>
