<svg width="782" height="261" viewBox="0 0 782 261" fill="none" xmlns="http://www.w3.org/2000/svg">
<path d="M125.865 60.1208V86.9387H28V60.1208H125.865ZM54.2452 19H89.1221V181.36C89.1221 187.841 90.133 192.721 92.1549 195.998C94.1767 199.202 96.7818 201.399 99.9701 202.591C103.236 203.708 106.774 204.267 110.585 204.267C113.384 204.267 115.834 204.081 117.933 203.708C120.033 203.336 121.666 203.038 122.833 202.814L129.131 230.415C127.11 231.16 124.232 231.904 120.5 232.649C116.767 233.469 112.101 233.916 106.502 233.99C97.3262 234.139 88.7722 232.575 80.8403 229.297C72.9084 226.019 66.4929 220.954 61.5938 214.1C56.6947 207.247 54.2452 198.643 54.2452 188.288V19Z" fill="black"/>
<path d="M164.446 231.755V60.1208H198.156V87.3857H200.023C203.289 78.1484 209.043 70.8852 217.286 65.5961C225.607 60.2325 235.016 57.5507 245.514 57.5507C247.692 57.5507 250.258 57.6252 253.213 57.7742C256.246 57.9232 258.617 58.1095 260.328 58.3329V90.291C258.928 89.9185 256.44 89.5088 252.863 89.0618C249.286 88.5403 245.709 88.2796 242.132 88.2796C233.889 88.2796 226.54 89.9557 220.086 93.308C213.709 96.5857 208.654 101.167 204.922 107.052C201.189 112.863 199.323 119.493 199.323 126.942V231.755H164.446Z" fill="black"/>
<path d="M404.006 160.576V60.1208H438.999V231.755H404.706V202.032H402.839C398.718 211.195 392.108 218.831 383.01 224.939C373.989 230.973 362.752 233.99 349.299 233.99C337.79 233.99 327.603 231.569 318.738 226.727C309.951 221.81 303.03 214.547 297.975 204.938C292.999 195.328 290.51 183.446 290.51 169.292V60.1208H325.387V165.269C325.387 176.965 328.77 186.277 335.535 193.205C342.301 200.133 351.088 203.597 361.897 203.597C368.429 203.597 374.922 202.032 381.377 198.904C387.909 195.775 393.313 191.044 397.59 184.712C401.945 178.38 404.084 170.335 404.006 160.576Z" fill="black"/>
<path d="M482.129 231.755V208.848L579.178 90.7379V89.1735H485.278V60.1208H622.687V84.4804L529.37 201.138V202.703H625.953V231.755H482.129Z" fill="black"/>
<path d="M750.734 60.1208V86.9387H652.869V60.1208H750.734ZM679.114 19H713.991V181.36C713.991 187.841 715.002 192.721 717.023 195.998C719.045 199.202 721.65 201.399 724.839 202.591C728.105 203.708 731.643 204.267 735.453 204.267C738.253 204.267 740.702 204.081 742.802 203.708C744.902 203.336 746.535 203.038 747.701 202.814L754 230.415C751.978 231.16 749.101 231.904 745.368 232.649C741.636 233.469 736.97 233.916 731.371 233.99C722.195 234.139 713.641 232.575 705.709 229.297C697.777 226.019 691.362 220.954 686.462 214.1C681.563 207.247 679.114 198.643 679.114 188.288V19Z" fill="black"/>
</svg>
