<svg width="50" height="59" viewBox="0 0 50 59" fill="none" xmlns="http://www.w3.org/2000/svg">
<path opacity="0.6" d="M0.16 56H-0.84V57H0.16V56ZM30.16 56V57H31.16V56H30.16ZM30.16 45.76H31.16V44.76H30.16V45.76ZM21.36 45.76H20.36V46.76H21.36V45.76ZM21.36 -3.8147e-06H22.36V-1.42159L21.0221 -0.941169L21.36 -3.8147e-06ZM0.64 7.44L0.302053 6.49883L-0.36 6.73656V7.44H0.64ZM0.64 18.32H-0.36V19.6802L0.938275 19.2745L0.64 18.32ZM9.6 15.52H10.6V14.1598L9.30173 14.5655L9.6 15.52ZM9.6 45.76V46.76H10.6V45.76H9.6ZM0.16 45.76V44.76H-0.84V45.76H0.16ZM0.16 57H30.16V55H0.16V57ZM31.16 56V45.76H29.16V56H31.16ZM30.16 44.76H21.36V46.76H30.16V44.76ZM22.36 45.76V-3.8147e-06H20.36V45.76H22.36ZM21.0221 -0.941169L0.302053 6.49883L0.977947 8.38116L21.6979 0.941161L21.0221 -0.941169ZM-0.36 7.44V18.32H1.64V7.44H-0.36ZM0.938275 19.2745L9.89828 16.4745L9.30173 14.5655L0.341725 17.3655L0.938275 19.2745ZM8.6 15.52V45.76H10.6V15.52H8.6ZM9.6 44.76H0.16V46.76H9.6V44.76ZM-0.84 45.76V56H1.16V45.76H-0.84ZM35.25 50.16C35.25 52.5957 36.185 54.4937 37.6402 55.7714C39.076 57.0322 40.9602 57.64 42.81 57.64C44.6598 57.64 46.544 57.0322 47.9798 55.7714C49.435 54.4937 50.37 52.5957 50.37 50.16H48.37C48.37 52.0443 47.665 53.3863 46.6602 54.2686C45.636 55.1678 44.2402 55.64 42.81 55.64C41.3798 55.64 39.984 55.1678 38.9598 54.2686C37.955 53.3863 37.25 52.0443 37.25 50.16H35.25ZM50.37 50.16C50.37 47.7243 49.435 45.8263 47.9798 44.5486C46.544 43.2878 44.6598 42.68 42.81 42.68C40.9602 42.68 39.076 43.2878 37.6402 44.5486C36.185 45.8263 35.25 47.7243 35.25 50.16H37.25C37.25 48.2757 37.955 46.9337 38.9598 46.0514C39.984 45.1522 41.3798 44.68 42.81 44.68C44.2402 44.68 45.636 45.1522 46.6602 46.0514C47.665 46.9337 48.37 48.2757 48.37 50.16H50.37Z" fill="#0F4BA6"/>
</svg>
