<svg width="160" height="101" viewBox="0 0 160 101" fill="none" xmlns="http://www.w3.org/2000/svg">
<path d="M83.0262 15.9585C83.1603 15.2224 83.222 14.4693 83.4284 13.75C84.0321 11.6465 84.7583 10.2929 86.1671 8.56078C88.0677 6.22409 90.4626 4.43362 93.3945 3.64178C97.2766 2.59328 101.135 4.44839 104.158 6.77802C105.534 7.83889 106.638 9.12164 107.456 10.6617C108.369 12.379 109.077 14.341 109.062 16.3093C109.048 18.2875 108.299 20.2554 107.467 22.0187C106.46 24.1542 105.076 26.2067 103.214 27.69C100.63 29.7474 97.4353 30.2386 94.3981 31.2635C93.2393 31.6545 92.0132 32.0925 91.0335 32.85C90.0513 33.6095 89.2556 34.7491 88.7289 35.8649C88.1702 37.0483 87.7036 38.4565 87.6274 39.7709C87.6195 39.908 87.4931 40.3337 87.6728 40.4002" stroke="#EBEAFF" stroke-width="2" stroke-linecap="round" stroke-linejoin="round"/>
<path d="M86.9993 47.9167C86.1925 47.5706 85.3745 47.3306 84.589 47.8018C84.2706 47.9928 84.0399 48.3875 83.8934 48.7139C83.6272 49.3072 83.5597 49.8905 83.8132 50.5172C84.0835 51.1857 84.5413 52.0171 85.2156 52.3964C86.8489 53.3151 88.5424 51.4604 88.6358 50.0001C88.6786 49.3312 88.2764 48.6417 87.7519 48.2044C87.6103 48.0864 87.2283 47.7389 87.0347 47.8212" stroke="#EBEAFF" stroke-width="2" stroke-linecap="round" stroke-linejoin="round"/>
<path d="M3.62921 37.8196C3.38576 37.2802 3.08763 36.7624 2.89887 36.2015C2.34679 34.5613 2.21141 33.3541 2.35022 31.594C2.53747 29.2194 3.29186 26.9783 4.84426 25.1459C6.89985 22.7196 10.2446 22.1935 13.258 22.3522C14.6302 22.4244 15.925 22.7632 17.1495 23.3979C18.5149 24.1056 19.8569 25.0645 20.7316 26.352C21.6108 27.6461 22.0074 29.2632 22.2584 30.7843C22.5624 32.6265 22.5835 34.5841 22.0376 36.3863C21.2804 38.8858 19.4218 40.6406 17.9055 42.672C17.327 43.447 16.7257 44.2829 16.4285 45.2159C16.1304 46.1514 16.1245 47.2505 16.2829 48.2133C16.4509 49.2345 16.7798 50.3606 17.3206 51.2502C17.3771 51.3431 17.486 51.6769 17.6329 51.6395" stroke="#EBEAFF" stroke-width="2" stroke-linecap="round" stroke-linejoin="round"/>
<path d="M20.5715 56.8337C19.891 56.9708 19.2508 57.1821 18.9512 57.8416C18.8298 58.109 18.857 58.4695 18.9083 58.7477C19.0015 59.2535 19.2197 59.6634 19.6662 59.9574C20.1424 60.2711 20.8137 60.6065 21.423 60.5504C22.8987 60.4146 23.1677 58.4468 22.5725 57.4545C22.2999 56.9999 21.7284 56.7319 21.1906 56.6829C21.0455 56.6697 20.6408 56.6151 20.5517 56.7557" stroke="#EBEAFF" stroke-width="2" stroke-linecap="round" stroke-linejoin="round"/>
<path d="M135.628 71.2805C135.933 70.7736 136.189 70.2339 136.543 69.7597C137.579 68.3729 138.495 67.575 140.021 66.6884C142.081 65.4922 144.354 64.8383 146.744 65.0734C149.908 65.3846 152.243 67.8369 153.826 70.4058C154.547 71.5757 155.005 72.8335 155.179 74.2016C155.373 75.7272 155.347 77.3764 154.786 78.8281C154.221 80.2871 153.116 81.5329 152.008 82.6043C150.665 83.9019 149.067 85.0324 147.274 85.6081C144.787 86.4066 142.287 85.8755 139.754 85.7833C138.787 85.7482 137.758 85.7289 136.821 86.0149C135.882 86.3016 134.975 86.9218 134.273 87.5995C133.528 88.3184 132.789 89.2293 132.365 90.1801C132.321 90.2793 132.108 90.5587 132.222 90.6583" stroke="#EBEAFF" stroke-width="2" stroke-linecap="round" stroke-linejoin="round"/>
<path d="M129.621 96.0292C129.121 95.5474 128.584 95.1409 127.871 95.2696C127.582 95.3217 127.301 95.5491 127.101 95.7495C126.738 96.1137 126.525 96.5263 126.537 97.0608C126.55 97.6309 126.655 98.3738 127.048 98.8431C127.999 99.9798 129.77 99.0821 130.248 98.0282C130.467 97.5455 130.363 96.923 130.097 96.4527C130.026 96.3259 129.84 95.9619 129.674 95.9686" stroke="#EBEAFF" stroke-width="2" stroke-linecap="round" stroke-linejoin="round"/>
</svg>
