<svg aria-hidden="true" style="position: absolute; width: 0; height: 0; overflow: hidden;" version="1.1" xmlns="http://www.w3.org/2000/svg" xmlns:xlink="http://www.w3.org/1999/xlink">
<defs>
<symbol id="icon-select-arrow" viewBox="0 0 53 32">
<path d="M0 2.667l26.667 26.667 26.667-26.667h-53.333z"></path>
</symbol>
<symbol id="icon-insurance-block-up" viewBox="0 0 42 32">
<path stroke-linejoin="miter" stroke-linecap="round" stroke-miterlimit="4" stroke-width="1.7778" d="M18.053-20.856c10.81 5.235 14.664 15.593 12.511 26.913s-17.677 22.739-31.699 14.756"></path>
<path stroke-linejoin="miter" stroke-linecap="round" stroke-miterlimit="4" stroke-width="1.7778" d="M9.027-14.342c6.486 3.141 8.798 9.356 7.507 16.148s-10.606 13.643-19.019 8.854"></path>
</symbol>
<symbol id="icon-insurence-block-down" viewBox="0 0 29 32">
<path stroke-linejoin="miter" stroke-linecap="round" stroke-miterlimit="4" stroke-width="1.4884" d="M27.287 1.927c-9.498-3.3-17.912 0.55-23.339 8.526s-2.996 23.926 10.030 27.501"></path>
<path stroke-linejoin="miter" stroke-linecap="round" stroke-miterlimit="4" stroke-width="1.4884" d="M28.775 11.128c-5.699-1.98-10.747 0.33-14.003 5.115s-1.798 14.356 6.018 16.501"></path>
</symbol>
<symbol id="icon-footer-form2" viewBox="0 0 54 32">
<path d="M2.111 17.133c-0.047-0.029-0.076-0.086-0.080-0.141 0.004-0.089 0.075-0.161 0.169-0.167l0.882 0.018c0.089 0.003 0.161 0.074 0.167 0.169-0.004 0.089-0.075 0.161-0.169 0.167l-0.882-0.018c-0.024-0.002-0.058-0.010-0.086-0.028z"></path>
<path d="M0.14 17.099c-0.047-0.029-0.076-0.086-0.080-0.141 0.004-0.089 0.075-0.161 0.169-0.167l0.882 0.018c0.089 0.003 0.161 0.074 0.167 0.169-0.004 0.089-0.075 0.161-0.169 0.167l-0.882-0.018c-0.034-0.008-0.058-0.010-0.086-0.028z"></path>
<path d="M1.636 16.526c-0.047-0.029-0.076-0.086-0.080-0.141l0.020-0.883c0.004-0.089 0.075-0.161 0.169-0.167 0.089 0.003 0.161 0.074 0.167 0.169l-0.020 0.883c-0.004 0.089-0.075 0.161-0.169 0.167-0.034-0.008-0.068-0.016-0.086-0.028z"></path>
<path d="M1.595 18.5c-0.047-0.029-0.076-0.086-0.080-0.141l0.014-0.77c0.004-0.089 0.075-0.161 0.169-0.167 0.089 0.003 0.161 0.074 0.167 0.169l-0.014 0.77c-0.004 0.089-0.075 0.161-0.169 0.167-0.034-0.008-0.058-0.010-0.086-0.028z"></path>
<path d="M49.888 10.379c-0.068-0.042-0.11-0.125-0.117-0.205 0.005-0.129 0.108-0.234 0.246-0.243l1.283 0.026c0.129 0.005 0.234 0.108 0.242 0.246-0.005 0.129-0.108 0.234-0.246 0.243l-1.283-0.026c-0.036-0.003-0.085-0.015-0.125-0.040z"></path>
<path d="M47.018 10.329c-0.068-0.042-0.11-0.125-0.117-0.205 0.005-0.129 0.109-0.234 0.246-0.243l1.283 0.026c0.129 0.005 0.234 0.108 0.242 0.246-0.005 0.129-0.108 0.234-0.246 0.243l-1.284-0.026c-0.049-0.012-0.085-0.015-0.125-0.040z"></path>
<path d="M49.196 9.495c-0.068-0.042-0.11-0.125-0.117-0.205l0.029-1.285c0.005-0.129 0.108-0.234 0.246-0.243 0.129 0.005 0.234 0.108 0.242 0.246l-0.029 1.285c-0.005 0.129-0.108 0.234-0.246 0.243-0.049-0.012-0.099-0.024-0.125-0.040z"></path>
<path d="M49.135 12.368c-0.068-0.042-0.11-0.125-0.117-0.205l0.021-1.12c0.005-0.129 0.108-0.234 0.246-0.243 0.129 0.005 0.234 0.108 0.242 0.246l-0.021 1.12c-0.005 0.129-0.108 0.234-0.246 0.243-0.049-0.012-0.085-0.015-0.125-0.041z"></path>
<path d="M44.704 29.228c-0.018-0.012-0.028-0.017-0.041-0.038l-0.866-1.060c-0.035-0.048-0.049-0.108-0.023-0.17 0.020-0.053 0.074-0.097 0.138-0.096l1.384-0.123c0.055-0.005 0.117 0.021 0.142 0.063 0.035 0.048 0.040 0.103 0.020 0.155-0.236 0.606-0.524 1.193-0.524 1.193-0.020 0.053-0.077 0.082-0.132 0.087-0.027 0.022-0.060 0.014-0.098-0.009zM44.252 28.167l0.499 0.611c0.081-0.171 0.192-0.412 0.298-0.685l-0.797 0.074z"></path>
<path d="M44.13 26.844c-0.037-0.023-0.059-0.050-0.070-0.096-0.419-1.612-0.959-3.196-1.592-4.734-3.736-8.956-11.048-16.039-20.587-19.967-0.080-0.037-0.126-0.13-0.088-0.211s0.131-0.126 0.211-0.089c9.626 3.955 17 11.104 20.763 20.142 0.651 1.55 1.189 3.158 1.611 4.785 0.021 0.091-0.032 0.175-0.113 0.202-0.055 0.005-0.098-0.009-0.135-0.032z"></path>
<path d="M49.088 31.85c-0.038-0.023-0.063-0.065-0.074-0.111-0.468-3.215-1.652-6.941-3.619-11.364-0.333-0.753-0.696-1.5-1.077-2.218-0.042-0.078-0.017-0.18 0.076-0.225 0.078-0.042 0.179-0.018 0.225 0.075 0.384 0.733 0.747 1.48 1.089 2.239 1.983 4.459 3.18 8.207 3.655 11.452 0.011 0.085-0.047 0.179-0.141 0.185-0.064-0.001-0.107-0.015-0.135-0.032z"></path>
<path d="M48.802 22.093c-0.039-0.019-0.070-0.058-0.085-0.102-0.819-3.143-2.407-6.717-4.849-10.896-0.414-0.712-0.857-1.414-1.314-2.086-0.050-0.073-0.037-0.177 0.050-0.232 0.073-0.051 0.177-0.038 0.232 0.050 0.462 0.687 0.906 1.388 1.329 2.105 2.463 4.213 4.065 7.806 4.894 10.979 0.021 0.083-0.026 0.183-0.12 0.199-0.064 0.006-0.108-0.003-0.138-0.017z"></path>
<path d="M41.847 14.484c-0.018-0.012-0.037-0.023-0.050-0.044-3.29-4.833-7.658-8.832-12.987-11.872-0.075-0.047-0.105-0.143-0.067-0.224 0.047-0.075 0.143-0.105 0.224-0.068 5.369 3.078 9.774 7.1 13.091 11.976 0.057 0.075 0.032 0.176-0.042 0.234-0.047 0.035-0.112 0.034-0.168-0.001z"></path>
<path d="M26.129 2.362c-0.102-0.064-0.184-0.141-0.269-0.233-0.177-0.214-0.258-0.499-0.227-0.778 0.066-0.583 0.59-1.008 1.172-0.944s1.005 0.588 0.94 1.171c-0.032 0.279-0.17 0.543-0.394 0.715-0.215 0.178-0.499 0.26-0.777 0.229-0.156-0.020-0.304-0.073-0.444-0.16zM26.769 0.734c-0.196-0.018-0.383 0.033-0.538 0.158s-0.251 0.298-0.27 0.494c-0.019 0.196 0.032 0.384 0.156 0.539s0.297 0.25 0.493 0.269c0.196 0.018 0.383-0.033 0.538-0.158s0.251-0.298 0.269-0.494c0.043-0.402-0.248-0.765-0.649-0.807z"></path>
<path d="M16.985 6.374c-0.2-0.125-0.36-0.275-0.526-0.455-0.346-0.419-0.505-0.975-0.443-1.52 0.128-1.138 1.153-1.97 2.289-1.845s1.964 1.15 1.836 2.288c-0.062 0.545-0.333 1.061-0.77 1.397-0.419 0.347-0.975 0.508-1.519 0.448-0.305-0.038-0.594-0.142-0.867-0.313zM18.235 3.195c-0.382-0.036-0.749 0.065-1.052 0.308s-0.49 0.582-0.526 0.966c-0.037 0.383 0.063 0.75 0.304 1.053s0.58 0.489 0.963 0.525c0.382 0.036 0.749-0.065 1.052-0.308s0.49-0.582 0.526-0.966c0.085-0.785-0.484-1.495-1.267-1.577z"></path>
</symbol>
<symbol id="icon-footer-form3" viewBox="0 0 36 32">
<path d="M31.442 6.133c-0.134-0.084-0.218-0.248-0.231-0.406 0.010-0.255 0.215-0.464 0.486-0.481l2.538 0.052c0.255 0.010 0.463 0.214 0.479 0.486-0.010 0.255-0.215 0.464-0.486 0.481l-2.538-0.052c-0.070-0.007-0.168-0.030-0.248-0.080z"></path>
<path d="M25.768 6.035c-0.134-0.084-0.218-0.248-0.231-0.406 0.010-0.255 0.215-0.464 0.486-0.481l2.538 0.052c0.255 0.010 0.463 0.214 0.479 0.486-0.010 0.255-0.215 0.464-0.486 0.481l-2.538-0.052c-0.097-0.023-0.168-0.030-0.248-0.080z"></path>
<path d="M30.074 4.385c-0.134-0.084-0.218-0.248-0.231-0.406l0.058-2.541c0.010-0.255 0.215-0.464 0.486-0.481 0.255 0.010 0.463 0.214 0.479 0.486l-0.058 2.541c-0.010 0.255-0.215 0.464-0.486 0.481-0.097-0.023-0.194-0.047-0.248-0.080z"></path>
<path d="M29.955 10.065c-0.134-0.084-0.218-0.248-0.231-0.406l0.041-2.215c0.010-0.255 0.215-0.464 0.486-0.481 0.255 0.010 0.463 0.214 0.479 0.486l-0.041 2.215c-0.010 0.255-0.215 0.464-0.486 0.481-0.097-0.023-0.168-0.030-0.248-0.080z"></path>
<path d="M14.732 30.591c-0.214-0.134-0.321-0.2-0.468-0.442l-9.954-12.182c-0.401-0.549-0.562-1.246-0.267-1.957 0.228-0.604 0.844-1.115 1.581-1.103l15.906-1.415c0.629-0.055 1.339 0.239 1.633 0.721 0.401 0.549 0.454 1.179 0.226 1.783-2.708 6.965-6.019 13.704-6.019 13.704-0.228 0.604-0.884 0.941-1.513 0.995-0.308 0.255-0.696 0.162-1.125-0.105zM9.544 18.4l5.739 7.014c0.925-1.96 2.212-4.738 3.418-7.865l-9.158 0.851z"></path>
</symbol>
<symbol id="icon-footer-form1" viewBox="0 0 47 32">
<path d="M21.26 26.497c-0.134-0.084-0.218-0.248-0.231-0.406 0.010-0.255 0.215-0.464 0.486-0.481l2.538 0.052c0.255 0.010 0.463 0.214 0.479 0.486-0.010 0.255-0.215 0.464-0.486 0.481l-2.538-0.052c-0.070-0.007-0.168-0.030-0.248-0.080z"></path>
<path d="M15.587 26.399c-0.134-0.084-0.218-0.248-0.231-0.406 0.010-0.255 0.215-0.464 0.486-0.481l2.538 0.052c0.255 0.010 0.463 0.214 0.479 0.486-0.010 0.255-0.215 0.464-0.486 0.481l-2.538-0.052c-0.097-0.023-0.168-0.030-0.248-0.080z"></path>
<path d="M19.892 24.748c-0.134-0.084-0.218-0.248-0.231-0.406l0.058-2.541c0.010-0.255 0.215-0.464 0.486-0.481 0.255 0.010 0.463 0.214 0.479 0.486l-0.058 2.541c-0.010 0.255-0.215 0.464-0.486 0.481-0.097-0.023-0.194-0.047-0.248-0.080z"></path>
<path d="M19.773 30.429c-0.134-0.084-0.218-0.248-0.231-0.406l0.041-2.215c0.010-0.255 0.215-0.464 0.486-0.481 0.255 0.010 0.463 0.214 0.479 0.486l-0.041 2.215c-0.010 0.255-0.215 0.464-0.486 0.481-0.097-0.023-0.168-0.030-0.248-0.080z"></path>
<path d="M4.207 10.92c-0.075-0.047-0.122-0.139-0.13-0.228 0.006-0.143 0.121-0.261 0.273-0.27l1.427 0.029c0.143 0.005 0.26 0.12 0.269 0.273-0.006 0.143-0.121 0.261-0.273 0.27l-1.427-0.029c-0.040-0.004-0.094-0.017-0.139-0.045z"></path>
<path d="M1.020 10.864c-0.075-0.047-0.122-0.139-0.13-0.228 0.006-0.143 0.121-0.261 0.273-0.27l1.427 0.029c0.143 0.005 0.26 0.12 0.269 0.273-0.006 0.143-0.121 0.261-0.273 0.27l-1.427-0.029c-0.055-0.013-0.094-0.017-0.139-0.045z"></path>
<path d="M3.439 9.936c-0.075-0.047-0.122-0.139-0.13-0.228l0.033-1.428c0.006-0.143 0.121-0.261 0.273-0.27 0.143 0.005 0.26 0.12 0.269 0.273l-0.033 1.428c-0.006 0.143-0.121 0.261-0.273 0.27-0.055-0.013-0.109-0.026-0.139-0.045z"></path>
<path d="M3.372 13.13c-0.075-0.047-0.122-0.139-0.13-0.228l0.023-1.245c0.006-0.143 0.121-0.261 0.273-0.27 0.143 0.005 0.26 0.12 0.269 0.273l-0.023 1.245c-0.006 0.143-0.121 0.261-0.273 0.27-0.055-0.013-0.094-0.017-0.139-0.045z"></path>
<path d="M15.93 13.252c-0.115-0.072-0.187-0.212-0.198-0.347 0.009-0.218 0.184-0.397 0.417-0.412l2.173 0.045c0.218 0.008 0.396 0.183 0.41 0.416-0.009 0.218-0.184 0.397-0.416 0.412l-2.173-0.045c-0.060-0.006-0.143-0.026-0.212-0.069z"></path>
<path d="M11.075 13.168c-0.115-0.072-0.186-0.212-0.198-0.347 0.009-0.218 0.184-0.397 0.416-0.412l2.173 0.045c0.218 0.008 0.396 0.183 0.41 0.416-0.009 0.218-0.184 0.397-0.416 0.412l-2.173-0.045c-0.083-0.020-0.144-0.026-0.212-0.069z"></path>
<path d="M14.759 11.755c-0.115-0.072-0.187-0.212-0.198-0.348l0.050-2.176c0.009-0.218 0.184-0.397 0.416-0.412 0.218 0.008 0.396 0.183 0.41 0.416l-0.050 2.176c-0.009 0.218-0.184 0.397-0.416 0.412-0.083-0.020-0.167-0.040-0.212-0.069z"></path>
<path d="M14.657 16.62c-0.115-0.072-0.186-0.212-0.198-0.347l0.035-1.897c0.009-0.218 0.184-0.397 0.416-0.412 0.218 0.008 0.396 0.183 0.41 0.416l-0.035 1.897c-0.009 0.218-0.184 0.397-0.416 0.412-0.083-0.020-0.143-0.026-0.212-0.069z"></path>
<path d="M20.549 0.534c0.033 0.028 0.066 0.057 0.084 0.102 4.96 10.443 12.279 19.583 21.766 27.141 0.132 0.114 0.161 0.312 0.064 0.458-0.114 0.132-0.312 0.162-0.458 0.065-9.555-7.646-16.94-16.842-21.937-27.375-0.089-0.163-0.010-0.354 0.153-0.443 0.104-0.054 0.229-0.033 0.328 0.053z"></path>
</symbol>
<symbol id="icon-phone" viewBox="0 0 32 32">
<path d="M26.624 22.163c-0.057-0.17-0.417-0.421-1.079-0.753-0.18-0.104-0.436-0.246-0.767-0.426s-0.632-0.346-0.902-0.497c-0.27-0.151-0.523-0.298-0.76-0.44-0.038-0.028-0.156-0.111-0.355-0.249s-0.367-0.239-0.505-0.305c-0.137-0.066-0.272-0.099-0.405-0.099-0.189 0-0.426 0.135-0.71 0.405s-0.545 0.563-0.781 0.881-0.488 0.611-0.753 0.881c-0.265 0.27-0.483 0.405-0.654 0.405-0.085 0-0.192-0.024-0.32-0.071s-0.225-0.088-0.291-0.121c-0.066-0.033-0.179-0.099-0.341-0.199s-0.251-0.154-0.27-0.163c-1.297-0.72-2.41-1.544-3.338-2.471s-1.752-2.041-2.472-3.338c-0.009-0.019-0.064-0.109-0.163-0.27s-0.166-0.275-0.199-0.341c-0.033-0.066-0.073-0.163-0.121-0.291s-0.071-0.234-0.071-0.32c0-0.17 0.135-0.388 0.405-0.653s0.564-0.516 0.881-0.753c0.317-0.237 0.611-0.497 0.881-0.781s0.405-0.521 0.405-0.71c0-0.133-0.033-0.268-0.099-0.405s-0.168-0.305-0.305-0.504c-0.137-0.199-0.22-0.317-0.249-0.355-0.142-0.237-0.289-0.49-0.44-0.76s-0.317-0.571-0.497-0.902c-0.18-0.331-0.322-0.587-0.426-0.767-0.331-0.663-0.582-1.023-0.753-1.079-0.066-0.028-0.166-0.043-0.298-0.043-0.256 0-0.59 0.047-1.002 0.142s-0.736 0.194-0.973 0.298c-0.474 0.199-0.975 0.776-1.506 1.733-0.483 0.89-0.724 1.771-0.724 2.642 0 0.255 0.017 0.504 0.050 0.746s0.092 0.514 0.178 0.817c0.085 0.303 0.154 0.528 0.206 0.675s0.149 0.409 0.291 0.788c0.142 0.379 0.227 0.611 0.256 0.696 0.331 0.928 0.724 1.757 1.179 2.486 0.748 1.212 1.768 2.465 3.061 3.757s2.545 2.313 3.757 3.061c0.729 0.454 1.558 0.847 2.486 1.179 0.085 0.028 0.317 0.113 0.696 0.256s0.642 0.239 0.788 0.291c0.147 0.052 0.372 0.121 0.675 0.206s0.575 0.145 0.817 0.178c0.242 0.033 0.49 0.050 0.746 0.050 0.871 0 1.752-0.242 2.642-0.725 0.956-0.53 1.534-1.032 1.733-1.506 0.105-0.237 0.204-0.561 0.298-0.973s0.142-0.745 0.142-1.001c0-0.133-0.014-0.232-0.043-0.299z"></path>
</symbol>
<symbol id="icon-linkedin" viewBox="0 0 32 32">
<path d="M0 16c0-8.837 7.163-16 16-16s16 7.163 16 16c0 8.837-7.163 16-16 16s-16-7.163-16-16zM8.2 13.3v10.7h3.4v-10.7h-3.4zM8 9.9c0 1.1 0.8 1.9 1.9 1.9s1.9-0.8 1.9-1.9c0-1.1-0.8-1.9-1.9-1.9-1 0-1.9 0.8-1.9 1.9zM20.6 24h3.2v-6.6c0-3.3-2-4.4-3.9-4.4-1.7 0-2.9 1.1-3.2 1.8v-1.5h-3.2v10.7h3.4v-5.7c0-1.5 1-2.3 2-2.3s1.7 0.5 1.7 2.2v5.8z"></path>
</symbol>
<symbol id="icon-twitter" viewBox="0 0 32 32">
<path d="M0 16c0 8.837 7.163 16 16 16s16-7.163 16-16c0-8.837-7.163-16-16-16s-16 7.163-16 16zM22.1 11.5c0.7-0.1 1.3-0.2 1.9-0.5-0.4 0.7-1 1.3-1.7 1.7 0.2 4.7-3.2 9.8-9.3 9.8-1.8 0-3.5-0.6-5-1.5 1.7 0.2 3.5-0.3 4.7-1.2-1.5 0-2.7-1-3.1-2.3 0.5 0.1 1 0 1.5-0.1-1.5-0.4-2.6-1.8-2.6-3.3 0.5 0.2 1 0.4 1.5 0.4-1.4-1-1.9-2.9-1-4.4 1.7 2 4.1 3.3 6.8 3.4-0.5-2 1.1-4 3.2-4 0.9 0 1.8 0.4 2.4 1 0.8-0.2 1.5-0.4 2.1-0.8-0.2 0.8-0.7 1.4-1.4 1.8z"></path>
</symbol>
<symbol id="icon-letter" viewBox="0 0 32 32">
<path d="M7.381 12.932c0.27 0.182 1.083 0.722 2.44 1.619s2.397 1.589 3.119 2.074c0.079 0.053 0.248 0.169 0.506 0.347s0.472 0.322 0.643 0.432c0.171 0.11 0.377 0.233 0.619 0.369s0.47 0.239 0.685 0.307c0.214 0.068 0.413 0.102 0.595 0.102h0.024c0.183 0 0.381-0.034 0.595-0.102s0.443-0.17 0.684-0.307c0.242-0.136 0.448-0.259 0.619-0.369s0.385-0.254 0.643-0.432c0.258-0.178 0.427-0.293 0.506-0.347 0.73-0.485 2.587-1.716 5.571-3.693 0.579-0.386 1.063-0.852 1.452-1.398s0.583-1.117 0.583-1.716c0-0.5-0.189-0.928-0.566-1.284s-0.824-0.534-1.339-0.534h-17.524c-0.611 0-1.081 0.197-1.411 0.591s-0.494 0.886-0.494 1.477c0 0.477 0.218 0.994 0.655 1.551s0.901 0.994 1.393 1.313z"></path>
<path d="M25.476 14.148c-2.603 1.682-4.579 2.989-5.928 3.921-0.452 0.318-0.819 0.566-1.101 0.744s-0.657 0.36-1.125 0.545c-0.468 0.186-0.905 0.278-1.309 0.278h-0.024c-0.405 0-0.841-0.093-1.309-0.278s-0.843-0.367-1.125-0.545c-0.282-0.178-0.649-0.426-1.101-0.744-1.072-0.75-3.044-2.057-5.917-3.921-0.452-0.288-0.853-0.617-1.202-0.989v9.023c0 0.5 0.186 0.928 0.559 1.284s0.821 0.534 1.345 0.534h17.524c0.524 0 0.972-0.178 1.345-0.534s0.559-0.784 0.559-1.284v-9.023c-0.341 0.364-0.738 0.693-1.191 0.989z"></path>
</symbol>
<symbol id="icon-facebook" viewBox="0 0 32 32">
<path d="M0 16c0 8.837 7.163 16 16 16s16-7.163 16-16c0-8.837-7.163-16-16-16s-16 7.163-16 16zM16 8c4.4 0 8 3.6 8 8 0 4-2.9 7.4-6.9 8v-5.7h1.9l0.4-2.3h-2.2v-1.5c0-0.6 0.3-1.2 1.3-1.2h1v-2c0 0-0.9-0.2-1.8-0.2-1.8 0-3 1.1-3 3.1v1.8h-2v2.3h2v5.6c-3.8-0.6-6.7-3.9-6.7-7.9 0-4.4 3.6-8 8-8z"></path>
</symbol>
<symbol id="icon-telegram" viewBox="0 0 32 32">
<path d="M16 32c-8.837 0-16-7.163-16-16s7.163-16 16-16c8.837 0 16 7.163 16 16s-7.163 16-16 16zM16.692 12.007c-1.433 0.596-4.297 1.83-8.592 3.701-0.697 0.277-1.063 0.549-1.096 0.814-0.056 0.448 0.505 0.625 1.27 0.865 0.104 0.033 0.212 0.067 0.322 0.102 0.752 0.245 1.764 0.531 2.29 0.542 0.477 0.010 1.010-0.186 1.598-0.59 4.013-2.709 6.084-4.078 6.214-4.107 0.092-0.021 0.219-0.047 0.305 0.030s0.078 0.222 0.069 0.261c-0.056 0.237-2.26 2.286-3.4 3.347-0.356 0.331-0.608 0.565-0.659 0.619-0.115 0.12-0.233 0.233-0.346 0.343-0.699 0.674-1.223 1.179 0.029 2.004 0.602 0.396 1.083 0.724 1.563 1.051 0.524 0.357 1.048 0.713 1.725 1.157 0.172 0.113 0.337 0.23 0.498 0.345 0.61 0.435 1.159 0.826 1.836 0.764 0.394-0.036 0.8-0.406 1.007-1.51 0.488-2.609 1.447-8.263 1.669-10.592 0.019-0.204-0.005-0.465-0.025-0.58s-0.061-0.278-0.21-0.399c-0.177-0.143-0.449-0.173-0.571-0.171-0.554 0.010-1.404 0.306-5.496 2.007z"></path>
</symbol>
<symbol id="icon-info" viewBox="0 0 34 34">
<path d="M14.4 24h3.2v-9.6h-3.2v9.6zM16 11.2c0.453 0 0.834-0.154 1.141-0.461s0.46-0.687 0.459-1.139c0-0.453-0.154-0.834-0.461-1.141s-0.687-0.46-1.139-0.459c-0.453 0-0.834 0.154-1.141 0.461s-0.46 0.687-0.459 1.139c0 0.453 0.154 0.834 0.461 1.141s0.687 0.46 1.139 0.459zM16 32c-2.213 0-4.293-0.42-6.24-1.261s-3.64-1.98-5.080-3.419c-1.44-1.44-2.58-3.133-3.419-5.080s-1.26-4.027-1.261-6.24c0-2.213 0.42-4.293 1.261-6.24s1.98-3.64 3.419-5.080c1.44-1.44 3.133-2.58 5.080-3.419s4.027-1.26 6.24-1.261c2.213 0 4.293 0.42 6.24 1.261s3.64 1.98 5.080 3.419c1.44 1.44 2.58 3.133 3.421 5.080s1.26 4.027 1.259 6.24c0 2.213-0.42 4.293-1.261 6.24s-1.98 3.64-3.419 5.080c-1.44 1.44-3.133 2.58-5.080 3.421s-4.027 1.26-6.24 1.259zM16 28.8c3.573 0 6.6-1.24 9.080-3.72s3.72-5.507 3.72-9.080c0-3.573-1.24-6.6-3.72-9.080s-5.507-3.72-9.080-3.72c-3.573 0-6.6 1.24-9.080 3.72s-3.72 5.507-3.72 9.080c0 3.573 1.24 6.6 3.72 9.080s5.507 3.72 9.080 3.72z"></path>
</symbol>
<symbol id="icon-arrow" viewBox="0 0 32 32">
<path d="M32 16l-16 16-3.733-3.733 9.533-9.6h-21.8v-5.333h21.8l-9.533-9.6 3.733-3.733 16 16z"></path>
</symbol>
</defs>
</svg>
