<svg width="69" height="60" viewBox="0 0 69 60" fill="none" xmlns="http://www.w3.org/2000/svg">
<path opacity="0.6" d="M12.9122 39.96L13.9049 39.8397L13.7983 38.96H12.9122V39.96ZM0.352188 39.96V38.96H-0.717132L-0.645571 40.0269L0.352188 39.96ZM47.4722 43.64L48.4591 43.8013L48.4604 43.793L48.4617 43.7848L47.4722 43.64ZM38.9122 28.36L38.515 27.4423L36.3361 28.3854L38.5331 29.2854L38.9122 28.36ZM46.0322 14.44L45.0444 14.596L45.0458 14.6044L46.0322 14.44ZM1.23219 16.84L0.235598 16.7575L0.145963 17.84H1.23219V16.84ZM13.6322 16.84V17.84H14.4604L14.6147 17.0263L13.6322 16.84ZM33.7922 17.72L34.7921 17.7354L34.7922 17.7277V17.72H33.7922ZM15.7922 23.24V22.24H14.7922V23.24H15.7922ZM15.7922 33.4H14.7922V34.4H15.7922V33.4ZM24.3522 34.4C29.0148 34.4 31.2051 35.5283 32.2574 36.6683C33.3121 37.8109 33.4322 39.1836 33.4322 40.2H35.4322C35.4322 39.0564 35.3123 37.0291 33.727 35.3117C32.1392 33.5916 29.2896 32.4 24.3522 32.4V34.4ZM33.4322 40.2C33.4322 41.4512 33.0458 42.3913 32.4431 43.1254C31.8264 43.8766 30.9432 44.4586 29.8956 44.8978C27.7842 45.7829 25.2182 46 23.5522 46V48C25.3261 48 28.2002 47.7771 30.6688 46.7422C31.9111 46.2214 33.103 45.4734 33.9888 44.3946C34.8886 43.2987 35.4322 41.9088 35.4322 40.2H33.4322ZM23.5522 46C21.0435 46 18.7382 45.572 17.0174 44.5912C15.3444 43.6377 14.1844 42.1456 13.9049 39.8397L11.9195 40.0803C12.2799 43.0544 13.84 45.0823 16.027 46.3288C18.1661 47.548 20.8608 48 23.5522 48V46ZM12.9122 38.96H0.352188V40.96H12.9122V38.96ZM-0.645571 40.0269C-0.184133 46.9065 3.04674 51.7233 7.60394 54.7897C12.1242 57.8312 17.8959 59.12 23.4722 59.12V57.12C18.1684 57.12 12.8202 55.8888 8.72044 53.1303C4.65763 50.3967 1.76851 46.1335 1.34995 39.8931L-0.645571 40.0269ZM23.4722 59.12C28.3644 59.12 34.0355 58.5581 38.7704 56.3784C43.5593 54.1738 47.3967 50.303 48.4591 43.8013L46.4853 43.4787C45.5477 49.217 42.2251 52.5862 37.934 54.5616C33.5889 56.5619 28.26 57.12 23.4722 57.12V59.12ZM48.4617 43.7848C49.4819 36.8129 46.3951 30.3446 39.2913 27.4346L38.5331 29.2854C44.7093 31.8154 47.3824 37.3471 46.4827 43.4952L48.4617 43.7848ZM39.3094 29.2777C45.1269 26.7597 48.1275 20.9292 47.0186 14.2756L45.0458 14.6044C46.0169 20.4308 43.4175 25.3203 38.515 27.4423L39.3094 29.2777ZM47.02 14.284C46.1221 8.59779 42.6858 4.75957 38.3221 2.37267C33.9855 0.000592232 28.7083 -0.960001 23.9522 -0.960001V1.04C28.4761 1.04 33.3989 1.9594 37.3623 4.12733C41.2986 6.28043 44.2623 9.64221 45.0444 14.596L47.02 14.284ZM23.9522 -0.960001C18.52 -0.960001 12.8953 0.119164 8.46327 2.88132C3.98651 5.67135 0.782767 10.1494 0.235598 16.7575L2.22878 16.9225C2.72161 10.9706 5.55787 7.04865 9.5211 4.57867C13.529 2.08083 18.7443 1.04 23.9522 1.04V-0.960001ZM1.23219 17.84H13.6322V15.84H1.23219V17.84ZM14.6147 17.0263C14.978 15.1105 16.1507 13.9871 17.812 13.3051C19.5265 12.6012 21.7065 12.4 23.8722 12.4V10.4C21.6379 10.4 19.1379 10.5988 17.0524 11.4549C14.9137 12.3329 13.1663 13.9295 12.6497 16.6537L14.6147 17.0263ZM23.8722 12.4C27.8889 12.4 30.0948 13.3469 31.2878 14.4074C32.4686 15.457 32.7922 16.7382 32.7922 17.72H34.7922C34.7922 16.3018 34.3158 14.423 32.6166 12.9126C30.9296 11.4131 28.1755 10.4 23.8722 10.4V12.4ZM32.7923 17.7046C32.7755 18.7939 32.4517 19.5603 31.9692 20.1298C31.4728 20.7156 30.7496 21.1613 29.8353 21.4885C27.9782 22.153 25.6006 22.24 23.5522 22.24V24.24C25.5838 24.24 28.2862 24.167 30.5091 23.3715C31.6348 22.9687 32.7015 22.3593 33.4951 21.4227C34.3027 20.4697 34.7688 19.2461 34.7921 17.7354L32.7923 17.7046ZM23.5522 22.24H15.7922V24.24H23.5522V22.24ZM14.7922 23.24V33.4H16.7922V23.24H14.7922ZM15.7922 34.4H24.3522V32.4H15.7922V34.4ZM54.4453 51.16C54.4453 53.5957 55.3804 55.4937 56.8355 56.7714C58.2714 58.0322 60.1555 58.64 62.0053 58.64C63.8551 58.64 65.7393 58.0322 67.1751 56.7714C68.6303 55.4937 69.5653 53.5957 69.5653 51.16H67.5653C67.5653 53.0443 66.8604 54.3863 65.8555 55.2686C64.8314 56.1678 63.4355 56.64 62.0053 56.64C60.5751 56.64 59.1793 56.1678 58.1551 55.2686C57.1503 54.3863 56.4453 53.0443 56.4453 51.16H54.4453ZM69.5653 51.16C69.5653 48.7243 68.6303 46.8263 67.1751 45.5486C65.7393 44.2878 63.8551 43.68 62.0053 43.68C60.1555 43.68 58.2714 44.2878 56.8355 45.5486C55.3804 46.8263 54.4453 48.7243 54.4453 51.16H56.4453C56.4453 49.2757 57.1503 47.9337 58.1551 47.0514C59.1793 46.1522 60.5751 45.68 62.0053 45.68C63.4355 45.68 64.8314 46.1522 65.8555 47.0514C66.8604 47.9337 67.5653 49.2757 67.5653 51.16H69.5653Z" fill="#0F4BA6"/>
</svg>
