<svg width="68" height="60" viewBox="0 0 68 60" fill="none" xmlns="http://www.w3.org/2000/svg">
<path opacity="0.6" d="M12.7161 17.64V18.64H13.6484L13.7136 17.71L12.7161 17.64ZM0.0760942 57H-0.923906V58H0.0760942V57ZM45.3561 57V58H46.3561V57H45.3561ZM45.3561 45.48H46.3561V44.48H45.3561V45.48ZM11.8361 45.48H10.8361V46.48H11.8361V45.48ZM0.716094 17.64L-0.282385 17.5849L-0.340644 18.64H0.716094V17.64ZM13.7136 17.71C13.8438 15.8549 14.9517 14.4358 16.717 13.4412C18.5006 12.4363 20.8805 11.92 23.2761 11.92V9.92C20.6317 9.92 17.8916 10.4837 15.7352 11.6988C13.5604 12.9242 11.9084 14.8651 11.7185 17.57L13.7136 17.71ZM23.2761 11.92C26.3218 11.92 28.6559 12.54 30.1986 13.6034C31.695 14.6348 32.5161 16.1255 32.5161 18.12H34.5161C34.5161 15.4745 33.3772 13.3652 31.3336 11.9566C29.3363 10.58 26.5504 9.92 23.2761 9.92V11.92ZM32.5161 18.12C32.5161 20.4066 31.3043 21.7848 29.5278 22.6512C27.6937 23.5456 25.3281 23.84 23.3561 23.84V25.84C25.4641 25.84 28.1785 25.5344 30.4044 24.4488C32.6878 23.3352 34.5161 21.3534 34.5161 18.12H32.5161ZM23.3561 23.84C17.7674 23.84 11.7267 24.6846 7.05371 27.5473C2.30029 30.4593 -0.923906 35.3921 -0.923906 43.24H1.07609C1.07609 36.0479 3.9719 31.7807 8.09848 29.2527C12.3055 26.6754 17.9048 25.84 23.3561 25.84V23.84ZM-0.923906 43.24C-0.923906 43.2491 -0.923906 43.2581 -0.923906 43.2672C-0.923906 43.2762 -0.923906 43.2853 -0.923906 43.2944C-0.923906 43.3034 -0.923906 43.3125 -0.923906 43.3216C-0.923906 43.3306 -0.923906 43.3397 -0.923906 43.3487C-0.923906 43.3578 -0.923906 43.3669 -0.923906 43.3759C-0.923906 43.385 -0.923906 43.394 -0.923906 43.4031C-0.923906 43.4122 -0.923906 43.4212 -0.923906 43.4303C-0.923906 43.4393 -0.923906 43.4484 -0.923906 43.4574C-0.923906 43.4665 -0.923906 43.4756 -0.923906 43.4846C-0.923906 43.4937 -0.923906 43.5027 -0.923906 43.5118C-0.923906 43.5208 -0.923906 43.5299 -0.923906 43.539C-0.923906 43.548 -0.923906 43.5571 -0.923906 43.5661C-0.923906 43.5752 -0.923906 43.5842 -0.923906 43.5933C-0.923906 43.6023 -0.923906 43.6114 -0.923906 43.6204C-0.923906 43.6295 -0.923906 43.6386 -0.923906 43.6476C-0.923906 43.6567 -0.923906 43.6657 -0.923906 43.6748C-0.923906 43.6838 -0.923906 43.6929 -0.923906 43.7019C-0.923906 43.711 -0.923906 43.72 -0.923906 43.7291C-0.923906 43.7381 -0.923906 43.7472 -0.923906 43.7562C-0.923906 43.7653 -0.923906 43.7743 -0.923906 43.7834C-0.923906 43.7924 -0.923906 43.8015 -0.923906 43.8105C-0.923906 43.8196 -0.923906 43.8286 -0.923906 43.8377C-0.923906 43.8467 -0.923906 43.8558 -0.923906 43.8648C-0.923906 43.8739 -0.923906 43.8829 -0.923906 43.892C-0.923906 43.901 -0.923906 43.9101 -0.923906 43.9191C-0.923906 43.9282 -0.923906 43.9372 -0.923906 43.9463C-0.923906 43.9553 -0.923906 43.9644 -0.923906 43.9734C-0.923906 43.9825 -0.923906 43.9915 -0.923906 44.0005C-0.923906 44.0096 -0.923906 44.0186 -0.923906 44.0277C-0.923906 44.0367 -0.923906 44.0458 -0.923906 44.0548C-0.923906 44.0639 -0.923906 44.0729 -0.923906 44.082C-0.923906 44.091 -0.923906 44.1 -0.923906 44.1091C-0.923906 44.1181 -0.923906 44.1272 -0.923906 44.1362C-0.923906 44.1453 -0.923906 44.1543 -0.923906 44.1633C-0.923906 44.1724 -0.923906 44.1814 -0.923906 44.1905C-0.923906 44.1995 -0.923906 44.2085 -0.923906 44.2176C-0.923906 44.2266 -0.923906 44.2357 -0.923906 44.2447C-0.923906 44.2538 -0.923906 44.2628 -0.923906 44.2718C-0.923906 44.2809 -0.923906 44.2899 -0.923906 44.299C-0.923906 44.308 -0.923906 44.317 -0.923906 44.3261C-0.923906 44.3351 -0.923906 44.3442 -0.923906 44.3532C-0.923906 44.3622 -0.923906 44.3713 -0.923906 44.3803C-0.923906 44.3893 -0.923906 44.3984 -0.923906 44.4074C-0.923906 44.4165 -0.923906 44.4255 -0.923906 44.4345C-0.923906 44.4436 -0.923906 44.4526 -0.923906 44.4616C-0.923906 44.4707 -0.923906 44.4797 -0.923906 44.4887C-0.923906 44.4978 -0.923906 44.5068 -0.923906 44.5159C-0.923906 44.5249 -0.923906 44.5339 -0.923906 44.543C-0.923906 44.552 -0.923906 44.561 -0.923906 44.5701C-0.923906 44.5791 -0.923906 44.5881 -0.923906 44.5972C-0.923906 44.6062 -0.923906 44.6152 -0.923906 44.6243C-0.923906 44.6333 -0.923906 44.6423 -0.923906 44.6514C-0.923906 44.6604 -0.923906 44.6694 -0.923906 44.6785C-0.923906 44.6875 -0.923906 44.6965 -0.923906 44.7055C-0.923906 44.7146 -0.923906 44.7236 -0.923906 44.7326C-0.923906 44.7417 -0.923906 44.7507 -0.923906 44.7597C-0.923906 44.7688 -0.923906 44.7778 -0.923906 44.7868C-0.923906 44.7959 -0.923906 44.8049 -0.923906 44.8139C-0.923906 44.8229 -0.923906 44.832 -0.923906 44.841C-0.923906 44.85 -0.923906 44.8591 -0.923906 44.8681C-0.923906 44.8771 -0.923906 44.8861 -0.923906 44.8952C-0.923906 44.9042 -0.923906 44.9132 -0.923906 44.9222C-0.923906 44.9313 -0.923906 44.9403 -0.923906 44.9493C-0.923906 44.9584 -0.923906 44.9674 -0.923906 44.9764C-0.923906 44.9854 -0.923906 44.9945 -0.923906 45.0035C-0.923906 45.0125 -0.923906 45.0215 -0.923906 45.0306C-0.923906 45.0396 -0.923906 45.0486 -0.923906 45.0576C-0.923906 45.0667 -0.923906 45.0757 -0.923906 45.0847C-0.923906 45.0937 -0.923906 45.1027 -0.923906 45.1118C-0.923906 45.1208 -0.923906 45.1298 -0.923906 45.1388C-0.923906 45.1479 -0.923906 45.1569 -0.923906 45.1659C-0.923906 45.1749 -0.923906 45.184 -0.923906 45.193C-0.923906 45.202 -0.923906 45.211 -0.923906 45.22C-0.923906 45.2291 -0.923906 45.2381 -0.923906 45.2471C-0.923906 45.2561 -0.923906 45.2651 -0.923906 45.2742C-0.923906 45.2832 -0.923906 45.2922 -0.923906 45.3012C-0.923906 45.3102 -0.923906 45.3193 -0.923906 45.3283C-0.923906 45.3373 -0.923906 45.3463 -0.923906 45.3553C-0.923906 45.3644 -0.923906 45.3734 -0.923906 45.3824C-0.923906 45.3914 -0.923906 45.4004 -0.923906 45.4094C-0.923906 45.4185 -0.923906 45.4275 -0.923906 45.4365C-0.923906 45.4455 -0.923906 45.4545 -0.923906 45.4635C-0.923906 45.4726 -0.923906 45.4816 -0.923906 45.4906C-0.923906 45.4996 -0.923906 45.5086 -0.923906 45.5176C-0.923906 45.5267 -0.923906 45.5357 -0.923906 45.5447C-0.923906 45.5537 -0.923906 45.5627 -0.923906 45.5717C-0.923906 45.5807 -0.923906 45.5898 -0.923906 45.5988C-0.923906 45.6078 -0.923906 45.6168 -0.923906 45.6258C-0.923906 45.6348 -0.923906 45.6438 -0.923906 45.6529C-0.923906 45.6619 -0.923906 45.6709 -0.923906 45.6799C-0.923906 45.6889 -0.923906 45.6979 -0.923906 45.7069C-0.923906 45.7159 -0.923906 45.725 -0.923906 45.734C-0.923906 45.743 -0.923906 45.752 -0.923906 45.761C-0.923906 45.77 -0.923906 45.779 -0.923906 45.788C-0.923906 45.797 -0.923906 45.806 -0.923906 45.8151C-0.923906 45.8241 -0.923906 45.8331 -0.923906 45.8421C-0.923906 45.8511 -0.923906 45.8601 -0.923906 45.8691C-0.923906 45.8781 -0.923906 45.8871 -0.923906 45.8961C-0.923906 45.9052 -0.923906 45.9142 -0.923906 45.9232C-0.923906 45.9322 -0.923906 45.9412 -0.923906 45.9502C-0.923906 45.9592 -0.923906 45.9682 -0.923906 45.9772C-0.923906 45.9862 -0.923906 45.9952 -0.923906 46.0042C-0.923906 46.0132 -0.923906 46.0222 -0.923906 46.0312C-0.923906 46.0403 -0.923906 46.0493 -0.923906 46.0583C-0.923906 46.0673 -0.923906 46.0763 -0.923906 46.0853C-0.923906 46.0943 -0.923906 46.1033 -0.923906 46.1123C-0.923906 46.1213 -0.923906 46.1303 -0.923906 46.1393C-0.923906 46.1483 -0.923906 46.1573 -0.923906 46.1663C-0.923906 46.1753 -0.923906 46.1843 -0.923906 46.1933C-0.923906 46.2023 -0.923906 46.2113 -0.923906 46.2203C-0.923906 46.2293 -0.923906 46.2383 -0.923906 46.2473C-0.923906 46.2563 -0.923906 46.2654 -0.923906 46.2744C-0.923906 46.2834 -0.923906 46.2924 -0.923906 46.3014C-0.923906 46.3104 -0.923906 46.3194 -0.923906 46.3284C-0.923906 46.3374 -0.923906 46.3464 -0.923906 46.3554C-0.923906 46.3644 -0.923906 46.3734 -0.923906 46.3824C-0.923906 46.3914 -0.923906 46.4004 -0.923906 46.4094C-0.923906 46.4184 -0.923906 46.4274 -0.923906 46.4364C-0.923906 46.4454 -0.923906 46.4544 -0.923906 46.4634C-0.923906 46.4724 -0.923906 46.4813 -0.923906 46.4903C-0.923906 46.4993 -0.923906 46.5083 -0.923906 46.5173C-0.923906 46.5263 -0.923906 46.5353 -0.923906 46.5443C-0.923906 46.5533 -0.923906 46.5623 -0.923906 46.5713C-0.923906 46.5803 -0.923906 46.5893 -0.923906 46.5983C-0.923906 46.6073 -0.923906 46.6163 -0.923906 46.6253C-0.923906 46.6343 -0.923906 46.6433 -0.923906 46.6523C-0.923906 46.6613 -0.923906 46.6703 -0.923906 46.6793C-0.923906 46.6883 -0.923906 46.6973 -0.923906 46.7062C-0.923906 46.7152 -0.923906 46.7242 -0.923906 46.7332C-0.923906 46.7422 -0.923906 46.7512 -0.923906 46.7602C-0.923906 46.7692 -0.923906 46.7782 -0.923906 46.7872C-0.923906 46.7962 -0.923906 46.8052 -0.923906 46.8142C-0.923906 46.8232 -0.923906 46.8322 -0.923906 46.8411C-0.923906 46.8501 -0.923906 46.8591 -0.923906 46.8681C-0.923906 46.8771 -0.923906 46.8861 -0.923906 46.8951C-0.923906 46.9041 -0.923906 46.9131 -0.923906 46.9221C-0.923906 46.9311 -0.923906 46.94 -0.923906 46.949C-0.923906 46.958 -0.923906 46.967 -0.923906 46.976C-0.923906 46.985 -0.923906 46.994 -0.923906 47.003C-0.923906 47.012 -0.923906 47.021 -0.923906 47.0299C-0.923906 47.0389 -0.923906 47.0479 -0.923906 47.0569C-0.923906 47.0659 -0.923906 47.0749 -0.923906 47.0839C-0.923906 47.0929 -0.923906 47.1018 -0.923906 47.1108C-0.923906 47.1198 -0.923906 47.1288 -0.923906 47.1378C-0.923906 47.1468 -0.923906 47.1558 -0.923906 47.1648C-0.923906 47.1737 -0.923906 47.1827 -0.923906 47.1917C-0.923906 47.2007 -0.923906 47.2097 -0.923906 47.2187C-0.923906 47.2277 -0.923906 47.2366 -0.923906 47.2456C-0.923906 47.2546 -0.923906 47.2636 -0.923906 47.2726C-0.923906 47.2816 -0.923906 47.2906 -0.923906 47.2995C-0.923906 47.3085 -0.923906 47.3175 -0.923906 47.3265C-0.923906 47.3355 -0.923906 47.3445 -0.923906 47.3534C-0.923906 47.3624 -0.923906 47.3714 -0.923906 47.3804C-0.923906 47.3894 -0.923906 47.3984 -0.923906 47.4073C-0.923906 47.4163 -0.923906 47.4253 -0.923906 47.4343C-0.923906 47.4433 -0.923906 47.4523 -0.923906 47.4612C-0.923906 47.4702 -0.923906 47.4792 -0.923906 47.4882C-0.923906 47.4972 -0.923906 47.5061 -0.923906 47.5151C-0.923906 47.5241 -0.923906 47.5331 -0.923906 47.5421C-0.923906 47.551 -0.923906 47.56 -0.923906 47.569C-0.923906 47.578 -0.923906 47.587 -0.923906 47.5959C-0.923906 47.6049 -0.923906 47.6139 -0.923906 47.6229C-0.923906 47.6319 -0.923906 47.6408 -0.923906 47.6498C-0.923906 47.6588 -0.923906 47.6678 -0.923906 47.6768C-0.923906 47.6857 -0.923906 47.6947 -0.923906 47.7037C-0.923906 47.7127 -0.923906 47.7216 -0.923906 47.7306C-0.923906 47.7396 -0.923906 47.7486 -0.923906 47.7576C-0.923906 47.7665 -0.923906 47.7755 -0.923906 47.7845C-0.923906 47.7935 -0.923906 47.8024 -0.923906 47.8114C-0.923906 47.8204 -0.923906 47.8294 -0.923906 47.8383C-0.923906 47.8473 -0.923906 47.8563 -0.923906 47.8653C-0.923906 47.8742 -0.923906 47.8832 -0.923906 47.8922C-0.923906 47.9012 -0.923906 47.9101 -0.923906 47.9191C-0.923906 47.9281 -0.923906 47.9371 -0.923906 47.946C-0.923906 47.955 -0.923906 47.964 -0.923906 47.973C-0.923906 47.9819 -0.923906 47.9909 -0.923906 47.9999C-0.923906 48.0089 -0.923906 48.0178 -0.923906 48.0268C-0.923906 48.0358 -0.923906 48.0448 -0.923906 48.0537C-0.923906 48.0627 -0.923906 48.0717 -0.923906 48.0806C-0.923906 48.0896 -0.923906 48.0986 -0.923906 48.1076C-0.923906 48.1165 -0.923906 48.1255 -0.923906 48.1345C-0.923906 48.1434 -0.923906 48.1524 -0.923906 48.1614C-0.923906 48.1704 -0.923906 48.1793 -0.923906 48.1883C-0.923906 48.1973 -0.923906 48.2062 -0.923906 48.2152C-0.923906 48.2242 -0.923906 48.2332 -0.923906 48.2421C-0.923906 48.2511 -0.923906 48.2601 -0.923906 48.269C-0.923906 48.278 -0.923906 48.287 -0.923906 48.2959C-0.923906 48.3049 -0.923906 48.3139 -0.923906 48.3229C-0.923906 48.3318 -0.923906 48.3408 -0.923906 48.3498C-0.923906 48.3587 -0.923906 48.3677 -0.923906 48.3767C-0.923906 48.3856 -0.923906 48.3946 -0.923906 48.4036C-0.923906 48.4125 -0.923906 48.4215 -0.923906 48.4305C-0.923906 48.4394 -0.923906 48.4484 -0.923906 48.4574C-0.923906 48.4663 -0.923906 48.4753 -0.923906 48.4843C-0.923906 48.4932 -0.923906 48.5022 -0.923906 48.5112C-0.923906 48.5201 -0.923906 48.5291 -0.923906 48.5381C-0.923906 48.547 -0.923906 48.556 -0.923906 48.565C-0.923906 48.5739 -0.923906 48.5829 -0.923906 48.5919C-0.923906 48.6008 -0.923906 48.6098 -0.923906 48.6188C-0.923906 48.6277 -0.923906 48.6367 -0.923906 48.6456C-0.923906 48.6546 -0.923906 48.6636 -0.923906 48.6725C-0.923906 48.6815 -0.923906 48.6905 -0.923906 48.6994C-0.923906 48.7084 -0.923906 48.7174 -0.923906 48.7263C-0.923906 48.7353 -0.923906 48.7442 -0.923906 48.7532C-0.923906 48.7622 -0.923906 48.7711 -0.923906 48.7801C-0.923906 48.7891 -0.923906 48.798 -0.923906 48.807C-0.923906 48.8159 -0.923906 48.8249 -0.923906 48.8339C-0.923906 48.8428 -0.923906 48.8518 -0.923906 48.8608C-0.923906 48.8697 -0.923906 48.8787 -0.923906 48.8876C-0.923906 48.8966 -0.923906 48.9056 -0.923906 48.9145C-0.923906 48.9235 -0.923906 48.9324 -0.923906 48.9414C-0.923906 48.9504 -0.923906 48.9593 -0.923906 48.9683C-0.923906 48.9772 -0.923906 48.9862 -0.923906 48.9952C-0.923906 49.0041 -0.923906 49.0131 -0.923906 49.022C-0.923906 49.031 -0.923906 49.04 -0.923906 49.0489C-0.923906 49.0579 -0.923906 49.0668 -0.923906 49.0758C-0.923906 49.0848 -0.923906 49.0937 -0.923906 49.1027C-0.923906 49.1116 -0.923906 49.1206 -0.923906 49.1295C-0.923906 49.1385 -0.923906 49.1475 -0.923906 49.1564C-0.923906 49.1654 -0.923906 49.1743 -0.923906 49.1833C-0.923906 49.1922 -0.923906 49.2012 -0.923906 49.2102C-0.923906 49.2191 -0.923906 49.2281 -0.923906 49.237C-0.923906 49.246 -0.923906 49.2549 -0.923906 49.2639C-0.923906 49.2729 -0.923906 49.2818 -0.923906 49.2908C-0.923906 49.2997 -0.923906 49.3087 -0.923906 49.3176C-0.923906 49.3266 -0.923906 49.3355 -0.923906 49.3445C-0.923906 49.3534 -0.923906 49.3624 -0.923906 49.3714C-0.923906 49.3803 -0.923906 49.3893 -0.923906 49.3982C-0.923906 49.4072 -0.923906 49.4161 -0.923906 49.4251C-0.923906 49.434 -0.923906 49.443 -0.923906 49.4519C-0.923906 49.4609 -0.923906 49.4699 -0.923906 49.4788C-0.923906 49.4878 -0.923906 49.4967 -0.923906 49.5057C-0.923906 49.5146 -0.923906 49.5236 -0.923906 49.5325C-0.923906 49.5415 -0.923906 49.5504 -0.923906 49.5594C-0.923906 49.5683 -0.923906 49.5773 -0.923906 49.5862C-0.923906 49.5952 -0.923906 49.6041 -0.923906 49.6131C-0.923906 49.622 -0.923906 49.631 -0.923906 49.6399C-0.923906 49.6489 -0.923906 49.6578 -0.923906 49.6668C-0.923906 49.6758 -0.923906 49.6847 -0.923906 49.6937C-0.923906 49.7026 -0.923906 49.7116 -0.923906 49.7205C-0.923906 49.7295 -0.923906 49.7384 -0.923906 49.7474C-0.923906 49.7563 -0.923906 49.7653 -0.923906 49.7742C-0.923906 49.7832 -0.923906 49.7921 -0.923906 49.8011C-0.923906 49.81 -0.923906 49.819 -0.923906 49.8279C-0.923906 49.8368 -0.923906 49.8458 -0.923906 49.8547C-0.923906 49.8637 -0.923906 49.8726 -0.923906 49.8816C-0.923906 49.8905 -0.923906 49.8995 -0.923906 49.9084C-0.923906 49.9174 -0.923906 49.9263 -0.923906 49.9353C-0.923906 49.9442 -0.923906 49.9532 -0.923906 49.9621C-0.923906 49.9711 -0.923906 49.98 -0.923906 49.989C-0.923906 49.9979 -0.923906 50.0069 -0.923906 50.0158C-0.923906 50.0248 -0.923906 50.0337 -0.923906 50.0426C-0.923906 50.0516 -0.923906 50.0605 -0.923906 50.0695C-0.923906 50.0784 -0.923906 50.0874 -0.923906 50.0963C-0.923906 50.1053 -0.923906 50.1142 -0.923906 50.1232C-0.923906 50.1321 -0.923906 50.1411 -0.923906 50.15C-0.923906 50.1589 -0.923906 50.1679 -0.923906 50.1768C-0.923906 50.1858 -0.923906 50.1947 -0.923906 50.2037C-0.923906 50.2126 -0.923906 50.2216 -0.923906 50.2305C-0.923906 50.2394 -0.923906 50.2484 -0.923906 50.2573C-0.923906 50.2663 -0.923906 50.2752 -0.923906 50.2842C-0.923906 50.2931 -0.923906 50.3021 -0.923906 50.311C-0.923906 50.3199 -0.923906 50.3289 -0.923906 50.3378C-0.923906 50.3468 -0.923906 50.3557 -0.923906 50.3647C-0.923906 50.3736 -0.923906 50.3825 -0.923906 50.3915C-0.923906 50.4004 -0.923906 50.4094 -0.923906 50.4183C-0.923906 50.4273 -0.923906 50.4362 -0.923906 50.4451C-0.923906 50.4541 -0.923906 50.463 -0.923906 50.472C-0.923906 50.4809 -0.923906 50.4898 -0.923906 50.4988C-0.923906 50.5077 -0.923906 50.5167 -0.923906 50.5256C-0.923906 50.5346 -0.923906 50.5435 -0.923906 50.5524C-0.923906 50.5614 -0.923906 50.5703 -0.923906 50.5793C-0.923906 50.5882 -0.923906 50.5971 -0.923906 50.6061C-0.923906 50.615 -0.923906 50.624 -0.923906 50.6329C-0.923906 50.6418 -0.923906 50.6508 -0.923906 50.6597C-0.923906 50.6687 -0.923906 50.6776 -0.923906 50.6865C-0.923906 50.6955 -0.923906 50.7044 -0.923906 50.7134C-0.923906 50.7223 -0.923906 50.7312 -0.923906 50.7402C-0.923906 50.7491 -0.923906 50.7581 -0.923906 50.767C-0.923906 50.7759 -0.923906 50.7849 -0.923906 50.7938C-0.923906 50.8027 -0.923906 50.8117 -0.923906 50.8206C-0.923906 50.8296 -0.923906 50.8385 -0.923906 50.8474C-0.923906 50.8564 -0.923906 50.8653 -0.923906 50.8742C-0.923906 50.8832 -0.923906 50.8921 -0.923906 50.9011C-0.923906 50.91 -0.923906 50.9189 -0.923906 50.9279C-0.923906 50.9368 -0.923906 50.9457 -0.923906 50.9547C-0.923906 50.9636 -0.923906 50.9726 -0.923906 50.9815C-0.923906 50.9904 -0.923906 50.9994 -0.923906 51.0083C-0.923906 51.0172 -0.923906 51.0262 -0.923906 51.0351C-0.923906 51.044 -0.923906 51.053 -0.923906 51.0619C-0.923906 51.0709 -0.923906 51.0798 -0.923906 51.0887C-0.923906 51.0977 -0.923906 51.1066 -0.923906 51.1155C-0.923906 51.1245 -0.923906 51.1334 -0.923906 51.1423C-0.923906 51.1513 -0.923906 51.1602 -0.923906 51.1691C-0.923906 51.1781 -0.923906 51.187 -0.923906 51.1959C-0.923906 51.2049 -0.923906 51.2138 -0.923906 51.2227C-0.923906 51.2317 -0.923906 51.2406 -0.923906 51.2495C-0.923906 51.2585 -0.923906 51.2674 -0.923906 51.2763C-0.923906 51.2853 -0.923906 51.2942 -0.923906 51.3031C-0.923906 51.3121 -0.923906 51.321 -0.923906 51.3299C-0.923906 51.3389 -0.923906 51.3478 -0.923906 51.3567C-0.923906 51.3657 -0.923906 51.3746 -0.923906 51.3835C-0.923906 51.3925 -0.923906 51.4014 -0.923906 51.4103C-0.923906 51.4193 -0.923906 51.4282 -0.923906 51.4371C-0.923906 51.4461 -0.923906 51.455 -0.923906 51.4639C-0.923906 51.4729 -0.923906 51.4818 -0.923906 51.4907C-0.923906 51.4997 -0.923906 51.5086 -0.923906 51.5175C-0.923906 51.5265 -0.923906 51.5354 -0.923906 51.5443C-0.923906 51.5532 -0.923906 51.5622 -0.923906 51.5711C-0.923906 51.58 -0.923906 51.589 -0.923906 51.5979C-0.923906 51.6068 -0.923906 51.6158 -0.923906 51.6247C-0.923906 51.6336 -0.923906 51.6426 -0.923906 51.6515C-0.923906 51.6604 -0.923906 51.6693 -0.923906 51.6783C-0.923906 51.6872 -0.923906 51.6961 -0.923906 51.7051C-0.923906 51.714 -0.923906 51.7229 -0.923906 51.7318C-0.923906 51.7408 -0.923906 51.7497 -0.923906 51.7586C-0.923906 51.7676 -0.923906 51.7765 -0.923906 51.7854C-0.923906 51.7944 -0.923906 51.8033 -0.923906 51.8122C-0.923906 51.8211 -0.923906 51.8301 -0.923906 51.839C-0.923906 51.8479 -0.923906 51.8569 -0.923906 51.8658C-0.923906 51.8747 -0.923906 51.8836 -0.923906 51.8926C-0.923906 51.9015 -0.923906 51.9104 -0.923906 51.9193C-0.923906 51.9283 -0.923906 51.9372 -0.923906 51.9461C-0.923906 51.9551 -0.923906 51.964 -0.923906 51.9729C-0.923906 51.9818 -0.923906 51.9908 -0.923906 51.9997C-0.923906 52.0086 -0.923906 52.0176 -0.923906 52.0265C-0.923906 52.0354 -0.923906 52.0443 -0.923906 52.0533C-0.923906 52.0622 -0.923906 52.0711 -0.923906 52.08C-0.923906 52.089 -0.923906 52.0979 -0.923906 52.1068C-0.923906 52.1157 -0.923906 52.1247 -0.923906 52.1336C-0.923906 52.1425 -0.923906 52.1514 -0.923906 52.1604C-0.923906 52.1693 -0.923906 52.1782 -0.923906 52.1871C-0.923906 52.1961 -0.923906 52.205 -0.923906 52.2139C-0.923906 52.2229 -0.923906 52.2318 -0.923906 52.2407C-0.923906 52.2496 -0.923906 52.2586 -0.923906 52.2675C-0.923906 52.2764 -0.923906 52.2853 -0.923906 52.2943C-0.923906 52.3032 -0.923906 52.3121 -0.923906 52.321C-0.923906 52.3299 -0.923906 52.3389 -0.923906 52.3478C-0.923906 52.3567 -0.923906 52.3656 -0.923906 52.3746C-0.923906 52.3835 -0.923906 52.3924 -0.923906 52.4013C-0.923906 52.4103 -0.923906 52.4192 -0.923906 52.4281C-0.923906 52.437 -0.923906 52.446 -0.923906 52.4549C-0.923906 52.4638 -0.923906 52.4727 -0.923906 52.4817C-0.923906 52.4906 -0.923906 52.4995 -0.923906 52.5084C-0.923906 52.5173 -0.923906 52.5263 -0.923906 52.5352C-0.923906 52.5441 -0.923906 52.553 -0.923906 52.562C-0.923906 52.5709 -0.923906 52.5798 -0.923906 52.5887C-0.923906 52.5977 -0.923906 52.6066 -0.923906 52.6155C-0.923906 52.6244 -0.923906 52.6333 -0.923906 52.6423C-0.923906 52.6512 -0.923906 52.6601 -0.923906 52.669C-0.923906 52.678 -0.923906 52.6869 -0.923906 52.6958C-0.923906 52.7047 -0.923906 52.7136 -0.923906 52.7226C-0.923906 52.7315 -0.923906 52.7404 -0.923906 52.7493C-0.923906 52.7582 -0.923906 52.7672 -0.923906 52.7761C-0.923906 52.785 -0.923906 52.7939 -0.923906 52.8028C-0.923906 52.8118 -0.923906 52.8207 -0.923906 52.8296C-0.923906 52.8385 -0.923906 52.8475 -0.923906 52.8564C-0.923906 52.8653 -0.923906 52.8742 -0.923906 52.8831C-0.923906 52.8921 -0.923906 52.901 -0.923906 52.9099C-0.923906 52.9188 -0.923906 52.9277 -0.923906 52.9367C-0.923906 52.9456 -0.923906 52.9545 -0.923906 52.9634C-0.923906 52.9723 -0.923906 52.9813 -0.923906 52.9902C-0.923906 52.9991 -0.923906 53.008 -0.923906 53.0169C-0.923906 53.0259 -0.923906 53.0348 -0.923906 53.0437C-0.923906 53.0526 -0.923906 53.0615 -0.923906 53.0704C-0.923906 53.0794 -0.923906 53.0883 -0.923906 53.0972C-0.923906 53.1061 -0.923906 53.115 -0.923906 53.124C-0.923906 53.1329 -0.923906 53.1418 -0.923906 53.1507C-0.923906 53.1596 -0.923906 53.1686 -0.923906 53.1775C-0.923906 53.1864 -0.923906 53.1953 -0.923906 53.2042C-0.923906 53.2132 -0.923906 53.2221 -0.923906 53.231C-0.923906 53.2399 -0.923906 53.2488 -0.923906 53.2577C-0.923906 53.2667 -0.923906 53.2756 -0.923906 53.2845C-0.923906 53.2934 -0.923906 53.3023 -0.923906 53.3112C-0.923906 53.3202 -0.923906 53.3291 -0.923906 53.338C-0.923906 53.3469 -0.923906 53.3558 -0.923906 53.3647C-0.923906 53.3737 -0.923906 53.3826 -0.923906 53.3915C-0.923906 53.4004 -0.923906 53.4093 -0.923906 53.4183C-0.923906 53.4272 -0.923906 53.4361 -0.923906 53.445C-0.923906 53.4539 -0.923906 53.4628 -0.923906 53.4718C-0.923906 53.4807 -0.923906 53.4896 -0.923906 53.4985C-0.923906 53.5074 -0.923906 53.5163 -0.923906 53.5253C-0.923906 53.5342 -0.923906 53.5431 -0.923906 53.552C-0.923906 53.5609 -0.923906 53.5698 -0.923906 53.5788C-0.923906 53.5877 -0.923906 53.5966 -0.923906 53.6055C-0.923906 53.6144 -0.923906 53.6233 -0.923906 53.6322C-0.923906 53.6412 -0.923906 53.6501 -0.923906 53.659C-0.923906 53.6679 -0.923906 53.6768 -0.923906 53.6857C-0.923906 53.6947 -0.923906 53.7036 -0.923906 53.7125C-0.923906 53.7214 -0.923906 53.7303 -0.923906 53.7392C-0.923906 53.7481 -0.923906 53.7571 -0.923906 53.766C-0.923906 53.7749 -0.923906 53.7838 -0.923906 53.7927C-0.923906 53.8016 -0.923906 53.8106 -0.923906 53.8195C-0.923906 53.8284 -0.923906 53.8373 -0.923906 53.8462C-0.923906 53.8551 -0.923906 53.864 -0.923906 53.873C-0.923906 53.8819 -0.923906 53.8908 -0.923906 53.8997C-0.923906 53.9086 -0.923906 53.9175 -0.923906 53.9264C-0.923906 53.9354 -0.923906 53.9443 -0.923906 53.9532C-0.923906 53.9621 -0.923906 53.971 -0.923906 53.9799C-0.923906 53.9888 -0.923906 53.9977 -0.923906 54.0067C-0.923906 54.0156 -0.923906 54.0245 -0.923906 54.0334C-0.923906 54.0423 -0.923906 54.0512 -0.923906 54.0601C-0.923906 54.0691 -0.923906 54.078 -0.923906 54.0869C-0.923906 54.0958 -0.923906 54.1047 -0.923906 54.1136C-0.923906 54.1225 -0.923906 54.1315 -0.923906 54.1404C-0.923906 54.1493 -0.923906 54.1582 -0.923906 54.1671C-0.923906 54.176 -0.923906 54.1849 -0.923906 54.1938C-0.923906 54.2028 -0.923906 54.2117 -0.923906 54.2206C-0.923906 54.2295 -0.923906 54.2384 -0.923906 54.2473C-0.923906 54.2562 -0.923906 54.2651 -0.923906 54.2741C-0.923906 54.283 -0.923906 54.2919 -0.923906 54.3008C-0.923906 54.3097 -0.923906 54.3186 -0.923906 54.3275C-0.923906 54.3364 -0.923906 54.3454 -0.923906 54.3543C-0.923906 54.3632 -0.923906 54.3721 -0.923906 54.381C-0.923906 54.3899 -0.923906 54.3988 -0.923906 54.4077C-0.923906 54.4166 -0.923906 54.4256 -0.923906 54.4345C-0.923906 54.4434 -0.923906 54.4523 -0.923906 54.4612C-0.923906 54.4701 -0.923906 54.479 -0.923906 54.4879C-0.923906 54.4969 -0.923906 54.5058 -0.923906 54.5147C-0.923906 54.5236 -0.923906 54.5325 -0.923906 54.5414C-0.923906 54.5503 -0.923906 54.5592 -0.923906 54.5681C-0.923906 54.5771 -0.923906 54.586 -0.923906 54.5949C-0.923906 54.6038 -0.923906 54.6127 -0.923906 54.6216C-0.923906 54.6305 -0.923906 54.6394 -0.923906 54.6483C-0.923906 54.6573 -0.923906 54.6662 -0.923906 54.6751C-0.923906 54.684 -0.923906 54.6929 -0.923906 54.7018C-0.923906 54.7107 -0.923906 54.7196 -0.923906 54.7285C-0.923906 54.7374 -0.923906 54.7464 -0.923906 54.7553C-0.923906 54.7642 -0.923906 54.7731 -0.923906 54.782C-0.923906 54.7909 -0.923906 54.7998 -0.923906 54.8087C-0.923906 54.8176 -0.923906 54.8266 -0.923906 54.8355C-0.923906 54.8444 -0.923906 54.8533 -0.923906 54.8622C-0.923906 54.8711 -0.923906 54.88 -0.923906 54.8889C-0.923906 54.8978 -0.923906 54.9067 -0.923906 54.9157C-0.923906 54.9246 -0.923906 54.9335 -0.923906 54.9424C-0.923906 54.9513 -0.923906 54.9602 -0.923906 54.9691C-0.923906 54.978 -0.923906 54.9869 -0.923906 54.9958C-0.923906 55.0048 -0.923906 55.0137 -0.923906 55.0226C-0.923906 55.0315 -0.923906 55.0404 -0.923906 55.0493C-0.923906 55.0582 -0.923906 55.0671 -0.923906 55.076C-0.923906 55.0849 -0.923906 55.0938 -0.923906 55.1028C-0.923906 55.1117 -0.923906 55.1206 -0.923906 55.1295C-0.923906 55.1384 -0.923906 55.1473 -0.923906 55.1562C-0.923906 55.1651 -0.923906 55.174 -0.923906 55.1829C-0.923906 55.1918 -0.923906 55.2008 -0.923906 55.2097C-0.923906 55.2186 -0.923906 55.2275 -0.923906 55.2364C-0.923906 55.2453 -0.923906 55.2542 -0.923906 55.2631C-0.923906 55.272 -0.923906 55.2809 -0.923906 55.2898C-0.923906 55.2988 -0.923906 55.3077 -0.923906 55.3166C-0.923906 55.3255 -0.923906 55.3344 -0.923906 55.3433C-0.923906 55.3522 -0.923906 55.3611 -0.923906 55.37C-0.923906 55.3789 -0.923906 55.3878 -0.923906 55.3967C-0.923906 55.4057 -0.923906 55.4146 -0.923906 55.4235C-0.923906 55.4324 -0.923906 55.4413 -0.923906 55.4502C-0.923906 55.4591 -0.923906 55.468 -0.923906 55.4769C-0.923906 55.4858 -0.923906 55.4947 -0.923906 55.5036C-0.923906 55.5126 -0.923906 55.5215 -0.923906 55.5304C-0.923906 55.5393 -0.923906 55.5482 -0.923906 55.5571C-0.923906 55.566 -0.923906 55.5749 -0.923906 55.5838C-0.923906 55.5927 -0.923906 55.6016 -0.923906 55.6105C-0.923906 55.6194 -0.923906 55.6284 -0.923906 55.6373C-0.923906 55.6462 -0.923906 55.6551 -0.923906 55.664C-0.923906 55.6729 -0.923906 55.6818 -0.923906 55.6907C-0.923906 55.6996 -0.923906 55.7085 -0.923906 55.7174C-0.923906 55.7263 -0.923906 55.7352 -0.923906 55.7442C-0.923906 55.7531 -0.923906 55.762 -0.923906 55.7709C-0.923906 55.7798 -0.923906 55.7887 -0.923906 55.7976C-0.923906 55.8065 -0.923906 55.8154 -0.923906 55.8243C-0.923906 55.8332 -0.923906 55.8421 -0.923906 55.851C-0.923906 55.86 -0.923906 55.8689 -0.923906 55.8778C-0.923906 55.8867 -0.923906 55.8956 -0.923906 55.9045C-0.923906 55.9134 -0.923906 55.9223 -0.923906 55.9312C-0.923906 55.9401 -0.923906 55.949 -0.923906 55.9579C-0.923906 55.9668 -0.923906 55.9757 -0.923906 55.9847C-0.923906 55.9936 -0.923906 56.0025 -0.923906 56.0114C-0.923906 56.0203 -0.923906 56.0292 -0.923906 56.0381C-0.923906 56.047 -0.923906 56.0559 -0.923906 56.0648C-0.923906 56.0737 -0.923906 56.0826 -0.923906 56.0915C-0.923906 56.1004 -0.923906 56.1094 -0.923906 56.1183C-0.923906 56.1272 -0.923906 56.1361 -0.923906 56.145C-0.923906 56.1539 -0.923906 56.1628 -0.923906 56.1717C-0.923906 56.1806 -0.923906 56.1895 -0.923906 56.1984C-0.923906 56.2073 -0.923906 56.2162 -0.923906 56.2251C-0.923906 56.234 -0.923906 56.243 -0.923906 56.2519C-0.923906 56.2608 -0.923906 56.2697 -0.923906 56.2786C-0.923906 56.2875 -0.923906 56.2964 -0.923906 56.3053C-0.923906 56.3142 -0.923906 56.3231 -0.923906 56.332C-0.923906 56.3409 -0.923906 56.3498 -0.923906 56.3587C-0.923906 56.3676 -0.923906 56.3766 -0.923906 56.3855C-0.923906 56.3944 -0.923906 56.4033 -0.923906 56.4122C-0.923906 56.4211 -0.923906 56.43 -0.923906 56.4389C-0.923906 56.4478 -0.923906 56.4567 -0.923906 56.4656C-0.923906 56.4745 -0.923906 56.4834 -0.923906 56.4923C-0.923906 56.5012 -0.923906 56.5102 -0.923906 56.5191C-0.923906 56.528 -0.923906 56.5369 -0.923906 56.5458C-0.923906 56.5547 -0.923906 56.5636 -0.923906 56.5725C-0.923906 56.5814 -0.923906 56.5903 -0.923906 56.5992C-0.923906 56.6081 -0.923906 56.617 -0.923906 56.6259C-0.923906 56.6348 -0.923906 56.6437 -0.923906 56.6527C-0.923906 56.6616 -0.923906 56.6705 -0.923906 56.6794C-0.923906 56.6883 -0.923906 56.6972 -0.923906 56.7061C-0.923906 56.715 -0.923906 56.7239 -0.923906 56.7328C-0.923906 56.7417 -0.923906 56.7506 -0.923906 56.7595C-0.923906 56.7684 -0.923906 56.7773 -0.923906 56.7863C-0.923906 56.7952 -0.923906 56.8041 -0.923906 56.813C-0.923906 56.8219 -0.923906 56.8308 -0.923906 56.8397C-0.923906 56.8486 -0.923906 56.8575 -0.923906 56.8664C-0.923906 56.8753 -0.923906 56.8842 -0.923906 56.8931C-0.923906 56.902 -0.923906 56.9109 -0.923906 56.9198C-0.923906 56.9287 -0.923906 56.9377 -0.923906 56.9466C-0.923906 56.9555 -0.923906 56.9644 -0.923906 56.9733C-0.923906 56.9822 -0.923906 56.9911 -0.923906 57H1.07609C1.07609 56.9911 1.07609 56.9822 1.07609 56.9733C1.07609 56.9644 1.07609 56.9555 1.07609 56.9466C1.07609 56.9377 1.07609 56.9287 1.07609 56.9198C1.07609 56.9109 1.07609 56.902 1.07609 56.8931C1.07609 56.8842 1.07609 56.8753 1.07609 56.8664C1.07609 56.8575 1.07609 56.8486 1.07609 56.8397C1.07609 56.8308 1.07609 56.8219 1.07609 56.813C1.07609 56.8041 1.07609 56.7952 1.07609 56.7863C1.07609 56.7773 1.07609 56.7684 1.07609 56.7595C1.07609 56.7506 1.07609 56.7417 1.07609 56.7328C1.07609 56.7239 1.07609 56.715 1.07609 56.7061C1.07609 56.6972 1.07609 56.6883 1.07609 56.6794C1.07609 56.6705 1.07609 56.6616 1.07609 56.6527C1.07609 56.6437 1.07609 56.6348 1.07609 56.6259C1.07609 56.617 1.07609 56.6081 1.07609 56.5992C1.07609 56.5903 1.07609 56.5814 1.07609 56.5725C1.07609 56.5636 1.07609 56.5547 1.07609 56.5458C1.07609 56.5369 1.07609 56.528 1.07609 56.5191C1.07609 56.5102 1.07609 56.5012 1.07609 56.4923C1.07609 56.4834 1.07609 56.4745 1.07609 56.4656C1.07609 56.4567 1.07609 56.4478 1.07609 56.4389C1.07609 56.43 1.07609 56.4211 1.07609 56.4122C1.07609 56.4033 1.07609 56.3944 1.07609 56.3855C1.07609 56.3766 1.07609 56.3676 1.07609 56.3587C1.07609 56.3498 1.07609 56.3409 1.07609 56.332C1.07609 56.3231 1.07609 56.3142 1.07609 56.3053C1.07609 56.2964 1.07609 56.2875 1.07609 56.2786C1.07609 56.2697 1.07609 56.2608 1.07609 56.2519C1.07609 56.243 1.07609 56.234 1.07609 56.2251C1.07609 56.2162 1.07609 56.2073 1.07609 56.1984C1.07609 56.1895 1.07609 56.1806 1.07609 56.1717C1.07609 56.1628 1.07609 56.1539 1.07609 56.145C1.07609 56.1361 1.07609 56.1272 1.07609 56.1183C1.07609 56.1094 1.07609 56.1004 1.07609 56.0915C1.07609 56.0826 1.07609 56.0737 1.07609 56.0648C1.07609 56.0559 1.07609 56.047 1.07609 56.0381C1.07609 56.0292 1.07609 56.0203 1.07609 56.0114C1.07609 56.0025 1.07609 55.9936 1.07609 55.9847C1.07609 55.9757 1.07609 55.9668 1.07609 55.9579C1.07609 55.949 1.07609 55.9401 1.07609 55.9312C1.07609 55.9223 1.07609 55.9134 1.07609 55.9045C1.07609 55.8956 1.07609 55.8867 1.07609 55.8778C1.07609 55.8689 1.07609 55.86 1.07609 55.851C1.07609 55.8421 1.07609 55.8332 1.07609 55.8243C1.07609 55.8154 1.07609 55.8065 1.07609 55.7976C1.07609 55.7887 1.07609 55.7798 1.07609 55.7709C1.07609 55.762 1.07609 55.7531 1.07609 55.7442C1.07609 55.7352 1.07609 55.7263 1.07609 55.7174C1.07609 55.7085 1.07609 55.6996 1.07609 55.6907C1.07609 55.6818 1.07609 55.6729 1.07609 55.664C1.07609 55.6551 1.07609 55.6462 1.07609 55.6373C1.07609 55.6284 1.07609 55.6194 1.07609 55.6105C1.07609 55.6016 1.07609 55.5927 1.07609 55.5838C1.07609 55.5749 1.07609 55.566 1.07609 55.5571C1.07609 55.5482 1.07609 55.5393 1.07609 55.5304C1.07609 55.5215 1.07609 55.5126 1.07609 55.5036C1.07609 55.4947 1.07609 55.4858 1.07609 55.4769C1.07609 55.468 1.07609 55.4591 1.07609 55.4502C1.07609 55.4413 1.07609 55.4324 1.07609 55.4235C1.07609 55.4146 1.07609 55.4057 1.07609 55.3967C1.07609 55.3878 1.07609 55.3789 1.07609 55.37C1.07609 55.3611 1.07609 55.3522 1.07609 55.3433C1.07609 55.3344 1.07609 55.3255 1.07609 55.3166C1.07609 55.3077 1.07609 55.2988 1.07609 55.2898C1.07609 55.2809 1.07609 55.272 1.07609 55.2631C1.07609 55.2542 1.07609 55.2453 1.07609 55.2364C1.07609 55.2275 1.07609 55.2186 1.07609 55.2097C1.07609 55.2008 1.07609 55.1918 1.07609 55.1829C1.07609 55.174 1.07609 55.1651 1.07609 55.1562C1.07609 55.1473 1.07609 55.1384 1.07609 55.1295C1.07609 55.1206 1.07609 55.1117 1.07609 55.1028C1.07609 55.0938 1.07609 55.0849 1.07609 55.076C1.07609 55.0671 1.07609 55.0582 1.07609 55.0493C1.07609 55.0404 1.07609 55.0315 1.07609 55.0226C1.07609 55.0137 1.07609 55.0048 1.07609 54.9958C1.07609 54.9869 1.07609 54.978 1.07609 54.9691C1.07609 54.9602 1.07609 54.9513 1.07609 54.9424C1.07609 54.9335 1.07609 54.9246 1.07609 54.9157C1.07609 54.9067 1.07609 54.8978 1.07609 54.8889C1.07609 54.88 1.07609 54.8711 1.07609 54.8622C1.07609 54.8533 1.07609 54.8444 1.07609 54.8355C1.07609 54.8266 1.07609 54.8176 1.07609 54.8087C1.07609 54.7998 1.07609 54.7909 1.07609 54.782C1.07609 54.7731 1.07609 54.7642 1.07609 54.7553C1.07609 54.7464 1.07609 54.7374 1.07609 54.7285C1.07609 54.7196 1.07609 54.7107 1.07609 54.7018C1.07609 54.6929 1.07609 54.684 1.07609 54.6751C1.07609 54.6662 1.07609 54.6573 1.07609 54.6483C1.07609 54.6394 1.07609 54.6305 1.07609 54.6216C1.07609 54.6127 1.07609 54.6038 1.07609 54.5949C1.07609 54.586 1.07609 54.5771 1.07609 54.5681C1.07609 54.5592 1.07609 54.5503 1.07609 54.5414C1.07609 54.5325 1.07609 54.5236 1.07609 54.5147C1.07609 54.5058 1.07609 54.4969 1.07609 54.4879C1.07609 54.479 1.07609 54.4701 1.07609 54.4612C1.07609 54.4523 1.07609 54.4434 1.07609 54.4345C1.07609 54.4256 1.07609 54.4166 1.07609 54.4077C1.07609 54.3988 1.07609 54.3899 1.07609 54.381C1.07609 54.3721 1.07609 54.3632 1.07609 54.3543C1.07609 54.3454 1.07609 54.3364 1.07609 54.3275C1.07609 54.3186 1.07609 54.3097 1.07609 54.3008C1.07609 54.2919 1.07609 54.283 1.07609 54.2741C1.07609 54.2651 1.07609 54.2562 1.07609 54.2473C1.07609 54.2384 1.07609 54.2295 1.07609 54.2206C1.07609 54.2117 1.07609 54.2028 1.07609 54.1938C1.07609 54.1849 1.07609 54.176 1.07609 54.1671C1.07609 54.1582 1.07609 54.1493 1.07609 54.1404C1.07609 54.1315 1.07609 54.1225 1.07609 54.1136C1.07609 54.1047 1.07609 54.0958 1.07609 54.0869C1.07609 54.078 1.07609 54.0691 1.07609 54.0601C1.07609 54.0512 1.07609 54.0423 1.07609 54.0334C1.07609 54.0245 1.07609 54.0156 1.07609 54.0067C1.07609 53.9977 1.07609 53.9888 1.07609 53.9799C1.07609 53.971 1.07609 53.9621 1.07609 53.9532C1.07609 53.9443 1.07609 53.9354 1.07609 53.9264C1.07609 53.9175 1.07609 53.9086 1.07609 53.8997C1.07609 53.8908 1.07609 53.8819 1.07609 53.873C1.07609 53.864 1.07609 53.8551 1.07609 53.8462C1.07609 53.8373 1.07609 53.8284 1.07609 53.8195C1.07609 53.8106 1.07609 53.8016 1.07609 53.7927C1.07609 53.7838 1.07609 53.7749 1.07609 53.766C1.07609 53.7571 1.07609 53.7481 1.07609 53.7392C1.07609 53.7303 1.07609 53.7214 1.07609 53.7125C1.07609 53.7036 1.07609 53.6947 1.07609 53.6857C1.07609 53.6768 1.07609 53.6679 1.07609 53.659C1.07609 53.6501 1.07609 53.6412 1.07609 53.6322C1.07609 53.6233 1.07609 53.6144 1.07609 53.6055C1.07609 53.5966 1.07609 53.5877 1.07609 53.5788C1.07609 53.5698 1.07609 53.5609 1.07609 53.552C1.07609 53.5431 1.07609 53.5342 1.07609 53.5253C1.07609 53.5163 1.07609 53.5074 1.07609 53.4985C1.07609 53.4896 1.07609 53.4807 1.07609 53.4718C1.07609 53.4628 1.07609 53.4539 1.07609 53.445C1.07609 53.4361 1.07609 53.4272 1.07609 53.4183C1.07609 53.4093 1.07609 53.4004 1.07609 53.3915C1.07609 53.3826 1.07609 53.3737 1.07609 53.3647C1.07609 53.3558 1.07609 53.3469 1.07609 53.338C1.07609 53.3291 1.07609 53.3202 1.07609 53.3112C1.07609 53.3023 1.07609 53.2934 1.07609 53.2845C1.07609 53.2756 1.07609 53.2667 1.07609 53.2577C1.07609 53.2488 1.07609 53.2399 1.07609 53.231C1.07609 53.2221 1.07609 53.2132 1.07609 53.2042C1.07609 53.1953 1.07609 53.1864 1.07609 53.1775C1.07609 53.1686 1.07609 53.1596 1.07609 53.1507C1.07609 53.1418 1.07609 53.1329 1.07609 53.124C1.07609 53.115 1.07609 53.1061 1.07609 53.0972C1.07609 53.0883 1.07609 53.0794 1.07609 53.0704C1.07609 53.0615 1.07609 53.0526 1.07609 53.0437C1.07609 53.0348 1.07609 53.0259 1.07609 53.0169C1.07609 53.008 1.07609 52.9991 1.07609 52.9902C1.07609 52.9813 1.07609 52.9723 1.07609 52.9634C1.07609 52.9545 1.07609 52.9456 1.07609 52.9367C1.07609 52.9277 1.07609 52.9188 1.07609 52.9099C1.07609 52.901 1.07609 52.8921 1.07609 52.8831C1.07609 52.8742 1.07609 52.8653 1.07609 52.8564C1.07609 52.8475 1.07609 52.8385 1.07609 52.8296C1.07609 52.8207 1.07609 52.8118 1.07609 52.8028C1.07609 52.7939 1.07609 52.785 1.07609 52.7761C1.07609 52.7672 1.07609 52.7582 1.07609 52.7493C1.07609 52.7404 1.07609 52.7315 1.07609 52.7226C1.07609 52.7136 1.07609 52.7047 1.07609 52.6958C1.07609 52.6869 1.07609 52.678 1.07609 52.669C1.07609 52.6601 1.07609 52.6512 1.07609 52.6423C1.07609 52.6333 1.07609 52.6244 1.07609 52.6155C1.07609 52.6066 1.07609 52.5977 1.07609 52.5887C1.07609 52.5798 1.07609 52.5709 1.07609 52.562C1.07609 52.553 1.07609 52.5441 1.07609 52.5352C1.07609 52.5263 1.07609 52.5173 1.07609 52.5084C1.07609 52.4995 1.07609 52.4906 1.07609 52.4817C1.07609 52.4727 1.07609 52.4638 1.07609 52.4549C1.07609 52.446 1.07609 52.437 1.07609 52.4281C1.07609 52.4192 1.07609 52.4103 1.07609 52.4013C1.07609 52.3924 1.07609 52.3835 1.07609 52.3746C1.07609 52.3656 1.07609 52.3567 1.07609 52.3478C1.07609 52.3389 1.07609 52.3299 1.07609 52.321C1.07609 52.3121 1.07609 52.3032 1.07609 52.2943C1.07609 52.2853 1.07609 52.2764 1.07609 52.2675C1.07609 52.2586 1.07609 52.2496 1.07609 52.2407C1.07609 52.2318 1.07609 52.2229 1.07609 52.2139C1.07609 52.205 1.07609 52.1961 1.07609 52.1871C1.07609 52.1782 1.07609 52.1693 1.07609 52.1604C1.07609 52.1514 1.07609 52.1425 1.07609 52.1336C1.07609 52.1247 1.07609 52.1157 1.07609 52.1068C1.07609 52.0979 1.07609 52.089 1.07609 52.08C1.07609 52.0711 1.07609 52.0622 1.07609 52.0533C1.07609 52.0443 1.07609 52.0354 1.07609 52.0265C1.07609 52.0176 1.07609 52.0086 1.07609 51.9997C1.07609 51.9908 1.07609 51.9818 1.07609 51.9729C1.07609 51.964 1.07609 51.9551 1.07609 51.9461C1.07609 51.9372 1.07609 51.9283 1.07609 51.9193C1.07609 51.9104 1.07609 51.9015 1.07609 51.8926C1.07609 51.8836 1.07609 51.8747 1.07609 51.8658C1.07609 51.8569 1.07609 51.8479 1.07609 51.839C1.07609 51.8301 1.07609 51.8211 1.07609 51.8122C1.07609 51.8033 1.07609 51.7944 1.07609 51.7854C1.07609 51.7765 1.07609 51.7676 1.07609 51.7586C1.07609 51.7497 1.07609 51.7408 1.07609 51.7318C1.07609 51.7229 1.07609 51.714 1.07609 51.7051C1.07609 51.6961 1.07609 51.6872 1.07609 51.6783C1.07609 51.6693 1.07609 51.6604 1.07609 51.6515C1.07609 51.6426 1.07609 51.6336 1.07609 51.6247C1.07609 51.6158 1.07609 51.6068 1.07609 51.5979C1.07609 51.589 1.07609 51.58 1.07609 51.5711C1.07609 51.5622 1.07609 51.5532 1.07609 51.5443C1.07609 51.5354 1.07609 51.5265 1.07609 51.5175C1.07609 51.5086 1.07609 51.4997 1.07609 51.4907C1.07609 51.4818 1.07609 51.4729 1.07609 51.4639C1.07609 51.455 1.07609 51.4461 1.07609 51.4371C1.07609 51.4282 1.07609 51.4193 1.07609 51.4103C1.07609 51.4014 1.07609 51.3925 1.07609 51.3835C1.07609 51.3746 1.07609 51.3657 1.07609 51.3567C1.07609 51.3478 1.07609 51.3389 1.07609 51.3299C1.07609 51.321 1.07609 51.3121 1.07609 51.3031C1.07609 51.2942 1.07609 51.2853 1.07609 51.2763C1.07609 51.2674 1.07609 51.2585 1.07609 51.2495C1.07609 51.2406 1.07609 51.2317 1.07609 51.2227C1.07609 51.2138 1.07609 51.2049 1.07609 51.1959C1.07609 51.187 1.07609 51.1781 1.07609 51.1691C1.07609 51.1602 1.07609 51.1513 1.07609 51.1423C1.07609 51.1334 1.07609 51.1245 1.07609 51.1155C1.07609 51.1066 1.07609 51.0977 1.07609 51.0887C1.07609 51.0798 1.07609 51.0709 1.07609 51.0619C1.07609 51.053 1.07609 51.044 1.07609 51.0351C1.07609 51.0262 1.07609 51.0172 1.07609 51.0083C1.07609 50.9994 1.07609 50.9904 1.07609 50.9815C1.07609 50.9726 1.07609 50.9636 1.07609 50.9547C1.07609 50.9457 1.07609 50.9368 1.07609 50.9279C1.07609 50.9189 1.07609 50.91 1.07609 50.9011C1.07609 50.8921 1.07609 50.8832 1.07609 50.8742C1.07609 50.8653 1.07609 50.8564 1.07609 50.8474C1.07609 50.8385 1.07609 50.8296 1.07609 50.8206C1.07609 50.8117 1.07609 50.8027 1.07609 50.7938C1.07609 50.7849 1.07609 50.7759 1.07609 50.767C1.07609 50.7581 1.07609 50.7491 1.07609 50.7402C1.07609 50.7312 1.07609 50.7223 1.07609 50.7134C1.07609 50.7044 1.07609 50.6955 1.07609 50.6865C1.07609 50.6776 1.07609 50.6687 1.07609 50.6597C1.07609 50.6508 1.07609 50.6418 1.07609 50.6329C1.07609 50.624 1.07609 50.615 1.07609 50.6061C1.07609 50.5971 1.07609 50.5882 1.07609 50.5793C1.07609 50.5703 1.07609 50.5614 1.07609 50.5524C1.07609 50.5435 1.07609 50.5346 1.07609 50.5256C1.07609 50.5167 1.07609 50.5077 1.07609 50.4988C1.07609 50.4898 1.07609 50.4809 1.07609 50.472C1.07609 50.463 1.07609 50.4541 1.07609 50.4451C1.07609 50.4362 1.07609 50.4273 1.07609 50.4183C1.07609 50.4094 1.07609 50.4004 1.07609 50.3915C1.07609 50.3825 1.07609 50.3736 1.07609 50.3647C1.07609 50.3557 1.07609 50.3468 1.07609 50.3378C1.07609 50.3289 1.07609 50.3199 1.07609 50.311C1.07609 50.3021 1.07609 50.2931 1.07609 50.2842C1.07609 50.2752 1.07609 50.2663 1.07609 50.2573C1.07609 50.2484 1.07609 50.2394 1.07609 50.2305C1.07609 50.2216 1.07609 50.2126 1.07609 50.2037C1.07609 50.1947 1.07609 50.1858 1.07609 50.1768C1.07609 50.1679 1.07609 50.1589 1.07609 50.15C1.07609 50.1411 1.07609 50.1321 1.07609 50.1232C1.07609 50.1142 1.07609 50.1053 1.07609 50.0963C1.07609 50.0874 1.07609 50.0784 1.07609 50.0695C1.07609 50.0605 1.07609 50.0516 1.07609 50.0426C1.07609 50.0337 1.07609 50.0248 1.07609 50.0158C1.07609 50.0069 1.07609 49.9979 1.07609 49.989C1.07609 49.98 1.07609 49.9711 1.07609 49.9621C1.07609 49.9532 1.07609 49.9442 1.07609 49.9353C1.07609 49.9263 1.07609 49.9174 1.07609 49.9084C1.07609 49.8995 1.07609 49.8905 1.07609 49.8816C1.07609 49.8726 1.07609 49.8637 1.07609 49.8547C1.07609 49.8458 1.07609 49.8368 1.07609 49.8279C1.07609 49.819 1.07609 49.81 1.07609 49.8011C1.07609 49.7921 1.07609 49.7832 1.07609 49.7742C1.07609 49.7653 1.07609 49.7563 1.07609 49.7474C1.07609 49.7384 1.07609 49.7295 1.07609 49.7205C1.07609 49.7116 1.07609 49.7026 1.07609 49.6937C1.07609 49.6847 1.07609 49.6758 1.07609 49.6668C1.07609 49.6578 1.07609 49.6489 1.07609 49.6399C1.07609 49.631 1.07609 49.622 1.07609 49.6131C1.07609 49.6041 1.07609 49.5952 1.07609 49.5862C1.07609 49.5773 1.07609 49.5683 1.07609 49.5594C1.07609 49.5504 1.07609 49.5415 1.07609 49.5325C1.07609 49.5236 1.07609 49.5146 1.07609 49.5057C1.07609 49.4967 1.07609 49.4878 1.07609 49.4788C1.07609 49.4699 1.07609 49.4609 1.07609 49.4519C1.07609 49.443 1.07609 49.434 1.07609 49.4251C1.07609 49.4161 1.07609 49.4072 1.07609 49.3982C1.07609 49.3893 1.07609 49.3803 1.07609 49.3714C1.07609 49.3624 1.07609 49.3534 1.07609 49.3445C1.07609 49.3355 1.07609 49.3266 1.07609 49.3176C1.07609 49.3087 1.07609 49.2997 1.07609 49.2908C1.07609 49.2818 1.07609 49.2729 1.07609 49.2639C1.07609 49.2549 1.07609 49.246 1.07609 49.237C1.07609 49.2281 1.07609 49.2191 1.07609 49.2102C1.07609 49.2012 1.07609 49.1922 1.07609 49.1833C1.07609 49.1743 1.07609 49.1654 1.07609 49.1564C1.07609 49.1475 1.07609 49.1385 1.07609 49.1295C1.07609 49.1206 1.07609 49.1116 1.07609 49.1027C1.07609 49.0937 1.07609 49.0848 1.07609 49.0758C1.07609 49.0668 1.07609 49.0579 1.07609 49.0489C1.07609 49.04 1.07609 49.031 1.07609 49.022C1.07609 49.0131 1.07609 49.0041 1.07609 48.9952C1.07609 48.9862 1.07609 48.9772 1.07609 48.9683C1.07609 48.9593 1.07609 48.9504 1.07609 48.9414C1.07609 48.9324 1.07609 48.9235 1.07609 48.9145C1.07609 48.9056 1.07609 48.8966 1.07609 48.8876C1.07609 48.8787 1.07609 48.8697 1.07609 48.8608C1.07609 48.8518 1.07609 48.8428 1.07609 48.8339C1.07609 48.8249 1.07609 48.8159 1.07609 48.807C1.07609 48.798 1.07609 48.7891 1.07609 48.7801C1.07609 48.7711 1.07609 48.7622 1.07609 48.7532C1.07609 48.7442 1.07609 48.7353 1.07609 48.7263C1.07609 48.7174 1.07609 48.7084 1.07609 48.6994C1.07609 48.6905 1.07609 48.6815 1.07609 48.6725C1.07609 48.6636 1.07609 48.6546 1.07609 48.6456C1.07609 48.6367 1.07609 48.6277 1.07609 48.6188C1.07609 48.6098 1.07609 48.6008 1.07609 48.5919C1.07609 48.5829 1.07609 48.5739 1.07609 48.565C1.07609 48.556 1.07609 48.547 1.07609 48.5381C1.07609 48.5291 1.07609 48.5201 1.07609 48.5112C1.07609 48.5022 1.07609 48.4932 1.07609 48.4843C1.07609 48.4753 1.07609 48.4663 1.07609 48.4574C1.07609 48.4484 1.07609 48.4394 1.07609 48.4305C1.07609 48.4215 1.07609 48.4125 1.07609 48.4036C1.07609 48.3946 1.07609 48.3856 1.07609 48.3767C1.07609 48.3677 1.07609 48.3587 1.07609 48.3498C1.07609 48.3408 1.07609 48.3318 1.07609 48.3229C1.07609 48.3139 1.07609 48.3049 1.07609 48.2959C1.07609 48.287 1.07609 48.278 1.07609 48.269C1.07609 48.2601 1.07609 48.2511 1.07609 48.2421C1.07609 48.2332 1.07609 48.2242 1.07609 48.2152C1.07609 48.2062 1.07609 48.1973 1.07609 48.1883C1.07609 48.1793 1.07609 48.1704 1.07609 48.1614C1.07609 48.1524 1.07609 48.1434 1.07609 48.1345C1.07609 48.1255 1.07609 48.1165 1.07609 48.1076C1.07609 48.0986 1.07609 48.0896 1.07609 48.0806C1.07609 48.0717 1.07609 48.0627 1.07609 48.0537C1.07609 48.0448 1.07609 48.0358 1.07609 48.0268C1.07609 48.0178 1.07609 48.0089 1.07609 47.9999C1.07609 47.9909 1.07609 47.9819 1.07609 47.973C1.07609 47.964 1.07609 47.955 1.07609 47.946C1.07609 47.9371 1.07609 47.9281 1.07609 47.9191C1.07609 47.9101 1.07609 47.9012 1.07609 47.8922C1.07609 47.8832 1.07609 47.8742 1.07609 47.8653C1.07609 47.8563 1.07609 47.8473 1.07609 47.8383C1.07609 47.8294 1.07609 47.8204 1.07609 47.8114C1.07609 47.8024 1.07609 47.7935 1.07609 47.7845C1.07609 47.7755 1.07609 47.7665 1.07609 47.7576C1.07609 47.7486 1.07609 47.7396 1.07609 47.7306C1.07609 47.7216 1.07609 47.7127 1.07609 47.7037C1.07609 47.6947 1.07609 47.6857 1.07609 47.6768C1.07609 47.6678 1.07609 47.6588 1.07609 47.6498C1.07609 47.6408 1.07609 47.6319 1.07609 47.6229C1.07609 47.6139 1.07609 47.6049 1.07609 47.5959C1.07609 47.587 1.07609 47.578 1.07609 47.569C1.07609 47.56 1.07609 47.551 1.07609 47.5421C1.07609 47.5331 1.07609 47.5241 1.07609 47.5151C1.07609 47.5061 1.07609 47.4972 1.07609 47.4882C1.07609 47.4792 1.07609 47.4702 1.07609 47.4612C1.07609 47.4523 1.07609 47.4433 1.07609 47.4343C1.07609 47.4253 1.07609 47.4163 1.07609 47.4073C1.07609 47.3984 1.07609 47.3894 1.07609 47.3804C1.07609 47.3714 1.07609 47.3624 1.07609 47.3534C1.07609 47.3445 1.07609 47.3355 1.07609 47.3265C1.07609 47.3175 1.07609 47.3085 1.07609 47.2995C1.07609 47.2906 1.07609 47.2816 1.07609 47.2726C1.07609 47.2636 1.07609 47.2546 1.07609 47.2456C1.07609 47.2366 1.07609 47.2277 1.07609 47.2187C1.07609 47.2097 1.07609 47.2007 1.07609 47.1917C1.07609 47.1827 1.07609 47.1737 1.07609 47.1648C1.07609 47.1558 1.07609 47.1468 1.07609 47.1378C1.07609 47.1288 1.07609 47.1198 1.07609 47.1108C1.07609 47.1018 1.07609 47.0929 1.07609 47.0839C1.07609 47.0749 1.07609 47.0659 1.07609 47.0569C1.07609 47.0479 1.07609 47.0389 1.07609 47.0299C1.07609 47.021 1.07609 47.012 1.07609 47.003C1.07609 46.994 1.07609 46.985 1.07609 46.976C1.07609 46.967 1.07609 46.958 1.07609 46.949C1.07609 46.94 1.07609 46.9311 1.07609 46.9221C1.07609 46.9131 1.07609 46.9041 1.07609 46.8951C1.07609 46.8861 1.07609 46.8771 1.07609 46.8681C1.07609 46.8591 1.07609 46.8501 1.07609 46.8411C1.07609 46.8322 1.07609 46.8232 1.07609 46.8142C1.07609 46.8052 1.07609 46.7962 1.07609 46.7872C1.07609 46.7782 1.07609 46.7692 1.07609 46.7602C1.07609 46.7512 1.07609 46.7422 1.07609 46.7332C1.07609 46.7242 1.07609 46.7152 1.07609 46.7062C1.07609 46.6973 1.07609 46.6883 1.07609 46.6793C1.07609 46.6703 1.07609 46.6613 1.07609 46.6523C1.07609 46.6433 1.07609 46.6343 1.07609 46.6253C1.07609 46.6163 1.07609 46.6073 1.07609 46.5983C1.07609 46.5893 1.07609 46.5803 1.07609 46.5713C1.07609 46.5623 1.07609 46.5533 1.07609 46.5443C1.07609 46.5353 1.07609 46.5263 1.07609 46.5173C1.07609 46.5083 1.07609 46.4993 1.07609 46.4903C1.07609 46.4813 1.07609 46.4724 1.07609 46.4634C1.07609 46.4544 1.07609 46.4454 1.07609 46.4364C1.07609 46.4274 1.07609 46.4184 1.07609 46.4094C1.07609 46.4004 1.07609 46.3914 1.07609 46.3824C1.07609 46.3734 1.07609 46.3644 1.07609 46.3554C1.07609 46.3464 1.07609 46.3374 1.07609 46.3284C1.07609 46.3194 1.07609 46.3104 1.07609 46.3014C1.07609 46.2924 1.07609 46.2834 1.07609 46.2744C1.07609 46.2654 1.07609 46.2563 1.07609 46.2473C1.07609 46.2383 1.07609 46.2293 1.07609 46.2203C1.07609 46.2113 1.07609 46.2023 1.07609 46.1933C1.07609 46.1843 1.07609 46.1753 1.07609 46.1663C1.07609 46.1573 1.07609 46.1483 1.07609 46.1393C1.07609 46.1303 1.07609 46.1213 1.07609 46.1123C1.07609 46.1033 1.07609 46.0943 1.07609 46.0853C1.07609 46.0763 1.07609 46.0673 1.07609 46.0583C1.07609 46.0493 1.07609 46.0403 1.07609 46.0312C1.07609 46.0222 1.07609 46.0132 1.07609 46.0042C1.07609 45.9952 1.07609 45.9862 1.07609 45.9772C1.07609 45.9682 1.07609 45.9592 1.07609 45.9502C1.07609 45.9412 1.07609 45.9322 1.07609 45.9232C1.07609 45.9142 1.07609 45.9052 1.07609 45.8961C1.07609 45.8871 1.07609 45.8781 1.07609 45.8691C1.07609 45.8601 1.07609 45.8511 1.07609 45.8421C1.07609 45.8331 1.07609 45.8241 1.07609 45.8151C1.07609 45.806 1.07609 45.797 1.07609 45.788C1.07609 45.779 1.07609 45.77 1.07609 45.761C1.07609 45.752 1.07609 45.743 1.07609 45.734C1.07609 45.725 1.07609 45.7159 1.07609 45.7069C1.07609 45.6979 1.07609 45.6889 1.07609 45.6799C1.07609 45.6709 1.07609 45.6619 1.07609 45.6529C1.07609 45.6438 1.07609 45.6348 1.07609 45.6258C1.07609 45.6168 1.07609 45.6078 1.07609 45.5988C1.07609 45.5898 1.07609 45.5807 1.07609 45.5717C1.07609 45.5627 1.07609 45.5537 1.07609 45.5447C1.07609 45.5357 1.07609 45.5267 1.07609 45.5176C1.07609 45.5086 1.07609 45.4996 1.07609 45.4906C1.07609 45.4816 1.07609 45.4726 1.07609 45.4635C1.07609 45.4545 1.07609 45.4455 1.07609 45.4365C1.07609 45.4275 1.07609 45.4185 1.07609 45.4094C1.07609 45.4004 1.07609 45.3914 1.07609 45.3824C1.07609 45.3734 1.07609 45.3644 1.07609 45.3553C1.07609 45.3463 1.07609 45.3373 1.07609 45.3283C1.07609 45.3193 1.07609 45.3102 1.07609 45.3012C1.07609 45.2922 1.07609 45.2832 1.07609 45.2742C1.07609 45.2651 1.07609 45.2561 1.07609 45.2471C1.07609 45.2381 1.07609 45.2291 1.07609 45.22C1.07609 45.211 1.07609 45.202 1.07609 45.193C1.07609 45.184 1.07609 45.1749 1.07609 45.1659C1.07609 45.1569 1.07609 45.1479 1.07609 45.1388C1.07609 45.1298 1.07609 45.1208 1.07609 45.1118C1.07609 45.1027 1.07609 45.0937 1.07609 45.0847C1.07609 45.0757 1.07609 45.0667 1.07609 45.0576C1.07609 45.0486 1.07609 45.0396 1.07609 45.0306C1.07609 45.0215 1.07609 45.0125 1.07609 45.0035C1.07609 44.9945 1.07609 44.9854 1.07609 44.9764C1.07609 44.9674 1.07609 44.9584 1.07609 44.9493C1.07609 44.9403 1.07609 44.9313 1.07609 44.9222C1.07609 44.9132 1.07609 44.9042 1.07609 44.8952C1.07609 44.8861 1.07609 44.8771 1.07609 44.8681C1.07609 44.8591 1.07609 44.85 1.07609 44.841C1.07609 44.832 1.07609 44.8229 1.07609 44.8139C1.07609 44.8049 1.07609 44.7959 1.07609 44.7868C1.07609 44.7778 1.07609 44.7688 1.07609 44.7597C1.07609 44.7507 1.07609 44.7417 1.07609 44.7326C1.07609 44.7236 1.07609 44.7146 1.07609 44.7055C1.07609 44.6965 1.07609 44.6875 1.07609 44.6785C1.07609 44.6694 1.07609 44.6604 1.07609 44.6514C1.07609 44.6423 1.07609 44.6333 1.07609 44.6243C1.07609 44.6152 1.07609 44.6062 1.07609 44.5972C1.07609 44.5881 1.07609 44.5791 1.07609 44.5701C1.07609 44.561 1.07609 44.552 1.07609 44.543C1.07609 44.5339 1.07609 44.5249 1.07609 44.5159C1.07609 44.5068 1.07609 44.4978 1.07609 44.4887C1.07609 44.4797 1.07609 44.4707 1.07609 44.4616C1.07609 44.4526 1.07609 44.4436 1.07609 44.4345C1.07609 44.4255 1.07609 44.4165 1.07609 44.4074C1.07609 44.3984 1.07609 44.3893 1.07609 44.3803C1.07609 44.3713 1.07609 44.3622 1.07609 44.3532C1.07609 44.3442 1.07609 44.3351 1.07609 44.3261C1.07609 44.317 1.07609 44.308 1.07609 44.299C1.07609 44.2899 1.07609 44.2809 1.07609 44.2718C1.07609 44.2628 1.07609 44.2538 1.07609 44.2447C1.07609 44.2357 1.07609 44.2266 1.07609 44.2176C1.07609 44.2085 1.07609 44.1995 1.07609 44.1905C1.07609 44.1814 1.07609 44.1724 1.07609 44.1633C1.07609 44.1543 1.07609 44.1453 1.07609 44.1362C1.07609 44.1272 1.07609 44.1181 1.07609 44.1091C1.07609 44.1 1.07609 44.091 1.07609 44.082C1.07609 44.0729 1.07609 44.0639 1.07609 44.0548C1.07609 44.0458 1.07609 44.0367 1.07609 44.0277C1.07609 44.0186 1.07609 44.0096 1.07609 44.0005C1.07609 43.9915 1.07609 43.9825 1.07609 43.9734C1.07609 43.9644 1.07609 43.9553 1.07609 43.9463C1.07609 43.9372 1.07609 43.9282 1.07609 43.9191C1.07609 43.9101 1.07609 43.901 1.07609 43.892C1.07609 43.8829 1.07609 43.8739 1.07609 43.8648C1.07609 43.8558 1.07609 43.8467 1.07609 43.8377C1.07609 43.8286 1.07609 43.8196 1.07609 43.8105C1.07609 43.8015 1.07609 43.7924 1.07609 43.7834C1.07609 43.7743 1.07609 43.7653 1.07609 43.7562C1.07609 43.7472 1.07609 43.7381 1.07609 43.7291C1.07609 43.72 1.07609 43.711 1.07609 43.7019C1.07609 43.6929 1.07609 43.6838 1.07609 43.6748C1.07609 43.6657 1.07609 43.6567 1.07609 43.6476C1.07609 43.6386 1.07609 43.6295 1.07609 43.6204C1.07609 43.6114 1.07609 43.6023 1.07609 43.5933C1.07609 43.5842 1.07609 43.5752 1.07609 43.5661C1.07609 43.5571 1.07609 43.548 1.07609 43.539C1.07609 43.5299 1.07609 43.5208 1.07609 43.5118C1.07609 43.5027 1.07609 43.4937 1.07609 43.4846C1.07609 43.4756 1.07609 43.4665 1.07609 43.4574C1.07609 43.4484 1.07609 43.4393 1.07609 43.4303C1.07609 43.4212 1.07609 43.4122 1.07609 43.4031C1.07609 43.394 1.07609 43.385 1.07609 43.3759C1.07609 43.3669 1.07609 43.3578 1.07609 43.3487C1.07609 43.3397 1.07609 43.3306 1.07609 43.3216C1.07609 43.3125 1.07609 43.3034 1.07609 43.2944C1.07609 43.2853 1.07609 43.2762 1.07609 43.2672C1.07609 43.2581 1.07609 43.2491 1.07609 43.24H-0.923906ZM0.0760942 58H45.3561V56H0.0760942V58ZM46.3561 57V45.48H44.3561V57H46.3561ZM45.3561 44.48H11.8361V46.48H45.3561V44.48ZM12.8361 45.48V43.32H10.8361V45.48H12.8361ZM12.8361 43.32C12.8361 41.7272 13.2182 40.5766 13.7984 39.7261C14.3817 38.8712 15.215 38.2469 16.233 37.7935C18.3101 36.8683 20.9969 36.72 23.3561 36.72V34.72C20.9953 34.72 17.9221 34.8517 15.4192 35.9665C14.1472 36.5331 12.9855 37.3688 12.1463 38.5989C11.304 39.8334 10.8361 41.3928 10.8361 43.32H12.8361ZM23.3561 36.72C29.8633 36.72 35.7103 35.7167 39.9508 32.8153C44.2668 29.8622 46.7561 25.0593 46.7561 17.88H44.7561C44.7561 24.5407 42.4854 28.6578 38.8214 31.1647C35.0819 33.7233 29.7289 34.72 23.3561 34.72V36.72ZM46.7561 17.88C46.7561 11.502 43.9471 6.801 39.5594 3.73067C35.2122 0.688672 29.3717 -0.720004 23.2761 -0.720004V1.28C29.1005 1.28 34.5 2.63132 38.4128 5.36932C42.2851 8.07899 44.7561 12.178 44.7561 17.88H46.7561ZM23.2761 -0.720004C17.687 -0.720004 12.0125 0.378025 7.61209 3.23091C3.16185 6.11612 0.0950747 10.7487 -0.282385 17.5849L1.71457 17.6951C2.05711 11.4913 4.79034 7.44388 8.70009 4.90908C12.6597 2.34197 17.9052 1.28 23.2761 1.28V-0.720004ZM0.716094 18.64H12.7161V16.64H0.716094V18.64ZM52.9805 51.16C52.9805 53.5957 53.9155 55.4937 55.3707 56.7714C56.8065 58.0322 58.6907 58.64 60.5405 58.64C62.3903 58.64 64.2744 58.0322 65.7103 56.7714C67.1654 55.4937 68.1005 53.5957 68.1005 51.16H66.1005C66.1005 53.0443 65.3955 54.3863 64.3907 55.2686C63.3665 56.1678 61.9707 56.64 60.5405 56.64C59.1102 56.64 57.7144 56.1678 56.6903 55.2686C55.6854 54.3863 54.9805 53.0443 54.9805 51.16H52.9805ZM68.1005 51.16C68.1005 48.7243 67.1654 46.8263 65.7103 45.5486C64.2744 44.2878 62.3903 43.68 60.5405 43.68C58.6907 43.68 56.8065 44.2878 55.3707 45.5486C53.9155 46.8263 52.9805 48.7243 52.9805 51.16H54.9805C54.9805 49.2757 55.6854 47.9337 56.6903 47.0514C57.7144 46.1522 59.1102 45.68 60.5405 45.68C61.9707 45.68 63.3665 46.1522 64.3907 47.0514C65.3955 47.9337 66.1005 49.2757 66.1005 51.16H68.1005Z" fill="#0F4BA6"/>
</svg>
