<svg width="224" height="8" viewBox="0 0 224 8" fill="none" xmlns="http://www.w3.org/2000/svg">
<path d="M148.248 0.255404C148.305 0.425673 148.049 0.482429 147.241 0.45405C146.645 0.439861 146.077 0.397301 145.992 0.383111C145.609 0.312166 144.545 0.439864 144.502 0.567566C144.474 0.638511 144.147 0.638519 143.778 0.553384C143.41 0.46825 143.041 0.43987 142.984 0.496627C142.913 0.553383 142.87 0.525004 142.87 0.439869C142.87 0.198655 140.884 0.269594 140.657 0.510808C140.373 0.822968 139.99 0.808784 139.99 0.482435C139.99 0.283787 139.82 0.241216 139.309 0.312162C138.926 0.368918 138.5 0.482431 138.344 0.567566C138.06 0.737835 135.719 0.61014 135.435 0.397304C135.095 0.156089 134.854 0.198653 134.854 0.482435C134.854 0.723649 134.797 0.723643 134.428 0.45405C134.102 0.212836 133.917 0.184463 133.648 0.326354C133.449 0.425677 133.193 0.439862 133.08 0.354727C132.952 0.269593 132.796 0.241224 132.725 0.29798C132.654 0.354737 131.987 0.425672 131.264 0.45405C130.526 0.482429 129.831 0.567573 129.717 0.652708C129.589 0.737842 129.476 0.709463 129.447 0.59595C129.405 0.454059 129.306 0.439864 129.107 0.567566C128.951 0.666889 128.241 0.709459 127.518 0.681081C126.737 0.638514 126.212 0.695273 126.212 0.794596C126.212 0.89392 126.028 0.936484 125.801 0.879727C125.574 0.83716 125.347 0.865543 125.304 0.950677C125.191 1.1777 124.481 1.16351 124.368 0.936485C124.311 0.837161 124.127 0.822969 123.899 0.922293C123.687 1.02162 122.835 1.07838 121.998 1.05C120.877 1.02162 120.494 1.07837 120.551 1.23445C120.593 1.37635 120.508 1.41892 120.295 1.36216C120.111 1.30541 119.955 1.19189 119.955 1.09257C119.955 1.00743 119.714 1.04999 119.43 1.22026C118.962 1.47567 118.848 1.47567 118.309 1.23445C117.954 1.06419 117.67 1.02162 117.628 1.13513C117.571 1.23446 116.918 1.27702 116.11 1.22026C115.329 1.1777 114.648 1.20608 114.591 1.3054C114.549 1.40473 114.308 1.40472 114.038 1.31959C113.726 1.22026 113.499 1.24864 113.371 1.37634C113.215 1.53242 113.158 1.53243 113.102 1.36216C113.045 1.20608 112.917 1.19189 112.577 1.33378C112.321 1.4331 111.91 1.47567 111.626 1.4331C111.356 1.39053 111.101 1.41891 111.044 1.51823C111.002 1.60337 110.718 1.68851 110.434 1.68851C110.023 1.68851 109.966 1.64594 110.164 1.48986C110.363 1.31959 110.335 1.31959 110.079 1.4331C109.909 1.50405 109.214 1.58918 108.561 1.60337C107.908 1.61756 107.227 1.70269 107.071 1.77364C106.901 1.85877 106.688 1.81621 106.546 1.68851C106.362 1.51824 106.262 1.50404 106.092 1.67431C105.95 1.8162 105.737 1.83039 105.482 1.73107C105.269 1.64594 104.233 1.54661 103.169 1.53242C102.119 1.50405 101.197 1.44729 101.14 1.40473C101.083 1.36216 100.998 1.43311 100.97 1.56081C100.913 1.74527 100.757 1.74526 100.232 1.58918C99.8631 1.47567 99.5652 1.43311 99.5652 1.50405C99.5652 1.575 98.6429 1.63175 97.5219 1.66013C96.3868 1.68851 95.1807 1.71689 94.826 1.71689C94.4712 1.73108 93.8612 1.67432 93.4639 1.61757C92.4564 1.4473 90.5692 1.40473 90.5692 1.56081C90.5692 1.73108 88.6963 1.63175 88.5402 1.46149C88.4834 1.39054 88.3557 1.47567 88.2564 1.63175C88.1003 1.87296 87.9727 1.88715 87.4335 1.73107C86.5821 1.47567 85.7024 1.41892 85.4612 1.60337C85.3476 1.68851 85.1632 1.64594 85.0355 1.53242C84.8652 1.37634 84.7233 1.37634 84.4679 1.53242C84.2693 1.64594 84.0706 1.67432 84.0138 1.58918C83.8719 1.36216 80.3956 1.36216 80.2679 1.58918C80.2111 1.68851 79.9842 1.7027 79.7146 1.61757C79.4592 1.53243 79.1896 1.48986 79.0902 1.53242C79.0051 1.5608 78.253 1.60338 77.4301 1.61757C76.3659 1.63176 75.8976 1.575 75.8409 1.40473C75.7841 1.24865 75.6848 1.23446 75.5004 1.34797C75.3585 1.4331 74.7909 1.53243 74.2801 1.54662C73.7551 1.56081 72.6767 1.58919 71.8821 1.61757C71.0876 1.64594 70.2645 1.58918 70.0659 1.51823C69.8247 1.41891 69.7254 1.4331 69.7964 1.54662C69.8531 1.64594 69.8247 1.73107 69.7254 1.73107C69.6402 1.73107 69.5551 1.63175 69.5551 1.50405C69.5551 1.34797 69.5126 1.36216 69.4132 1.53242C69.2997 1.74526 69.1578 1.75945 68.6612 1.58918C68.2497 1.44729 67.966 1.43311 67.7531 1.56081C67.5687 1.67432 67.0863 1.68851 66.4194 1.58918C65.8518 1.50405 65.4261 1.50404 65.4686 1.57499C65.5112 1.66012 65.4119 1.73107 65.2274 1.73107C65.043 1.73107 64.8302 1.58919 64.7166 1.40473C64.5606 1.13513 64.5464 1.16351 64.6457 1.54662C64.7309 1.91553 64.7167 1.97229 64.5606 1.78783C64.4187 1.61756 64.2767 1.61756 64.0639 1.74526C63.8511 1.87296 63.766 1.87297 63.766 1.71689C63.766 1.58919 63.6524 1.54662 63.5105 1.61757C63.3686 1.67432 63.1558 1.64594 63.0423 1.53242C62.9004 1.40472 62.8011 1.40472 62.7301 1.53242C62.6024 1.75945 62.0491 1.80202 61.9782 1.58918C61.9498 1.50405 61.4389 1.47567 60.843 1.53242C60.247 1.58918 59.7646 1.5608 59.7646 1.47567C59.7646 1.37634 59.6795 1.39054 59.5518 1.50405C59.4241 1.63175 58.9416 1.67432 58.3031 1.60337C57.7356 1.54662 57.1539 1.51823 57.0262 1.51823C56.8843 1.53242 56.5579 1.53242 56.2599 1.53242C55.9761 1.53242 55.7349 1.60337 55.7349 1.68851C55.7349 1.87296 55.4511 1.85878 55.1673 1.66013C55.068 1.58919 54.8126 1.57499 54.5998 1.64594C54.3869 1.71689 53.5924 1.74526 52.8545 1.7027C52.1025 1.67432 51.0808 1.63176 50.57 1.61757C50.0592 1.60338 49.6478 1.54662 49.6478 1.48986C49.6478 1.4331 49.5484 1.37634 49.4207 1.37634C49.293 1.37634 49.2363 1.48986 49.2789 1.61757C49.364 1.88716 49.137 1.97229 48.9525 1.75945C48.7965 1.58919 45.9728 1.5608 46.0579 1.74526C46.1005 1.8304 45.9302 1.83039 45.6748 1.77364C45.4194 1.70269 45.1073 1.67431 44.9654 1.67431C43.8019 1.77364 43.4045 1.8304 43.2343 1.94391C43.1208 2.02904 42.8086 2.02904 42.5106 1.94391C41.787 1.74526 37.7573 1.74526 37.8708 1.94391C37.9134 2.02904 37.7005 2.05742 37.3741 2.00067C37.0478 1.94391 36.7499 1.97229 36.7073 2.05742C36.6647 2.14256 36.3525 2.22769 36.0262 2.22769C35.1748 2.22769 31.6985 2.41215 30.9323 2.51147C30.5776 2.55404 29.6694 2.63917 28.9174 2.69593C28.1654 2.75269 27.2998 2.83782 26.9877 2.89458C25.7532 3.09322 25.1005 3.17836 24.0505 3.27769C23.4404 3.33444 22.7735 3.44796 22.5891 3.53309C22.4046 3.61823 21.7519 3.66079 21.1418 3.61822C20.5316 3.58984 19.9073 3.63241 19.7513 3.73174C19.4675 3.9162 19.1553 3.94457 14.3026 4.27092C12.756 4.37024 11.1952 4.49795 10.8404 4.55471C10.4857 4.61146 9.2229 4.69659 8.03101 4.76753C6.83913 4.82429 5.80331 4.952 5.71818 5.03713C5.63304 5.12227 5.2783 5.15065 4.90939 5.10808C4.29925 5.02295 2.12832 5.23578 1.3621 5.46281C1.17764 5.51956 0.808774 5.56213 0.524991 5.56213C0.21283 5.56213 0 5.67564 0 5.80334C0 5.97361 0.439829 6.05874 1.56077 6.08712C2.41212 6.1155 3.51883 6.17226 4.00126 6.2432C4.48369 6.29996 5.17898 6.32834 5.53371 6.31415C6.79655 6.24321 6.98103 6.25739 7.86075 6.38509C8.34318 6.45604 10.0742 6.55536 11.7202 6.59793C13.3661 6.6405 15.0121 6.75401 15.4094 6.82496C16.0053 6.93847 27.7539 6.98104 30.1093 6.88172C31.1593 6.83915 32.3228 7.0378 32.4647 7.27901C32.564 7.44928 32.6066 7.46347 32.6066 7.2932C32.6066 7.13712 32.8903 7.08036 33.5289 7.12293C34.0397 7.15131 34.7918 7.10874 35.189 7.0378C35.6005 6.96685 36.1823 6.96684 36.5086 7.05198C36.8492 7.13711 37.0478 7.13712 36.991 7.0378C36.9343 6.93847 37.0336 6.86753 37.2181 6.86753C37.4025 6.86753 37.587 6.93847 37.6437 7.0378C37.7005 7.15131 37.8708 7.15131 38.0978 7.02361C38.3532 6.8959 38.5945 6.8959 38.935 7.05198C39.4174 7.279 39.6586 7.27901 40.5951 7.10874C40.9782 7.03779 41.0917 7.08036 41.0066 7.23644C40.9214 7.39252 40.9782 7.40671 41.191 7.27901C41.6309 7.02361 44.5113 7.10874 44.5823 7.39253C44.6106 7.52023 44.7099 7.5486 44.8092 7.47766C45.0788 7.2932 46.9235 7.27901 47.2356 7.46346C47.4343 7.57698 47.5761 7.56279 47.6471 7.43509C47.7038 7.32158 48.0019 7.25063 48.3282 7.26482C48.6546 7.27901 48.9951 7.22225 49.0944 7.1513C49.2079 7.08036 49.364 7.12293 49.4349 7.26482C49.5342 7.43509 49.5769 7.44928 49.5769 7.2932C49.5769 7.12293 49.6903 7.10874 49.9599 7.23644C50.5133 7.47766 51.8187 7.43509 51.8187 7.17969C51.8187 7.05198 51.8755 7.06617 51.9606 7.22225C52.0599 7.40671 52.2727 7.44927 52.6842 7.34995C53.0531 7.26481 53.3795 7.30738 53.6065 7.46346C53.8761 7.64792 53.9612 7.66211 54.018 7.47766C54.1315 7.12293 54.6991 7.20806 54.7133 7.57698C54.7133 7.74725 54.77 7.81819 54.8268 7.71887C55.0254 7.4209 56.345 7.36415 56.5153 7.64793C56.6288 7.83239 56.643 7.81819 56.5862 7.57698C56.4869 7.22225 56.8701 7.12292 57.2673 7.40671C57.3951 7.50603 57.6504 7.49185 57.8633 7.37833C58.1329 7.23644 58.3032 7.25063 58.516 7.43509C58.7005 7.60536 58.7572 7.60536 58.6721 7.46346C58.5302 7.22225 58.8423 7.16549 59.2822 7.34995C59.495 7.43508 59.5092 7.50603 59.3389 7.61954C59.1544 7.76144 59.1544 7.77563 59.3389 7.77563C59.4666 7.77563 59.6511 7.66211 59.793 7.50603C59.9207 7.34995 60.318 7.23644 60.6727 7.23644C61.2119 7.23644 61.3112 7.2932 61.2261 7.53441C61.1409 7.77563 61.1694 7.78981 61.3538 7.61954C61.4815 7.50603 61.8078 7.4209 62.12 7.4209C62.418 7.43509 63.0423 7.39252 63.4964 7.33577C64.1775 7.25063 64.3619 7.29319 64.4896 7.5486C64.6315 7.84657 64.6598 7.84657 64.745 7.56279C64.8301 7.29319 65.0856 7.26482 66.6038 7.32158C67.5687 7.34995 68.3206 7.32158 68.2923 7.23644C68.2497 7.1655 68.4342 7.10874 68.6896 7.10874C68.9734 7.12293 69.1436 7.20807 69.101 7.33577C69.0585 7.47766 69.172 7.46346 69.4558 7.30738C69.8956 7.05198 70.7328 7.05198 71.0876 7.30738C71.2294 7.40671 71.2578 7.37833 71.1869 7.23644C71.1159 7.09455 71.2152 7.02361 71.4848 7.02361C71.7118 7.02361 71.8963 7.12292 71.8963 7.25063C71.8963 7.42089 71.9389 7.42089 72.095 7.25063C72.3362 6.96684 73.1166 6.95266 73.2727 7.23644C73.3436 7.37833 73.4287 7.34995 73.528 7.1513C73.6416 6.92428 73.9679 6.85333 75.0747 6.85333C75.8551 6.85333 76.6639 6.85334 76.8767 6.86753C77.4301 6.8959 77.6713 6.88172 78.2389 6.78239C78.4943 6.73983 78.7923 6.78239 78.9058 6.86753C79.0335 6.98104 79.1186 6.95266 79.1754 6.78239C79.2747 6.45604 79.7287 6.49861 79.9274 6.85333C80.0409 7.05198 80.1119 7.05198 80.3247 6.79658C80.5943 6.48442 81.3038 6.35672 81.1477 6.65469C81.0909 6.7682 81.247 6.7682 81.5591 6.65469C81.8287 6.55536 82.1551 6.54118 82.2402 6.62631C82.3821 6.75401 83.3753 6.78239 83.3753 6.66888C83.3753 6.52699 86.497 6.58375 86.7807 6.72564C87.022 6.83915 87.2064 6.82496 87.3909 6.65469C87.6037 6.45604 87.703 6.47022 87.9443 6.73982C88.1145 6.92428 88.2706 6.98104 88.299 6.88172C88.3841 6.59794 89.1646 6.51279 89.122 6.79658C89.0794 7.08036 89.349 7.12293 89.4199 6.85333C89.4483 6.75401 89.6895 6.65468 89.9449 6.64049C90.5692 6.61212 93.4639 6.86752 93.549 6.96685C93.5774 7.00942 93.7051 6.95266 93.8044 6.85333C93.9463 6.72563 94.1449 6.72563 94.4429 6.86753C94.8118 7.0236 94.9253 7.00941 95.0956 6.73982C95.2516 6.4986 95.3368 6.47023 95.4361 6.64049C95.5354 6.81076 96.1597 6.85333 97.9192 6.79658C99.2246 6.75401 100.346 6.66887 100.445 6.59793C100.53 6.54117 100.7 6.55537 100.814 6.62631C101.012 6.7682 103.198 6.73983 103.325 6.58375C103.368 6.52699 103.496 6.58374 103.609 6.71144C103.765 6.86752 103.822 6.85333 103.822 6.69725C103.822 6.55536 103.893 6.52699 104.021 6.62631C104.29 6.81077 105.723 6.83915 106.262 6.66888C106.518 6.58374 106.674 6.59793 106.617 6.69725C106.56 6.79658 106.646 6.86753 106.773 6.86753C106.901 6.86753 107.029 6.7682 107.029 6.65469C107.029 6.5128 107.1 6.5128 107.27 6.68307C107.469 6.88172 107.554 6.88172 107.752 6.68307C107.923 6.5128 107.994 6.5128 107.994 6.66888C107.994 6.82496 108.079 6.82495 108.306 6.69725C108.746 6.42766 110.406 6.55537 110.576 6.88172C110.675 7.05199 110.718 7.06617 110.732 6.91009C110.732 6.75401 111.002 6.68306 111.541 6.69725C111.981 6.71144 112.421 6.6405 112.534 6.52699C112.775 6.29996 113.357 6.3709 113.428 6.64049C113.471 6.7682 113.57 6.7682 113.769 6.62631C113.996 6.47023 114.18 6.49861 114.563 6.71144C115.017 6.98104 115.074 6.98104 115.074 6.71144C115.074 6.48442 115.116 6.47023 115.287 6.62631C115.514 6.83915 121.956 7.0378 122.069 6.82496C122.183 6.61212 123.091 6.68306 123.091 6.91009C123.091 7.0236 123.162 6.99522 123.247 6.83914C123.332 6.68306 123.403 6.64049 123.403 6.73982C123.403 6.83914 123.573 6.92428 123.814 6.92428C124.041 6.92428 124.226 6.88171 124.226 6.83914C124.226 6.79657 124.694 6.75401 125.262 6.75401C125.829 6.75401 126.297 6.68307 126.297 6.61212C126.297 6.52699 126.411 6.47023 126.539 6.47023C126.681 6.47023 126.78 6.56956 126.78 6.68307C126.78 6.82496 126.851 6.82496 127.021 6.65469C127.376 6.31415 128.412 6.39929 128.653 6.78239C128.766 6.95266 128.852 6.99523 128.852 6.86753C128.852 6.73982 129.05 6.6405 129.291 6.62631C131.008 6.59793 131.533 6.54117 131.477 6.44185C131.363 6.22901 132.072 6.05874 132.271 6.2432C132.583 6.54117 139.806 6.61212 140.132 6.31415C140.245 6.21483 140.472 6.20063 140.657 6.28577C141.083 6.48441 141.253 6.48442 141.154 6.29996C141.111 6.21482 141.324 6.12969 141.636 6.12969C142.161 6.1155 142.189 6.14388 142.09 6.5128C141.991 6.88171 142.005 6.88172 142.204 6.58375C142.487 6.15807 143.551 6.14388 143.807 6.55536C143.892 6.68306 143.935 6.68306 143.935 6.54117C143.935 6.41347 144.247 6.32834 144.701 6.34252C145.126 6.34252 145.595 6.28577 145.751 6.21483C145.907 6.14388 146.233 6.12969 146.474 6.21483C147.099 6.41348 147.638 6.42766 147.638 6.25739C147.638 6.18645 148.092 6.1155 148.645 6.1155C149.199 6.1155 149.738 6.01618 149.837 5.90267C149.979 5.74659 150.22 5.74659 150.788 5.91686C151.327 6.07294 151.568 6.07293 151.611 5.94523C151.639 5.84591 151.739 5.74659 151.824 5.74659C151.909 5.74659 151.937 5.83172 151.866 5.95942C151.795 6.10132 151.98 6.14388 152.462 6.07294C152.86 6.01618 153.555 6.03037 154.051 6.10131C154.562 6.17226 155.428 6.11551 156.109 5.97362C156.762 5.83173 157.414 5.77496 157.556 5.84591C157.698 5.90267 158.209 5.9878 158.705 6.03036C159.188 6.07293 159.897 6.12969 160.28 6.18644C160.706 6.22901 161.047 6.17226 161.189 6.01618C161.316 5.87429 161.557 5.81754 161.785 5.87429C161.997 5.93105 162.792 6.00199 163.572 6.03036C164.353 6.05874 165.02 6.12969 165.076 6.18644C165.133 6.2432 165.261 6.15807 165.36 6.00199C165.573 5.67564 166.169 5.80334 165.999 6.14388C165.942 6.25739 166.112 6.21482 166.382 6.04456C166.751 5.83172 166.978 5.80334 167.29 5.93104C167.801 6.15807 171.603 6.04455 172.327 5.77496C172.611 5.67564 172.88 5.66145 172.937 5.74659C172.98 5.83172 173.278 5.81754 173.604 5.71821C173.93 5.61889 174.555 5.59051 175.009 5.66145C176.215 5.8601 179.947 5.87429 180.301 5.68983C180.457 5.60469 180.713 5.59051 180.855 5.66145C181.224 5.8601 181.493 5.8601 182.316 5.68983C183.281 5.49118 185.197 5.39186 185.282 5.53375C185.324 5.60469 185.764 5.64727 186.289 5.61889C187.141 5.59051 192.376 5.54793 192.93 5.57631C193.072 5.57631 194.249 5.53375 195.583 5.46281C196.917 5.39186 198.066 5.34929 198.165 5.34929C199.23 5.39186 200.336 5.36348 200.663 5.27834C200.876 5.22159 202.436 5.13645 204.097 5.0797C209.049 4.92362 212.567 4.78173 213.249 4.6966C213.603 4.65403 214.568 4.58309 215.405 4.55471C216.242 4.51214 217.193 4.427 217.519 4.35605C217.888 4.27092 218.243 4.31349 218.47 4.45538C218.825 4.66822 219.407 4.55471 220.528 4.0439C220.811 3.9162 220.939 3.94457 221.053 4.1574C221.166 4.39862 221.365 4.427 222.032 4.32768C222.486 4.25673 222.94 4.11484 223.025 4.01551C223.124 3.88781 223.039 3.87362 222.741 3.95876C222.486 4.0297 222.301 4.00133 222.301 3.88782C222.301 3.77431 222.017 3.68917 221.663 3.68917C221.308 3.68917 220.996 3.61823 220.939 3.53309C220.896 3.44796 220.471 3.44796 220.017 3.53309C219.549 3.61823 218.924 3.60403 218.612 3.5189C218.3 3.43376 217.761 3.34863 217.406 3.34863C214.27 3.32025 210.524 3.14998 209.971 3.00809C209.517 2.88039 209.091 2.89458 208.651 3.03648C208.14 3.19256 207.928 3.17836 207.658 2.9939C207.474 2.85201 206.991 2.72431 206.58 2.69593C206.182 2.66755 205.388 2.58242 204.849 2.52567C204.309 2.45472 202.791 2.36959 201.472 2.32702C200.152 2.28445 198.62 2.15674 198.052 2.04323C197.484 1.92972 196.874 1.87296 196.69 1.92972C196.505 1.98647 195.526 1.94391 194.505 1.83039C193.497 1.73107 191.681 1.60338 190.489 1.56081C189.297 1.51824 187.708 1.44729 186.956 1.37634C185.565 1.26283 184.416 1.24864 180.883 1.27702C179.791 1.29121 178.783 1.22027 178.641 1.14932C178.315 0.964865 177.024 1.00743 176.626 1.20608C176.456 1.29122 176.045 1.24864 175.662 1.12094C175.023 0.893914 172.029 0.737838 172.029 0.936485C172.029 1.12094 169.659 0.964867 169.319 0.752031C169.134 0.638518 168.978 0.62432 168.978 0.709454C168.978 0.808778 168.695 0.822973 168.34 0.737839C167.928 0.652704 167.744 0.666895 167.801 0.794596C167.857 0.89392 167.815 0.9223 167.716 0.851354C167.616 0.780409 166.467 0.681083 165.162 0.638516C163.856 0.595948 162.508 0.553381 162.139 0.539192C161.77 0.525003 161.401 0.567567 161.316 0.624323C161.217 0.695269 160.947 0.681085 160.692 0.59595C160.437 0.525005 159.472 0.468249 158.564 0.496627C157.641 0.510816 156.719 0.454054 156.506 0.368919C156.265 0.255407 156.151 0.269599 156.222 0.383111C156.279 0.482435 155.981 0.525002 155.47 0.482435C153.824 0.340544 152.817 0.326349 152.647 0.45405C152.533 0.524996 152.462 0.496624 152.462 0.383111C152.462 0.269599 152.363 0.21284 152.235 0.269596C152.108 0.326353 151.923 0.269601 151.824 0.1419C151.682 -0.0283695 151.597 -0.0141852 151.497 0.170273C151.412 0.326353 151.285 0.36892 151.143 0.269596C150.916 0.113516 149.241 0.0425772 149.241 0.198657C149.241 0.255414 149.071 0.326357 148.844 0.340546C148.617 0.354735 148.433 0.297978 148.433 0.184465C148.433 0.0851415 148.362 0 148.277 0C148.234 0.0141891 148.206 0.127702 148.248 0.255404Z" fill="#0F4BA6"/>
</svg>
