<svg width="100" height="31" viewBox="0 0 100 31" fill="none" xmlns="http://www.w3.org/2000/svg">
<g clip-path="url(#clip0_292_15489)">
<path d="M31.1326 4.81202C30.7327 8.73583 29.7341 12.5752 28.1715 16.1966C26.2651 20.7254 23.262 24.7087 19.4326 27.7876L16.5129 30.05L13.605 27.7876C9.06084 24.2553 5.47612 18.8329 3.48705 12.5247C2.70513 10.0137 2.17598 7.43079 1.90747 4.81456C4.74443 2.99708 7.89584 1.72537 11.1997 1.06482C11.2336 3.98491 11.6933 6.88443 12.5643 9.67179C12.6117 9.85116 12.6735 10.0441 12.7336 10.231C12.7809 10.3402 12.8182 10.4603 12.8537 10.5695C12.9383 10.7962 13.0102 11.0111 13.094 11.2294C13.1413 11.347 13.1887 11.4561 13.2251 11.5619C13.3681 11.9088 13.5052 12.2582 13.6667 12.5941C13.7251 12.7371 13.7979 12.8741 13.8571 13.0247C13.8825 13.0721 13.907 13.1195 13.9299 13.1677C13.9916 13.3107 14.061 13.4478 14.1338 13.5907C14.8001 14.9238 15.5982 16.1868 16.5163 17.3608C19.771 13.2532 21.7229 7.37728 21.8295 1.06566C25.1385 1.72555 28.295 2.99847 31.136 4.81879L31.1326 4.81202Z" fill="#1A488E"/>
<path d="M31.1321 4.80848C30.7348 8.7336 29.7361 12.5742 28.1709 16.1956C26.264 20.7187 23.2641 24.6977 19.4405 27.7756L16.5208 30.0465V17.3505C19.7755 13.2429 21.7358 7.36697 21.834 1.06128C25.1403 1.71825 28.2941 2.98928 31.1321 4.80848Z" fill="#092147"/>
<path d="M68.3282 21.3754C67.345 21.3987 66.3715 21.1766 65.4957 20.7291C64.7184 20.3207 64.073 19.7002 63.6343 18.9396C63.189 18.1583 62.9611 17.2719 62.9744 16.3727V9.91809H65.4914V16.3481C65.4804 16.8743 65.6129 17.3934 65.8747 17.8499C66.1219 18.2729 66.4785 18.6216 66.9069 18.8593C67.3409 19.0977 67.828 19.2226 68.3232 19.2226C68.8183 19.2226 69.3055 19.0977 69.7395 18.8593C70.1679 18.6216 70.5244 18.2729 70.7716 17.8499C71.0334 17.3934 71.1659 16.8743 71.1549 16.3481V9.91809H73.6719V16.3735C73.6852 17.2742 73.4533 18.1615 73.001 18.9405C72.5586 19.6981 71.9141 20.3176 71.1397 20.7299C70.2712 21.1766 69.3046 21.3985 68.3282 21.3754Z" fill="#092147"/>
<path d="M97.484 12.6308C97.0453 11.7997 96.3826 11.108 95.5711 10.6341C95.4235 10.5466 95.2713 10.4672 95.115 10.3963C94.3945 10.0724 93.6121 9.90928 92.8222 9.91833H86.9583V21.3841H92.8307C93.7918 21.3929 94.7378 21.1449 95.5711 20.6658C96.3463 20.2187 96.9853 19.5692 97.4197 18.7867C97.4433 18.7488 97.4648 18.7095 97.484 18.6691C97.9625 17.7339 98.1997 16.6939 98.1744 15.6436C98.2007 14.5973 97.9633 13.5612 97.484 12.6308ZM95.4873 17.1615C95.4882 17.1679 95.4882 17.1745 95.4873 17.1809C95.2339 17.6304 94.865 18.004 94.4187 18.263C93.9307 18.5447 93.3746 18.687 92.8112 18.6742H89.5336V12.6173H92.796C93.3593 12.6052 93.9152 12.7474 94.4035 13.0284C94.8493 13.2892 95.218 13.6635 95.4721 14.1131C95.473 14.1195 95.473 14.1261 95.4721 14.1326C95.7272 14.5965 95.861 15.1175 95.861 15.647C95.861 16.1765 95.7272 16.6975 95.4721 17.1615H95.4873Z" fill="#092147"/>
<path d="M84.7784 18.7924V21.3763H80.6903C79.6 21.3763 78.5544 20.9432 77.7834 20.1722C77.0125 19.4012 76.5793 18.3556 76.5793 17.2653V9.91895H79.1632V17.2653C79.1631 17.6637 79.3191 18.0462 79.5978 18.3309C79.8765 18.6156 80.2556 18.7798 80.6539 18.7882C80.6801 18.7896 80.7064 18.7896 80.7326 18.7882L84.7784 18.7924Z" fill="#092147"/>
<path d="M43.2594 21.3759L42.4929 20.7744C39.5317 18.4731 37.7668 14.4069 37.7668 9.90418H40.2838C40.2017 12.9091 41.2645 15.833 43.2569 18.0839C44.3569 16.91 45.168 15.4957 45.6258 13.9534C46.0358 12.6389 46.2415 11.2693 46.2358 9.89233H48.7528C48.7582 11.5251 48.5139 13.1491 48.0286 14.7081C47.3337 17.0821 45.9401 19.1918 44.0293 20.7625L43.2594 21.3759Z" fill="#092147"/>
<path d="M60.1124 16.4849C59.4074 14.0727 57.9922 11.9287 56.0514 10.3323L55.2688 9.72229L54.4777 10.3323C51.4742 12.6733 49.6848 16.7979 49.6848 21.3759H52.2467C52.2453 20.6776 52.2968 19.9801 52.4006 19.2895H58.1589C58.258 19.9806 58.3074 20.6778 58.3069 21.3759H60.8713C60.8711 19.7178 60.6169 18.0694 60.1175 16.4882L60.1124 16.4849ZM52.9337 17.0441C53.4004 15.5592 54.1979 14.1996 55.2662 13.0676C56.3311 14.2016 57.1271 15.5607 57.5954 17.0441H52.9337Z" fill="#092147"/>
</g>
<defs>
<clipPath id="clip0_292_15489">
<rect width="98.1421" height="30.4582" fill="white" transform="translate(0.993408 0.195801)"/>
</clipPath>
</defs>
</svg>
